<?xml version="1.0" encoding="UTF-8"?>
<svg width="71px" height="70px" viewBox="0 0 71 70" version="1.1" xmlns="http://www.w3.org/2000/svg" xmlns:xlink="http://www.w3.org/1999/xlink">
    <!-- Generator: sketchtool 51.3 (57544) - http://www.bohemiancoding.com/sketch -->
    <g id="3.-Units" stroke="none" stroke-width="1" fill="none" fill-rule="evenodd">
        <g id="Units---Completed-Unit-Expanded-[Tablet]" transform="translate(-571.000000, -1125.000000)">
            <g id="Group">
                <g id="Unit-2-Copy-2" transform="translate(50.000000, 728.000000)">
                    <g id="Row-2" transform="translate(48.000000, 397.000000)">
                        <g id="SU-11" transform="translate(473.400000, 0.000000)">
                            <g id="Book-stack-icon">
                                <circle id="Oval-Copy-2" fill="#D8D8D8" cx="35" cy="35" r="35"></circle>
                                <g id="book5" transform="translate(14.000000, 17.000000)" fill="#69675B" fill-rule="nonzero">
                                    <path d="M37.8736082,3.5 L40.2680412,3.5 C41.2245756,3.5 42,2.71649831 42,1.75 C42,0.783501688 41.2245756,-1.23367299e-15 40.2680412,-1.23367299e-15 L7.36082474,-1.23367299e-15 C4.47155032,-0.013570122 1.88009613,1.79383793 0.868135754,4.52832176 C-0.143824622,7.26280559 0.638193786,10.3447914 2.82742268,12.25 C1.30726739,13.5616538 0.431846873,15.4801728 0.431846873,17.5 C0.431846873,19.5198272 1.30726739,21.4383462 2.82742268,22.75 C0.638193786,24.6552086 -0.143824622,27.7371944 0.868135754,30.4716782 C1.88009613,33.2061621 4.47155032,35.0135701 7.36082474,35 L40.2680412,35 C41.2245756,35 42,34.2164983 42,33.25 C42,32.2835017 41.2245756,31.5 40.2680412,31.5 L37.8736082,31.5 L37.3973196,30.533125 C36.6063868,28.9389235 36.6063868,27.0610765 37.3973196,25.466875 L37.8736082,24.5 L40.2680412,24.5 C41.2245756,24.5 42,23.7164983 42,22.75 C42,21.7835017 41.2245756,21 40.2680412,21 L37.8736082,21 L37.3973196,20.033125 C36.6063868,18.4389235 36.6063868,16.5610765 37.3973196,14.966875 L37.8736082,14 L40.2680412,14 C41.2245756,14 42,13.2164983 42,12.25 C42,11.2835017 41.2245756,10.5 40.2680412,10.5 L37.8736082,10.5 L37.3973196,9.533125 C36.6063868,7.93892355 36.6063868,6.06107645 37.3973196,4.466875 L37.8736082,3.5 Z M3.89690722,17.5 C3.89690722,15.5670034 5.44775592,14 7.36082474,14 L12.556701,14 L12.556701,21 L7.36082474,21 C5.44775592,21 3.89690722,19.4329966 3.89690722,17.5 Z M7.36082474,31.5 C5.44775592,31.5 3.89690722,29.9329966 3.89690722,28 C3.89690722,26.0670034 5.44775592,24.5 7.36082474,24.5 L12.556701,24.5 L12.556701,26.25 C12.5562858,26.895709 12.9078076,27.489183 13.4712002,27.7939483 C14.0345928,28.0987136 14.7183011,28.0652437 15.2498969,27.706875 L19.4845361,24.854375 L23.7191753,27.706875 C24.2507711,28.0652437 24.9344794,28.0987136 25.497872,27.7939483 C26.0612646,27.489183 26.4127864,26.895709 26.4123711,26.25 L26.4123711,24.5 L34.0459794,24.5 C33.1051034,26.7364991 33.1051034,29.2635009 34.0459794,31.5 L7.36082474,31.5 Z M22.9484536,22.981875 L20.4457732,21.293125 C19.8637712,20.9007758 19.105301,20.9007758 18.523299,21.293125 L16.0206186,22.981875 L16.0206186,10.5 L22.9484536,10.5 L22.9484536,22.981875 Z M26.4123711,21 L26.4123711,14 L34.0459794,14 C33.1051034,16.2364991 33.1051034,18.7635009 34.0459794,21 L26.4123711,21 Z M26.4123711,10.5 L26.4123711,8.75 C26.4123711,7.78350169 25.6369468,7 24.6804124,7 L14.2886598,7 C13.3321254,7 12.556701,7.78350169 12.556701,8.75 L12.556701,10.5 L7.36082474,10.5 C5.44775592,10.5 3.89690722,8.93299662 3.89690722,7 C3.89690722,5.06700338 5.44775592,3.5 7.36082474,3.5 L34.0459794,3.5 C33.1051034,5.73649908 33.1051034,8.26350092 34.0459794,10.5 L26.4123711,10.5 Z" id="Shape"></path>
                                </g>
                            </g>
                        </g>
                    </g>
                </g>
            </g>
        </g>
    </g>
</svg>