<?xml version="1.0" encoding="UTF-8"?>
<svg width="70px" height="70px" viewBox="0 0 70 70" version="1.1" xmlns="http://www.w3.org/2000/svg" xmlns:xlink="http://www.w3.org/1999/xlink">
    <!-- Generator: sketchtool 51.2 (57519) - http://www.bohemiancoding.com/sketch -->
    <g id="Units---Wireframes-1:1" stroke="none" stroke-width="1" fill="none" fill-rule="evenodd">
        <g id="Units---Landing-[FW2COURSE002---Tablet]" transform="translate(-930.000000, -1961.000000)">
            <g id="Unit-2-Copy-3" transform="translate(50.000000, 1817.000000)">
                <g id="Lesson-Cards" transform="translate(30.000000, 133.000000)">
                    <g id="SU-8" transform="translate(840.000000, 0.000000)">
                        <g id="Card">
                            <g transform="translate(0.000000, 1.000000)" id="Book-icon">
                                <g transform="translate(10.000000, 10.000000)">
                                    <circle id="Oval-Copy-5" fill="#D8D8D8" cx="35" cy="35" r="35"></circle>
                                    <g id="book4" transform="translate(18.000000, 14.000000)" fill="#69675B" fill-rule="nonzero">
                                        <path d="M5.95,42 L32.3,42 C33.2388841,42 34,41.2164983 34,40.25 L34,1.75 C34,0.783501688 33.2388841,0 32.3,0 L6.8,0 C3.0444637,-1.94289029e-16 1.50990331e-15,3.13400675 7.54951657e-16,7 L7.54951657e-16,35 C0.0119095901,35.0988897 0.0303692493,35.1968261 0.05525,35.293125 C0.05525,35.485625 0,35.67375 0,35.875 C3.77475828e-15,39.2577441 2.66390574,42 5.95,42 Z M30.6,38.5 L5.95,38.5 C4.54167389,38.5 3.4,37.3247475 3.4,35.875 C3.4,34.4252525 4.54167389,33.25 5.95,33.25 L30.6,33.25 L30.6,38.5 Z M22.1,3.5 L22.1,15.981875 L19.6435,14.293125 C19.0722373,13.9007758 18.3277627,13.9007758 17.7565,14.293125 L15.3,15.981875 L15.3,3.5 L22.1,3.5 Z M6.8,3.5 L11.9,3.5 L11.9,19.25 C11.8995924,19.895709 12.2446278,20.489183 12.7976245,20.7939483 C13.3506211,21.0987136 14.0217134,21.0652437 14.5435,20.706875 L18.7,17.854375 L22.8565,20.706875 C23.1359846,20.8983415 23.4642828,21.0003367 23.8,21 C24.0799698,20.9993857 24.3556109,20.928824 24.60325,20.794375 C25.1560396,20.4892968 25.5007332,19.8956686 25.5,19.25 L25.5,3.5 L30.6,3.5 L30.6,29.75 L5.95,29.75 C5.0661759,29.7550841 4.19474037,29.9643995 3.4,30.3625 L3.4,7 C3.4,5.06700338 4.92223185,3.5 6.8,3.5 Z" id="Shape"></path>
                                    </g>
                                </g>
                            </g>
                        </g>
                    </g>
                </g>
            </g>
        </g>
    </g>
</svg>