<?xml version="1.0" encoding="UTF-8"?>
<svg width="30px" height="36px" viewBox="0 0 30 36" version="1.1" xmlns="http://www.w3.org/2000/svg" xmlns:xlink="http://www.w3.org/1999/xlink">
    <!-- Generator: sketchtool 51.3 (57544) - http://www.bohemiancoding.com/sketch -->
    <title>F35DE1B6-6306-459B-A807-84E691DF3DEE</title>
    <desc>Created with sketchtool.</desc>
    <defs></defs>
    <g id="11.-Assessments" stroke="none" stroke-width="1" fill="none" fill-rule="evenodd">
        <g id="Assessment---Drag-Drop-Sequential---Landing-[Mobile]" transform="translate(-109.000000, -960.000000)" fill="#BDBDBD" fill-rule="nonzero">
            <path d="M128.060527,963.439935 C127.631524,963.010478 126.985951,962.881925 126.425145,963.11428 C125.86434,963.346636 125.498883,963.894083 125.499361,964.501088 L125.499361,972.000408 L107.499951,972.000408 C106.671551,972.000408 106,972.67192 106,973.500272 L106,982.499455 C106,983.327807 106.671551,983.999319 107.499951,983.999319 L125.499361,983.999319 L125.499361,991.498638 C125.498727,992.105955 125.864414,992.653714 126.425581,992.886013 C126.986377,993.118029 127.631732,992.989261 128.060527,992.559792 L141.560084,979.061017 C141.841741,978.77969 142,978.397941 142,977.999863 C142,977.601786 141.841741,977.220037 141.560084,976.93871 L128.060527,963.439935 Z" id="Shape" transform="translate(124.000000, 978.000000) rotate(-270.000000) translate(-124.000000, -978.000000) "></path>
        </g>
    </g>
</svg>