<svg width="32" height="32" viewBox="0 0 32 32" xmlns="http://www.w3.org/2000/svg">
    <title>Download Icon</title>
    <g fill="#" fill-rule="nonzero">
        <path d="M1.455 20.364c-.803 0-1.455.651-1.455 1.455v4.364c0 3.213 2.605 5.818 5.818 5.818h20.364c3.213 0 5.818-2.605 5.818-5.818v-4.364c0-.803-.651-1.455-1.455-1.455-.803 0-1.455.651-1.455 1.455v4.364c0 1.607-1.302 2.909-2.909 2.909h-20.364c-1.607 0-2.909-1.302-2.909-2.909v-4.364c0-.803-.651-1.455-1.455-1.455zM16 0c-.803 0-1.455.651-1.455 1.455v18.182l-3.356-3.215c-.58-.556-1.502-.537-2.058.044-.556.58-.537 1.502.044 2.058l5.818 5.567c.563.54 1.452.54 2.015 0l5.818-5.567c.58-.556.6-1.478.044-2.058-.556-.58-1.478-.6-2.058-.044l-3.356 3.215v-18.182c0-.803-.651-1.455-1.455-1.455z"/>
    </g>
</svg>