<?xml version="1.0" encoding="UTF-8"?>
<svg width="71px" height="71px" viewBox="0 0 71 71" version="1.1" xmlns="http://www.w3.org/2000/svg" xmlns:xlink="http://www.w3.org/1999/xlink">
    <!-- Generator: sketchtool 51.3 (57544) - http://www.bohemiancoding.com/sketch -->
    <title>FF8E0EFE-DD8E-4692-B1DD-E60747139878</title>
    <desc>Created with sketchtool.</desc>
    <defs></defs>
    <g id="11.-Assessments" stroke="none" stroke-width="1" fill="none" fill-rule="evenodd" fill-opacity="0.5">
        <g id="Assessment---Drag-Drop-Sequential---Landing-[Tablet]" transform="translate(-497.000000, -660.000000)" fill="#EF9D19" fill-rule="nonzero">
            <g id="Lesson-Content-/-Tablet-/-Text---Container-Width" transform="translate(110.000000, 217.000000)">
                <g id="Answers-Copy" transform="translate(322.000000, 388.000000)">
                    <g id="Image-placeholder" transform="translate(65.000000, 55.000000)">
                        <path d="M11.8333333,71 L59.1666667,71 C65.7020362,71 71,65.7020362 71,59.1666667 L71,11.8333333 C71,5.29796379 65.7020362,-9.09166261e-13 59.1666667,-9.09494702e-13 L11.8333333,-9.09494702e-13 C5.29796379,-9.09823143e-13 6.56881956e-16,5.29796379 0,11.8333333 L0,59.1666667 C6.56881956e-16,65.7020362 5.29796379,71 11.8333333,71 Z M59.1666667,65.0833333 L11.8333333,65.0833333 C8.56564856,65.0833333 5.91666667,62.4343514 5.91666667,59.1666667 L5.91666667,51.519375 L20.7083333,36.7277083 L36.3653125,52.3846875 C36.9202019,52.9401946 37.6731643,53.2523272 38.4583333,53.2523272 C39.2435024,53.2523272 39.9964647,52.9401946 40.5513542,52.3846875 L50.2916667,42.644375 L65.0833333,57.4360417 L65.0833333,59.1666667 C65.0833333,62.4343514 62.4343514,65.0833333 59.1666667,65.0833333 Z M11.8333333,5.91666667 L59.1666667,5.91666667 C62.4343514,5.91666667 65.0833333,8.56564856 65.0833333,11.8333333 L65.0833333,49.0639583 L52.3846875,36.3653125 C51.8297981,35.8098054 51.0768357,35.4976728 50.2916667,35.4976728 C49.5064976,35.4976728 48.7535353,35.8098054 48.1986458,36.3653125 L38.4583333,46.105625 L22.8013542,30.4486458 C22.2464647,29.8931387 21.4935024,29.5810061 20.7083333,29.5810061 C19.9231643,29.5810061 19.1702019,29.8931387 18.6153125,30.4486458 L5.91666667,43.1472917 L5.91666667,11.8333333 C5.91666667,8.56564856 8.56564856,5.91666667 11.8333333,5.91666667 Z" id="Shape"></path>
                        <path d="M39.9375,32.5416667 C45.6559483,32.5416667 50.2916667,27.9059483 50.2916667,22.1875 C50.2916667,16.4690517 45.6559483,11.8333333 39.9375,11.8333333 C34.2190517,11.8333333 29.5833333,16.4690517 29.5833333,22.1875 C29.5833333,27.9059483 34.2190517,32.5416667 39.9375,32.5416667 Z M39.9375,17.75 C42.3882636,17.75 44.375,19.7367364 44.375,22.1875 C44.375,24.6382636 42.3882636,26.625 39.9375,26.625 C37.4867364,26.625 35.5,24.6382636 35.5,22.1875 C35.5,19.7367364 37.4867364,17.75 39.9375,17.75 Z" id="Shape"></path>
                    </g>
                </g>
            </g>
        </g>
    </g>
</svg>