<?xml version="1.0" encoding="UTF-8"?>
<svg width="40px" height="40px" viewBox="0 0 40 40" version="1.1" xmlns="http://www.w3.org/2000/svg" xmlns:xlink="http://www.w3.org/1999/xlink">
    <!-- Generator: sketchtool 51.3 (57544) - http://www.bohemiancoding.com/sketch -->
    <title>02DC78AA-4BDF-4253-BDA3-7ECEA4391B10</title>
    <desc>Created with sketchtool.</desc>
    <defs></defs>
    <g id="11.-Assessments" stroke="none" stroke-width="1" fill="none" fill-rule="evenodd">
        <g id="Assessment---Outcome-Review-(Fail)-[Tablet]" transform="translate(-140.000000, -1950.000000)">
            <g id="Lesson-Content-/-Tablet-/-Text---Container-Width-Copy-2" transform="translate(110.000000, 1549.000000)">
                <g id="Group-3" transform="translate(0.000000, 386.000000)">
                    <g id="Incorrect-Answer" transform="translate(30.000000, 15.000000)">
                        <circle id="Oval-Copy-4" fill="#D0021B" cx="20" cy="20" r="20"></circle>
                        <path d="M29.209736,13.8790036 L23.1023892,20 L29.209736,26.1209964 C30.2039552,27.2597865 30.2039552,28.3274021 29.1387203,29.252669 C28.0734854,30.2491103 27.0082505,30.2491103 26.0850469,29.252669 L19.9777002,23.1316726 L13.8703535,29.252669 C12.7341029,30.2491103 11.668868,30.2491103 10.7456644,29.252669 C9.82246085,28.2562278 9.75144519,27.2597865 10.7456644,26.1209964 L16.8530112,20 L10.7456644,13.8790036 C9.75144519,12.7402135 9.75144519,11.6725979 10.7456644,10.747331 C11.7398837,9.82206406 12.7341029,9.75088968 13.8703535,10.747331 L19.9777002,16.8683274 L26.0850469,10.747331 C27.0792662,9.75088968 28.0734854,9.75088968 29.1387203,10.747331 C30.2749709,11.6725979 30.2749709,12.7402135 29.209736,13.8790036 Z" id="Shape" fill="#FFFFFF" fill-rule="nonzero"></path>
                    </g>
                </g>
            </g>
        </g>
    </g>
</svg>