<svg width="73" height="73" viewBox="0 0 74 74" xmlns="http://www.w3.org/2000/svg">
    <title>Lesson Assessment Icon</title>
    <g transform="translate(2 2)" fill="none">
    <circle stroke="#61C436" stroke-width="3" fill="#D8D8D8" cx="35" cy="35" r="35"/>
    <path d="M17.586 52h34.828c.49.001.953-.225 1.253-.613.3-.387.405-.892.282-1.367l-4.749-19c-.181-.7-.813-1.189-1.536-1.187h-6.332v-11.083c0-2.623-2.126-4.75-4.749-4.75h-3.166c-2.623 0-4.749 2.127-4.749 4.75v11.083h-6.332c-.723-.001-1.355.487-1.536 1.187l-4.749 19c-.123.475-.018.979.282 1.367.3.387.763.614 1.253.613zm14.414-29h6.332v13.724l-3.166 4.22-3.166-4.22v-13.724zm1.583-6h3.166c.874 0 1.583.709 1.583 1.583v1.583h-6.332v-1.583c0-.874.709-1.583 1.583-1.583zm-9.625 16h5.098v4.75c0 .343.111.676.317.95l4.749 6.333c.299.399.768.633 1.266.633s.968-.235 1.266-.633l4.749-6.333c.206-.274.317-.607.317-.95v-4.75h5.098l3.958 15.833h-30.775l3.958-15.833z" fill="#69675B" fill-rule="nonzero"/>
    </g>
</svg>