<svg width="71" height="70" viewBox="0 0 71 70" xmlns="http://www.w3.org/2000/svg"><title>869D3937-CB00-4ADA-93C4-481A966BC34A</title><desc>Created with sketchtool.</desc><g transform="translate(.333 0)" fill="none"><circle fill="#D8D8D8" cx="35" cy="35" r="35"/><path d="M23.95 56h26.35c.939 0 1.7-.784 1.7-1.75v-38.5c0-.966-.761-1.75-1.7-1.75h-25.5c-3.756 0-6.8 3.134-6.8 7v28l.055.293-.055.582c0 3.383 2.664 6.125 5.95 6.125zm24.65-3.5h-24.65c-1.408 0-2.55-1.175-2.55-2.625s1.142-2.625 2.55-2.625h24.65v5.25zm-8.5-35v12.482l-2.457-1.689c-.571-.392-1.316-.392-1.887 0l-2.456 1.689v-12.482h6.8zm-15.3 0h5.1v15.75c0 .646.345 1.239.898 1.544.553.305 1.224.271 1.746-.087l4.156-2.852 4.157 2.852c.279.191.608.293.944.293.28-.001.556-.071.803-.206.553-.305.897-.899.897-1.544v-15.75h5.1v26.25h-24.65c-.884.005-1.755.214-2.55.613v-23.363c0-1.933 1.522-3.5 3.4-3.5z" fill="#69675B" fill-rule="nonzero"/></g></svg>