<?xml version="1.0" encoding="UTF-8"?>
<svg width="71px" height="70px" viewBox="0 0 71 70" version="1.1" xmlns="http://www.w3.org/2000/svg" xmlns:xlink="http://www.w3.org/1999/xlink">
    <!-- Generator: sketchtool 51.2 (57519) - http://www.bohemiancoding.com/sketch -->
    <title>6391C5C7-5CA2-45C6-910E-EDE606A36903</title>
    <desc>Created with sketchtool.</desc>
    <defs></defs>
    <g id="Units---Wireframes-1:1" stroke="none" stroke-width="1" fill="none" fill-rule="evenodd">
        <g id="Units---Landing-[FW2COURSE002---Tablet]" transform="translate(-354.000000, -672.000000)">
            <g id="Group">
                <g id="Unit-2" transform="translate(50.000000, 420.000000)">
                    <g id="Row-1" transform="translate(50.000000, 222.000000)">
                        <g id="SU-3" transform="translate(244.666667, 0.000000)">
                            <g id="Open-Book-icon" transform="translate(10.000000, 30.000000)">
                                <circle id="Oval-Copy-3" fill="#D8D8D8" cx="35" cy="35" r="35"></circle>
                                <g id="inner" transform="translate(16.000000, 14.000000)" fill="#FFFFFF" fill-rule="nonzero">
                                    <path d="M29.3636364,0 L25.9090909,0 C21.139359,5.82867088e-16 17.2727273,3.91750844 17.2727273,8.75 L17.2727273,8.79375 C15.7864113,7.63615643 13.965621,7.00586751 12.0909091,7 L1.72727273,7 C0.773326341,7 0,7.78350169 0,8.75 L0,35 C0,35.9664983 0.773326341,36.75 1.72727273,36.75 L12.0909091,36.75 C14.4443251,36.7617209 16.4943946,38.3787967 17.0827273,40.6875 C17.2795155,41.459687 17.9667099,41.9994051 18.7538636,42 L19.2461364,42 C20.0332901,41.9994051 20.7204845,41.459687 20.9172727,40.6875 C21.5056054,38.3787967 23.5556749,36.7617209 25.9090909,36.75 L36.2727273,36.75 C37.2266737,36.75 38,35.9664983 38,35 L38,8.75 C38,7.78350169 37.2266737,7 36.2727273,7 L31.0909091,7 L31.0909091,1.75 C31.0909091,0.783501688 30.3175827,0 29.3636364,0 Z M20.7272727,8.75 C20.7272727,5.85050506 23.0472518,3.5 25.9090909,3.5 L27.6363636,3.5 L27.6363636,26.25 L25.9090909,26.25 C24.034379,26.2558675 22.2135887,26.8861564 20.7272727,28.04375 L20.7272727,8.75 Z M12.0909091,33.25 L3.45454545,33.25 L3.45454545,10.5 L12.0909091,10.5 C14.9527482,10.5 17.2727273,12.8505051 17.2727273,15.75 L17.2727273,35.030625 C15.7841514,33.8788823 13.9639086,33.2533934 12.0909091,33.25 Z M34.5454545,10.5 L34.5454545,33.25 L25.9090909,33.25 C24.0359857,33.2527475 22.2155447,33.8783045 20.7272727,35.030625 L20.7272727,35 C20.7272727,32.1005051 23.0472518,29.75 25.9090909,29.75 L29.3636364,29.75 C30.3175827,29.75 31.0909091,28.9664983 31.0909091,28 L31.0909091,10.5 L34.5454545,10.5 Z" id="Shape"></path>
                                </g>
                            </g>
                        </g>
                    </g>
                </g>
            </g>
        </g>
    </g>
</svg>