<svg width="38" height="44" viewBox="0 0 38 44" xmlns="http://www.w3.org/2000/svg">
    <title>PDF Icon</title>
    <path d="M35.389 9.961l-7.521-7.521c-.892-.892-2.676-1.639-3.954-1.639h-21.6c-1.278 0-2.314 1.037-2.314 2.314v38.571c0 1.278 1.037 2.314 2.314 2.314h32.4c1.278 0 2.314-1.037 2.314-2.314v-27.771c0-1.278-.747-3.062-1.639-3.954zm-10.704-5.882c.41.145.82.362.988.53l7.546 7.546c.169.169.386.579.53.988h-9.064v-9.064zm9.257 36.836h-30.857v-37.029h18.514v10.029c0 1.278 1.037 2.314 2.314 2.314h10.029v24.686zm-12.391-14.296c-1.422-1.157-2.676-3.206-3.52-5.738.289-1.663.313-3.11.338-4.629v-.723l-.024-.193.096-.193c.145-.771.072-1.302-.217-1.639-.193-.241-.482-.362-.844-.362h-.53c-.482 0-.844.362-1.013.964-.434 1.591-.193 4.291.579 6.919-.579 2.025-1.422 4.146-2.507 6.316-.964 1.953-1.832 3.52-2.579 4.749l-.048-.096c-.121-.193-.362-.265-.554-.145-2.989 1.567-4.291 3.423-4.532 4.532-.072.482.024.747.145.868l.145.121.579.289c.217.121.434.169.675.169 1.446 0 3.351-2.073 5.834-6.316 2.579-.892 6.099-1.639 9.45-2.001 2.025 1.061 4.363 1.76 5.906 1.76 1.278 0 1.639-.482 1.712-.916v-.024l.072-.096c.265-.579.121-1.012-.048-1.254-.603-.988-2.652-1.181-4.267-1.181-.868 0-1.808.048-2.821.169-.747-.434-1.422-.868-2.025-1.35zm-13.886 9.908c.362-.82 1.495-2.411 3.303-3.809-1.543 2.435-2.579 3.471-3.303 3.809zm9.595-22.179l.024-.096c.145.169.289.434.313.868l.048.121-.096.193c-.048.289-.121.627-.169 1.037-.048.313-.096.675-.169 1.061-.193-1.35-.193-2.507.048-3.182zm-2.989 15.935c.362-.651.723-1.326 1.085-2.001.868-1.712 1.543-3.279 2.001-4.749.82 1.76 1.88 3.206 3.062 4.243.217.193.458.362.699.554-2.363.434-4.725 1.109-6.846 1.953zm15.573-.386l.048.072c-.096.024-.217.024-.434.024-.723 0-1.808-.241-2.989-.675 2.628 0 3.254.458 3.375.579z" fill="#"/>
</svg>