<?xml version="1.0" encoding="UTF-8"?>
<svg width="60px" height="60px" viewBox="0 0 75 75" version="1.1" xmlns="http://www.w3.org/2000/svg" xmlns:xlink="http://www.w3.org/1999/xlink">
    <!-- Generator: sketchtool 51.3 (57544) - http://www.bohemiancoding.com/sketch -->
    <title>60BB6059-CAB9-4054-A265-1CE20773C90B</title>
    <desc>Created with sketchtool.</desc>
    <defs></defs>
    <g id="11.-Assessments" stroke="none" stroke-width="1" fill="none" fill-rule="evenodd">
        <g id="Assessment---Outcome-Modal-(Pass)-[Tablet]" transform="translate(-348.000000, -187.000000)">
            <g id="Modal-/-Completed-Unit-/-Tablet" transform="translate(104.000000, 142.000000)">
                <g id="Modal">
                    <g id="Group" transform="translate(244.000000, 45.000000)">
                        <g id="Pencil-Paper">
                            <circle id="Oval-Copy-4" fill="#EF9D19" cx="37.5" cy="37.5" r="37.5"></circle>
                            <g id="icon" transform="translate(17.142857, 15.000000)" fill="#FFFFFF" fill-rule="nonzero">
                                <path d="M1.69917072,40.7142831 L39.015115,40.7142831 C39.5402447,40.7152046 40.0361884,40.4728094 40.3581276,40.0578784 C40.6800668,39.6429473 40.7916923,39.1022775 40.6604089,38.5937475 L35.571871,18.236606 C35.3782313,17.4865275 34.7011395,16.962926 33.9265771,16.9642846 L27.14186,16.9642846 L27.14186,5.08928539 C27.14186,2.27855068 24.863644,1.88341394e-16 22.0533221,0 L18.6609636,0 C15.8506417,-1.88341394e-16 13.5724257,2.27855068 13.5724257,5.08928539 L13.5724257,16.9642846 L6.78770858,16.9642846 C6.01314621,16.962926 5.33605437,17.4865275 5.14241467,18.236606 L0.0538768172,38.5937475 C-0.0774066251,39.1022775 0.0342189071,39.6429473 0.356158124,40.0578784 C0.678097341,40.4728094 1.174041,40.7152046 1.69917072,40.7142831 Z M17.1428571,9.64285714 L23.9275743,9.64285714 L23.9275743,24.3466508 L20.5352157,28.8676327 L17.1428571,24.3466508 L17.1428571,9.64285714 Z M18.8390364,3.21428571 L22.231395,3.21428571 C23.1681689,3.21428571 23.9275743,3.97380261 23.9275743,4.91071418 L23.9275743,6.60714264 L17.1428571,6.60714264 L17.1428571,4.91071418 C17.1428571,3.97380261 17.9022625,3.21428571 18.8390364,3.21428571 Z M8.5261625,20.3571429 L13.9878598,20.3571429 L13.9878598,25.4464282 C13.9878598,25.8134848 14.106894,26.1706401 14.3270957,26.4642853 L19.4156335,33.2499992 C19.7359644,33.6771698 20.2386921,33.9285706 20.7725769,33.9285706 C21.3064618,33.9285706 21.8091895,33.6771698 22.1295204,33.2499992 L27.2180582,26.4642853 C27.4382598,26.1706401 27.5572941,25.8134848 27.5572941,25.4464282 L27.5572941,20.3571429 L33.0189914,20.3571429 L37.2594396,37.3214275 L4.28571429,37.3214275 L8.5261625,20.3571429 Z" id="Shape"></path>
                            </g>
                        </g>
                    </g>
                </g>
            </g>
        </g>
    </g>
</svg>