<?xml version="1.0" encoding="UTF-8"?>
<svg width="70px" height="70px" viewBox="0 0 70 70" version="1.1" xmlns="http://www.w3.org/2000/svg" xmlns:xlink="http://www.w3.org/1999/xlink">
    <!-- Generator: sketchtool 51.3 (57544) - http://www.bohemiancoding.com/sketch -->
    <g id="3.-Units" stroke="none" stroke-width="1" fill="none" fill-rule="evenodd">
        <g id="Units---Completed-Unit-Expanded-[Tablet]" transform="translate(-161.000000, -1125.000000)">
            <g id="Group">
                <g id="Unit-2-Copy-2" transform="translate(50.000000, 728.000000)">
                    <g id="Row-2" transform="translate(48.000000, 397.000000)">
                        <g id="SU12" transform="translate(63.000000, 0.000000)">
                            <g id="Card">
                                <g id="Recall-Quiz-icon">
                                    <g>
                                        <circle id="Oval-Copy-2" fill="#D8D8D8" cx="35" cy="35" r="35"></circle>
                                        <g id="tick1" transform="translate(16.527778, 16.527778)" fill="#69675B" fill-rule="nonzero">
                                            <path d="M8.41924399,35.9722222 L25.257732,35.9722222 C27.4906543,35.9722222 29.6321219,35.0804764 31.2110365,33.4931587 C32.789951,31.905841 33.6769759,29.7529762 33.6769759,27.5081699 L33.6769759,24.122549 C33.6769759,23.1876356 32.9230912,22.4297386 31.9931271,22.4297386 C31.0631631,22.4297386 30.3092784,23.1876356 30.3092784,24.122549 L30.3092784,27.5081699 C30.3092784,28.8550537 29.7770634,30.1467726 28.8297147,31.0991632 C27.882366,32.0515538 26.5974854,32.5866013 25.257732,32.5866013 L8.41924399,32.5866013 C5.62935195,32.5866013 3.36769759,30.3129101 3.36769759,27.5081699 L3.36769759,10.5800654 C3.36769759,7.77532516 5.62935195,5.50163399 8.41924399,5.50163399 L21.8900344,5.50163399 C22.8199984,5.50163399 23.5738832,4.74373693 23.5738832,3.80882353 C23.5738832,2.87391013 22.8199984,2.11601307 21.8900344,2.11601307 L8.41924399,2.11601307 C3.76942393,2.11601307 5.60834311e-16,5.90549836 0,10.5800654 L0,27.5081699 C-2.71069917e-15,32.1827369 3.76942393,35.9722222 8.41924399,35.9722222 Z" id="Shape"></path>
                                            <path d="M34.868299,0.918349673 C34.5524624,0.600478731 34.123885,0.421870954 33.6769759,0.421870954 C33.2300669,0.421870954 32.8014895,0.600478731 32.4856529,0.918349673 L20.2061856,13.2631699 L16.3459622,9.38240196 C16.0301256,9.06453102 15.6015482,8.88592324 15.1546392,8.88592324 C14.7077301,8.88592324 14.2791527,9.06453102 13.9633162,9.38240196 L8.91176976,14.4608333 C8.59558161,14.7783508 8.41791938,15.2092092 8.41791938,15.6584967 C8.41791938,16.1077843 8.59558161,16.5386426 8.91176976,16.8561601 L19.0148625,27.0130229 C19.3306991,27.3308938 19.7592765,27.5095016 20.2061856,27.5095016 C20.6530946,27.5095016 21.081672,27.3308938 21.3975086,27.0130229 L39.9198454,8.39210784 C40.2360335,8.07459034 40.4136957,7.643732 40.4136957,7.19444444 C40.4136957,6.74515689 40.2360335,6.31429855 39.9198454,5.99678105 L34.868299,0.918349673 Z M20.2061856,23.4200327 L12.4857388,15.6584967 L15.1546392,12.9753922 L19.0148625,16.8561601 C19.3306991,17.1740311 19.7592765,17.3526388 20.2061856,17.3526388 C20.6530946,17.3526388 21.081672,17.1740311 21.3975086,16.8561601 L33.6769759,4.51133987 L36.3458763,7.19444444 L20.2061856,23.4200327 Z" id="Shape"></path>
                                        </g>
                                    </g>
                                </g>
                            </g>
                        </g>
                    </g>
                </g>
            </g>
        </g>
    </g>
</svg>