<?xml version="1.0" encoding="UTF-8"?>
<svg width="36px" height="30px" viewBox="0 0 36 30" version="1.1" xmlns="http://www.w3.org/2000/svg" xmlns:xlink="http://www.w3.org/1999/xlink">
    <!-- Generator: sketchtool 51.3 (57544) - http://www.bohemiancoding.com/sketch -->
    <title>EF3F6670-57E3-4C01-8A51-6697631B24A9</title>
    <desc>Created with sketchtool.</desc>
    <defs></defs>
    <g id="11.-Assessments" stroke="none" stroke-width="1" fill="none" fill-rule="evenodd">
        <g id="Assessment---Drag-Drop-Sequential---Choice-2-[Tablet]" transform="translate(-368.000000, -680.000000)" fill="#BDBDBD" fill-rule="nonzero">
            <g id="Lesson-Content-/-Tablet-/-Text---Container-Width" transform="translate(110.000000, 217.000000)">
                <path d="M280.060527,463.439935 C279.631524,463.010478 278.985951,462.881925 278.425145,463.11428 C277.86434,463.346636 277.498883,463.894083 277.499361,464.501088 L277.499361,472.000408 L259.499951,472.000408 C258.671551,472.000408 258,472.67192 258,473.500272 L258,482.499455 C258,483.327807 258.671551,483.999319 259.499951,483.999319 L277.499361,483.999319 L277.499361,491.498638 C277.498727,492.105955 277.864414,492.653714 278.425581,492.886013 C278.986377,493.118029 279.631732,492.989261 280.060527,492.559792 L293.560084,479.061017 C293.841741,478.77969 294,478.397941 294,477.999863 C294,477.601786 293.841741,477.220037 293.560084,476.93871 L280.060527,463.439935 Z" id="Shape"></path>
            </g>
        </g>
    </g>
</svg>