<?xml version="1.0" encoding="UTF-8"?>
<svg width="71px" height="70px" viewBox="0 0 71 70" version="1.1" xmlns="http://www.w3.org/2000/svg" xmlns:xlink="http://www.w3.org/1999/xlink">
    <!-- Generator: sketchtool 51.3 (57544) - http://www.bohemiancoding.com/sketch -->
    <title>68066418-4F50-4F55-9A55-5BF940FFD367</title>
    <desc>Created with sketchtool.</desc>
    <defs></defs>
    <g id="3.-Units" stroke="none" stroke-width="1"  fill-rule="evenodd">
        <g id="Units---Landing-[FW2COURSE002---Tablet]" transform="translate(-354.000000, -817.000000)">
            <g id="Group">
                <g id="Unit-2" transform="translate(50.000000, 420.000000)">
                    <g id="Row-2" transform="translate(50.000000, 397.000000)">
                        <g id="SU-10" transform="translate(254.670000, 0.000000)">
                            <g id="Quiz-icon">
                                <circle id="" cx="35" cy="35" r="35"></circle>
                                <g id="inner" transform="translate(16.000000, 14.000000)" fill="#69675B" fill-rule="nonzero">
                                    <path d="M1.58589268,37.9999976 L36.4141073,37.9999976 C36.9042284,38.0008576 37.3671091,37.7746221 37.6675858,37.3873531 C37.9680624,37.0000841 38.0722462,36.495459 37.949715,36.020831 L33.200413,17.0208322 C33.0196826,16.320759 32.3877302,15.8320643 31.6648053,15.8333323 L25.3324027,15.8333323 L25.3324027,4.74999969 C25.3324027,2.1266473 23.2060677,1.75785301e-16 20.5831007,0 L17.4168993,0 C14.7939323,-1.75785301e-16 12.6675973,2.1266473 12.6675973,4.74999969 L12.6675973,15.8333323 L6.33519467,15.8333323 C5.6122698,15.8320643 4.98031741,16.320759 4.79958703,17.0208322 L0.0502850293,36.020831 C-0.0722461834,36.495459 0.0319376467,37.0000841 0.332414249,37.3873531 C0.632890851,37.7746221 1.0957716,38.0008576 1.58589268,37.9999976 Z M16,9 L22.3324027,9 L22.3324027,22.7235408 L19.1662013,26.9431238 L16,22.7235408 L16,9 Z M17.5831007,3 L20.749302,3 C21.6236244,3 22.3324027,3.70888243 22.3324027,4.58333323 L22.3324027,6.16666646 L16,6.16666646 L16,4.58333323 C16,3.70888243 16.7087783,3 17.5831007,3 Z M7.95775166,19 L13.0553358,19 L13.0553358,23.7499997 C13.0553358,24.0925858 13.1664344,24.4259307 13.3719559,24.6999996 L18.1212579,31.0333326 C18.4202334,31.4320251 18.889446,31.6666659 19.3877385,31.6666659 C19.886031,31.6666659 20.3552435,31.4320251 20.654219,31.0333326 L25.403521,24.6999996 C25.6090425,24.4259307 25.7201411,24.0925858 25.7201411,23.7499997 L25.7201411,19 L30.8177253,19 L34.7754769,34.8333323 L4,34.8333323 L7.95775166,19 Z" id="Shape"></path>
                                </g>
                            </g>
                        </g>
                    </g>
                </g>
            </g>
        </g>
    </g>
</svg>