<svg width="38" height="44" viewBox="0 0 38 44" xmlns="http://www.w3.org/2000/svg">
    <title>Video File Icon</title>
    <g>
        <path d="M35.389 9.461l-7.521-7.521c-.892-.892-2.676-1.639-3.954-1.639h-21.6c-1.278 0-2.314 1.037-2.314 2.314v38.571c0 1.278 1.037 2.314 2.314 2.314h32.4c1.278 0 2.314-1.037 2.314-2.314v-27.771c0-1.278-.747-3.062-1.639-3.954zm-10.704-5.882c.41.145.82.362.988.53l7.546 7.546c.169.169.386.579.53.988h-9.064v-9.064zm9.257 36.836h-30.857v-37.029h18.514v10.029c0 1.278 1.037 2.314 2.314 2.314h10.029v24.686z" fill="#"/>
    </g>
    <g>
        <path d="M27.039 24.952l-15.326 7.212c-.25.118-.548.01-.665-.24l-.048-.213v-14.424c0-.276.224-.5.5-.5l.213.048 15.326 7.212c.25.118.357.415.24.665-.05.105-.134.19-.24.24z" stroke="#" stroke-width="2"/>
    </g>
</svg>