<?xml version="1.0" encoding="UTF-8"?>
<svg width="34px" height="28px" viewBox="0 0 34 28" version="1.1" xmlns="http://www.w3.org/2000/svg" xmlns:xlink="http://www.w3.org/1999/xlink">
    <!-- Generator: sketchtool 51.2 (57519) - http://www.bohemiancoding.com/sketch -->
    <title>1D1D59F7-2DD1-47A2-975E-B56973082408-18363-000001D0A1A6728E</title>
    <desc>Created with sketchtool.</desc>
    <defs></defs>
    <g id="4b.-Reworked-Video-Lessons" stroke="none" stroke-width="1" fill="none" fill-rule="evenodd">
        <g id="Lessons---Video-Long-Lesson-[Tablet]" transform="translate(-71.000000, -88.000000)" fill="#EF9D19" fill-rule="nonzero">
            <g id="Menu-bar" transform="translate(0.000000, 60.000000)">
                <g id="Button-/-Back-to-Units-/-Tablet-/-Mod-2" transform="translate(50.000000, 20.000000)">
                    <g id="Resume-button">
                        <path d="M41.8349421,8.41060559 C41.4297723,8.00977969 40.8200646,7.88979675 40.290415,8.10666177 C39.7607655,8.32352678 39.4156119,8.83447777 39.416063,9.40101572 L39.416063,16.4003806 L22.4166202,16.4003806 C21.6342425,16.4003806 21,17.0271251 21,17.8002536 L21,26.1994914 C21,26.9726199 21.6342425,27.5993644 22.4166202,27.5993644 L39.416063,27.5993644 L39.416063,34.5987292 C39.415464,35.1655583 39.7608352,35.6767998 40.290826,35.8936117 C40.8204668,36.11016 41.4299691,35.9899769 41.8349421,35.5891394 L54.5845242,22.9902826 C54.8505329,22.7277109 55,22.3714117 55,21.9998725 C55,21.6283332 54.8505329,21.2720341 54.5845242,21.0094623 L41.8349421,8.41060559 Z M41.3048591,33.0847027 L41.3048591,27.1328247 C41.3048591,26.3596962 40.6706166,25.7329518 39.8882388,25.7329518 L22.888796,25.7329518 L22.888796,18.2667932 L39.8882388,18.2667932 C40.6706166,18.2667932 41.3048591,17.6400487 41.3048591,16.8669202 L41.3048591,10.9150423 L52.5221922,21.9998725 L41.3048591,33.0847027 Z" id="Shape" transform="translate(38.000000, 22.000000) rotate(-180.000000) translate(-38.000000, -22.000000) "></path>
                    </g>
                </g>
            </g>
        </g>
    </g>
</svg>