<?xml version="1.0" encoding="UTF-8"?>
<svg width="40px" height="33px" viewBox="0 0 40 33" version="1.1" xmlns="http://www.w3.org/2000/svg" xmlns:xlink="http://www.w3.org/1999/xlink">
    <!-- Generator: sketchtool 51.2 (57519) - http://www.bohemiancoding.com/sketch -->
    <title>BBBA4290-E659-41A0-8F59-F8E4858A57BB-22397-0000158F1B7657CC</title>
    <desc>Created with sketchtool.</desc>
    <defs></defs>
    <g id="Modules---Wireframes-1:1" stroke="none" stroke-width="1" fill="none" fill-rule="evenodd">
        <g id="Modules---Landing-[FW2COURSE001---Tablet]" transform="translate(-869.000000, -1779.000000)" fill="#FFFFFF" fill-rule="nonzero">
            <g id="Module-8" transform="translate(50.000000, 1727.000000)">
                <g id="Message" transform="translate(30.000000, 25.000000)">
                    <g id="Button-/-Resume-Module-/-Vertical-/-Mod-0" transform="translate(769.000000, 0.000000)">
                        <g id="Resume-button">
                            <path d="M44.5116966,27.483928 C44.0350262,27.0115261 43.317723,26.8701176 42.6946059,27.1257085 C42.0714889,27.3812994 41.6654257,27.9834917 41.6659565,28.6511971 L41.6659565,36.9004485 L21.666612,36.9004485 C20.7461676,36.9004485 20,37.6391117 20,38.5502988 L20,48.4494006 C20,49.3605877 20.7461676,50.0992509 21.666612,50.0992509 L41.6659565,50.0992509 L41.6659565,58.3485023 C41.6652518,59.0165509 42.0715708,59.6190855 42.6950894,59.8746138 C43.3181963,60.1298314 44.0352577,59.9881871 44.5116966,59.5157714 L59.5112049,44.6671188 C59.8241564,44.3576592 60,43.9377352 60,43.4998497 C60,43.0619642 59.8241564,42.6420402 59.5112049,42.3325806 L44.5116966,27.483928 Z M43.8880695,56.5641139 L43.8880695,49.5494006 C43.8880695,48.6382134 43.1419019,47.8995503 42.2214574,47.8995503 L22.222113,47.8995503 L22.222113,39.1001491 L42.2214574,39.1001491 C43.1419019,39.1001491 43.8880695,38.361486 43.8880695,37.4502988 L43.8880695,30.4355855 L57.084932,43.4998497 L43.8880695,56.5641139 Z" id="Shape"></path>
                        </g>
                    </g>
                </g>
            </g>
        </g>
    </g>
</svg>