<svg width="34" height="28" viewBox="0 0 34 28" xmlns="http://www.w3.org/2000/svg"><title>1D1D59F7-2DD1-47A2-975E-B56973082408-18363-000001D0A1A6728E</title><desc>Created with sketchtool.</desc><path d="M13.165 27.589c.405.401 1.015.521 1.545.304.53-.217.875-.728.874-1.294v-6.999h16.999c.782 0 1.417-.627 1.417-1.4v-8.399c0-.773-.634-1.4-1.417-1.4h-16.999v-6.999c.001-.567-.345-1.078-.875-1.295-.53-.217-1.139-.096-1.544.304l-12.75 12.599c-.266.263-.415.619-.415.99 0 .372.149.728.415.99l12.75 12.599zm.53-24.674v5.952c0 .773.634 1.4 1.417 1.4h16.999v7.466h-16.999c-.782 0-1.417.627-1.417 1.4v5.952l-11.217-11.085 11.217-11.085z" fill="#EF9D19" fill-rule="nonzero"/></svg>