<svg width="24" height="20" viewBox="0 0 40 33" xmlns="http://www.w3.org/2000/svg"><title>BBBA4290-E659-41A0-8F59-F8E4858A57BB-22397-0000158F1B7657CC</title><desc>Created with sketchtool.</desc><path d="M24.512.484c-.477-.472-1.194-.614-1.817-.358s-1.029.858-1.029 1.525v8.249h-19.999c-.92 0-1.667.739-1.667 1.65v9.899c0 .911.746 1.65 1.667 1.65h19.999v8.249c-.001.668.406 1.271 1.029 1.526.623.255 1.34.114 1.817-.359l15-14.849c.313-.309.489-.729.489-1.167 0-.438-.176-.858-.489-1.167l-15-14.849zm-.624 29.08v-7.015c0-.911-.746-1.65-1.667-1.65h-19.999v-8.799h19.999c.92 0 1.667-.739 1.667-1.65v-7.015l13.197 13.064-13.197 13.064z" fill="#fff" fill-rule="nonzero"/></svg>