<?xml version="1.0" encoding="UTF-8"?>
<svg width="24px" height="20px" viewBox="0 0 24 20" version="1.1" xmlns="http://www.w3.org/2000/svg" xmlns:xlink="http://www.w3.org/1999/xlink">
    <!-- Generator: sketchtool 51.2 (57519) - http://www.bohemiancoding.com/sketch -->
    <title>6A8EFC77-FBC6-4FE2-B8CE-1325DFE358B4</title>
    <desc>Created with sketchtool.</desc>
    <defs></defs>
    <g id="4b.-Reworked-Video-Lessons" stroke="none" stroke-width="1" fill="none" fill-rule="evenodd">
        <g id="Lessons---Video-Long-Lesson-[Tablet]" transform="translate(-124.000000, -2323.000000)" fill="#FFFFFF" fill-rule="nonzero">
            <g id="Lesson-Content" transform="translate(110.000000, 207.000000)">
                <g id="Lesson-Footer-/-Tablet-/-Mod-8" transform="translate(0.000000, 2100.000000)">
                    <g id="Group">
                        <path d="M28.7070179,16.2932897 C28.4210157,16.0069855 27.9906338,15.9212834 27.6167636,16.076187 C27.2428933,16.2310906 26.9992554,16.5960556 26.9995739,17.0007255 L26.9995739,22.0002718 L14.9999672,22.0002718 C14.4477006,22.0002718 14,22.4479465 14,23.0001811 L14,28.9996367 C14,29.5518714 14.4477006,29.999546 14.9999672,29.999546 L26.9995739,29.999546 L26.9995739,34.9990923 C26.9991511,35.4039702 27.2429425,35.7691427 27.6170537,35.9240084 C27.9909178,36.0786857 28.4211546,35.9928406 28.7070179,35.7065281 L37.706723,26.7073447 C37.8944938,26.5197935 38,26.2652941 38,25.9999089 C38,25.7345237 37.8944938,25.4800243 37.706723,25.2924731 L28.7070179,16.2932897 Z M28.9995084,32.5843114 L28.9995084,28.9996367 C28.9995084,28.4474021 28.5518078,27.9997274 27.9995411,27.9997274 L15.9999344,27.9997274 L15.9999344,24.0000904 L27.9995411,24.0000904 C28.5518078,24.0000904 28.9995084,23.5524158 28.9995084,23.0001811 L28.9995084,19.4155064 L35.5842925,25.9999089 L28.9995084,32.5843114 Z" id="Shape" transform="translate(26.000000, 26.000000) rotate(-180.000000) translate(-26.000000, -26.000000) "></path>
                    </g>
                </g>
            </g>
        </g>
    </g>
</svg>