<svg width="27" height="27" viewBox="0 0 34 34" xmlns="http://www.w3.org/2000/svg"><title>4F6A0092-4C5F-4CAD-A6BA-4FB36E23E860-10156-0000014EA71D5B0E</title><desc>Created with sketchtool.</desc><g transform="translate(0 0)" fill="none"><circle stroke="#ffffff" stroke-width="1" fill="#ffffff" cx="17" cy="17" r="15.75"/><path d="M15.381 13.003h3.262v13.426h-3.262v-13.426zm1.606-5.772c.535 0 .979.184 1.33.552.351.368.527.837.527 1.405 0 .552-.176 1.012-.527 1.38-.351.368-.795.552-1.33.552s-.979-.184-1.33-.552c-.351-.368-.527-.828-.527-1.38 0-.569.176-1.037.527-1.405.351-.368.795-.552 1.33-.552z" fill="#4a4a4a"/></g></svg>