<svg width="150" height="150" viewBox="0 0 104 100" xmlns="http://www.w3.org/2000/svg">
    <title>Error Icon</title>
    <g transform="translate(-460 -150) translate(460 150)" fill="#4A4A4A" fill-rule="nonzero">
        <path d="M21.667 100h60.667c5.746 0 11.257-2.29 15.321-6.367 4.063-4.077 6.346-9.606 6.346-15.372v-4.348c0-2.401-1.94-4.348-4.333-4.348h-17.333v-56.522c0-7.204-5.82-13.043-13-13.043h-56.333c-7.18 0-13 5.84-13 13.043v65.217c0 12.006 9.7 21.739 21.667 21.739zm60.667-8.696h-43.442c2.866-3.741 4.427-8.325 4.442-13.043h52c0 7.204-5.82 13.043-13 13.043zm-73.667-78.261c0-2.401 1.94-4.348 4.333-4.348h56.333c2.393 0 4.333 1.947 4.333 4.348v56.522h-34.667c-2.393 0-4.333 1.947-4.333 4.348v4.348c0 7.204-5.82 13.043-13 13.043s-13-5.84-13-13.043v-65.217zM24.061 48.283c-1.386.695-2.296 2.079-2.389 3.631-.093 1.552.646 3.035 1.939 3.891 1.293.856 2.943.956 4.328.261l2.86-1.435c6.54-3.217 14.195-3.217 20.735 0l2.86 1.435c2.142 1.075 4.747.203 5.818-1.946 1.071-2.149.203-4.762-1.939-5.837l-2.86-1.435c-8.987-4.419-19.505-4.419-28.492 0l-2.86 1.435z"/><ellipse id="Oval" cx="28.167" cy="28.261" rx="6.5" ry="6.522"/>
        <ellipse cx="54.167" cy="28.261" rx="6.5" ry="6.522"/>
    </g>
</svg>