<?xml version="1.0" encoding="UTF-8"?>
<svg width="18px" height="16px" viewBox="0 0 18 16" version="1.1" xmlns="http://www.w3.org/2000/svg" xmlns:xlink="http://www.w3.org/1999/xlink">
    <!-- Generator: sketchtool 51.2 (57519) - http://www.bohemiancoding.com/sketch -->
    <title>E6BDA000-D620-46D7-94E9-CFFB4FC73EA0-10156-0000063C9724461A</title>
    <desc>Created with sketchtool.</desc>
    <defs></defs>
    <g id="0.-Assets" stroke="none" stroke-width="1" fill="none" fill-rule="evenodd">
        <g id="Brand-Assets" transform="translate(-162.000000, -3422.000000)" fill="#FFFFFF" fill-rule="nonzero">
            <g id="Typography---Tablet-Copy" transform="translate(50.000000, 3197.000000)">
                <g id="Grab" transform="translate(0.000000, 107.000000)">
                    <g id="Button-/-Show-Unit-progress-/-Mobile" transform="translate(0.000000, 110.000000)">
                        <g id="Show-Unit-progress-button">
                            <g id="Expand-Progress-bar-icon" transform="translate(121.000000, 16.000000) rotate(-270.000000) translate(-121.000000, -16.000000) translate(113.000000, 7.000000)">
                                <path d="M16,8.90801972 C16,7.26824644 14.6975556,5.93894756 13.0909091,5.93894756 L10.9090909,5.93894756 C10.5074293,5.93894756 10.1818182,6.27127228 10.1818182,6.6812156 C10.1818182,7.09115892 10.5074293,7.42348364 10.9090909,7.42348364 L13.0909091,7.42348364 C13.8942324,7.42348364 14.5454545,8.08813308 14.5454545,8.90801972 L14.5454545,14.8461641 C14.5454545,15.6660507 13.8942324,16.3307001 13.0909091,16.3307001 L2.90909091,16.3307001 C2.10576764,16.3307001 1.45454545,15.6660507 1.45454545,14.8461641 L1.45454545,8.90801972 C1.45454545,8.08813308 2.10576764,7.42348364 2.90909091,7.42348364 L5.09090909,7.42348364 C5.49257073,7.42348364 5.81818182,7.09115892 5.81818182,6.6812156 C5.81818182,6.27127228 5.49257073,5.93894756 5.09090909,5.93894756 L2.90909091,5.93894756 C1.30244436,5.93894756 1.61486985e-16,7.26824644 0,8.90801972 L0,14.8461641 C1.61486985e-16,16.4859373 1.30244436,17.8152362 2.90909091,17.8152362 L13.0909091,17.8152362 C14.6975556,17.8152362 16,16.4859373 16,14.8461641 L16,8.90801972 Z" id="Shape"></path>
                                <path d="M8.50363636,0.206782608 C8.22221543,-0.0689275361 7.77778457,-0.0689275361 7.49636364,0.206782608 L4.58727273,3.04781354 C4.3995459,3.23145542 4.32207171,3.50336355 4.38403392,3.76111278 C4.44599614,4.01886201 4.63798124,4.22329409 4.88767029,4.29740144 C5.13735934,4.37150879 5.40681863,4.30403274 5.59454545,4.12039086 L7.27272727,2.48183415 L7.27272727,11.7490506 C7.27272727,12.158994 7.59833836,12.4913187 8,12.4913187 C8.40166164,12.4913187 8.72727273,12.158994 8.72727273,11.7490506 L8.72727273,2.48183415 L10.4054545,4.12039086 C10.6956551,4.40427659 11.1563948,4.39430685 11.4345454,4.0981228 C11.7126961,3.80193876 11.7029278,3.33169929 11.4127273,3.04781354 L8.50363636,0.206782608 Z" id="Shape"></path>
                            </g>
                        </g>
                    </g>
                </g>
            </g>
        </g>
    </g>
</svg>