<svg width="18" height="16" viewBox="0 0 18 16" xmlns="http://www.w3.org/2000/svg">
<title>Expand Progress Icon</title>
    <g fill="FFF" fill-rule="nonzero">
        <path d="M9.092 16c1.64 0 2.969-1.302 2.969-2.909v-2.182c0-.402-.332-.727-.742-.727s-.742.326-.742.727v2.182c0 .803-.665 1.455-1.485 1.455h-5.938c-.82 0-1.485-.651-1.485-1.455v-10.182c0-.803.665-1.455 1.485-1.455h5.938c.82 0 1.485.651 1.485 1.455v2.182c0 .402.332.727.742.727s.742-.326.742-.727v-2.182c0-1.607-1.329-2.909-2.969-2.909h-5.938c-1.64 0-2.969 1.302-2.969 2.909v10.182c0 1.607 1.329 2.909 2.969 2.909h5.938zM17.793 8.504c.276-.281.276-.726 0-1.007l-2.841-2.909c-.184-.188-.456-.265-.713-.203-.258.062-.462.254-.536.504-.074.25-.007.519.177.707l1.639 1.678h-9.267c-.41 0-.742.326-.742.727 0 .402.332.727.742.727h9.267l-1.639 1.678c-.284.29-.274.751.022 1.029.296.278.766.268 1.05-.022l2.841-2.909z"/>
    </g>
</svg>