<?xml version="1.0" encoding="UTF-8"?>
<svg width="34px" height="34px" viewBox="0 0 34 34" version="1.1" xmlns="http://www.w3.org/2000/svg" xmlns:xlink="http://www.w3.org/1999/xlink">
    <!-- Generator: sketchtool 51.2 (57519) - http://www.bohemiancoding.com/sketch -->
    <title>4F6A0092-4C5F-4CAD-A6BA-4FB36E23E860-10156-0000014EA71D5B0E</title>
    <desc>Created with sketchtool.</desc>
    <defs></defs>
    <g id="2.-Modules" stroke="none" stroke-width="1" fill="none" fill-rule="evenodd">
        <g id="Modules---Landing-[FW2COURSE001---Tablet]" transform="translate(-872.000000, -1018.000000)">
            <g id="Module-4" transform="translate(50.000000, 967.000000)">
                <g id="Message" transform="translate(30.000000, 25.000000)">
                    <g id="Button-/-Resume-Module-/-Vertical-/-Mod-0" transform="translate(769.000000, 0.000000)">
                        <g id="Resume-button">
                            <g id="info-icon" transform="translate(23.000000, 26.000000)">
                                <circle id="Combined-Shape" stroke="#918F8F" stroke-width="2.5" fill="#E3E3E3" cx="17" cy="17" r="15.75"></circle>
                                <path d="M15.3813571,13.002619 L18.6437381,13.002619 L18.6437381,26.4285714 L15.3813571,26.4285714 L15.3813571,13.002619 Z M16.9874524,7.23071429 C17.5228201,7.23071429 17.9661649,7.41474419 18.3175,7.78280952 C18.6688351,8.15087486 18.8445,8.61931462 18.8445,9.18814286 C18.8445,9.74024086 18.6688351,10.2003156 18.3175,10.568381 C17.9661649,10.9364463 17.5228201,11.1204762 16.9874524,11.1204762 C16.4520846,11.1204762 16.0087399,10.9364463 15.6574048,10.568381 C15.3060697,10.2003156 15.1304048,9.74024086 15.1304048,9.18814286 C15.1304048,8.61931462 15.3060697,8.15087486 15.6574048,7.78280952 C16.0087399,7.41474419 16.4520846,7.23071429 16.9874524,7.23071429 Z" id="i" fill="#918F8F"></path>
                            </g>
                        </g>
                    </g>
                </g>
            </g>
        </g>
    </g>
</svg>