<?xml version="1.0" encoding="UTF-8"?>
<svg width="240px" height="310px" viewBox="0 0 240 310" version="1.1" xmlns="http://www.w3.org/2000/svg" xmlns:xlink="http://www.w3.org/1999/xlink">
    <!-- Generator: sketchtool 51.2 (57519) - http://www.bohemiancoding.com/sketch -->
    <title>5F594A58-4C43-4803-9728-29CD1D391757-26602-0000087AACEE671E</title>
    <desc>Created with sketchtool.</desc>
    <defs></defs>
    <g id="Assets" stroke="none" stroke-width="1" fill="none" fill-rule="evenodd">
        <g id="Brand-Assets" transform="translate(-50.000000, -237.000000)">
            <g id="Logo" transform="translate(50.000000, 50.000000)">
                <g id="Logo-/-Portrait" transform="translate(0.000000, 187.000000)">
                    <g id="Official-logo---portrait">
                        <path d="M226.346475,58.2642754 L139.611975,91.8004348 C140.612475,90.9857488 141.644475,90.1590821 142.742475,89.3092029 C167.047725,70.5002899 199.366725,56.6259179 219.671475,49.0189372 C217.570725,46.3697101 215.364225,43.8088406 213.063225,41.3370773 C192.170475,49.3266908 161.155725,63.0782609 136.931475,81.8242754 C136.899975,81.8489855 136.870725,81.8729469 136.839225,81.8969082 C142.682475,74.0944928 151.672725,64.8678744 165.486975,55.5806039 C179.409225,46.2214493 193.959975,39.0233092 205.633725,33.9704589 C203.026725,31.5907971 200.317725,29.3219565 197.518725,27.1624396 C186.305475,32.2317633 173.080725,39.0592512 160.189725,47.7257729 C148.611225,55.5094686 140.118225,63.341087 133.872225,70.528744 C138.580725,60.7000966 146.097225,49.7879469 158.134725,39.6994686 C166.888725,32.3635507 178.037475,25.9741063 188.576475,20.8463768 C185.403225,18.8059179 182.130975,16.9069807 178.773975,15.14657 C169.422225,20.0264493 159.919725,25.8400725 152.036475,32.4466667 C138.345225,43.9211594 129.924975,56.3383816 124.746975,67.4759179 C127.596975,53.687657 134.330475,38.0461353 149.129475,25.2904589 C155.271975,19.9972464 162.676725,15.2192029 170.210475,11.058913 C166.482225,9.44676329 162.660975,8.00833333 158.757975,6.75111111 C155.910975,8.50028986 153.114225,10.3333333 150.429225,12.2577295 C150.255975,12.382029 150.080475,12.5048309 149.908725,12.630628 C149.342475,13.0409662 148.784475,13.4580435 148.228725,13.8758696 C147.780975,14.2143237 147.335475,14.5542754 146.894475,14.8972222 C146.770725,14.9938164 146.648475,15.0911594 146.524725,15.1877536 C145.800225,15.7553382 145.087725,16.3304106 144.384225,16.9099758 C144.054225,17.183285 143.723475,17.4565942 143.398725,17.7328986 C143.152725,17.9410628 142.907475,18.1499758 142.663725,18.3596377 C137.473725,22.8688647 133.170225,27.6596377 129.605475,32.5814493 C106.821225,64.7128744 119.208975,102.146498 121.730475,108.869155 L231.320475,66.4964976 C229.764225,63.6855314 228.103725,60.9404589 226.346475,58.2642754" id="Fill-1" fill="#EF9D19"></path>
                        <path d="M108.2577,95.1975556 L12.7407,58.2641256 C10.9827,60.9403092 9.3222,63.6853816 7.7667,66.4963478 L110.90445,106.375527 C110.0232,103.396082 109.0572,99.6064444 108.2577,95.1975556" id="Fill-3" fill="#EF9D19"></path>
                        <path d="M116.91165,34.9943575 C118.4424,32.2208309 120.13515,29.5281739 121.9959,26.9231256 C118.76115,24.366 112.56765,19.7714106 102.4659,13.4059275 C97.41915,10.2258068 91.84665,7.45078261 86.13015,5.03517874 C81.2754,6.34631401 76.5354,7.93450242 71.92815,9.78476812 C80.7879,12.802401 89.82015,16.6362174 97.4034,21.4150097 C108.20115,28.2185362 114.31065,32.8895024 116.91165,34.9943575" id="Fill-5" fill="#EF9D19"></path>
                        <path d="M110.323125,50.5712585 C111.290625,47.4061135 112.442625,44.318843 113.774625,41.3146884 C110.344875,38.7942536 105.895125,35.7421763 100.227375,32.2550507 C87.167625,24.2182633 72.626625,18.6869348 60.547125,15.023843 C56.642625,17.0598092 52.858125,19.2912101 49.204125,21.7053164 C61.852875,24.9895193 79.849875,30.8398333 95.250375,40.3172971 C102.012375,44.4783357 106.934625,47.9729493 110.323125,50.5712585" id="Fill-7" fill="#EF9D19"></path>
                        <path d="M106.580475,79.0933551 C106.553475,78.0472923 106.548975,77.0079686 106.554975,75.9723889 C75.744975,58.8190556 41.275725,47.1543696 25.225725,42.1921232 C22.905975,44.730529 20.691975,47.3670266 18.581475,50.0873889 C32.541225,54.2873647 73.507725,67.4998043 107.115975,87.2057705 C106.845225,84.6254324 106.653975,81.9155531 106.580475,79.0933551" id="Fill-9" fill="#EF9D19"></path>
                        <path d="M106.8939,68.4881353 C107.2044,64.8602367 107.7189,61.3042222 108.4494,57.8328213 C105.0759,55.4516618 100.7859,52.7028454 95.4279,49.737628 C75.8019,38.8756473 53.7024,31.8482319 40.26165,28.1806473 C37.2534,30.5648019 34.3524,33.0777488 31.5729,35.7179903 C42.84015,38.537942 68.8359,45.848401 90.82965,58.0200193 C98.3769,62.1975314 103.57365,65.8598744 106.8939,68.4881353" id="Fill-11" fill="#EF9D19"></path>
                        <path d="M125.88195,21.9010507 C127.8837,19.5004227 130.03695,17.1844082 132.3387,14.9575 C128.9577,11.8709783 121.94595,5.81549517 113.7867,0.748417874 C108.21795,0.995519324 102.74145,1.59605072 97.3812,2.53278986 C100.87245,4.22056763 104.70795,6.27001208 108.6747,8.72530193 C116.14095,13.3475966 122.7372,19.041413 125.88195,21.9010507" id="Fill-13" fill="#EF9D19"></path>
                        <path d="M119.696325,135.007097 C126.102075,135.007097 131.461575,130.4477 132.689325,124.405696 L239.499825,83.4475072 C238.276575,80.4718068 236.950575,77.5530145 235.517325,74.6941256 L119.799075,119.088522 L4.074825,74.7734976 C2.646825,77.6353816 1.320825,80.5511787 0.097575,83.5268792 L106.702575,124.407942 C107.931075,130.449947 113.289825,135.007097 119.696325,135.007097" id="Fill-16" fill="#231F20"></path>
                        <path d="M26.8197,192.898473 L26.8197,205.917725 C26.8197,207.013208 25.9302,207.901275 24.83295,207.901275 L16.12695,207.901275 C15.0297,207.901275 14.1402,207.013208 14.1402,205.917725 L14.1402,157.382507 C14.1402,156.287024 15.0297,155.398957 16.12695,155.398957 L47.56395,155.398957 C48.6612,155.398957 49.54995,156.287024 49.54995,157.382507 L49.54995,164.996976 C49.54995,166.092459 48.6612,166.980527 47.56395,166.980527 L28.80645,166.980527 C27.7092,166.980527 26.8197,167.868594 26.8197,168.964077 L26.8197,177.350551 C26.8197,178.446034 27.7092,179.333353 28.80645,179.333353 L44.00745,179.333353 C45.10395,179.333353 45.99345,180.22142 45.99345,181.316903 L45.99345,188.931372 C45.99345,190.026855 45.10395,190.914923 44.00745,190.914923 L28.80645,190.914923 C27.7092,190.914923 26.8197,191.80299 26.8197,192.898473" id="Fill-18" fill="#231F20"></path>
                        <path d="M66.9744,167.520705 C68.07165,167.520705 68.9604,168.408773 68.9604,169.504256 L68.9604,190.220343 C68.9604,194.54387 70.5069,196.396382 73.7544,196.396382 C76.40865,196.396382 78.39765,194.602275 79.3494,192.800681 C79.49415,192.528121 79.55265,192.221116 79.55265,191.912614 L79.55265,169.504256 C79.55265,168.408773 80.4429,167.520705 81.5394,167.520705 L90.6324,167.520705 C91.72965,167.520705 92.61915,168.408773 92.61915,169.504256 L92.61915,205.917275 C92.61915,207.012758 91.72965,207.900826 90.6324,207.900826 L80.5884,207.900826 C80.0169,207.900826 79.55265,207.438072 79.55265,206.866744 L79.55265,206.408483 C79.55265,205.553362 78.5784,205.07114 77.89815,205.591551 C75.49665,207.426092 72.1044,208.595705 68.41965,208.595705 C59.60565,208.595705 55.89465,202.728169 55.89465,192.922734 L55.89465,169.504256 C55.89465,168.408773 56.78415,167.520705 57.8814,167.520705 L66.9744,167.520705 Z" id="Fill-20" fill="#231F20"></path>
                        <path d="M128.009625,207.900976 C126.912375,207.900976 126.022875,207.012908 126.022875,205.917425 L126.022875,185.279213 C126.022875,180.877812 124.476375,179.0253 121.151625,179.0253 C118.506375,179.0253 116.588625,180.807425 115.581375,182.60228 C115.421625,182.886821 115.353375,183.2103 115.353375,183.535275 L115.353375,205.917425 C115.353375,207.012908 114.463875,207.900976 113.366625,207.900976 L104.350875,207.900976 C103.253625,207.900976 102.364875,207.012908 102.364875,205.917425 L102.364875,169.504406 C102.364875,168.408923 103.253625,167.520855 104.350875,167.520855 L114.318375,167.520855 C114.889875,167.520855 115.353375,167.983609 115.353375,168.554937 L115.353375,169.019188 C115.353375,169.872812 116.324625,170.355783 117.004875,169.838367 C119.425125,167.998585 122.857875,166.825976 126.486375,166.825976 C135.300375,166.825976 139.088625,172.693512 139.088625,182.499696 L139.088625,205.917425 C139.088625,207.012908 138.199125,207.900976 137.102625,207.900976 L128.009625,207.900976 Z" id="Fill-22" fill="#231F20"></path>
                        <path d="M166.384875,197.168911 C168.013125,197.168911 169.590375,196.459804 170.707125,195.574732 C171.165375,195.210819 171.410625,194.642486 171.410625,194.057679 L171.410625,181.508669 C171.410625,180.933597 171.172875,180.3735 170.726625,180.009587 C169.649625,179.132751 168.067875,178.330046 166.384875,178.330046 C162.287625,178.330046 159.967875,181.881568 159.967875,187.826229 C159.967875,193.617389 162.364875,197.168911 166.384875,197.168911 M182.489625,207.90135 L172.445625,207.90135 C171.874125,207.90135 171.410625,207.437848 171.410625,206.867268 C171.410625,206.003911 170.412375,205.518693 169.741125,206.061568 C167.746125,207.675215 165.196125,208.672606 162.055125,208.672606 C152.854875,208.672606 146.669625,201.26106 146.669625,187.671978 C146.669625,174.083645 152.854875,166.82635 162.055125,166.82635 C164.468625,166.82635 166.592625,167.462075 168.391125,168.487171 C169.738125,169.254684 171.410625,168.34565 171.410625,166.797147 L171.410625,155.065819 C171.410625,153.971085 172.299375,153.083017 173.397375,153.083017 L182.489625,153.083017 C183.586875,153.083017 184.476375,153.971085 184.476375,155.065819 L184.476375,205.9178 C184.476375,207.012534 183.586875,207.90135 182.489625,207.90135" id="Fill-24" fill="#231F20"></path>
                        <path d="M207.82935,199.176198 C209.59335,199.176198 211.0701,198.602623 212.07135,197.832116 C212.5356,197.474942 212.77785,196.898372 212.77785,196.312816 L212.7771,192.836923 C212.7771,191.779628 211.9476,190.899797 210.8901,190.854121 C210.64185,190.843638 210.39285,190.837647 210.14835,190.837647 C206.51535,190.837647 203.96385,192.381657 203.96385,195.316174 C203.96385,198.018565 205.5876,199.176198 207.82935,199.176198 Z M214.76385,207.901126 C213.6666,207.901126 212.7771,207.013058 212.7771,205.917575 L212.7771,205.27586 C210.53535,207.206246 207.4431,208.67313 203.4996,208.67313 C195.7686,208.67313 191.59335,203.963227 191.59335,196.705932 C191.59335,187.595377 198.93885,182.962599 209.22135,182.962599 C210.38085,182.962599 211.6176,183.11685 212.7771,183.271101 L212.7771,183.039725 C212.7771,178.639072 210.38085,177.634942 206.66985,177.634942 C204.47235,177.634942 201.63735,178.227237 199.21485,178.991005 C198.1011,179.342937 196.93185,178.6533 196.6881,177.513638 L195.3606,171.312889 C195.1476,170.319242 195.7206,169.329338 196.6866,169.008106 C200.60985,167.707454 205.00185,166.826126 209.4531,166.826126 C219.89085,166.826126 225.45735,172.925039 225.45735,183.580353 L225.45735,205.917575 C225.45735,207.013058 224.56785,207.901126 223.4706,207.901126 L214.76385,207.901126 Z" id="Fill-26" fill="#231F20"></path>
                        <path d="M34.108425,255.362275 L30.482925,267.291285 C30.229425,268.126937 29.456925,268.699014 28.581675,268.699014 L17.211675,268.699014 C16.343175,268.699014 15.575925,268.135923 15.315675,267.308507 L0.092175,218.77329 C-0.308325,217.49585 0.647175,216.196696 1.988175,216.196696 L11.930925,216.196696 C12.819675,216.196696 13.599675,216.785995 13.841925,217.639618 L22.251675,247.278314 C22.793175,249.184739 25.490925,249.207952 26.064675,247.311261 L30.193425,233.669763 C30.305175,233.302106 30.306675,232.90899 30.198675,232.539836 L26.159175,218.736599 C25.787925,217.467396 26.741925,216.196696 28.066425,216.196696 L38.170425,216.196696 C39.080925,216.196696 39.875175,216.815198 40.096425,217.697275 L46.763925,244.213507 C47.261925,246.193314 50.069175,246.221768 50.607675,244.253193 L57.875175,217.658338 C58.111425,216.795729 58.895925,216.196696 59.792175,216.196696 L69.870675,216.196696 C71.212425,216.196696 72.167925,217.498097 71.765175,218.775536 L56.470425,267.310754 C56.210175,268.136671 55.442925,268.699014 54.575175,268.699014 L43.158675,268.699014 C42.267675,268.699014 41.486175,268.10672 41.246175,267.250101 L37.922175,255.403459 C37.386675,253.49329 34.685175,253.464087 34.108425,255.362275" id="Fill-28" fill="#231F20"></path>
                        <path d="M88.89945,259.974237 C90.66345,259.974237 92.1402,259.400662 93.14145,258.630155 C93.60645,258.272232 93.84795,257.696411 93.84795,257.110855 L93.84795,253.634961 C93.84795,252.577667 93.01845,251.697087 91.9602,251.651411 C91.71195,251.640928 91.46295,251.635686 91.2192,251.635686 C87.58545,251.635686 85.03395,253.179696 85.03395,256.113464 C85.03395,258.815855 86.6577,259.974237 88.89945,259.974237 Z M95.8347,268.698415 C94.73745,268.698415 93.84795,267.811097 93.84795,266.715614 L93.84795,266.073899 C91.60545,268.004285 88.5132,269.471169 84.57045,269.471169 C76.8387,269.471169 72.66345,264.761266 72.66345,257.503971 C72.66345,248.392667 80.00895,243.760638 90.29145,243.760638 C91.45095,243.760638 92.68845,243.914889 93.84795,244.06914 L93.84795,243.837763 C93.84795,239.436362 91.45095,238.432981 87.73995,238.432981 C85.5432,238.432981 82.7082,239.024527 80.28495,239.789043 C79.1712,240.140227 78.00195,239.451338 77.7582,238.310928 L76.4307,232.110928 C76.21845,231.116531 76.7907,230.126628 77.7567,229.806145 C81.67995,228.505493 86.07195,227.623415 90.5232,227.623415 C100.96095,227.623415 106.52745,233.723077 106.52745,244.377643 L106.52745,266.715614 C106.52745,267.811097 105.63795,268.698415 104.5407,268.698415 L95.8347,268.698415 Z" id="Fill-30" fill="#231F20"></path>
                        <path d="M141.531225,268.698715 C140.433975,268.698715 139.545225,267.810647 139.545225,266.715913 L139.545225,246.076952 C139.545225,241.675551 137.998725,239.823039 134.673975,239.823039 C132.027975,239.823039 130.110225,241.605913 129.102975,243.400768 C128.943225,243.68456 128.874975,244.008039 128.874975,244.333763 L128.874975,266.715913 C128.874975,267.810647 127.985475,268.698715 126.888975,268.698715 L117.873225,268.698715 C116.775975,268.698715 115.886475,267.810647 115.886475,266.715913 L115.886475,230.302145 C115.886475,229.206662 116.775975,228.318594 117.873225,228.318594 L127.839975,228.318594 C128.411475,228.318594 128.874975,228.781348 128.874975,229.352676 L128.874975,229.816928 C128.874975,230.670551 129.846225,231.153522 130.527225,230.636106 C132.946725,228.796324 136.379475,227.623715 140.008725,227.623715 C148.822725,227.623715 152.610975,233.491251 152.610975,243.297435 L152.610975,266.715913 C152.610975,267.810647 151.721475,268.698715 150.624225,268.698715 L141.531225,268.698715 Z" id="Fill-32" fill="#231F20"></path>
                        <path d="M179.906475,257.966575 C181.534725,257.966575 183.112725,257.257469 184.228725,256.372396 C184.686975,256.009232 184.932225,255.44015 184.932225,254.856092 L184.932225,242.306333 C184.932225,241.731261 184.694475,241.171164 184.248225,240.807251 C183.171225,239.930415 181.589475,239.12771 179.906475,239.12771 C175.809225,239.12771 173.489475,242.679232 173.489475,248.624643 C173.489475,254.415053 175.886475,257.966575 179.906475,257.966575 M196.011975,268.699014 L185.967975,268.699014 C185.395725,268.699014 184.932225,268.235512 184.932225,267.664932 C184.932225,266.801575 183.933975,266.316357 183.262725,266.859232 C181.267725,268.472879 178.717725,269.471019 175.577475,269.471019 C166.376475,269.471019 160.191225,262.058725 160.191225,248.470391 C160.191225,234.881309 166.376475,227.624014 175.577475,227.624014 C177.990975,227.624014 180.114225,228.260488 181.913475,229.284836 C183.260475,230.052348 184.932225,229.144063 184.932225,227.59556 L184.932225,215.864232 C184.932225,214.768749 185.821725,213.880681 186.918975,213.880681 L196.011975,213.880681 C197.109225,213.880681 197.997975,214.768749 197.997975,215.864232 L197.997975,266.715464 C197.997975,267.810947 197.109225,268.699014 196.011975,268.699014" id="Fill-34" fill="#231F20"></path>
                        <path d="M227.105625,243.683213 C228.088875,243.683213 228.925125,242.904469 228.928125,241.923551 L228.928125,241.907077 C228.928125,238.819058 227.072625,237.275048 224.289375,237.275048 C221.537625,237.275048 219.850125,238.868478 219.149625,241.445072 C218.841375,242.577246 219.750375,243.683213 220.925625,243.683213 L227.105625,243.683213 Z M220.437375,251.713261 C219.275625,251.713261 218.374875,252.793019 218.653125,253.918454 C219.430125,257.055145 221.609625,259.279058 225.913125,259.279058 C228.709875,259.279058 231.232125,258.227005 233.233125,256.967536 C234.142875,256.395459 235.345875,256.74814 235.819875,257.711836 L238.699125,263.562899 C239.101125,264.378333 238.840125,265.362246 238.091625,265.879662 C234.561375,268.316981 229.843875,269.780121 224.212125,269.780121 C211.687125,269.780121 205.733625,260.823816 205.733625,248.624493 C205.733625,236.271667 213.001125,227.238237 224.057625,227.238237 C235.036125,227.238237 239.597625,234.263406 239.597625,243.683213 C239.597625,245.887657 239.402625,248.286787 239.013375,250.263599 C238.846875,251.111981 238.090125,251.713261 237.223875,251.713261 L220.437375,251.713261 Z" id="Fill-36" fill="#231F20"></path>
                        <path d="M1.79325,294.964176 L4.707,294.964176 C6.0495,294.964176 7.09125,294.664659 7.833,294.064877 C8.57475,293.465843 8.946,292.530601 8.946,291.261399 C8.946,290.097027 8.65425,289.18949 8.07225,288.537292 C7.48875,287.885094 6.42975,287.557872 4.893,287.557872 L1.79325,287.557872 L1.79325,294.964176 Z M0.0975,286.129925 L5.7405,286.129925 C7.347,286.129925 8.56575,286.544756 9.396,287.37292 C10.22625,288.202582 10.64175,289.366205 10.64175,290.864539 C10.64175,291.429128 10.5795,291.975746 10.45575,292.504394 C10.332,293.033041 10.13775,293.509273 9.873,293.933089 C9.60825,294.356157 9.2595,294.717075 8.82675,295.017341 C8.394,295.316857 7.86,295.528766 7.224,295.651568 L7.224,295.704732 C8.40675,295.810312 9.2325,296.211664 9.70125,296.908041 C10.1685,297.605167 10.4205,298.693162 10.45575,300.174273 L10.509,302.237944 C10.52625,302.74937 10.5795,303.247316 10.668,303.731785 C10.7565,304.217002 10.968,304.644563 11.304,305.015215 L9.3165,305.015215 C9.12225,304.680505 8.99475,304.283645 8.9325,303.824635 C8.871,303.366374 8.8305,302.881906 8.81325,302.369732 L8.76075,300.783041 C8.72475,299.954877 8.65425,299.257751 8.5485,298.693162 C8.44275,298.129321 8.25225,297.675553 7.97925,297.331857 C7.70475,296.987413 7.32975,296.745553 6.8535,296.604031 C6.3765,296.463258 5.75775,296.392123 4.99875,296.392123 L1.79325,296.392123 L1.79325,305.015215 L0.0975,305.015215 L0.0975,286.129925 Z" id="Fill-39" fill="#231F20"></path>
                        <path d="M23.145525,296.736343 C23.110275,294.990159 22.844775,293.760643 22.350525,293.046295 C21.856275,292.332696 21.122775,291.975522 20.152275,291.975522 C19.162275,291.975522 18.421275,292.332696 17.927025,293.046295 C17.432025,293.760643 17.176275,294.990159 17.158275,296.736343 L23.145525,296.736343 Z M24.708525,300.359749 C24.584775,301.858831 24.129525,303.06214 23.344275,303.970425 C22.558275,304.87871 21.503025,305.332478 20.178525,305.332478 C19.436775,305.332478 18.774525,305.195449 18.191775,304.92214 C17.609025,304.648831 17.114025,304.221271 16.708275,303.639459 C16.301775,303.057647 15.992775,302.29987 15.781275,301.365377 C15.569025,300.430884 15.463275,299.301705 15.463275,297.979338 C15.463275,295.51057 15.881775,293.673034 16.721775,292.464483 C17.559525,291.25743 18.756525,290.652406 20.311275,290.652406 C21.864525,290.652406 23.008275,291.204266 23.741775,292.305739 C24.473775,293.407961 24.841275,295.131681 24.841275,297.476899 L24.841275,298.05871 L17.158275,298.05871 L17.158275,298.719894 C17.158275,299.724773 17.241525,300.567164 17.410275,301.24557 C17.577525,301.924725 17.798775,302.472092 18.072525,302.885425 C18.346275,303.300256 18.663525,303.591536 19.025775,303.758517 C19.388025,303.926246 19.763025,304.010111 20.152275,304.010111 C21.864525,304.010111 22.853775,302.793324 23.119275,300.359749 L24.708525,300.359749 Z" id="Fill-41" fill="#231F20"></path>
                        <path d="M36.41775,297.080039 L36.3645,297.080039 C36.276,297.32714 36.051,297.521077 35.6895,297.66185 C35.32725,297.803372 34.9875,297.917937 34.6695,298.005546 L33.345,298.34999 C32.55,298.56115 31.94925,298.887623 31.54275,299.327913 C31.137,299.768952 30.93375,300.412913 30.93375,301.259048 C30.93375,302.105184 31.1325,302.776101 31.53,303.269556 C31.9275,303.76301 32.4705,304.010111 33.159,304.010111 C34.13025,304.010111 34.91625,303.665667 35.517,302.978275 C36.117,302.290135 36.41775,301.312213 36.41775,300.04301 L36.41775,297.080039 Z M29.68875,295.148903 C29.68875,293.703734 30.0375,292.592527 30.735,291.816778 C31.43325,291.041029 32.532,290.653155 34.0335,290.653155 C35.481,290.653155 36.50625,290.99685 37.10625,291.684242 C37.707,292.372382 38.00775,293.271681 38.00775,294.38214 L38.00775,302.687744 C38.00775,303.463493 38.28075,303.851367 38.82825,303.851367 L39.279,303.851367 L39.279,305.01499 C38.97825,305.12057 38.73075,305.173734 38.53725,305.173734 C37.9185,305.173734 37.42425,305.063662 37.05375,304.842768 C36.68325,304.622623 36.49725,304.150884 36.49725,303.4283 L36.49725,302.952068 L36.444,302.952068 C36.285,303.411077 36.08175,303.794459 35.835,304.102213 C35.5875,304.411464 35.3055,304.657816 34.9875,304.842768 C34.6695,305.028469 34.3245,305.155763 33.954,305.22615 C33.58275,305.296536 33.20325,305.332478 32.81475,305.332478 C31.578,305.332478 30.6735,304.975304 30.09975,304.260957 C29.52525,303.547357 29.23875,302.581415 29.23875,301.365377 C29.23875,300.412913 29.45925,299.597478 29.901,298.918324 C30.342,298.239918 31.0665,297.759193 32.073,297.476899 L35.06625,296.630014 C35.349,296.560377 35.5785,296.481005 35.7555,296.392647 C35.93175,296.30429 36.069,296.180739 36.1665,296.021995 C36.2625,295.863251 36.32925,295.656585 36.3645,295.400498 C36.39975,295.145159 36.41775,294.814942 36.41775,294.409097 C36.41775,293.509048 36.1965,292.879314 35.7555,292.517647 C35.31375,292.156729 34.722,291.975522 33.98025,291.975522 C33.027,291.975522 32.3385,292.248831 31.914,292.795449 C31.49025,293.342068 31.278,294.126802 31.278,295.148903 L29.68875,295.148903 Z" id="Fill-43" fill="#231F20"></path>
                        <path d="M45.027375,297.979488 C45.027375,299.284633 45.111375,300.333691 45.278625,301.126662 C45.446625,301.920382 45.676875,302.528401 45.967875,302.952217 C46.259625,303.375285 46.585875,303.65758 46.948125,303.798353 C47.309625,303.939126 47.694375,304.010261 48.100875,304.010261 C48.506625,304.010261 48.895125,303.939126 49.266375,303.798353 C49.636875,303.65758 49.963875,303.375285 50.245875,302.952217 C50.528625,302.528401 50.753625,301.920382 50.921625,301.126662 C51.089625,300.333691 51.173625,299.284633 51.173625,297.979488 C51.173625,296.692314 51.089625,295.652242 50.921625,294.858522 C50.753625,294.064802 50.528625,293.456783 50.245875,293.033715 C49.963875,292.610647 49.636875,292.328353 49.266375,292.186831 C48.895125,292.046058 48.506625,291.975671 48.100875,291.975671 C47.694375,291.975671 47.309625,292.046058 46.948125,292.186831 C46.585875,292.328353 46.259625,292.610647 45.967875,293.033715 C45.676875,293.456783 45.446625,294.064802 45.278625,294.858522 C45.111375,295.652242 45.027375,296.692314 45.027375,297.979488 Z M51.332625,302.687894 L51.279375,302.687894 C51.067875,303.498836 50.652375,304.142048 50.034375,304.61828 C49.416375,305.094512 48.683625,305.332628 47.835375,305.332628 C46.281375,305.332628 45.142125,304.72386 44.418375,303.507072 C43.693875,302.290285 43.332375,300.448256 43.332375,297.979488 C43.332375,295.528691 43.693875,293.694899 44.418375,292.478111 C45.142125,291.261324 46.281375,290.652556 47.835375,290.652556 C48.736125,290.652556 49.465125,290.873449 50.021625,291.314488 C50.577375,291.754778 50.944125,292.345575 51.121125,293.08613 L51.173625,293.08613 L51.173625,286.12985 L52.762875,286.12985 L52.762875,305.01514 L51.332625,305.01514 L51.332625,302.687894 Z" id="Fill-45" fill="#231F20"></path>
                        <path d="M58.43175,305.014541 L60.02175,305.014541 L60.02175,290.970193 L58.43175,290.970193 L58.43175,305.014541 Z M58.43175,288.827899 L60.02175,288.827899 L60.02175,286.13 L58.43175,286.13 L58.43175,288.827899 Z" id="Fill-47" fill="#231F20"></path>
                        <path d="M65.8494,290.970493 L67.27965,290.970493 L67.27965,292.927836 L67.3329,292.927836 C67.7394,292.134116 68.2554,291.556797 68.8824,291.19513 C69.5094,290.834213 70.1934,290.653005 70.9359,290.653005 C72.0129,290.653005 72.8829,290.948778 73.54515,291.538826 C74.2074,292.129623 74.53815,293.08658 74.53815,294.408947 L74.53815,305.014841 L72.9489,305.014841 L72.9489,294.858222 C72.9489,292.936821 72.14565,291.975372 70.5384,291.975372 C69.5844,291.975372 68.8299,292.297353 68.2734,292.940565 C67.7169,293.584527 67.43865,294.461362 67.43865,295.57257 L67.43865,305.014841 L65.8494,305.014841 L65.8494,290.970493 Z" id="Fill-49" fill="#231F20"></path>
                        <path d="M81.37305,297.820819 C81.37305,298.949249 81.43905,299.888234 81.5718,300.637775 C81.7038,301.387316 81.89805,301.98635 82.15455,302.436374 C82.4103,302.88565 82.7238,303.20763 83.09505,303.401568 C83.4663,303.595505 83.8893,303.692848 84.3663,303.692848 C84.8433,303.692848 85.26705,303.595505 85.6383,303.401568 C86.0088,303.20763 86.3223,302.88565 86.57805,302.436374 C86.83455,301.98635 87.0288,301.387316 87.16155,300.637775 C87.2943,299.888234 87.3603,298.949249 87.3603,297.820819 C87.3603,296.709611 87.2943,295.779611 87.16155,295.03007 C87.0288,294.281278 86.83455,293.681495 86.57805,293.23222 C86.3223,292.782196 86.0088,292.460215 85.6383,292.266278 C85.26705,292.072341 84.8433,291.975746 84.3663,291.975746 C83.8893,291.975746 83.4663,292.072341 83.09505,292.266278 C82.7238,292.460215 82.4103,292.782196 82.15455,293.23222 C81.89805,293.681495 81.7038,294.281278 81.5718,295.03007 C81.43905,295.779611 81.37305,296.709611 81.37305,297.820819 Z M87.5193,290.970867 L88.94955,290.970867 L88.94955,304.010336 C88.94955,305.984152 88.5828,307.457027 87.85005,308.427461 C87.1173,309.396399 85.9473,309.881616 84.34005,309.881616 C82.9623,309.881616 81.9243,309.559635 81.22755,308.916423 C80.5293,308.272461 80.17155,307.448041 80.1543,306.443162 L81.7443,306.443162 C81.7443,307.113331 82.00905,307.632993 82.53855,308.003645 C83.0688,308.374297 83.68605,308.559249 84.3933,308.559249 C86.37105,308.559249 87.3603,307.280312 87.3603,304.723935 L87.3603,302.502268 L87.30705,302.502268 C87.05955,303.366374 86.6358,304.00135 86.0358,304.406447 C85.43505,304.812292 84.7638,305.015215 84.02205,305.015215 C83.47455,305.015215 82.9398,304.914128 82.4193,304.711205 C81.89805,304.508283 81.43455,304.142123 81.0288,303.612727 C80.6223,303.08408 80.2953,302.365988 80.04855,301.457703 C79.80105,300.549418 79.6773,299.390287 79.6773,297.979563 C79.6773,295.528766 80.03955,293.694973 80.76405,292.478186 C81.4878,291.261399 82.6263,290.65263 84.18105,290.65263 C84.97605,290.65263 85.66005,290.869031 86.2338,291.301085 C86.8083,291.733138 87.21855,292.34565 87.46605,293.13937 L87.5193,293.13937 L87.5193,290.970867 Z" id="Fill-50" fill="#231F20"></path>
                        <path d="M104.26125,292.292935 L102.327,292.292935 L102.327,290.970568 L104.26125,290.970568 L104.26125,289.303756 C104.26125,288.828273 104.2965,288.382742 104.367,287.968659 C104.4375,287.553829 104.57925,287.192162 104.7915,286.883659 C105.003,286.575906 105.312,286.33779 105.7185,286.17006 C106.12425,286.002331 106.66275,285.918466 107.334,285.918466 C107.5815,285.918466 107.77575,285.922959 107.9175,285.931196 C108.05775,285.94093 108.19875,285.962645 108.3405,285.997838 L108.3405,287.320205 C108.093,287.26779 107.838,287.240833 107.5725,287.240833 C106.98975,287.240833 106.557,287.382355 106.275,287.663901 C105.99225,287.946196 105.8505,288.492814 105.8505,289.303756 L105.8505,290.970568 L108.3405,290.970568 L108.3405,292.292935 L105.8505,292.292935 L105.8505,305.014915 L104.26125,305.014915 L104.26125,292.292935 Z" id="Fill-51" fill="#231F20"></path>
                        <path d="M113.7717,297.979488 C113.7717,299.107918 113.85045,300.055889 114.0102,300.822652 C114.16845,301.589415 114.3897,302.210913 114.67245,302.687894 C114.95445,303.163377 115.28595,303.503329 115.66545,303.705502 C116.04495,303.908425 116.4642,304.010261 116.92395,304.010261 C117.3657,304.010261 117.78045,303.908425 118.16895,303.705502 C118.55745,303.503329 118.89345,303.163377 119.1762,302.687894 C119.4582,302.210913 119.6787,301.589415 119.8377,300.822652 C119.9967,300.055889 120.0762,299.107918 120.0762,297.979488 C120.0762,296.869029 119.9967,295.930043 119.8377,295.162531 C119.6787,294.395768 119.4582,293.774271 119.1762,293.298039 C118.89345,292.821807 118.55745,292.482604 118.16895,292.279681 C117.78045,292.077507 117.3657,291.975671 116.92395,291.975671 C116.4642,291.975671 116.04495,292.077507 115.66545,292.279681 C115.28595,292.482604 114.95445,292.821807 114.67245,293.298039 C114.3897,293.774271 114.16845,294.395768 114.0102,295.162531 C113.85045,295.930043 113.7717,296.869029 113.7717,297.979488 M112.07595,297.979488 C112.07595,295.51072 112.4952,293.673184 113.33445,292.464633 C114.17295,291.256831 115.3692,290.652556 116.92395,290.652556 C118.47795,290.652556 119.67495,291.256831 120.51345,292.464633 C121.35195,293.673184 121.77195,295.51072 121.77195,297.979488 C121.77195,300.465478 121.35195,302.312749 120.51345,303.520551 C119.67495,304.728353 118.47795,305.332628 116.92395,305.332628 C115.3692,305.332628 114.17295,304.728353 113.33445,303.520551 C112.4952,302.312749 112.07595,300.465478 112.07595,297.979488" id="Fill-52" fill="#231F20"></path>
                        <path d="M126.7521,290.970493 L128.3421,290.970493 L128.3421,293.165952 L128.3946,293.165952 C128.6946,292.372232 129.14985,291.755227 129.75885,291.314188 C130.3686,290.873899 131.09685,290.653005 131.94435,290.653005 C132.12135,290.653005 132.3066,290.679213 132.50085,290.732377 L132.50085,292.319068 C132.2361,292.265903 131.9796,292.239696 131.73285,292.239696 C131.2911,292.239696 130.86735,292.319068 130.46085,292.477812 C130.05435,292.636556 129.69285,292.883657 129.37485,293.218367 C129.05685,293.553826 128.8056,293.967908 128.62035,294.461362 C128.43435,294.955565 128.3421,295.545614 128.3421,296.233754 L128.3421,305.014841 L126.7521,305.014841 L126.7521,290.970493 Z" id="Fill-53" fill="#231F20"></path>
                        <polygon id="Fill-54" fill="#231F20" points="145.879275 286.130075 148.819275 286.130075 153.376275 302.899278 153.428775 302.899278 157.985775 286.130075 160.767525 286.130075 160.767525 305.015365 159.071775 305.015365 159.071775 287.716766 159.019275 287.716766 154.118025 305.015365 152.528775 305.015365 147.627525 287.716766 147.574275 287.716766 147.574275 305.015365 145.879275 305.015365"></polygon>
                        <path d="M173.6952,296.736343 C173.65995,294.990159 173.39445,293.760643 172.9002,293.046295 C172.40595,292.332696 171.67245,291.975522 170.7012,291.975522 C169.71195,291.975522 168.9702,292.332696 168.4767,293.046295 C167.9817,293.760643 167.72595,294.990159 167.70795,296.736343 L173.6952,296.736343 Z M175.2582,300.359749 C175.13445,301.858831 174.6792,303.06214 173.89395,303.970425 C173.10795,304.87871 172.0527,305.332478 170.72745,305.332478 C169.98645,305.332478 169.3242,305.195449 168.74145,304.92214 C168.1587,304.648831 167.6637,304.221271 167.25795,303.639459 C166.85145,303.057647 166.54245,302.29987 166.3302,301.365377 C166.1187,300.430884 166.0122,299.301705 166.0122,297.979338 C166.0122,295.51057 166.43145,293.673034 167.2707,292.464483 C168.1092,291.25743 169.3062,290.652406 170.8602,290.652406 C172.4142,290.652406 173.55795,291.204266 174.2907,292.305739 C175.02345,293.407961 175.3902,295.131681 175.3902,297.476899 L175.3902,298.05871 L167.70795,298.05871 L167.70795,298.719894 C167.70795,299.724773 167.7912,300.567164 167.95995,301.24557 C168.1272,301.924725 168.34845,302.472092 168.62145,302.885425 C168.89595,303.300256 169.2132,303.591536 169.57545,303.758517 C169.9377,303.926246 170.3127,304.010111 170.7012,304.010111 C172.4142,304.010111 173.40345,302.793324 173.6682,300.359749 L175.2582,300.359749 Z" id="Fill-55" fill="#231F20"></path>
                        <path d="M186.967425,297.080039 L186.914175,297.080039 C186.825675,297.32714 186.600675,297.521077 186.239175,297.66185 C185.876925,297.803372 185.536425,297.917937 185.218425,298.005546 L183.893925,298.34999 C183.099675,298.56115 182.498925,298.887623 182.092425,299.327913 C181.685925,299.768952 181.483425,300.412913 181.483425,301.259048 C181.483425,302.105184 181.682175,302.776101 182.079675,303.269556 C182.477175,303.76301 183.020175,304.010111 183.708675,304.010111 C184.679925,304.010111 185.465925,303.665667 186.066675,302.978275 C186.666675,302.290135 186.967425,301.312213 186.967425,300.04301 L186.967425,297.080039 Z M180.238425,295.148903 C180.238425,293.703734 180.587175,292.592527 181.284675,291.816778 C181.982175,291.041029 183.081675,290.653155 184.583175,290.653155 C186.030675,290.653155 187.055175,290.99685 187.655925,291.684242 C188.256675,292.372382 188.556675,293.271681 188.556675,294.38214 L188.556675,302.687744 C188.556675,303.463493 188.830425,303.851367 189.377925,303.851367 L189.828675,303.851367 L189.828675,305.01499 C189.527925,305.12057 189.280425,305.173734 189.086925,305.173734 C188.468175,305.173734 187.973925,305.063662 187.603425,304.842768 C187.232175,304.622623 187.046925,304.150884 187.046925,303.4283 L187.046925,302.952068 L186.993675,302.952068 C186.834675,303.411077 186.631425,303.794459 186.384675,304.102213 C186.137175,304.411464 185.854425,304.657816 185.536425,304.842768 C185.218425,305.028469 184.874175,305.155763 184.503675,305.22615 C184.133175,305.296536 183.752175,305.332478 183.364425,305.332478 C182.127675,305.332478 181.222425,304.975304 180.649425,304.260957 C180.074925,303.547357 179.788425,302.581415 179.788425,301.365377 C179.788425,300.412913 180.008925,299.597478 180.450675,298.918324 C180.891675,298.239918 181.616175,297.759193 182.622675,297.476899 L185.616675,296.630014 C185.898675,296.560377 186.128175,296.481005 186.305175,296.392647 C186.481425,296.30429 186.618675,296.180739 186.715425,296.021995 C186.812175,295.863251 186.878925,295.656585 186.914175,295.400498 C186.949425,295.145159 186.967425,294.814942 186.967425,294.409097 C186.967425,293.509048 186.746175,292.879314 186.305175,292.517647 C185.863425,292.156729 185.271675,291.975522 184.529925,291.975522 C183.576675,291.975522 182.887425,292.248831 182.463675,292.795449 C182.039925,293.342068 181.827675,294.126802 181.827675,295.148903 L180.238425,295.148903 Z" id="Fill-56" fill="#231F20"></path>
                        <path d="M194.464125,290.970493 L195.895125,290.970493 L195.895125,292.927836 L195.947625,292.927836 C196.354125,292.134116 196.870125,291.556797 197.497125,291.19513 C198.124125,290.834213 198.808875,290.653005 199.550625,290.653005 C200.627625,290.653005 201.497625,290.948778 202.159875,291.538826 C202.822875,292.129623 203.153625,293.08658 203.153625,294.408947 L203.153625,305.014841 L201.564375,305.014841 L201.564375,294.858222 C201.564375,292.936821 200.760375,291.975372 199.153125,291.975372 C198.199875,291.975372 197.444625,292.297353 196.888125,292.940565 C196.331625,293.584527 196.054125,294.461362 196.054125,295.57257 L196.054125,305.014841 L194.464125,305.014841 L194.464125,290.970493 Z" id="Fill-57" fill="#231F20"></path>
                        <path d="M208.9815,305.014541 L210.57075,305.014541 L210.57075,290.970193 L208.9815,290.970193 L208.9815,305.014541 Z M208.9815,288.827899 L210.57075,288.827899 L210.57075,286.13 L208.9815,286.13 L208.9815,288.827899 Z" id="Fill-58" fill="#231F20"></path>
                        <path d="M216.399075,290.970493 L217.829325,290.970493 L217.829325,292.927836 L217.882575,292.927836 C218.289075,292.134116 218.805075,291.556797 219.432075,291.19513 C220.059075,290.834213 220.743075,290.653005 221.485575,290.653005 C222.562575,290.653005 223.432575,290.948778 224.094825,291.538826 C224.757075,292.129623 225.087825,293.08658 225.087825,294.408947 L225.087825,305.014841 L223.498575,305.014841 L223.498575,294.858222 C223.498575,292.936821 222.695325,291.975372 221.088075,291.975372 C220.134075,291.975372 219.379575,292.297353 218.823075,292.940565 C218.266575,293.584527 217.988325,294.461362 217.988325,295.57257 L217.988325,305.014841 L216.399075,305.014841 L216.399075,290.970493 Z" id="Fill-59" fill="#231F20"></path>
                        <path d="M231.9231,297.820819 C231.9231,298.949249 231.9891,299.888234 232.12185,300.637775 C232.25385,301.387316 232.4481,301.98635 232.7046,302.436374 C232.96035,302.88565 233.27385,303.20763 233.6451,303.401568 C234.01635,303.595505 234.43935,303.692848 234.91635,303.692848 C235.39335,303.692848 235.8171,303.595505 236.18835,303.401568 C236.55885,303.20763 236.87235,302.88565 237.1281,302.436374 C237.3846,301.98635 237.57885,301.387316 237.7116,300.637775 C237.84435,299.888234 237.91035,298.949249 237.91035,297.820819 C237.91035,296.709611 237.84435,295.779611 237.7116,295.03007 C237.57885,294.281278 237.3846,293.681495 237.1281,293.23222 C236.87235,292.782196 236.55885,292.460215 236.18835,292.266278 C235.8171,292.072341 235.39335,291.975746 234.91635,291.975746 C234.43935,291.975746 234.01635,292.072341 233.6451,292.266278 C233.27385,292.460215 232.96035,292.782196 232.7046,293.23222 C232.4481,293.681495 232.25385,294.281278 232.12185,295.03007 C231.9891,295.779611 231.9231,296.709611 231.9231,297.820819 Z M238.06935,290.970867 L239.4996,290.970867 L239.4996,304.010336 C239.4996,305.984152 239.13285,307.457027 238.4001,308.427461 C237.66735,309.396399 236.49735,309.881616 234.8901,309.881616 C233.51235,309.881616 232.47435,309.559635 231.7776,308.916423 C231.07935,308.272461 230.7216,307.448041 230.70435,306.443162 L232.2936,306.443162 C232.2936,307.113331 232.5591,307.632993 233.0886,308.003645 C233.61885,308.374297 234.2361,308.559249 234.9426,308.559249 C236.9211,308.559249 237.91035,307.280312 237.91035,304.723935 L237.91035,302.502268 L237.8571,302.502268 C237.6096,303.366374 237.18585,304.00135 236.58585,304.406447 C235.9851,304.812292 235.31385,305.015215 234.5721,305.015215 C234.0246,305.015215 233.48985,304.914128 232.96935,304.711205 C232.4481,304.508283 231.9846,304.142123 231.57885,303.612727 C231.17235,303.08408 230.84535,302.365988 230.5986,301.457703 C230.3511,300.549418 230.22735,299.390287 230.22735,297.979563 C230.22735,295.528766 230.5896,293.694973 231.3141,292.478186 C232.03785,291.261399 233.17635,290.65263 234.7311,290.65263 C235.5261,290.65263 236.2101,290.869031 236.7846,291.301085 C237.35835,291.733138 237.7686,292.34565 238.0161,293.13937 L238.06935,293.13937 L238.06935,290.970867 Z" id="Fill-60" fill="#231F20"></path>
                    </g>
                </g>
            </g>
        </g>
    </g>
</svg>