<?xml version="1.0" encoding="UTF-8"?>
<svg width="315px" height="57px" viewBox="0 0 315 57" version="1.1" xmlns="http://www.w3.org/2000/svg" xmlns:xlink="http://www.w3.org/1999/xlink">
    <!-- Generator: sketchtool 51.2 (57519) - http://www.bohemiancoding.com/sketch -->
    <title>06B26277-FB39-4306-B22B-BB6D8BC2556D-26602-000004C87679CCAD</title>
    <desc>Created with sketchtool.</desc>
    <defs></defs>
    <g id="Logging-In---Wireframe-Match" stroke="none" stroke-width="1" fill="none" fill-rule="evenodd">
        <g id="Logging-In---Password-Incorrect-[Tablet]" transform="translate(-355.000000, -81.000000)">
            <g id="Mobile" transform="translate(355.000000, 81.000000)">
                <g id="Logo-/-Landscape">
                    <g id="Official-logo---landscape">
                        <path d="M96.7617589,24.4481992 L59.6673389,38.6612924 C60.0954658,38.3163496 60.5367584,37.9660999 61.0063327,37.605719 C71.4008452,29.6344031 85.223299,23.754454 93.9072542,20.5298413 C93.0085778,19.4072091 92.0650406,18.322207 91.0810313,17.2738701 C82.1454661,20.6600994 68.8808452,26.4884277 58.5209534,34.433692 C58.5073001,34.4438232 58.4951097,34.4539544 58.4814565,34.464568 C60.9809766,31.1574585 64.825342,27.2468196 70.7337864,23.3110939 C76.6875791,19.3440097 82.9110234,16.293557 87.9032371,14.1520166 C86.7885467,13.1437221 85.6299708,12.1817416 84.4328733,11.2665575 C79.6371689,13.4153344 73.980822,16.3085125 68.468322,19.9817922 C63.5160928,23.2807003 59.8838404,26.5998708 57.2126794,29.6459816 C59.2265339,25.4806156 62.4408993,20.8559691 67.5891501,16.5801249 C71.3330666,13.4712972 76.1009769,10.7633751 80.6085002,8.58999387 C79.2514645,7.72498331 77.8520063,6.91979501 76.4159769,6.17442896 C72.4165496,8.24263882 68.3527569,10.7064475 64.9813792,13.5065151 C59.1255974,18.3694858 55.5240648,23.6319148 53.3098001,28.352084 C54.5288403,22.5088002 57.408701,15.8796255 63.7379581,10.4734301 C66.3647461,8.22961301 69.5318127,6.20530497 72.7539799,4.44151321 C71.1589876,3.75838161 69.5249861,3.14906296 67.8558761,2.61596945 C66.6382987,3.35747599 65.4421764,4.13468292 64.2938405,4.94951997 C64.2197228,5.0025881 64.1446299,5.05469136 64.0709999,5.10775949 C63.8286547,5.28143702 63.590698,5.45849161 63.3527414,5.6355462 C63.1611083,5.77883015 62.970938,5.92356142 62.7817429,6.0682927 C62.7290804,6.10929989 62.6764178,6.15078952 62.6237553,6.19179671 C62.3136315,6.43205062 62.0088714,6.6756816 61.7080123,6.92172476 C61.5670912,7.03750977 61.4256825,7.15329479 61.2871996,7.27052712 C61.1813869,7.35881319 61.0765494,7.44709927 60.9726872,7.53586778 C58.7530587,9.44728543 56.9123079,11.4778652 55.3875323,13.5634428 C45.6434996,27.1816905 50.9414486,43.0461675 52.0195678,45.8959262 L98.8887404,27.9371877 C98.223632,26.7460494 97.513663,25.5824099 96.7617589,24.4481992" id="Fill-1" fill="#EF9D19"></path>
                        <path d="M46.2577498,40.1012733 L5.40722365,24.448104 C4.65531963,25.5823147 3.94535059,26.7459541 3.27975462,27.9375749 L47.3899944,44.8388102 C47.0125795,43.5762711 46.5995687,41.9702364 46.2577498,40.1012733" id="Fill-3" fill="#EF9D19"></path>
                        <path d="M49.9589023,14.5860178 C50.6132831,13.4107998 51.337393,12.2693525 52.1331825,11.1655353 C50.7498156,10.0814981 48.101085,8.13437998 43.7808063,5.43658903 C41.6226174,4.08865842 39.2391499,2.9124756 36.7942427,1.88874305 C34.7179734,2.44451114 32.6904656,3.11751157 30.7204965,3.90195508 C34.5092737,5.18089711 38.3726561,6.80574688 41.6157908,8.83053742 C46.2335153,11.7145493 48.8461624,13.6939907 49.9589023,14.5860178" id="Fill-5" fill="#EF9D19"></path>
                        <path d="M47.1410674,21.1879355 C47.5545659,19.8462765 48.0475458,18.5379057 48.6170814,17.2647529 C47.1503321,16.1966361 45.2471665,14.9032209 42.8237144,13.425032 C37.2380719,10.0190226 31.0190161,7.67485828 25.8527234,6.12189164 C24.1831259,6.98497251 22.564728,7.93055021 21.0019184,8.95380036 C26.4115315,10.3456328 34.1080641,12.8253621 40.6947825,16.8416551 C43.5868336,18.605447 45.6918724,20.0865304 47.1410674,21.1879355" id="Fill-7" fill="#EF9D19"></path>
                        <path d="M45.5403692,33.2759881 C45.5291541,32.832628 45.5272036,32.3921625 45.5296417,31.9531443 C32.352792,24.6832922 17.6111822,19.7397542 10.7470104,17.6368087 C9.75471168,18.7126446 8.80776122,19.8294876 7.90518383,20.9825134 C13.8755553,22.7627081 31.3960892,28.3623613 45.7695488,36.7143209 C45.6534962,35.6206348 45.5715767,34.4719509 45.5403692,33.2759881" id="Fill-9" fill="#EF9D19"></path>
                        <path d="M45.6744147,28.7814067 C45.8070462,27.2438781 46.0274487,25.736743 46.3400106,24.2653083 C44.8971546,23.2560489 43.0622553,22.0914445 40.7704597,20.8346946 C32.377124,16.2307926 22.9256613,13.2527054 17.1776429,11.6982914 C15.8908241,12.7085157 14.6498411,13.773738 13.4610331,14.8929932 C18.2801429,16.0879911 29.3982773,19.1862053 38.803904,24.3449105 C42.0319225,26.1154565 44.2544766,27.6674583 45.6744147,28.7814067" id="Fill-11" fill="#EF9D19"></path>
                        <path d="M53.7953195,9.0370205 C54.6515734,8.01955967 55.5721926,7.03779923 56.5566895,6.09415134 C55.1104201,4.78578066 52.111581,2.21969525 48.6222001,0.0718831987 C46.240683,0.176572151 43.8986628,0.431299186 41.6058918,0.828345303 C43.0989724,1.54331778 44.7398006,2.41218784 46.4362171,3.45280567 C49.6291274,5.41150219 52.4504742,7.8246549 53.7953195,9.0370205" id="Fill-13" fill="#EF9D19"></path>
                        <path d="M51.1496137,56.9733678 C53.8895287,56.9733678 56.1813244,55.0412053 56.7064869,52.4804267 L102.38734,35.1213581 C101.864128,33.8602663 101.29703,32.6232964 100.683609,31.4114132 L51.1934992,50.2264784 L1.70095129,31.4451838 C1.0899683,32.6580319 0.522870758,33.8940369 0.000146284824,35.1546463 L45.5927405,52.4813916 C46.117903,55.0421702 48.4101864,56.9733678 51.1496137,56.9733678" id="Fill-16" fill="#231F20"></path>
                        <path d="M122.154224,26.0156388 L122.154224,31.5139797 C122.154224,31.9766374 121.775346,32.3519738 121.307722,32.3519738 L117.596964,32.3519738 C117.12934,32.3519738 116.750462,31.9766374 116.750462,31.5139797 L116.750462,11.0156901 C116.750462,10.5530325 117.12934,10.1776961 117.596964,10.1776961 L130.995192,10.1776961 C131.462816,10.1776961 131.842181,10.5530325 131.842181,11.0156901 L131.842181,14.2316189 C131.842181,14.6942766 131.462816,15.0691305 130.995192,15.0691305 L123.000726,15.0691305 C122.533102,15.0691305 122.154224,15.4439845 122.154224,15.9066421 L122.154224,19.4491812 C122.154224,19.9118388 122.533102,20.2866928 123.000726,20.2866928 L129.479193,20.2866928 C129.946817,20.2866928 130.326182,20.6615468 130.326182,21.1242044 L130.326182,24.3401332 C130.326182,24.8027908 129.946817,25.1781272 129.479193,25.1781272 L123.000726,25.1781272 C122.533102,25.1781272 122.154224,25.5529812 122.154224,26.0156388" id="Fill-18" fill="#231F20"></path>
                        <path d="M139.267887,15.2974195 C139.735511,15.2974195 140.114389,15.6722735 140.114389,16.1349312 L140.114389,24.8844192 C140.114389,26.7104455 140.773646,27.4934417 142.1575,27.4934417 C143.289257,27.4934417 144.136247,26.7350498 144.542431,25.9747282 C144.603871,25.8594256 144.629227,25.7296499 144.629227,25.5993918 L144.629227,16.1349312 C144.629227,15.6722735 145.008104,15.2974195 145.475728,15.2974195 L149.350813,15.2974195 C149.818437,15.2974195 150.197803,15.6722735 150.197803,16.1349312 L150.197803,31.5140766 C150.197803,31.9767342 149.818437,32.3520707 149.350813,32.3520707 L145.070032,32.3520707 C144.826223,32.3520707 144.629227,32.1566834 144.629227,31.9154646 L144.629227,31.7215247 C144.629227,31.360179 144.213778,31.1570728 143.923646,31.3765819 C142.90014,32.1518591 141.454358,32.6453927 139.884234,32.6453927 C136.12764,32.6453927 134.545813,30.1671108 134.545813,26.0258666 L134.545813,16.1349312 C134.545813,15.6722735 134.925178,15.2974195 135.392802,15.2974195 L139.267887,15.2974195 Z" id="Fill-20" fill="#231F20"></path>
                        <path d="M165.281089,32.3521193 C164.813465,32.3521193 164.434587,31.9767828 164.434587,31.5141252 L164.434587,22.7974428 C164.434587,20.9386108 163.77533,20.156097 162.358318,20.156097 C161.23095,20.156097 160.413217,20.9091821 159.984115,21.667574 C159.916337,21.7872185 159.88708,21.9237484 159.88708,22.0612431 L159.88708,31.5141252 C159.88708,31.9767828 159.508202,32.3521193 159.040578,32.3521193 L155.197675,32.3521193 C154.730052,32.3521193 154.351174,31.9767828 154.351174,31.5141252 L154.351174,16.1349798 C154.351174,15.6723221 154.730052,15.2974681 155.197675,15.2974681 L159.445787,15.2974681 C159.689595,15.2974681 159.88708,15.4928553 159.88708,15.7340741 L159.88708,15.9304262 C159.88708,16.2908071 160.301066,16.4948782 160.59071,16.276334 C161.622505,15.499127 163.085354,15.0041461 164.632072,15.0041461 C168.388667,15.0041461 170.003164,17.4824279 170.003164,21.6236722 L170.003164,31.5141252 C170.003164,31.9767828 169.623798,32.3521193 169.156174,32.3521193 L165.281089,32.3521193 Z" id="Fill-22" fill="#231F20"></path>
                        <path d="M181.636214,27.8193776 C182.330091,27.8193776 183.002514,27.5197839 183.478427,27.1458947 C183.673474,26.9924796 183.778311,26.7522257 183.778311,26.5052176 L183.778311,21.2056406 C183.778311,20.9624921 183.676887,20.7256152 183.486717,20.5722 C183.02787,20.201688 182.353497,19.8625343 181.636214,19.8625343 C179.89006,19.8625343 178.901663,21.3629153 178.901663,23.8735205 C178.901663,26.3194791 179.922731,27.8193776 181.636214,27.8193776 M188.500385,32.3523599 L184.219604,32.3523599 C183.975795,32.3523599 183.778311,32.1564902 183.778311,31.9152715 C183.778311,31.5510311 183.35311,31.3459951 183.066879,31.575153 C182.216477,32.2568373 181.12958,32.6780052 179.791074,32.6780052 C175.870153,32.6780052 173.234101,29.5479503 173.234101,23.8083906 C173.234101,18.0693133 175.870153,15.003905 179.791074,15.003905 C180.819944,15.003905 181.72496,15.2726227 182.491492,15.7058517 C183.065904,16.0300497 183.778311,15.6460294 183.778311,14.9918441 L183.778311,10.0372103 C183.778311,9.57455265 184.157189,9.19969866 184.624813,9.19969866 L188.500385,9.19969866 C188.968009,9.19969866 189.346887,9.57455265 189.346887,10.0372103 L189.346887,31.5143658 C189.346887,31.9770235 188.968009,32.3523599 188.500385,32.3523599" id="Fill-24" fill="#231F20"></path>
                        <path d="M199.299919,28.6671654 C200.051823,28.6671654 200.681335,28.4249818 201.107999,28.0993364 C201.305972,27.9483335 201.408859,27.7051849 201.408859,27.4581769 L201.408859,25.989637 C201.408859,25.5428998 201.055337,25.1714229 200.604292,25.1521254 C200.498479,25.1477835 200.392179,25.1453713 200.288317,25.1453713 C198.739648,25.1453713 197.652264,25.7976268 197.652264,27.0370089 C197.652264,28.1779738 198.344191,28.6671654 199.299919,28.6671654 Z M202.25536,32.3520229 C201.787736,32.3520229 201.408858,31.9766865 201.408858,31.5140289 L201.408858,31.2433814 C200.453131,32.0587009 199.135104,32.6781507 197.454779,32.6781507 C194.15947,32.6781507 192.380159,30.6890607 192.380159,27.6236524 C192.380159,23.7757304 195.510654,21.8194461 199.89286,21.8194461 C200.387302,21.8194461 200.914415,21.8845751 201.408858,21.9497042 L201.408858,21.8517694 C201.408858,19.9934199 200.387302,19.5693573 198.805476,19.5693573 C197.869253,19.5693573 196.66094,19.8192599 195.62817,20.1420107 C195.153719,20.2906014 194.655375,19.9992092 194.551513,19.5177365 L193.985879,16.8990654 C193.895182,16.4793447 194.13899,16.0610713 194.550538,15.9259888 C196.222574,15.37601 198.094532,15.0040506 199.991846,15.0040506 C204.440367,15.0040506 206.812619,17.5802672 206.812619,22.0799624 L206.812619,31.5140289 C206.812619,31.9766865 206.433742,32.3520229 205.966118,32.3520229 L202.25536,32.3520229 Z" id="Fill-26" fill="#231F20"></path>
                        <path d="M227.121669,26.5890158 L225.576413,31.6271113 C225.468162,31.9802556 225.139509,32.2214744 224.765995,32.2214744 L219.920066,32.2214744 C219.550453,32.2214744 219.222775,31.9836326 219.112574,31.6343479 L212.624354,11.1355758 C212.453201,10.5962106 212.860361,10.0471967 213.431847,10.0471967 L217.669718,10.0471967 C218.048596,10.0471967 218.38115,10.2966169 218.484037,10.6569978 L222.068503,23.1743228 C222.299145,23.979511 223.448944,23.9896422 223.693727,23.1887959 L225.453046,17.4270441 C225.500833,17.2716992 225.50132,17.1057407 225.455484,16.9499133 L223.733712,11.1201378 C223.575724,10.5836673 223.981908,10.0471967 224.546568,10.0471967 L228.852706,10.0471967 C229.240848,10.0471967 229.579254,10.3086778 229.673851,10.6811196 L232.515678,21.8804252 C232.727791,22.7164895 233.923913,22.7285504 234.153093,21.8968281 L237.250918,10.6647168 C237.351367,10.299994 237.686359,10.0471967 238.067675,10.0471967 L242.363085,10.0471967 C242.935059,10.0471967 243.342706,10.5966931 243.171065,11.1365407 L236.652125,31.6353127 C236.540949,31.9841151 236.214246,32.2214744 235.844633,32.2214744 L230.978712,32.2214744 C230.599347,32.2214744 230.265817,31.9715717 230.163418,31.6097435 L228.746893,26.6063836 C228.518689,25.799748 227.367427,25.7872046 227.121669,26.5890158" id="Fill-28" fill="#231F20"></path>
                        <path d="M250.473417,28.5366652 C251.225321,28.5366652 251.854833,28.2944816 252.281497,27.9688362 C252.479469,27.8178333 252.582356,27.5746848 252.582356,27.3276767 L252.582356,25.8591368 C252.582356,25.4123996 252.228835,25.0409227 251.77779,25.0216252 C251.671977,25.0172833 251.565677,25.0148711 251.461815,25.0148711 C249.913146,25.0148711 248.825762,25.6671267 248.825762,26.9065087 C248.825762,28.0474736 249.517689,28.5366652 250.473417,28.5366652 Z M253.428857,32.2215227 C252.961234,32.2215227 252.582356,31.8466688 252.582356,31.3840111 L252.582356,31.1128812 C251.626628,31.9282007 250.308602,32.5476505 248.628277,32.5476505 C245.332968,32.5476505 243.553657,30.5585605 243.553657,27.4931522 C243.553657,23.6452302 246.684152,21.6889459 251.066358,21.6889459 C251.5608,21.6889459 252.087913,21.754075 252.582356,21.819204 L252.582356,21.7217516 C252.582356,19.8629197 251.5608,19.4388571 249.978974,19.4388571 C249.042751,19.4388571 247.834438,19.6887598 246.801667,20.0115105 C246.327217,20.1601012 245.828873,19.8691914 245.725011,19.3872363 L245.159376,16.7685652 C245.06868,16.3488445 245.312976,15.9305711 245.724523,15.7954886 C247.396071,15.2459922 249.268029,14.8735504 251.165344,14.8735504 C255.613865,14.8735504 257.986117,17.449767 257.986117,21.9499446 L257.986117,31.3840111 C257.986117,31.8466688 257.60724,32.2215227 257.139616,32.2215227 L253.428857,32.2215227 Z" id="Fill-30" fill="#231F20"></path>
                        <path d="M272.904731,32.2216206 C272.437108,32.2216206 272.05823,31.8467666 272.05823,31.384109 L272.05823,22.6669442 C272.05823,20.8085946 271.398973,20.0255984 269.98196,20.0255984 C268.854592,20.0255984 268.037347,20.7786835 267.607758,21.5370754 C267.539979,21.6567199 267.510722,21.7932497 267.510722,21.9307445 L267.510722,31.384109 C267.510722,31.8467666 267.131844,32.2216206 266.66422,32.2216206 L262.821805,32.2216206 C262.354182,32.2216206 261.974816,31.8467666 261.974816,31.384109 L261.974816,16.0049636 C261.974816,15.5423059 262.354182,15.1669695 262.821805,15.1669695 L267.069429,15.1669695 C267.313237,15.1669695 267.510722,15.3623567 267.510722,15.6035755 L267.510722,15.7999276 C267.510722,16.1603085 267.924708,16.3643796 268.21484,16.1458353 C269.246148,15.3686284 270.709484,14.8736474 272.255714,14.8736474 C276.012309,14.8736474 277.626806,17.3519293 277.626806,21.4931736 L277.626806,31.384109 C277.626806,31.8467666 277.247928,32.2216206 276.780304,32.2216206 L272.904731,32.2216206 Z" id="Fill-32" fill="#231F20"></path>
                        <path d="M289.260122,27.6888297 C289.953999,27.6888297 290.626422,27.389236 291.102335,27.0153468 C291.297382,26.8619317 291.402219,26.6216778 291.402219,26.3751521 L291.402219,21.0750927 C291.402219,20.8319442 291.300795,20.5955497 291.110625,20.4416521 C290.651778,20.0711401 289.977405,19.7319864 289.260122,19.7319864 C287.513968,19.7319864 286.525571,21.2323674 286.525571,23.7429726 C286.525571,26.1889312 287.546639,27.6888297 289.260122,27.6888297 M296.124293,32.221812 L291.843512,32.221812 C291.599703,32.221812 291.402219,32.0259423 291.402219,31.7847236 C291.402219,31.4204832 290.977018,31.2154472 290.690787,31.4450875 C289.840385,32.1262894 288.753488,32.5474573 287.414982,32.5474573 C283.493574,32.5474573 280.858009,29.4174024 280.858009,23.6778427 C280.858009,17.9387654 283.493574,14.8738396 287.414982,14.8738396 C288.443852,14.8738396 289.348868,15.1425573 290.1154,15.5753038 C290.689324,15.8995018 291.402219,15.5154815 291.402219,14.8617786 L291.402219,9.90666237 C291.402219,9.44400475 291.781097,9.06915076 292.24872,9.06915076 L296.124293,9.06915076 C296.591917,9.06915076 296.970795,9.44400475 296.970795,9.90666237 L296.970795,31.3838179 C296.970795,31.8464756 296.591917,32.221812 296.124293,32.221812" id="Fill-34" fill="#231F20"></path>
                        <path d="M309.376184,21.6562856 C309.795046,21.6562856 310.151493,21.3272632 310.152956,20.9128493 L310.152956,20.9060952 C310.152956,19.6020665 309.362043,18.9498109 308.17616,18.9498109 C307.002956,18.9498109 306.283722,19.6228113 305.985301,20.7111904 C305.854132,21.1892861 306.2413,21.6562856 306.742569,21.6562856 L309.376184,21.6562856 Z M306.534356,25.0473389 C306.038939,25.0473389 305.655185,25.5037248 305.774163,25.9794082 C306.104767,27.3041818 307.033675,28.2434877 308.868087,28.2434877 C310.059821,28.2434877 311.135014,27.7986803 311.987367,27.2670341 C312.375509,27.0248504 312.887994,27.1744061 313.090355,27.5815834 L314.317684,30.0526285 C314.48835,30.397089 314.377173,30.8124677 314.05876,31.0310119 C312.553977,32.0605337 310.543536,32.6780537 308.143002,32.6780537 C302.804581,32.6780537 300.267515,28.8952608 300.267515,23.7433101 C300.267515,18.5257479 303.364852,14.7106317 308.076686,14.7106317 C312.75585,14.7106317 314.699975,17.6781051 314.699975,21.6562852 C314.699975,22.5873897 314.617568,23.6005086 314.451291,24.435608 C314.380099,24.7940591 314.058272,25.0478213 313.688659,25.0478213 L306.534356,25.0473389 Z" id="Fill-36" fill="#231F20"></path>
                        <path d="M117.474711,44.3247236 L118.719595,44.3247236 C119.293032,44.3247236 119.738225,44.1978425 120.055176,43.9440804 C120.371638,43.6903182 120.530114,43.2947194 120.530114,42.7568015 C120.530114,42.2642328 120.405772,41.8802124 120.1566,41.6037757 C119.907916,41.3278214 119.455408,41.1893619 118.798589,41.1893619 L117.474711,41.1893619 L117.474711,44.3247236 Z M116.750601,40.5848676 L119.160888,40.5848676 C119.847451,40.5848676 120.367738,40.7604749 120.722722,41.111207 C121.077219,41.4619391 121.254224,41.9545079 121.254224,42.5889133 C121.254224,42.8282024 121.227892,43.05929 121.17523,43.283141 C121.12208,43.5074745 121.039673,43.7091334 120.926546,43.8881178 C120.812931,44.0671021 120.664208,44.2205173 120.479402,44.3469159 C120.294595,44.4742794 120.065903,44.5635304 119.794789,44.6161161 L119.794789,44.6383082 C120.299959,44.6831749 120.652993,44.8529929 120.852916,45.1477623 C121.052351,45.4425317 121.160114,45.9032596 121.17523,46.5304284 L121.198148,47.4036405 C121.205462,47.6207374 121.227892,47.8315626 121.265926,48.0365986 C121.303473,48.242117 121.394169,48.4230311 121.537529,48.5793409 L120.688589,48.5793409 C120.605694,48.4379867 120.551081,48.2700984 120.524262,48.075676 C120.497931,47.8817361 120.481352,47.6762177 120.47355,47.4600857 L120.45112,46.7880501 C120.436004,46.437318 120.405772,46.1425486 120.360423,45.9032596 C120.315075,45.664453 120.234131,45.4724428 120.117103,45.3267467 C120.000075,45.1810505 119.840137,45.0787737 119.636313,45.0189515 C119.43249,44.9591292 119.168202,44.9292181 118.843937,44.9292181 L117.474711,44.9292181 L117.474711,48.5793409 L116.750601,48.5793409 L116.750601,40.5848676 Z" id="Fill-38" fill="#231F20"></path>
                        <path d="M126.596065,45.0749638 C126.580949,44.3358694 126.467822,43.8153193 126.256684,43.5128309 C126.045546,43.2103425 125.732009,43.0593396 125.317048,43.0593396 C124.894772,43.0593396 124.577822,43.2103425 124.366684,43.5128309 C124.155546,43.8153193 124.045833,44.3358694 124.038518,45.0749638 L126.596065,45.0749638 Z M127.264099,46.6086328 C127.210949,47.2435206 127.01639,47.7529747 126.68091,48.1374775 C126.344943,48.5219802 125.894385,48.7139904 125.328751,48.7139904 C125.0118,48.7139904 124.728495,48.6560979 124.479811,48.5403129 C124.230639,48.4245278 124.019501,48.2436137 123.84591,47.9975706 C123.672319,47.751045 123.540662,47.430224 123.449966,47.0346252 C123.359269,46.6385439 123.314408,46.1609307 123.314408,45.6013031 C123.314408,44.5563433 123.493363,43.7781715 123.851761,43.2663053 C124.209672,42.7554039 124.721181,42.4997119 125.385314,42.4997119 C126.04896,42.4997119 126.537551,42.7332117 126.8506,43.1992464 C127.16365,43.666246 127.320175,44.3956916 127.320175,45.3880657 L127.320175,45.6345913 L124.038518,45.6345913 L124.038518,45.9144051 C124.038518,46.3403975 124.074114,46.6964364 124.146281,46.9839692 C124.217473,47.271502 124.311583,47.5030721 124.429099,47.6781969 C124.545639,47.8538042 124.681684,47.9768258 124.836258,48.0477441 C124.990833,48.1186624 125.151258,48.1538804 125.317048,48.1538804 C126.04896,48.1538804 126.471723,47.638637 126.58485,46.6086328 L127.264099,46.6086328 Z" id="Fill-40" fill="#231F20"></path>
                        <path d="M132.265818,45.2205628 L132.243388,45.2205628 C132.205354,45.3252518 132.109293,45.4072662 131.954719,45.466606 C131.799657,45.5264283 131.654835,45.5751545 131.51879,45.6123022 L130.953156,45.7579983 C130.613775,45.8472493 130.356801,45.9857088 130.18321,46.1724122 C130.010106,46.3586331 129.92331,46.6312103 129.92331,46.9896614 C129.92331,47.3481126 130.008156,47.6317858 130.177846,47.8406813 C130.347536,48.0495768 130.579642,48.1542657 130.874162,48.1542657 C131.288635,48.1542657 131.624603,48.0085696 131.881089,47.7171773 C132.137575,47.4262674 132.265818,47.0118536 132.265818,46.4744181 L132.265818,45.2205628 Z M129.391321,44.4033136 C129.391321,43.7911004 129.540532,43.3207237 129.838465,42.9921837 C130.136399,42.6641262 130.605973,42.499615 131.247188,42.499615 C131.865973,42.499615 132.303852,42.6453111 132.560338,42.936221 C132.816337,43.2276133 132.945067,43.6082565 132.945067,44.0781507 L132.945067,47.5941558 C132.945067,47.9226958 133.061608,48.0867245 133.295663,48.0867245 L133.488272,48.0867245 L133.488272,48.5792933 C133.360029,48.62416 133.254216,48.6468346 133.171321,48.6468346 C132.907033,48.6468346 132.695896,48.6000381 132.53742,48.5069277 C132.378945,48.4133348 132.299951,48.2140881 132.299951,47.9077402 L132.299951,47.7060813 L132.277033,47.7060813 C132.209255,47.9005036 132.122459,48.0626027 132.017134,48.1933433 C131.911321,48.3240838 131.790392,48.4282904 131.654835,48.5069277 C131.51879,48.5850826 131.372018,48.6391156 131.213543,48.6690267 C131.055067,48.6989378 130.892691,48.7138934 130.726902,48.7138934 C130.198813,48.7138934 129.811646,48.5628904 129.566863,48.2604021 C129.321592,47.9579137 129.198713,47.5492891 129.198713,47.0345282 C129.198713,46.6312104 129.29331,46.2857851 129.482018,45.9987347 C129.670238,45.7116844 129.979874,45.5080957 130.409951,45.3884512 L131.688481,45.0300001 C131.809409,45.0000889 131.90742,44.9668007 131.983001,44.9291706 C132.058094,44.8920229 132.116608,44.8394372 132.158543,44.7723784 C132.19999,44.7053196 132.227784,44.6175159 132.243388,44.5094499 C132.258016,44.4013839 132.265818,44.261477 132.265818,44.0897292 C132.265818,43.709086 132.171708,43.4418156 131.983001,43.2888828 C131.794293,43.1359501 131.541708,43.059725 131.224758,43.059725 C130.817111,43.059725 130.523078,43.1750276 130.342173,43.4065976 C130.160779,43.6381676 130.07057,43.9700847 130.07057,44.4033136 L129.391321,44.4033136 Z" id="Fill-42" fill="#231F20"></path>
                        <path d="M135.94386,45.6012535 C135.94386,46.1536445 135.979456,46.597487 136.051623,46.933746 C136.122815,47.2695226 136.221314,47.5271442 136.345656,47.7061286 C136.469998,47.8851129 136.609456,48.0047574 136.764518,48.0645797 C136.919092,48.1244019 137.082931,48.1543131 137.256522,48.1543131 C137.430114,48.1543131 137.596391,48.1244019 137.754378,48.0645797 C137.913341,48.0047574 138.0528,47.8851129 138.173241,47.7061286 C138.293682,47.5271442 138.39023,47.2695226 138.461909,46.933746 C138.533589,46.597487 138.569185,46.1536445 138.569185,45.6012535 C138.569185,45.0565815 138.533589,44.616116 138.461909,44.279857 C138.39023,43.9440804 138.293682,43.6864588 138.173241,43.5074744 C138.0528,43.3280077 137.913341,43.2088456 137.754378,43.1490233 C137.596391,43.0892011 137.430114,43.0592899 137.256522,43.0592899 C137.082931,43.0592899 136.919092,43.0892011 136.764518,43.1490233 C136.609456,43.2088456 136.469998,43.3280077 136.345656,43.5074744 C136.221314,43.6864588 136.122815,43.9440804 136.051623,44.279857 C135.979456,44.616116 135.94386,45.0565815 135.94386,45.6012535 Z M138.637451,47.5942034 L138.615021,47.5942034 C138.524324,47.937699 138.346832,48.2102763 138.083032,48.4114527 C137.818744,48.6131116 137.505694,48.7139411 137.143396,48.7139411 C136.47975,48.7139411 135.993109,48.4563194 135.683473,47.9415585 C135.374324,47.4263152 135.21975,46.6462136 135.21975,45.6012537 C135.21975,44.5635304 135.374324,43.7872884 135.683473,43.272045 C135.993109,42.7568016 136.47975,42.4996624 137.143396,42.4996624 C137.528612,42.4996624 137.839711,42.5932553 138.07718,42.7794762 C138.31465,42.9661796 138.471174,43.2160822 138.546755,43.5296667 L138.569185,43.5296667 L138.569185,40.5848676 L139.248434,40.5848676 L139.248434,48.579341 L138.637451,48.579341 L138.637451,47.5942034 Z" id="Fill-44" fill="#231F20"></path>
                        <path d="M141.670035,48.5795345 L142.349284,48.5795345 L142.349284,42.6339739 L141.670035,42.6339739 L141.670035,48.5795345 Z M141.670035,41.7269913 L142.349284,41.7269913 L142.349284,40.5850615 L141.670035,40.5850615 L141.670035,41.7269913 Z" id="Fill-46" fill="#231F20"></path>
                        <path d="M144.838808,42.6340711 L145.449791,42.6340711 L145.449791,43.4624165 L145.472709,43.4624165 C145.645813,43.1266399 145.866703,42.882044 146.134404,42.7291113 C146.402105,42.5761786 146.694675,42.499471 147.011625,42.499471 C147.471447,42.499471 147.843498,42.6244224 148.126316,42.8748075 C148.409133,43.1251926 148.550542,43.5294753 148.550542,44.0895853 L148.550542,48.5796318 L147.87178,48.5796318 L147.87178,44.2801481 C147.87178,43.466276 147.528498,43.0595811 146.841935,43.0595811 C146.434288,43.0595811 146.111974,43.1956285 145.874505,43.4682057 C145.636548,43.7407829 145.51757,44.1117774 145.51757,44.5821541 L145.51757,48.5796318 L144.838808,48.5796318 L144.838808,42.6340711 Z" id="Fill-48" fill="#231F20"></path>
                        <path d="M151.470243,45.5338564 C151.470243,46.0119521 151.498525,46.4089982 151.555088,46.7264422 C151.612139,47.0438861 151.694546,47.2976483 151.80426,47.4877287 C151.913486,47.6782915 152.047581,47.8143389 152.206056,47.8963533 C152.364531,47.9788501 152.545437,48.0198573 152.74926,48.0198573 C152.953084,48.0198573 153.133989,47.9788501 153.292464,47.8963533 C153.45094,47.8143389 153.584546,47.6782915 153.69426,47.4877287 C153.803486,47.2976483 153.886381,47.0438861 153.942944,46.7264422 C153.999508,46.4089982 154.028277,46.0119521 154.028277,45.5338564 C154.028277,45.0634798 153.999508,44.6698107 153.942944,44.3528492 C153.886381,44.0354053 153.803486,43.7816431 153.69426,43.5915627 C153.584546,43.4009999 153.45094,43.2649525 153.292464,43.1824556 C153.133989,43.1004412 152.953084,43.0594341 152.74926,43.0594341 C152.545437,43.0594341 152.364531,43.1004412 152.206056,43.1824556 C152.047581,43.2649525 151.913486,43.4009999 151.80426,43.5915627 C151.694546,43.7816431 151.612139,44.0354053 151.555088,44.3528492 C151.498525,44.6698107 151.470243,45.0634798 151.470243,45.5338564 Z M154.096056,42.6339241 L154.707039,42.6339241 L154.707039,48.1539749 C154.707039,48.9900392 154.550514,49.6133485 154.237464,50.0239029 C153.924415,50.4344573 153.424121,50.6399757 152.738045,50.6399757 C152.149492,50.6399757 151.705762,50.5034459 151.408316,50.2308686 C151.109895,49.9582914 150.957271,49.609489 150.949957,49.1839791 L151.628718,49.1839791 C151.628718,49.4676524 151.741845,49.6881264 151.968099,49.8449186 C152.194841,50.0017108 152.458641,50.0798657 152.760475,50.0798657 C153.605514,50.0798657 154.028277,49.5385707 154.028277,48.4564632 L154.028277,47.5157099 L154.005359,47.5157099 C153.899547,47.8818801 153.718641,48.1501154 153.462155,48.3218631 C153.205669,48.4936109 152.918951,48.5794848 152.602,48.5794848 C152.367944,48.5794848 152.13974,48.5365479 151.917387,48.450674 C151.694546,48.3652825 151.496574,48.2099376 151.323471,47.9860866 C151.149392,47.7622355 151.009933,47.4582999 150.904608,47.0733147 C150.798796,46.6892944 150.746133,46.1981729 150.746133,45.6013976 C150.746133,44.5636744 150.900707,43.7869499 151.209856,43.272189 C151.519492,42.7569457 152.006133,42.499324 152.669779,42.499324 C153.009647,42.499324 153.301729,42.5909871 153.547,42.773831 C153.792271,42.9571573 153.967813,43.2162262 154.073138,43.5520028 L154.096056,43.5520028 L154.096056,42.6339241 Z" id="Fill-49" fill="#231F20"></path>
                        <path d="M161.248018,43.1937474 L160.421996,43.1937474 L160.421996,42.6341198 L161.248018,42.6341198 L161.248018,41.9283136 C161.248018,41.7266547 161.263134,41.5385041 161.293366,41.3633792 C161.323111,41.187772 161.383575,41.0348393 161.474272,40.9040987 C161.564969,40.7733581 161.696625,40.6725287 161.870216,40.6016103 C162.043808,40.530692 162.273962,40.4954741 162.560681,40.4954741 C162.666493,40.4954741 162.749388,40.4974038 162.809853,40.5007809 C162.869829,40.5046404 162.930294,40.5138067 162.990758,40.5287623 L162.990758,41.0888723 C162.884945,41.0661977 162.775719,41.0551016 162.662592,41.0551016 C162.413421,41.0551016 162.228614,41.1149239 162.108173,41.234086 C161.987244,41.3537305 161.927267,41.5853005 161.927267,41.9283136 L161.927267,42.6341198 L162.990758,42.6341198 L162.990758,43.1937474 L161.927267,43.1937474 L161.927267,48.5796803 L161.248018,48.5796803 L161.248018,43.1937474 Z" id="Fill-50" fill="#231F20"></path>
                        <path d="M165.310588,45.601253 C165.310588,46.0788662 165.344721,46.4802543 165.4125,46.8049348 C165.480278,47.1296152 165.574876,47.3925437 165.695805,47.5942026 C165.816246,47.7958615 165.957654,47.9396279 166.120031,48.0250194 C166.281919,48.1113757 166.460874,48.1543126 166.657384,48.1543126 C166.845603,48.1543126 167.023096,48.1113757 167.189373,48.0250194 C167.355162,47.9396279 167.498521,47.7958615 167.61945,47.5942026 C167.739891,47.3925437 167.834489,47.1296152 167.902268,46.8049348 C167.970046,46.4802543 168.004179,46.0788662 168.004179,45.601253 C168.004179,45.1308764 167.970046,44.7333478 167.902268,44.4086674 C167.834489,44.0839869 167.739891,43.8210584 167.61945,43.6193995 C167.498521,43.4177406 167.355162,43.2739742 167.189373,43.1881003 C167.023096,43.1022264 166.845603,43.0592895 166.657384,43.0592895 C166.460874,43.0592895 166.281919,43.1022264 166.120031,43.1881003 C165.957654,43.2739742 165.816246,43.4177406 165.695805,43.6193995 C165.574876,43.8210584 165.480278,44.0839869 165.4125,44.4086674 C165.344721,44.7333478 165.310588,45.1308764 165.310588,45.601253 M164.586478,45.6012531 C164.586478,44.5562933 164.765433,43.7781215 165.123831,43.2667376 C165.482229,42.7553538 165.99325,42.4996619 166.657383,42.4996619 C167.321517,42.4996619 167.832538,42.7553538 168.190936,43.2667376 C168.549334,43.7781215 168.728289,44.5562933 168.728289,45.6012531 C168.728289,46.6539319 168.549334,47.4354807 168.190936,47.9468646 C167.832538,48.4582484 167.321517,48.7139403 166.657383,48.7139403 C165.99325,48.7139403 165.482229,48.4582484 165.123831,47.9468646 C164.765433,47.4354807 164.586478,46.6539319 164.586478,45.6012531" id="Fill-51" fill="#231F20"></path>
                        <path d="M170.85581,42.6340711 L171.535059,42.6340711 L171.535059,43.5632459 L171.557489,43.5632459 C171.685732,43.2274694 171.880291,42.9659882 172.140191,42.7792848 C172.400578,42.5930639 172.712164,42.499471 173.073975,42.499471 C173.149556,42.499471 173.22855,42.5110495 173.311932,42.5332417 L173.311932,43.2052772 C173.198805,43.1826027 173.089092,43.1715066 172.983279,43.1715066 C172.795059,43.1715066 172.613666,43.2052772 172.440562,43.272336 C172.266971,43.3393949 172.112397,43.4440838 171.976352,43.5859205 C171.840794,43.7277571 171.733031,43.902882 171.654037,44.1117774 C171.574556,44.3211553 171.535059,44.571058 171.535059,44.8619679 L171.535059,48.5796318 L170.85581,48.5796318 L170.85581,42.6340711 Z" id="Fill-52" fill="#231F20"></path>
                        <polygon id="Fill-53" fill="#231F20" points="179.02674 40.5848676 180.282839 40.5848676 182.229402 47.6839367 182.251832 47.6839367 184.198396 40.5848676 185.386716 40.5848676 185.386716 48.5793409 184.662606 48.5793409 184.662606 41.2569031 184.640176 41.2569031 182.546353 48.5793409 181.867103 48.5793409 179.773767 41.2569031 179.75085 41.2569031 179.75085 48.5793409 179.02674 48.5793409"></polygon>
                        <path d="M190.909504,45.0749638 C190.894387,44.3358694 190.780773,43.8153193 190.570123,43.5128309 C190.358497,43.2103425 190.045448,43.0593396 189.630486,43.0593396 C189.208211,43.0593396 188.89126,43.2103425 188.680123,43.5128309 C188.468497,43.8153193 188.359271,44.3358694 188.351469,45.0749638 L190.909504,45.0749638 Z M191.57705,46.6086328 C191.524387,47.2435206 191.329828,47.7529747 190.994349,48.1374775 C190.658381,48.5219802 190.207824,48.7139904 189.641702,48.7139904 C189.324751,48.7139904 189.041934,48.6560979 188.79325,48.5403129 C188.544078,48.4245278 188.33294,48.2436137 188.159349,47.9975706 C187.985757,47.751045 187.853613,47.430224 187.763404,47.0346252 C187.672708,46.6385439 187.627359,46.1609307 187.627359,45.6013031 C187.627359,44.5563433 187.806802,43.7781715 188.1652,43.2663053 C188.52311,42.7554039 189.03462,42.4997119 189.698753,42.4997119 C190.362398,42.4997119 190.850989,42.7332117 191.164039,43.1992464 C191.477088,43.666246 191.633613,44.3956916 191.633613,45.3880657 L191.633613,45.6345913 L188.351469,45.6345913 L188.351469,45.9144051 C188.351469,46.3403975 188.387553,46.6964364 188.459233,46.9839692 C188.530912,47.271502 188.625022,47.5030721 188.74205,47.6781969 C188.859078,47.8538042 188.995123,47.9768258 189.149697,48.0477441 C189.304271,48.1186624 189.464697,48.1538804 189.630486,48.1538804 C190.362398,48.1538804 190.785161,47.638637 190.898288,46.6086328 L191.57705,46.6086328 Z" id="Fill-54" fill="#231F20"></path>
                        <path d="M196.579212,45.2205628 L196.556782,45.2205628 C196.518748,45.3252518 196.422687,45.4072662 196.268113,45.466606 C196.113051,45.5264283 195.968229,45.5751545 195.832184,45.6123022 L195.266549,45.7579983 C194.926681,45.8472493 194.670195,45.9857088 194.496604,46.1724122 C194.3235,46.3586331 194.236704,46.6312103 194.236704,46.9896614 C194.236704,47.3481126 194.321549,47.6317858 194.49124,47.8406813 C194.66093,48.0495768 194.893035,48.1542657 195.187068,48.1542657 C195.602029,48.1542657 195.937997,48.0085696 196.194483,47.7171773 C196.450481,47.4262674 196.579212,47.0118536 196.579212,46.4744181 L196.579212,45.2205628 Z M193.704715,44.4033136 C193.704715,43.7911004 193.853438,43.3207237 194.151371,42.9921837 C194.449792,42.6641262 194.919367,42.499615 195.560582,42.499615 C196.179367,42.499615 196.616758,42.6453111 196.873732,42.936221 C197.12973,43.2276133 197.258461,43.6082565 197.258461,44.0781507 L197.258461,47.5941558 C197.258461,47.9226958 197.375001,48.0867245 197.609057,48.0867245 L197.801178,48.0867245 L197.801178,48.5792933 C197.672935,48.62416 197.56761,48.6468346 197.484227,48.6468346 C197.220427,48.6468346 197.009289,48.6000381 196.850814,48.5069277 C196.692339,48.4133348 196.613345,48.2140881 196.613345,47.9077402 L196.613345,47.7060813 L196.590427,47.7060813 C196.522648,47.9005036 196.435853,48.0626027 196.33004,48.1933433 C196.224227,48.3240838 196.103786,48.4282904 195.968229,48.5069277 C195.832184,48.5850826 195.685412,48.6391156 195.526449,48.6690267 C195.368461,48.6989378 195.206085,48.7138934 195.039808,48.7138934 C194.51172,48.7138934 194.12504,48.5628904 193.880257,48.2604021 C193.634498,47.9579137 193.512107,47.5492891 193.512107,47.0345282 C193.512107,46.6312104 193.606704,46.2857851 193.795412,45.9987347 C193.983631,45.7116844 194.293268,45.5080957 194.723345,45.3884512 L196.001874,45.0300001 C196.122316,45.0000889 196.220814,44.9668007 196.295907,44.9291706 C196.371487,44.8920229 196.430001,44.8394372 196.471449,44.7723784 C196.512896,44.7053196 196.541178,44.6175159 196.556782,44.5094499 C196.57141,44.4013839 196.579212,44.261477 196.579212,44.0897292 C196.579212,43.709086 196.484614,43.4418156 196.295907,43.2888828 C196.107687,43.1359501 195.855102,43.059725 195.538152,43.059725 C195.130504,43.059725 194.836472,43.1750276 194.655079,43.4065976 C194.474173,43.6381676 194.383964,43.9700847 194.383964,44.4033136 L193.704715,44.4033136 Z" id="Fill-55" fill="#231F20"></path>
                        <path d="M199.781831,42.6340711 L200.392814,42.6340711 L200.392814,43.4624165 L200.415732,43.4624165 C200.589323,43.1266399 200.809725,42.882044 201.077427,42.7291113 C201.345615,42.5761786 201.637697,42.499471 201.954648,42.499471 C202.414957,42.499471 202.786521,42.6244224 203.069338,42.8748075 C203.352156,43.1251926 203.493564,43.5294753 203.493564,44.0895853 L203.493564,48.5796318 L202.814803,48.5796318 L202.814803,44.2801481 C202.814803,43.466276 202.471521,43.0595811 201.784957,43.0595811 C201.37731,43.0595811 201.054996,43.1956285 200.817527,43.4682057 C200.579571,43.7407829 200.46108,44.1117774 200.46108,44.5821541 L200.46108,48.5796318 L199.781831,48.5796318 L199.781831,42.6340711 Z" id="Fill-56" fill="#231F20"></path>
                        <path d="M205.983669,48.5795345 L206.662918,48.5795345 L206.662918,42.6339739 L205.983669,42.6339739 L205.983669,48.5795345 Z M205.983669,41.7269913 L206.662918,41.7269913 L206.662918,40.5850615 L205.983669,40.5850615 L205.983669,41.7269913 Z" id="Fill-57" fill="#231F20"></path>
                        <path d="M209.151999,42.6340711 L209.762982,42.6340711 L209.762982,43.4624165 L209.7859,43.4624165 C209.959492,43.1266399 210.179894,42.882044 210.448083,42.7291113 C210.715784,42.5761786 211.007866,42.499471 211.325304,42.499471 C211.785126,42.499471 212.15669,42.6244224 212.439507,42.8748075 C212.722812,43.1251926 212.864221,43.5294753 212.864221,44.0895853 L212.864221,48.5796318 L212.184972,48.5796318 L212.184972,44.2801481 C212.184972,43.466276 211.84169,43.0595811 211.155126,43.0595811 C210.747479,43.0595811 210.425165,43.1956285 210.187696,43.4682057 C209.949739,43.7407829 209.831249,44.1117774 209.831249,44.5821541 L209.831249,48.5796318 L209.151999,48.5796318 L209.151999,42.6340711 Z" id="Fill-58" fill="#231F20"></path>
                        <path d="M215.783865,45.5338564 C215.783865,46.0119521 215.812146,46.4089982 215.86871,46.7264422 C215.925273,47.0438861 216.008168,47.2976483 216.117882,47.4877287 C216.227108,47.6782915 216.361202,47.8143389 216.51919,47.8963533 C216.677665,47.9788501 216.859058,48.0198573 217.062882,48.0198573 C217.266217,48.0198573 217.447611,47.9788501 217.605598,47.8963533 C217.764561,47.8143389 217.898168,47.6782915 218.007881,47.4877287 C218.117107,47.2976483 218.200002,47.0438861 218.256566,46.7264422 C218.313129,46.4089982 218.341411,46.0119521 218.341411,45.5338564 C218.341411,45.0634798 218.313129,44.6698107 218.256566,44.3528492 C218.200002,44.0354053 218.117107,43.7816431 218.007881,43.5915627 C217.898168,43.4009999 217.764561,43.2649525 217.605598,43.1824556 C217.447611,43.1004412 217.266217,43.0594341 217.062882,43.0594341 C216.859058,43.0594341 216.677665,43.1004412 216.51919,43.1824556 C216.361202,43.2649525 216.227108,43.4009999 216.117882,43.5915627 C216.008168,43.7816431 215.925273,44.0354053 215.86871,44.3528492 C215.812146,44.6698107 215.783865,45.0634798 215.783865,45.5338564 Z M218.40919,42.6339241 L219.02066,42.6339241 L219.02066,48.1539749 C219.02066,48.9900392 218.863648,49.6133485 218.550598,50.0239029 C218.237549,50.4344573 217.737742,50.6399757 217.051179,50.6399757 C216.463114,50.6399757 216.019383,50.5034459 215.72145,50.2308686 C215.423516,49.9582914 215.270405,49.609489 215.263091,49.1839791 L215.94234,49.1839791 C215.94234,49.4676524 216.055467,49.6881264 216.281721,49.8449186 C216.507974,50.0017108 216.772262,50.0798657 217.074097,50.0798657 C217.918648,50.0798657 218.341411,49.5385707 218.341411,48.4564632 L218.341411,47.5157099 L218.318981,47.5157099 C218.213168,47.8818801 218.031775,48.1501154 217.775289,48.3218631 C217.51929,48.4936109 217.232572,48.5794848 216.915622,48.5794848 C216.681566,48.5794848 216.453361,48.5365479 216.231009,48.450674 C216.008168,48.3652825 215.810196,48.2099376 215.636604,47.9860866 C215.463013,47.7622355 215.323555,47.4582999 215.217742,47.0733147 C215.112417,46.6892944 215.059755,46.1981729 215.059755,45.6013976 C215.059755,44.5636744 215.214329,43.7869499 215.523478,43.272189 C215.833114,42.7569457 216.319267,42.499324 216.9834,42.499324 C217.322781,42.499324 217.615351,42.5909871 217.860622,42.773831 C218.105405,42.9571573 218.280947,43.2162262 218.386759,43.5520028 L218.40919,43.5520028 L218.40919,42.6339241 Z" id="Fill-59" fill="#231F20"></path>
                    </g>
                </g>
            </g>
        </g>
    </g>
</svg>