<svg xmlns="http://www.w3.org/2000/svg" fill = "#fff" width="20px" height="31px" viewBox="0 0 1000 1000" enable-background="new 0 0 1000 1000">
    <path d="M487.67 60.32c-19.47 6.23-36.34 21.29-46.73 41.28l-9.09 17.91-.78 136.81c-.52 83.85.26 139.15 1.82 143.3 3.12 8.57 15.58 13.24 23.88 8.83 12.46-6.23 12.72-7.27 12.72-149.27 0-133.18 0-133.18 5.71-143.56 3.37-5.71 10.64-13.24 16.61-16.61l10.64-6.23h422.12l11.42 6.49c6.75 4.15 13.24 10.64 16.35 16.87 5.19 10.12 5.19 15.32 5.19 384.21 0 316.98-.52 375.13-3.64 381.1-4.93 9.35-16.87 20.25-25.7 23.63-4.93 2.08-74.51 2.85-215.47 2.85-196.52 0-208.72-.26-218.59-4.93-12.46-5.71-17.91-11.42-23.36-24.4-3.37-7.79-3.89-25.18-3.89-107.73v-98.39l-5.97-5.45c-7.53-7.27-18.43-7.27-25.18-.52-5.19 5.19-5.45 7.53-4.67 112.41.78 105.92.78 106.96 6.75 118.12 9.09 17.14 22.85 30.89 38.94 38.68l14.8 7.27h219.36c218.32 0 219.36 0 231.05-5.45 16.62-8.05 31.41-21.81 40.24-37.64l7.79-14.02v-771.04l-7.01-13.24c-7.79-14.8-22.59-29.08-38.94-37.9l-11.16-5.97-216.77-.52c-181.19-.52-218.58 0-228.44 3.11zM221.58 318.63c-9.35 3.89-211.58 208.72-211.58 214.17 0 3.12 39.2 44.13 105.66 110.85 93.98 94.24 106.7 105.92 113.97 105.92 10.12 0 16.61-7.01 16.61-17.65 0-7.53-7.01-15.06-62.82-70.09-34.79-33.75-73.21-71.39-85.67-83.33-12.73-12.21-22.85-22.86-22.85-24.16 0-1.04 145.12-2.08 322.69-2.08h322.95l5.45-5.97c7.53-7.79 7.27-16.1-.78-23.88l-6.23-6.49h-647.97l87.75-87.75c63.86-63.86 87.49-89.04 87.49-93.46 0-6.49-10.64-18.69-16.1-18.43-1.82.01-5.72 1.05-8.57 2.35z"/>
</svg>