<svg width="27" height="27" viewBox="0 0 27 27" xmlns="http://www.w3.org/2000/svg" xmlns:xlink="http://www.w3.org/1999/xlink"><title>64188E87-69C8-4BCD-9802-1AE86B99BE91-10156-0000014EA97FD614</title><desc>Created with sketchtool.</desc><defs><path d="M13.5 27c-7.456 0-13.5-6.044-13.5-13.5s6.044-13.5 13.5-13.5 13.5 6.044 13.5 13.5-6.044 13.5-13.5 13.5zm0-5.4c.895 0 1.62-.725 1.62-1.62 0-.895-.725-1.62-1.62-1.62-.895 0-1.62.725-1.62 1.62 0 .895.725 1.62 1.62 1.62zm.807-16.127c-1.314-.24-2.666.117-3.691.972-1.025.856-1.617 2.122-1.616 3.457 0 .621.504 1.125 1.125 1.125s1.125-.504 1.125-1.125c-.001-.67.297-1.305.813-1.733.516-.428 1.195-.604 1.853-.48.909.177 1.62.888 1.797 1.797.18.955-.273 1.919-1.125 2.388-1.363.708-2.217 2.118-2.213 3.653.002.293.123.573.335.776.212.203.497.311.79.301.631-.024 1.129-.544 1.125-1.176.029-.681.43-1.292 1.043-1.589 1.671-.917 2.583-2.786 2.277-4.667-.306-1.881-1.763-3.365-3.638-3.706v.006z" id="a"/></defs><g transform="translate(-195 -18) translate(195 18)" fill="none"><mask><use xlink:href="#a"/></mask><use fill="#fff" xlink:href="#a"/></g></svg>