<svg width="22" height="22" viewBox="0 0 22 22" xmlns="http://www.w3.org/2000/svg"><title>08C47725-9222-465A-A9B3-EE2B28776DBD-26602-000004C873A48418</title><desc>Created with sketchtool.</desc><g transform="translate(1 1)" fill="none"><circle stroke="#EF9D19" stroke-width="1.818" fill="#EF9D19" cx="10" cy="10" r="10"/><circle fill="#fff" cx="10" cy="14.8" r="1.2"/><path d="M10.598 4.054c-.973-.177-1.975.086-2.734.72-.759.634-1.198 1.572-1.197 2.561 0 .46.373.833.833.833.46 0 .833-.373.833-.833-.001-.496.22-.967.602-1.284.382-.317.885-.447 1.373-.356.673.131 1.2.658 1.331 1.331.134.708-.203 1.421-.833 1.769-1.01.524-1.642 1.569-1.64 2.706.002.217.091.425.248.575.157.15.368.231.585.223.467-.018.836-.403.833-.871.021-.505.318-.957.773-1.177 1.238-.679 1.913-2.064 1.687-3.457-.227-1.393-1.306-2.493-2.695-2.745v.004z" fill="#fff" fill-rule="nonzero"/></g></svg>