<svg width="70" height="70" viewBox="0 0 70 70" xmlns="http://www.w3.org/2000/svg"><title>C884D13A-8FDA-4859-82E1-18818DFE52AB</title><desc>Created with sketchtool.</desc><g transform="translate(0 0)" fill="none"><circle fill="#D8D8D8" cx="35" cy="35" r="35"/><g transform="translate(16 16)" fill="#69675B" fill-rule="nonzero"><path d="M7.091 31.5h1.773v8.75c.001.736.468 1.393 1.169 1.644.701.251 1.486.041 1.964-.524l8.332-9.87h11.58c3.916 0 7.091-3.134 7.091-7v-17.5c0-3.866-3.175-7-7.091-7h-24.818c-3.916 0-7.091 3.134-7.091 7v17.5c0 3.866 3.175 7 7.091 7zm-3.545-24.5c0-1.933 1.587-3.5 3.545-3.5h24.818c1.958 0 3.545 1.567 3.545 3.5v17.5c0 1.933-1.587 3.5-3.545 3.5h-12.409c-.526 0-1.024.231-1.361.63l-5.73 6.808v-5.688c0-.966-.794-1.75-1.773-1.75h-3.545c-1.958 0-3.545-1.567-3.545-3.5v-17.5z"/><ellipse id="Oval" cx="19.5" cy="15.75" rx="1.773" ry="1.75"/><ellipse id="Oval" cx="12.409" cy="15.75" rx="1.773" ry="1.75"/><ellipse cx="26.591" cy="15.75" rx="1.773" ry="1.75"/></g></g></svg>