<?xml version="1.0" encoding="UTF-8"?>
<svg width="70px" height="70px" viewBox="0 0 70 70" version="1.1" xmlns="http://www.w3.org/2000/svg" xmlns:xlink="http://www.w3.org/1999/xlink">
    <!-- Generator: sketchtool 51.2 (57519) - http://www.bohemiancoding.com/sketch -->
    <title>C884D13A-8FDA-4859-82E1-18818DFE52AB</title>
    <desc>Created with sketchtool.</desc>
    <defs></defs>
    <g id="3.-Units" stroke="none" stroke-width="1" fill="none" fill-rule="evenodd">
        <g id="Units---Landing-[FW2COURSE002---Tablet]" transform="translate(-100.000000, -817.000000)">
            <g id="Group">
                <g id="Unit-2" transform="translate(50.000000, 420.000000)">
                    <g id="Row-2" transform="translate(50.000000, 397.000000)">
                        <g id="SU-8">
                            <g id="Speech-icon">
                                <circle id="Oval-Copy-2" fill="#D8D8D8" cx="35" cy="35" r="35"></circle>
                                <g id="message1" transform="translate(16.000000, 16.000000)" fill="#69675B" fill-rule="nonzero">
                                    <path d="M7.09090909,31.5 L8.86363636,31.5 L8.86363636,40.25 C8.86441802,40.986088 9.33171564,41.6430082 10.0328175,41.8936179 C10.7339194,42.1442276 11.5189354,41.9349483 11.9969318,41.37 L20.32875,31.5 L31.9090909,31.5 C35.8252919,31.5 39,28.3659932 39,24.5 L39,7 C39,3.13400675 35.8252919,1.94289029e-16 31.9090909,0 L7.09090909,0 C3.17470814,-1.94289029e-16 3.93624527e-16,3.13400675 0,7 L0,24.5 C3.93624527e-16,28.3659932 3.17470814,31.5 7.09090909,31.5 Z M3.54545455,7 C3.54545455,5.06700338 5.13280861,3.5 7.09090909,3.5 L31.9090909,3.5 C33.8671914,3.5 35.4545455,5.06700338 35.4545455,7 L35.4545455,24.5 C35.4545455,26.4329966 33.8671914,28 31.9090909,28 L19.5,28 C18.9742841,28.0004542 18.4758899,28.2312316 18.1394318,28.63 L12.4090909,35.4375 L12.4090909,29.75 C12.4090909,28.7835017 11.6154139,28 10.6363636,28 L7.09090909,28 C5.13280861,28 3.54545455,26.4329966 3.54545455,24.5 L3.54545455,7 Z" id="Shape"></path>
                                    <ellipse id="Oval" cx="19.5" cy="15.75" rx="1.77272727" ry="1.75"></ellipse>
                                    <ellipse id="Oval" cx="12.4090909" cy="15.75" rx="1.77272727" ry="1.75"></ellipse>
                                    <ellipse id="Oval" cx="26.5909091" cy="15.75" rx="1.77272727" ry="1.75"></ellipse>
                                </g>
                            </g>
                        </g>
                    </g>
                </g>
            </g>
        </g>
    </g>
</svg>