<?xml version="1.0" encoding="UTF-8"?>
<svg width="20px" height="25px" viewBox="0 0 28 35" version="1.1" xmlns="http://www.w3.org/2000/svg" xmlns:xlink="http://www.w3.org/1999/xlink">
    <!-- Generator: sketchtool 51.2 (57519) - http://www.bohemiancoding.com/sketch -->
    <title>86022975-1452-44CD-8BC0-3D2E62C2CB0C</title>
    <defs></defs>
    <g id="4b.-Reworked-Video-Lessons" stroke="none" stroke-width="1" fill="none" fill-rule="evenodd">
        <g id="Lessons---Video-End-Replay-[Tablet]" transform="translate(-310.000000, -630.000000)" fill="#FFFFFF" fill-rule="nonzero">
            <g id="Lesson-Content" transform="translate(110.000000, 207.000000)">
                <g id="Video" transform="translate(0.000000, 1.000000)">
                    <g id="Controls" transform="translate(0.000000, 399.358974)">
                        <path d="M209.647436,44.1274038 L210.323718,44.1274038 C210.661859,44.1274038 211,43.9583333 211.169071,43.7892628 C211.338141,43.6201923 211.507212,43.4511218 211.507212,43.1129808 L211.507212,42.7748397 C211.507212,42.7748397 211.338141,42.6057692 211.338141,42.4366987 C211.338141,42.2676282 211.169071,42.2676282 211,42.2676282 L210.154647,42.2676282 C210.154647,42.2676282 209.985577,42.4366987 209.816506,42.4366987 C209.647436,42.4366987 209.647436,42.6057692 209.647436,42.7748397 L209.647436,43.1129808 L207.956731,43.1129808 C207.956731,42.7748397 207.956731,42.6057692 208.125801,42.2676282 C208.294872,41.9294872 208.463942,41.7604167 208.633013,41.5913462 C208.802083,41.4222756 209.140224,41.2532051 209.309295,41.2532051 C209.478365,41.2532051 209.985577,41.0841346 210.154647,41.0841346 C210.492788,41.0841346 210.830929,41.0841346 211.169071,41.2532051 C211.507212,41.4222756 211.676282,41.4222756 212.014423,41.5913462 C212.352564,41.7604167 212.352564,41.9294872 212.521635,42.2676282 C212.690705,42.6057692 212.690705,42.7748397 212.690705,43.1129808 L212.690705,43.6201923 C212.690705,43.6201923 212.521635,43.9583333 212.521635,44.1274038 C212.521635,44.2964744 212.352564,44.4655449 212.183494,44.4655449 C212.014423,44.4655449 211.845353,44.6346154 211.676282,44.8036859 C212.014423,44.9727564 212.352564,45.1418269 212.521635,45.4799679 C212.690705,45.818109 212.859776,46.15625 212.859776,46.494391 C212.859776,46.8325321 212.859776,47.1706731 212.690705,47.3397436 C212.521635,47.5088141 212.352564,47.8469551 212.183494,48.0160256 C212.014423,48.1850962 211.676282,48.3541667 211.338141,48.3541667 C211,48.3541667 210.661859,48.5232372 210.323718,48.5232372 C209.985577,48.5232372 209.647436,48.5232372 209.478365,48.3541667 C209.309295,48.1850962 208.971154,48.1850962 208.633013,48.0160256 C208.294872,47.8469551 208.294872,47.6778846 208.125801,47.3397436 C207.956731,47.0016026 207.956731,46.6634615 207.956731,46.3253205 L209.309295,46.3253205 L209.309295,46.6634615 C209.309295,46.6634615 209.478365,46.8325321 209.478365,47.0016026 C209.478365,47.1706731 209.647436,47.1706731 209.816506,47.1706731 L210.661859,47.1706731 C210.661859,47.1706731 210.830929,47.0016026 211,47.0016026 C211.169071,47.0016026 211.169071,46.8325321 211.169071,46.6634615 L211.169071,45.818109 C211.169071,45.818109 211,45.6490385 211,45.4799679 C211,45.3108974 210.830929,45.3108974 210.661859,45.3108974 L209.647436,45.3108974 L209.647436,44.1274038 Z M219.284455,45.3108974 C219.284455,45.818109 219.284455,46.3253205 219.115385,46.6634615 L218.608173,47.6778846 C218.608173,47.6778846 218.100962,48.1850962 217.762821,48.1850962 C217.424679,48.1850962 217.086538,48.3541667 216.748397,48.3541667 C216.410256,48.3541667 216.072115,48.3541667 215.733974,48.1850962 C215.395833,48.0160256 215.226763,47.8469551 214.888622,47.6778846 C214.550481,47.5088141 214.550481,47.1706731 214.38141,46.6634615 C214.21234,46.15625 214.21234,45.818109 214.21234,45.3108974 L214.21234,44.1274038 C214.21234,43.6201923 214.21234,43.1129808 214.38141,42.7748397 L214.888622,41.7604167 C214.888622,41.7604167 215.395833,41.2532051 215.733974,41.2532051 C216.072115,41.2532051 216.410256,41.0841346 216.748397,41.0841346 C217.086538,41.0841346 217.424679,41.0841346 217.762821,41.2532051 C218.100962,41.4222756 218.270032,41.5913462 218.608173,41.7604167 C218.946314,41.9294872 218.946314,42.2676282 219.115385,42.7748397 C219.284455,43.2820513 219.284455,43.6201923 219.284455,44.1274038 L219.284455,45.3108974 Z M217.762821,43.9583333 L217.762821,43.1129808 C217.762821,43.1129808 217.59375,42.7748397 217.59375,42.6057692 C217.59375,42.4366987 217.424679,42.4366987 217.255609,42.2676282 C217.086538,42.0985577 216.917468,42.0985577 216.748397,42.0985577 C216.579327,42.0985577 216.410256,42.0985577 216.241186,42.2676282 L215.903045,42.6057692 C215.903045,42.6057692 215.733974,42.9439103 215.733974,43.1129808 L215.733974,46.494391 C215.733974,46.494391 215.903045,46.8325321 215.903045,47.0016026 C215.903045,47.1706731 216.072115,47.1706731 216.241186,47.3397436 C216.410256,47.5088141 216.579327,47.5088141 216.748397,47.5088141 C216.917468,47.5088141 217.086538,47.5088141 217.255609,47.3397436 L217.59375,47.0016026 C217.59375,47.0016026 217.762821,46.6634615 217.762821,46.494391 L217.762821,43.9583333 Z M227.230769,43.2820513 C227.230769,50.7211538 221.144231,56.8076923 213.705128,56.8076923 C206.266026,56.8076923 200.179487,50.7211538 200.179487,43.2820513 L203.560897,43.2820513 C203.560897,48.8613782 208.125801,53.4262821 213.705128,53.4262821 C219.284455,53.4262821 223.849359,48.8613782 223.849359,43.2820513 C223.849359,37.7027244 219.284455,33.1378205 213.705128,33.1378205 L213.705128,39.900641 L205.251603,31.4471154 L213.705128,22.9935897 L213.705128,29.7564103 C221.144231,29.7564103 227.230769,35.8429487 227.230769,43.2820513 Z" id="Back-30-icon"></path>
                    </g>
                </g>
            </g>
        </g>
    </g>
</svg>