<svg width="27" height="27" viewBox="0 0 27 27" xmlns="http://www.w3.org/2000/svg" xmlns:xlink="http://www.w3.org/1999/xlink"><title>357C2F5C-C910-4DE3-BDA4-DBDDBE8E9820</title><desc>Created with sketchtool.</desc><defs><path d="M536.435 22.799l2.021-2.021 1.964 1.964-2.049 2.049c.907 1.249 1.525 2.722 1.753 4.32h2.876v2.778h-2.876c-.236 1.647-.884 3.161-1.837 4.434l2.133 2.133-1.964 1.964-2.133-2.133c-1.273.953-2.786 1.602-4.434 1.837v2.876h-2.778v-2.876c-1.598-.229-3.071-.846-4.32-1.753l-2.049 2.049-1.964-1.964 2.021-2.021c-1-1.295-1.68-2.85-1.922-4.546h-2.876v-2.778h2.876c.236-1.647.884-3.161 1.837-4.434l-1.936-1.936 1.964-1.964 1.936 1.936c1.273-.953 2.786-1.602 4.434-1.837v-2.876h2.778v2.876c1.696.243 3.25.923 4.546 1.922zm-5.935 13.257c3.068 0 5.556-2.487 5.556-5.556 0-3.068-2.487-5.556-5.556-5.556-3.068 0-5.556 2.487-5.556 5.556 0 3.068 2.487 5.556 5.556 5.556z" id="b"/><filter x="-6%" y="-6%" width="112%" height="112%" filterUnits="objectBoundingBox" id="a"><feMorphology radius=".5" operator="dilate" in="SourceAlpha" result="shadowSpreadOuter1"/><feOffset in="shadowSpreadOuter1" result="shadowOffsetOuter1"/><feColorMatrix values="0 0 0 0 0 0 0 0 0 0 0 0 0 0 0 0 0 0 0.1 0" in="shadowOffsetOuter1"/></filter></defs><g transform="translate(-517 -17)" opacity=".9" fill="none"><use fill="#000" filter="url(#a)" xlink:href="#b"/><use fill="#fff" xlink:href="#b"/></g></svg>