<?xml version="1.0" encoding="UTF-8"?>
<svg width="25px" height="25px" viewBox="0 0 25 25" version="1.1" xmlns="http://www.w3.org/2000/svg" xmlns:xlink="http://www.w3.org/1999/xlink">
    <!-- Generator: Sketch 49.3 (51167) - http://www.bohemiancoding.com/sketch -->
    <title>Cog_icon</title>
    <desc>Created with Sketch.</desc>
    <defs></defs>
    <g id="Page-1" stroke="none" stroke-width="1" fill="none" fill-rule="evenodd" opacity="0.9">
        <g id="Cog_icon" fill-rule="nonzero">
            <g id="Page-1">
                <g id="Cog_icon">
                    <g id="6.-Video-Player">
                        <g id="Video-Player-[FWVIDEO001---Tablet]">
                            <g id="Lesson-Content">
                                <g id="Video">
                                    <g id="Controls">
                                        <g id="Cog">
                                            <g id="path-1-link" fill="#000000">
                                                <path d="M18.434607,4.7986179 L20.455447,2.7777778 L22.419633,4.7419633 L20.370453,6.7911433 C21.277748,8.0398164 21.895139,9.5127587 22.123765,11.1111111 L25,11.1111111 L25,13.8888889 L22.123765,13.8888889 C21.888167,15.5359816 21.239733,17.0498991 20.286645,18.3224599 L22.419633,20.4554473 L20.455447,22.4196328 L18.32246,20.2866454 C17.049899,21.2397334 15.535982,21.8881673 13.888889,22.1237655 L13.888889,25 L11.111111,25 L11.111111,22.1237655 C9.512759,21.8951391 8.039816,21.2777485 6.791143,20.3704528 L4.741963,22.4196328 L2.777778,20.4554473 L4.798618,18.4346072 C3.798939,17.1392313 3.118793,15.5846401 2.876235,13.8888889 L0,13.8888889 L0,11.1111111 L2.876235,11.1111111 C3.111833,9.4640184 3.760267,7.9501009 4.713355,6.6775401 L2.777778,4.7419633 L4.741963,2.7777778 L6.67754,4.7133546 C7.950101,3.7602666 9.464018,3.1118327 11.111111,2.8762345 L11.111111,0 L13.888889,0 L13.888889,2.8762345 C15.58464,3.1187927 17.139231,3.798939 18.434607,4.7986179 Z M12.5,18.0555556 C15.568249,18.0555556 18.055556,15.5682486 18.055556,12.5 C18.055556,9.4317514 15.568249,6.9444444 12.5,6.9444444 C9.431751,6.9444444 6.944444,9.4317514 6.944444,12.5 C6.944444,15.5682486 9.431751,18.0555556 12.5,18.0555556 Z" id="path-1"></path>
                                            </g>
                                            <g id="path-1-link" fill="#FFFFFF">
                                                <path d="M18.434607,4.7986179 L20.455447,2.7777778 L22.419633,4.7419633 L20.370453,6.7911433 C21.277748,8.0398164 21.895139,9.5127587 22.123765,11.1111111 L25,11.1111111 L25,13.8888889 L22.123765,13.8888889 C21.888167,15.5359816 21.239733,17.0498991 20.286645,18.3224599 L22.419633,20.4554473 L20.455447,22.4196328 L18.32246,20.2866454 C17.049899,21.2397334 15.535982,21.8881673 13.888889,22.1237655 L13.888889,25 L11.111111,25 L11.111111,22.1237655 C9.512759,21.8951391 8.039816,21.2777485 6.791143,20.3704528 L4.741963,22.4196328 L2.777778,20.4554473 L4.798618,18.4346072 C3.798939,17.1392313 3.118793,15.5846401 2.876235,13.8888889 L0,13.8888889 L0,11.1111111 L2.876235,11.1111111 C3.111833,9.4640184 3.760267,7.9501009 4.713355,6.6775401 L2.777778,4.7419633 L4.741963,2.7777778 L6.67754,4.7133546 C7.950101,3.7602666 9.464018,3.1118327 11.111111,2.8762345 L11.111111,0 L13.888889,0 L13.888889,2.8762345 C15.58464,3.1187927 17.139231,3.798939 18.434607,4.7986179 Z M12.5,18.0555556 C15.568249,18.0555556 18.055556,15.5682486 18.055556,12.5 C18.055556,9.4317514 15.568249,6.9444444 12.5,6.9444444 C9.431751,6.9444444 6.944444,9.4317514 6.944444,12.5 C6.944444,15.5682486 9.431751,18.0555556 12.5,18.0555556 Z" id="path-1"></path>
                                            </g>
                                        </g>
                                    </g>
                                </g>
                            </g>
                        </g>
                    </g>
                </g>
            </g>
        </g>
    </g>
</svg>