<?xml version="1.0" encoding="UTF-8"?>
<svg width="33px" height="23px" viewBox="0 0 33 23" version="1.1" xmlns="http://www.w3.org/2000/svg" xmlns:xlink="http://www.w3.org/1999/xlink">
    <!-- Generator: Sketch 49.3 (51167) - http://www.bohemiancoding.com/sketch -->
    <title>Fullscreen_icon</title>
    <desc>Created with Sketch.</desc>
    <defs></defs>
    <g id="Page-1" stroke="none" stroke-width="1" fill="none" fill-rule="evenodd" opacity="0.9">
        <g id="Fullscreen_icon">
            <g id="6.-Video-Player">
                <g id="Video-Player-[FWVIDEO001---Tablet]">
                    <g id="Lesson-Content">
                        <g id="Video">
                            <g id="Controls">
                                <g id="Fullscreen-icon">
                                    <g id="path-1-link" fill="#000000" fill-rule="nonzero">
                                        <path d="M27.730114,18.7301136 L27.730114,14.4602273 L32.042614,14.4602273 L32.042614,18.7301136 L32.085227,18.7301136 L32.085227,22.9573864 L23.460227,22.9573864 L23.460227,18.7301136 L27.730114,18.7301136 Z M0.957386,18.7301136 L0.957386,14.4602273 L5.269886,14.4602273 L5.269886,18.7301136 L9.539773,18.7301136 L9.539773,22.9573864 L0.914773,22.9573864 L0.914773,18.7301136 L0.957386,18.7301136 Z M32,4.3125 L32,8.625 L27.772727,8.625 L27.772727,4.3125 L23.545455,4.3125 L23.545455,0 L32,0 L32,4.3125 Z M5.227273,4.3125 L5.227273,8.625 L1,8.625 L1,4.3125 L1,0 L9.454545,0 L9.454545,4.3125 L5.227273,4.3125 Z" id="path-1"></path>
                                    </g>
                                    <g id="path-1-link" fill="#FFFFFF">
                                        <path d="M27.730114,18.7301136 L27.730114,14.4602273 L32.042614,14.4602273 L32.042614,18.7301136 L32.085227,18.7301136 L32.085227,22.9573864 L23.460227,22.9573864 L23.460227,18.7301136 L27.730114,18.7301136 Z M0.957386,18.7301136 L0.957386,14.4602273 L5.269886,14.4602273 L5.269886,18.7301136 L9.539773,18.7301136 L9.539773,22.9573864 L0.914773,22.9573864 L0.914773,18.7301136 L0.957386,18.7301136 Z M32,4.3125 L32,8.625 L27.772727,8.625 L27.772727,4.3125 L23.545455,4.3125 L23.545455,0 L32,0 L32,4.3125 Z M5.227273,4.3125 L5.227273,8.625 L1,8.625 L1,4.3125 L1,0 L9.454545,0 L9.454545,4.3125 L5.227273,4.3125 Z" id="path-1"></path>
                                    </g>
                                </g>
                            </g>
                        </g>
                    </g>
                </g>
            </g>
        </g>
    </g>
</svg>