<svg width="150" height="153" viewBox="0 0 218 153" xmlns="http://www.w3.org/2000/svg">
    <title>Video Play Button</title> 
    <g fill-rule="evenodd">
    <path d="M215.823 33.007s-2.13-14.99-8.667-21.592c-8.29-8.664-17.582-8.707-21.843-9.214-30.506-2.201-76.266-2.201-76.266-2.201h-.095s-45.759 0-76.266 2.201c-4.261.507-13.55.55-21.843 9.214-6.536 6.601-8.663 21.592-8.663 21.592s-2.18 17.604-2.18 35.207v16.503c0 17.603 2.18 35.207 2.18 35.207s2.127 14.991 8.663 21.592c8.293 8.664 19.186 8.39 24.038 9.298 17.44 1.669 74.119 2.185 74.119 2.185s45.808-.069 76.314-2.269c4.261-.507 13.553-.55 21.843-9.214 6.537-6.601 8.667-21.592 8.667-21.592s2.177-17.604 2.177-35.207v-16.503c0-17.604-2.177-35.207-2.177-35.207z" fill-opacity=".85" fill="inherit"/>
    <path fill="#fff" d="M85.889 103.109l-.01-59.87 59.455 30.039z"/>
    </g>
</svg>