<?xml version="1.0" encoding="UTF-8"?>
<svg width="149px" height="149px" viewBox="0 0 149 149" version="1.1" xmlns="http://www.w3.org/2000/svg" xmlns:xlink="http://www.w3.org/1999/xlink">
    <!-- Generator: sketchtool 51.2 (57519) - http://www.bohemiancoding.com/sketch -->
    <title>927486A0-0F00-445E-8A9F-9B72A6998556</title>
    <desc>Created with sketchtool.</desc>
    <defs></defs>
    <g id="4b.-Reworked-Video-Lessons" stroke="none" stroke-width="1" fill="none" fill-rule="evenodd">
        <g id="Lessons---Video-End-Replay-[Tablet]" transform="translate(-458.000000, -308.000000)" fill="#FFFFFF" fill-rule="nonzero">
            <g id="Lesson-Content" transform="translate(110.000000, 207.000000)">
                <g id="replay-video-icon" transform="translate(348.000000, 101.000000)">
                    <path d="M74.5054945,0.32967033 C33.6263736,0.32967033 0.32967033,33.6263736 0.32967033,74.5054945 C0.32967033,95.4395604 9.23076923,115.21978 24.3956044,129.065934 L12.8571429,140.604396 L50.7692308,147.032967 L44.3406593,109.120879 L31.3186813,122.142857 C18.1318681,110.10989 10.2197802,92.8021978 10.2197802,74.5054945 C10.2197802,39.0659341 39.0659341,10.2197802 74.5054945,10.2197802 C109.945055,10.2197802 138.791209,39.0659341 138.791209,74.5054945 C138.791209,109.945055 109.945055,138.791209 74.5054945,138.791209 L74.5054945,148.681319 C115.384615,148.681319 148.681319,115.384615 148.681319,74.5054945 C148.681319,33.6263736 115.384615,0.32967033 74.5054945,0.32967033 Z" id="Shape"></path>
                    <polygon id="Shape" points="58.6813187 47.967033 58.6813187 103.846154 106.648352 75.989011"></polygon>
                </g>
            </g>
        </g>
    </g>
</svg>