<svg height="70"  fill="#d8d8d8" viewBox="0 0 70 70" width="70" xmlns="http://www.w3.org/2000/svg"><g fill-rule="evenodd" transform=""><circle cx="35" cy="35"  r="35"/><path id="inner" d="m35.8985056 12.076963c-1.5688318-.2699075-3.1747936.1776873-4.3896701 1.2234372-1.2148764 1.0457499-1.9151565 2.5833383-1.9141169 4.2027811v1.2511466c-4.3956808 2.1222123-7.1994233 6.6292942-7.204328 11.5811263v4.2483989c.0014991.9085396-.3309763 1.7847855-.93206 2.4564637l-3.250953 3.6663637c-1.2398453 1.3975048-1.5551353 3.4069599-.8045989 5.1279932s2.4262018 2.8310153 4.2761845 2.8325989h6.1146734c0 4.0497535 3.2254875 7.3327274 7.204328 7.3327274s7.204328-3.2829739 7.204328-7.3327274h6.1146734c1.8518215.0000529 3.5297385-1.1106237 4.2806595-2.8335302.750921-1.7229064.4337832-3.7343895-.8090739-5.1316449l-3.250953-3.6663637c-.6000359-.67051-.9324355-1.5449217-.93206-2.4518807v-3.7901034c.0223911-5.0658173-2.7656686-9.7108593-7.204328-12.0027582v-1.0907432c.0353226-2.7370249-1.861784-5.1062612-4.502705-5.6232853zm-.900541 40.2566733c-1.9894202 0-3.602164-1.6414869-3.602164-3.6663637h7.204328c0 2.0248768-1.6127438 3.6663637-3.602164 3.6663637zm9.00541-21.5398866v3.7901034c-.0001549 1.817067.6625393 3.5694738 1.8596172 4.9175103l3.2554557 3.6663637c.2836268.32275.3548104.7848464.1818443 1.1804617-.1729662.3956154-.5578929.6511252-.9833258.6527201h-26.6380028c-.4254329-.0015949-.8103596-.2571047-.9833257-.6527201-.1729662-.3956153-.1017826-.8577117.1818442-1.1804617l3.2554557-3.6663637c1.1970779-1.3480365 1.8597721-3.1004433 1.8596172-4.9175103v-4.2483989c.0047659-3.8795559 2.4086939-7.3358737 6.0021058-8.6297035.7200154-.2583724 1.2017616-.950714 1.2022222-1.7277739v-2.4747955c0-1.0124384.8063719-1.8331818 1.801082-1.8331818.1056388.0000593.2110815.0092583.3151894.0274977.8988009.2251545 1.5191129 1.0612382 1.4858926 2.0027511v2.2914773c.0001356.7666259.4689437 1.4522056 1.175206 1.718608 3.5481316 1.3428057 6.029122 5.0779137 6.029122 9.0834161z" fill="#69675b" fill-rule="nonzero"/></g></svg>