<svg height="70" viewBox="0 0 70 70" width="70" xmlns="http://www.w3.org/2000/svg"><g fill="none" fill-rule="evenodd"><circle cx="35" cy="35" fill="#d8d8d8" r="35"/><path id="inner" d="m37.8736082 3.5h2.394433c.9565344 0 1.7319588-.78350169 1.7319588-1.75s-.7754244-1.75-1.7319588-1.75h-32.90721646c-2.88927442-.01357012-5.48072861 1.79383793-6.49268899 4.52832176-1.01196037 2.73448383-.22994196 5.81646964 1.95928693 7.72167824-1.52015529 1.3116538-2.39557581 3.2301728-2.39557581 5.25s.87542052 3.9383462 2.39557581 5.25c-2.18922889 1.9052086-2.9712473 4.9871944-1.95928693 7.7216782 1.01196038 2.7344839 3.60341457 4.5418919 6.49268899 4.5283218h32.90721646c.9565344 0 1.7319588-.7835017 1.7319588-1.75s-.7754244-1.75-1.7319588-1.75h-2.394433l-.4762886-.966875c-.7909328-1.5942015-.7909328-3.4720485 0-5.06625l.4762886-.966875h2.394433c.9565344 0 1.7319588-.7835017 1.7319588-1.75s-.7754244-1.75-1.7319588-1.75h-2.394433l-.4762886-.966875c-.7909328-1.5942015-.7909328-3.4720485 0-5.06625l.4762886-.966875h2.394433c.9565344 0 1.7319588-.7835017 1.7319588-1.75s-.7754244-1.75-1.7319588-1.75h-2.394433l-.4762886-.966875c-.7909328-1.59420145-.7909328-3.47204855 0-5.06625zm-33.97670098 14c0-1.9329966 1.5508487-3.5 3.46391752-3.5h5.19587626v7h-5.19587626c-1.91306882 0-3.46391752-1.5670034-3.46391752-3.5zm3.46391752 14c-1.91306882 0-3.46391752-1.5670034-3.46391752-3.5s1.5508487-3.5 3.46391752-3.5h5.19587626v1.75c-.0004152.645709.3511066 1.239183.9144992 1.5439483s1.2471009.2712954 1.7786967-.0870733l4.2346392-2.8525 4.2346392 2.8525c.5315958.3583687 1.2153041.3918386 1.7786967.0870733s.9149144-.8982393.9144991-1.5439483v-1.75h7.6336083c-.940876 2.2364991-.940876 4.7635009 0 7zm15.58762886-8.518125-2.5026804-1.68875c-.582002-.3923492-1.3404722-.3923492-1.9224742 0l-2.5026804 1.68875v-12.481875h6.927835zm3.4639175-1.981875v-7h7.6336083c-.940876 2.2364991-.940876 4.7635009 0 7zm0-10.5v-1.75c0-.96649831-.7754243-1.75-1.7319587-1.75h-10.3917526c-.9565344 0-1.7319588.78350169-1.7319588 1.75v1.75h-5.19587626c-1.91306882 0-3.46391752-1.56700338-3.46391752-3.5s1.5508487-3.5 3.46391752-3.5h26.68515466c-.940876 2.23649908-.940876 4.76350092 0 7z" fill="#69675b" fill-rule="nonzero" transform="translate(14 17)"/></g></svg>