<svg height="70"  fill="#d8d8d8"  viewBox="0 0 70 70" width="70" xmlns="http://www.w3.org/2000/svg"><g fill-rule="evenodd"><circle cx="35" cy="35" r="35"/><g id="inner" fill="#69675b" fill-rule="nonzero" transform="translate(18 14)"><path d="m0 35c0 3.8659932 3.13400675 7 7 7h26.25c.9664983 0 1.75-.7835017 1.75-1.75v-29.75c0-.96649831-.7835017-1.75-1.75-1.75h-3.5v-7c0-.96649831-.7835017-1.75-1.75-1.75h-21.875c-3.38274409 0-6.125 2.74225591-6.125 6.125 0 .20125.039375.389375.056875.581875-.02561254.09629888-.04461513.19423531-.056875.293125zm31.5 3.5h-24.5c-1.93299662 0-3.5-1.5670034-3.5-3.5v-23.3625c.81811508.3981005 1.71518107.6074159 2.625.6125h25.375zm-25.375-35h20.125v5.25h-20.125c-1.44974747 0-2.625-1.17525253-2.625-2.625s1.17525253-2.625 2.625-2.625z"/><path d="m24.5 15.75h-14c-.96649831 0-1.75.7835017-1.75 1.75v7c0 .9664983.78350169 1.75 1.75 1.75h14c.9664983 0 1.75-.7835017 1.75-1.75v-7c0-.9664983-.7835017-1.75-1.75-1.75zm-1.75 7h-10.5v-3.5h10.5z"/></g></g></svg>