<svg height="70" viewBox="0 0 70 70" fill="#d8d8d8" width="70" xmlns="http://www.w3.org/2000/svg"><g  fill-rule="evenodd"><circle cx="35" cy="35"  r="35"/><path id="inner" d="m29.3636364 0h-3.4545455c-4.7697319 0-8.6363636 3.91750844-8.6363636 8.75v.04375c-1.486316-1.15759357-3.3071063-1.78788249-5.1818182-1.79375h-10.36363637c-.95394639 0-1.72727273.78350169-1.72727273 1.75v26.25c0 .9664983.77332634 1.75 1.72727273 1.75h10.36363637c2.353416.0117209 4.4034855 1.6287967 4.9918182 3.9375.1967882.772187.8839826 1.3119051 1.6711363 1.3125h.4922728c.7871537-.0005949 1.4743481-.540313 1.6711363-1.3125.5883327-2.3087033 2.6384022-3.9257791 4.9918182-3.9375h10.3636364c.9539464 0 1.7272727-.7835017 1.7272727-1.75v-26.25c0-.96649831-.7733263-1.75-1.7272727-1.75h-5.1818182v-5.25c0-.96649831-.7733264-1.75-1.7272727-1.75zm-8.6363637 8.75c0-2.89949494 2.3199791-5.25 5.1818182-5.25h1.7272727v22.75h-1.7272727c-1.8747119.0058675-3.6955022.6361564-5.1818182 1.79375zm-8.6363636 24.5h-8.63636365v-22.75h8.63636365c2.8618391 0 5.1818182 2.3505051 5.1818182 5.25v19.280625c-1.4885759-1.1517427-3.3088187-1.7772316-5.1818182-1.780625zm22.4545454-22.75v22.75h-8.6363636c-1.8731052.0027475-3.6935462.6283045-5.1818182 1.780625v-.030625c0-2.8994949 2.3199791-5.25 5.1818182-5.25h3.4545455c.9539463 0 1.7272727-.7835017 1.7272727-1.75v-17.5z" fill="#69675b" fill-rule="nonzero" transform="translate(16 14)"/></g></svg>