<svg height="70" fill="#d8d8d8"  viewBox="0 0 70 70" width="70" xmlns="http://www.w3.org/2000/svg"><g fill-rule="evenodd"><circle cx="35" cy="35" r="35"/><path id="inner" d="m5.95 42h26.35c.9388841 0 1.7-.7835017 1.7-1.75v-38.5c0-.96649831-.7611159-1.75-1.7-1.75h-25.5c-3.7555363 0-6.8 3.13400675-6.8 7v28c.01190959.0988897.03036925.1968261.05525.293125 0 .1925-.05525.380625-.05525.581875 0 3.3827441 2.66390574 6.125 5.95 6.125zm24.65-3.5h-24.65c-1.40832611 0-2.55-1.1752525-2.55-2.625s1.14167389-2.625 2.55-2.625h24.65zm-8.5-35v12.481875l-2.4565-1.68875c-.5712627-.3923492-1.3157373-.3923492-1.887 0l-2.4565 1.68875v-12.481875zm-15.3 0h5.1v15.75c-.0004076.645709.3446278 1.239183.8976245 1.5439483.5529966.3047653 1.2240889.2712954 1.7458755-.0870733l4.1565-2.8525 4.1565 2.8525c.2794846.1914665.6077828.2934617.9435.293125.2799698-.0006143.5556109-.071176.80325-.205625.5527896-.3050782.8974832-.8987064.89675-1.544375v-15.75h5.1v26.25h-24.65c-.8838241.0050841-1.75525963.2143995-2.55.6125v-23.3625c0-1.93299662 1.52223185-3.5 3.4-3.5z" fill="#69675b" fill-rule="nonzero" transform="translate(18 14)"/></g></svg>