<svg height="70" viewBox="0 0 70 70" width="70" xmlns="http://www.w3.org/2000/svg"><g fill="none" fill-rule="evenodd"><circle cx="35" cy="35" fill="#d8d8d8" r="35"/><g id="inner" fill="#69675b" fill-rule="nonzero" transform="translate(18 14)"><path d="m25.5 15.375h-17c-.93888407 0-1.7.7648469-1.7 1.7083333 0 .9434865.76111593 1.7083334 1.7 1.7083334h17c.9388841 0 1.7-.7648469 1.7-1.7083334 0-.9434864-.7611159-1.7083333-1.7-1.7083333z"/><path d="m25.5 22.2083333h-17c-.93888407 0-1.7.7648469-1.7 1.7083334 0 .9434864.76111593 1.7083333 1.7 1.7083333h17c.9388841 0 1.7-.7648469 1.7-1.7083333 0-.9434865-.7611159-1.7083334-1.7-1.7083334z"/><path d="m18.7 29.0416667h-10.2c-.93888407 0-1.7.7648469-1.7 1.7083333s.76111593 1.7083333 1.7 1.7083333h10.2c.9388841 0 1.7-.7648469 1.7-1.7083333s-.7611159-1.7083333-1.7-1.7083333z"/><path d="m28.9 5.125h-5.1c0-2.83045934-2.2833478-5.125-5.1-5.125h-3.4c-2.8166522 0-5.1 2.29454066-5.1 5.125h-5.1c-2.81665222 0-5.1 2.29454066-5.1 5.125v25.625c0 2.8304593 2.28334778 5.125 5.1 5.125h23.8c2.8166522 0 5.1-2.2945407 5.1-5.125v-25.625c0-2.83045934-2.2833478-5.125-5.1-5.125zm-15.3 0c0-.94348645.7611159-1.70833333 1.7-1.70833333h3.4c.9388841 0 1.7.76484688 1.7 1.70833333v3.41666667h-6.8zm17 30.75c0 .9434864-.7611159 1.7083333-1.7 1.7083333h-23.8c-.93888407 0-1.7-.7648469-1.7-1.7083333v-25.625c0-.94348645.76111593-1.70833333 1.7-1.70833333h5.1v1.70833333c0 .9434864.7611159 1.7083333 1.7 1.7083333h10.2c.9388841 0 1.7-.7648469 1.7-1.7083333v-1.70833333h5.1c.9388841 0 1.7.76484688 1.7 1.70833333z"/></g></g></svg>