<svg height="70" viewBox="0 0 70 70" width="70" xmlns="http://www.w3.org/2000/svg"><g fill="none" fill-rule="evenodd"><circle cx="35" cy="35" fill="#d8d8d8" r="35"/><g id="inner" fill="#69675b" fill-rule="nonzero" transform="translate(14 19)"><path d="m.109375 16.6222222c.23625.6311111 5.849375 15.3777778 20.890625 15.3777778s20.654375-14.7466667 20.890625-15.3777778c.144501-.4018279.144501-.8426165 0-1.2444444-.23625-.6311111-5.849375-15.3777778-20.890625-15.3777778s-20.654375 14.7466667-20.890625 15.3777778c-.14450105.4018279-.14450105.8426165 0 1.2444444zm20.890625-13.06666664c11.125625 0 16.1875 9.77777774 17.35125 12.44444444-1.16375 2.5866667-6.3175 12.4444444-17.35125 12.4444444-11.125625 0-16.1875-9.7777777-17.35125-12.4444444 1.16375-2.5866667 6.3175-12.44444444 17.35125-12.44444444z"/><path d="m15.54875 22.9511111c1.5474634 1.2565685 3.4701783 1.9400437 5.45125 1.9377778.6831832-.0016006 1.3640591-.0806076 2.03-.2355556 3.2222072-.7560711 5.7395197-3.3098922 6.488125-6.5822222.6166314-2.6631501-.0007263-5.4665256-1.675625-7.6088889-1.6560037-2.12170816-4.1770952-3.35111109-6.8425-3.35111109-8.0766602 0-8.75 7.90704929-8.75 8.88888889-.005217 2.7077141 1.2101935 5.2688216 3.29875 6.9511111zm7.20125-11.9822222c2.4000549.3920052 3.46192 2.896671 3.46192 5.6311664s-2.1929444 4.4132338-4.6212405 4.6945936c-2.4282962.2813598-4.7265158-1.176746-5.5431795-3.5168711-.1336638-5.2909116 2.1005028-7.5605412 6.7025-6.8088889z"/></g></g></svg>