<svg height="70" viewBox="0 0 70 70" width="70" xmlns="http://www.w3.org/2000/svg"><g fill="none" fill-rule="evenodd" transform=""><circle cx="35" cy="35" fill="#d8d8d8" r="35"/><path id="inner" d="m50 20h-1.6666667c-.9204745 0-1.6666666.7387302-1.6666666 1.65s.7461921 1.65 1.6666666 1.65h1.6666667c.9204746 0 1.6666667.7387302 1.6666667 1.65v13.24125c-1.4341646-1.0914454-3.1910675-1.6857178-5-1.69125-2.7712878.0013844-5.3605693 1.3665667-6.9083334 3.642375-1.2490871-1.2731762-2.9655398-1.9915958-4.7583333-1.9915958s-3.5092462.7184196-4.7583333 1.9915958c-1.5477641-2.2758083-4.1370456-3.6409906-6.9083334-3.642375-1.8089325.0055322-3.5658354.5998046-5 1.69125v-13.24125c0-.9112698.7461921-1.65 1.6666667-1.65h1.6666667c.9204745 0 1.6666666-.7387302 1.6666666-1.65s-.7461921-1.65-1.6666666-1.65h-1.6666667c-2.7614237 0-5 2.2161905-5 4.95v19.8c0 4.5563492 3.7309604 8.25 8.3333333 8.25s8.3333334-3.6936508 8.3333334-8.25c0-1.8225397 1.4923841-3.3 3.3333333-3.3s3.3333333 1.4774603 3.3333333 3.3c0 4.5563492 3.7309605 8.25 8.3333334 8.25s8.3333333-3.6936508 8.3333333-8.25v-19.8c0-2.7338095-2.2385763-4.95-5-4.95zm-26.6666667 29.7c-2.7614237 0-5-2.2161905-5-4.95s2.2385763-4.95 5-4.95c2.7614238 0 5 2.2161905 5 4.95s-2.2385762 4.95-5 4.95zm23.3333334 0c-2.7614238 0-5-2.2161905-5-4.95s2.2385762-4.95 5-4.95c2.7614237 0 5 2.2161905 5 4.95s-2.2385763 4.95-5 4.95z" fill="#69675b" fill-rule="nonzero"/></g></svg>