<svg height="70" viewBox="0 0 70 70" width="70" xmlns="http://www.w3.org/2000/svg"><g fill="none" fill-rule="evenodd" transform=""><circle cx="35" cy="35" fill="#d8d8d8" r="35"/><path id="inner" d="m48.9159922 40.8194953 1.1999997-.6093027c.5434637-.2761619.8859526-.8411388.8839998-1.4582644v-17.872879c.0003974-.5634213-.2866607-1.0868351-.7585604-1.3831382-.4718996-.296303-1.0612732-.3231955-1.557439-.0710642l-1.1999997.6093027c-2.6666721 1.3611049-5.8565066 1.1092816-8.2839978-.6539849l-2.4879994-1.803536c-2.93497-2.1434432-6.9020938-2.0973453-9.7879975.1137365l-2.4839993 1.8929004c-.4017652.3059934-.6387432.7857938-.6399998 1.2957837v30.8713364h-3.1999992c-.8836554 0-1.5999996.727451-1.5999996 1.6248072s.7163442 1.6248072 1.5999996 1.6248072h9.5999975c.8836554 0 1.5999996-.727451 1.5999996-1.6248072s-.7163442-1.6248072-1.5999996-1.6248072h-3.1999992v-12.1860538l1.8439995-1.4054582c1.769799-1.3533704 4.20045-1.3813449 5.9999985-.0690543l2.4879993 1.8035359c3.3922094 2.4697159 7.8529989 2.8263559 11.583997.9261401zm-9.7159974-3.5664517-2.4879994-1.803536c-2.9058503-2.1237118-6.8287075-2.1023823-9.7119975.0528062v-13.810861l1.8439995-1.4054582c1.769799-1.3533703 4.20045-1.3813448 5.9999985-.0690543l2.4879993 1.803536c3.0390741 2.2134717 6.9639321 2.7450014 10.4679973 1.4176442v14.3145513l-.3159999.1584187c-2.6670423 1.3617846-5.8579128 1.1083149-8.2839978-.6580469z" fill="#69675b" fill-rule="nonzero"/></g></svg>