<svg height="70" viewBox="0 0 70 70" width="70" xmlns="http://www.w3.org/2000/svg"><g fill="none" fill-rule="evenodd"><circle cx="35" cy="35" fill="#d8d8d8" r="35"/><g id="inner" fill="#69675b" fill-rule="nonzero" transform="translate(15 18)"><path d="m1.66666667 3.33333333h1.66666666v18.33333337c0 2.7614237 2.23857625 5 5 5h7.64166667l-7.15416667 7.1541666c-.65123576.6512358-.65123576 1.7070976 0 2.3583334.65123577.6512357 1.70709757.6512357 2.35833337 0l7.1541666-7.1541667v9.3083333c0 .9204746.7461921 1.6666667 1.6666667 1.6666667s1.6666667-.7461921 1.6666667-1.6666667v-9.3083333l7.1541666 7.1541667c.4212757.4212756 1.0352984.5858025 1.6107717.4316049.5754732-.1541976 1.024969-.6036934 1.1791666-1.1791666.1541976-.5754733-.0103293-1.189496-.4316049-1.6107717l-7.1541667-7.1541666h7.6416667c2.7614237 0 5-2.2385763 5-5v-18.33333337h1.6666666c.9204746 0 1.6666667-.74619208 1.6666667-1.66666666 0-.92047459-.7461921-1.66666667-1.6666667-1.66666667h-36.66666663c-.92047459 0-1.66666667.74619208-1.66666667 1.66666667 0 .92047458.74619208 1.66666666 1.66666667 1.66666666zm31.66666663 0v18.33333337c0 .9204745-.7461921 1.6666666-1.6666666 1.6666666h-23.33333337c-.92047458 0-1.66666666-.7461921-1.66666666-1.6666666v-18.33333337z"/><path d="m12.8467601 17.5134648 3.8208334-3.8208333 3.8208333 3.8208333c.3126138.3129617.7368179.4888111 1.1791667.4888111.4423487 0 .8665529-.1758494 1.1791666-.4888111l6.6666667-6.6666667c.4212757-.4212756.5858025-1.03529831.4316049-1.61077158s-.6036933-1.02496907-1.1791666-1.17916667-1.189496.01032928-1.6107716.43160496l-5.4875 5.48749999-3.8208334-3.8208333c-.3126137-.31296176-.7368179-.48881112-1.1791666-.48881112-.4423488 0-.8665529.17584936-1.1791667.48881112l-5 5c-.65123574.6512357-.65123573 1.7070975 0 2.3583333.6512358.6512357 1.7070976.6512357 2.3583333 0z"/></g></g></svg>