<svg height="70" viewBox="0 0 70 70" width="70" xmlns="http://www.w3.org/2000/svg"><g fill="none" fill-rule="evenodd" transform=""><circle cx="35" cy="35" fill="#d8d8d8" r="35"/><path id="inner" d="m21.6666667 52h3.3333333c.9204746 0 1.6666667-.7325996 1.6666667-1.636307v-13.0904558c0-.9037074-.7461921-1.636307-1.6666667-1.636307h-1.6666667v-1.636307c.0024222-1.7797593.430586-3.5340803 1.25-5.1216408l.65.4418029c.4068866.2826853.8932089.4342156 1.3916667.4336213.7484009-.0058562 1.4547636-.3405955 1.925-.9122411 1.5825911-1.9054432 3.9540799-3.0111221 6.4583333-3.0111221s4.8757423 1.1056789 6.4583334 3.0111221c.8042799 1.0051076 2.2695606 1.2155013 3.3333333.4786198l.6166667-.4418029c.819414 1.5875605 1.2475778 3.3418815 1.25 5.1216408v1.636307h-1.6666667c-.9204746 0-1.6666667.7325996-1.6666667 1.636307v13.0904558c0 .9037074.7461921 1.636307 1.6666667 1.636307h3.3333333c3.6818984 0 6.6666667-2.9303984 6.6666667-6.5452279v-3.272614c-.011736-2.9751747-2.0658237-5.5682772-5-6.3120542v-1.8694807c-.0083044-2.4449668-.6415398-4.8487818-1.8416667-6.9911216l.7416667-.5072551c.571512-.3916552.9541328-.9965421 1.0583333-1.6731239.1031381-.6648415-.0760986-1.3421108-.4958333-1.8735715-3.467186-4.387939-8.8059564-6.9555511-14.4625-6.9555511s-10.995314 2.5676121-14.4625 6.9555511c-.4197347.5314607-.5989714 1.20873-.4958333 1.8735715.1042005.6765818.4868213 1.2814687 1.0583333 1.6731239l.7416667.5072551c-1.2001269 2.1423398-1.8333623 4.5461548-1.8416667 6.9911216v1.8694807c-2.9341763.743777-4.988264 3.3368795-5 6.3120542v3.272614c0 3.6148295 2.9847683 6.5452279 6.6666667 6.5452279zm30-9.8178419v3.272614c0 1.8074148-1.4923842 3.2726139-3.3333334 3.2726139h-1.6666666v-9.8178418h1.6666666c1.8409492 0 3.3333334 1.4651991 3.3333334 3.2726139zm-16.6666667-22.9082977c4.319597.0165705 8.4252648 1.8481117 11.2791667 5.031644l-1.2791667.8836057-1.4625 1.0022381c-2.2030943-2.3240545-5.2912499-3.6441294-8.525-3.6441294s-6.3219057 1.3200749-8.525 3.6441294l-1.4875-1.0022381-1.2791667-.8836057c2.8539019-3.1835323 6.9595697-5.0150735 11.2791667-5.031644zm-16.6666667 22.9082977c0-1.8074148 1.4923842-3.2726139 3.3333334-3.2726139h1.6666666v9.8178418h-1.6666666c-1.8409492 0-3.3333334-1.4651991-3.3333334-3.2726139z" fill="#69675b" fill-rule="nonzero"/></g></svg>