<svg height="70" viewBox="0 0 70 70" width="70" xmlns="http://www.w3.org/2000/svg"><g fill="none" fill-rule="evenodd"><circle cx="35" cy="35" fill="#d8d8d8" r="35"/><g id="inner" fill="#69675b" fill-rule="nonzero" transform="translate(15 13)"><path d="m12 24c4.4 0 8-3.6 8-8s-3.6-8-8-8-8 3.6-8 8 3.6 8 8 8zm0-12c2.2 0 4 1.8 4 4s-1.8 4-4 4-4-1.8-4-4 1.8-4 4-4z"/><path d="m28 16c4.4 0 8-3.6 8-8s-3.6-8-8-8-8 3.6-8 8 3.6 8 8 8zm0-12c2.2 0 4 1.8 4 4s-1.8 4-4 4-4-1.8-4-4 1.8-4 4-4z"/><path d="m28 18c-5.6 0-10.2 3.8-11.6 8.8-1.4-.4-2.8-.8-4.4-.8-6.6 0-12 5.4-12 12 0 1.2.8 2 2 2h20c1.2 0 2-.8 2-2 0-2.2-.6-4.2-1.6-6h15.6c1.2 0 2-.8 2-2 0-6.6-5.4-12-12-12zm-23.8 18c.8-3.4 4-6 7.8-6s6.8 2.6 7.8 6zm16-8c.8-3.4 4-6 7.8-6s6.8 2.6 7.8 6z"/></g></g></svg>