<svg height="70" viewBox="0 0 70 70" width="70" xmlns="http://www.w3.org/2000/svg"><g fill="none" fill-rule="evenodd"><circle cx="35" cy="35" fill="#d8d8d8" r="35"/><g id="inner" fill="#69675b" fill-rule="nonzero" transform="translate(19 13)"><path d="m12.2739726 42.952381h7.0136986c2.9051691 0 5.260274-2.3790231 5.260274-5.3136967v-3.2723515l.5873973-1.8819342c.8384276-2.5142221 2.0552533-4.8829769 3.6076712-7.0229357 4.5746008-6.6354612 3.5065448-15.67966428-2.484896-21.04187808-5.9914408-5.36221379-15.0081773-5.34368841-20.97797547.04310039-5.96979819 5.38678881-7.00142539 14.43530579-2.40014223 21.05191469 1.53748084 2.1222663 2.74108813 4.4717775 3.56821918 6.9653706l.56547945 1.8863623v3.2723515c0 2.9346736 2.35510488 5.3136967 5.26027397 5.3136967zm8.7671233-5.3136967c0 .9782246-.785035 1.7712322-1.7534247 1.7712322h-7.0136986c-.9683897 0-1.7534247-.7930076-1.7534247-1.7712322v-3.5424644h10.520548zm-15.31178083-14.1698576c-1.44937933-2.0721115-2.22596393-4.5477612-2.22246575-7.0849288-.00918903-5.341416 3.36910446-10.08840054 8.38428568-11.78111804 5.0151813-1.69271751 10.5398354.0493556 13.7111471 4.32349605 3.1713117 4.27414049 3.2763687 10.11951969.2607316 14.50712619-1.5617514 2.1931102-2.825253 4.587911-3.7567123 7.1203534h-12.64657537c-.92216051-2.5204686-2.17696388-4.9036357-3.73041096-7.0849288z"/><path d="m12.2739726 19.9263623h4.1775342l-2.24 4.5210702c-.2084116.420383-.2428174.9072202-.0956366 1.3532467.1471807.4460265.4638709.8146431.8802942 1.0246325.2443448.120908.5125758.184484.7846575.1859794.6643982.0004805 1.271997-.3784107 1.5693151-.9786058l3.5068493-7.0849288c.2720896-.5492657.2430684-1.2017142-.0766896-1.7241168-.3197579-.5224026-.8846045-.8401817-1.4926255-.8397418h-4.1775342l2.24-4.5210702c.2803311-.5663563.240258-1.2407648-.1051242-1.7691825-.3453822-.52841757-.9436017-.83056506-1.5693151-.79262638-.6257133.03793868-1.1838597.41019975-1.4641909.97655608l-3.5068493 7.0849288c-.2720896.5492657-.2430684 1.2017142.0766896 1.7241168.319758.5224025.8846045.8401817 1.4926255.8397418z"/></g></g></svg>