<svg height="70" viewBox="0 0 70 70" width="70" xmlns="http://www.w3.org/2000/svg"><g fill="none" fill-rule="evenodd"><circle cx="35" cy="35" fill="#d8d8d8" r="35"/><path id="inner" d="m25.7523984 19.1258529c.8200905-1.7620594 1.2462504-3.6816986 1.2488057-5.6252509 0-7.45617658-6.0444255-13.500602-13.5006021-13.500602-7.45617658 0-13.500602 6.04442542-13.500602 13.500602 0 7.4561766 6.04442542 13.5006021 13.500602 13.5006021 1.9435523-.0025553 3.8631915-.4287152 5.6252509-1.2488057l8.8841461 8.8766458c1.1823786 1.1823786 2.9057329 1.64415 4.520892 1.2113694s2.876742-1.6943635 3.3095226-3.3095226-.0289908-3.3385134-1.2113694-4.520892zm-22.75226462-5.6252509c0-5.79924845 4.70121977-10.50046822 10.50046822-10.50046822 5.7992485 0 10.5004683 4.70121977 10.5004683 10.50046822 0 5.7992485-4.7012198 10.5004683-10.5004683 10.5004683-5.79924845 0-10.50046822-4.7012198-10.50046822-10.5004683zm28.32126292 19.5008696c-.4468844.0006014-.8757619-.1760746-1.1925532-.4912719l-8.3591227-8.3628729c.8888051-.6900339 1.6875721-1.4888009 2.377606-2.377606l8.3628729 8.3591227c.3129083.3167823.4892659.7435407.4912719 1.188803.0000023.9284884-.7515888 1.6817572-1.6800749 1.6838251z" fill="#69675b" fill-rule="nonzero" transform="translate(17 17)"/></g></svg>