<svg height="70" viewBox="0 0 70 70" width="70" xmlns="http://www.w3.org/2000/svg"><g fill="none" fill-rule="evenodd"><circle cx="35" cy="35" fill="#d8d8d8" r="35"/><path id="inner" d="m33.25 0h-28.5c-2.62335256 0-4.75 2.12664744-4.75 4.75v20.5833333c0 2.6233526 2.12664744 4.75 4.75 4.75h7.9166667v4.75h-3.1666667c-.87445085 0-1.58333333.7088825-1.58333333 1.5833334 0 .8744508.70888248 1.5833333 1.58333333 1.5833333h19c.8744509 0 1.5833333-.7088825 1.5833333-1.5833333 0-.8744509-.7088824-1.5833334-1.5833333-1.5833334h-3.1666667v-4.75h7.9166667c2.6233526 0 4.75-2.1266474 4.75-4.75v-20.5833333c0-2.62335256-2.1266474-4.75-4.75-4.75zm-30.08333333 4.75c0-.87445085.70888248-1.58333333 1.58333333-1.58333333h28.5c.8744509 0 1.5833333.70888248 1.5833333 1.58333333v14.25h-31.66666663zm19.00000003 30.0833333h-6.3333334v-4.75h6.3333334zm12.6666666-9.5c0 .8744509-.7088824 1.5833334-1.5833333 1.5833334h-28.5c-.87445085 0-1.58333333-.7088825-1.58333333-1.5833334v-3.1666666h31.66666663z" fill="#69675b" fill-rule="nonzero" transform="translate(16 17)"/></g></svg>