<svg height="70" viewBox="0 0 70 70" width="70" xmlns="http://www.w3.org/2000/svg"><g fill="none" fill-rule="evenodd"><circle cx="35" cy="35" fill="#d8d8d8" r="35"/><g id="inner" fill="#69675b" fill-rule="nonzero" transform="translate(18 14)"><path d="m0 8.54166667v27.33333333c0 2.8304593 2.28334778 5.125 5.1 5.125h23.8c2.8166522 0 5.1-2.2945407 5.1-5.125v-27.33333333c0-2.83045935-2.2833478-5.125-5.1-5.125h-1.7v-1.70833334c0-.94348644-.7611159-1.70833333-1.7-1.70833333s-1.7.76484689-1.7 1.70833333v1.70833334h-5.1v-1.70833334c0-.94348644-.7611159-1.70833333-1.7-1.70833333s-1.7.76484689-1.7 1.70833333v1.70833334h-5.1v-1.70833334c0-.94348644-.76111593-1.70833333-1.7-1.70833333s-1.7.76484689-1.7 1.70833333v1.70833334h-1.7c-2.81665222 0-5.1 2.29454065-5.1 5.125zm8.5 1.70833333c.93888407 0 1.7-.76484689 1.7-1.70833333v-1.70833334h5.1v1.70833334c0 .94348644.7611159 1.70833333 1.7 1.70833333s1.7-.76484689 1.7-1.70833333v-1.70833334h5.1v1.70833334c0 .94348644.7611159 1.70833333 1.7 1.70833333s1.7-.76484689 1.7-1.70833333v-1.70833334h1.7c.9388841 0 1.7.76484689 1.7 1.70833334v27.33333333c0 .9434864-.7611159 1.7083333-1.7 1.7083333h-23.8c-.93888407 0-1.7-.7648469-1.7-1.7083333v-27.33333333c0-.94348645.76111593-1.70833334 1.7-1.70833334h1.7v1.70833334c0 .94348644.76111593 1.70833333 1.7 1.70833333z"/><path d="m25.5 22.2083333h-17c-.93888407 0-1.7.7648469-1.7 1.7083334 0 .9434864.76111593 1.7083333 1.7 1.7083333h17c.9388841 0 1.7-.7648469 1.7-1.7083333 0-.9434865-.7611159-1.7083334-1.7-1.7083334z"/><path d="m25.5 29.0416667h-17c-.93888407 0-1.7.7648469-1.7 1.7083333s.76111593 1.7083333 1.7 1.7083333h17c.9388841 0 1.7-.7648469 1.7-1.7083333s-.7611159-1.7083333-1.7-1.7083333z"/><path d="m8.5 18.7916667h17c.9388841 0 1.7-.7648469 1.7-1.7083334 0-.9434864-.7611159-1.7083333-1.7-1.7083333h-17c-.93888407 0-1.7.7648469-1.7 1.7083333 0 .9434865.76111593 1.7083334 1.7 1.7083334z"/></g></g></svg>