<svg height="70" viewBox="0 0 70 70" width="70" xmlns="http://www.w3.org/2000/svg"><g fill="none" fill-rule="evenodd" transform=""><circle cx="35" cy="35" fill="#d8d8d8" r="35"/><path  id="inner" d="m43.9406426 25.799327c.4679197-.4732006.6506632-1.1629056.4793927-1.8093096-.1712705-.6464041-.670535-1.1513031-1.3097253-1.3245066-.6391902-.1732034-1.3211981.0116025-1.7891179.4848031l-13.8840129 14.0407054c-2.253739 2.2837328-2.253739 5.9815625 0 8.2652953 2.2862363 2.2096822 5.8868192 2.2096822 8.1730556 0l13.8840129-14.0407055c3.4685157-3.8843447 3.3186598-9.8360941-.3408382-13.5368925s-9.5448266-3.8523456-13.3858226-.3446849l-13.8840129 14.0407054c-5.2205629 5.4017991-5.1716225 14.0458675.109763 19.3868578 5.2813856 5.3409903 13.8289872 5.390483 19.170503.1110018l10.1816095-10.2965173c.4679197-.4732006.6506632-1.1629055.4793927-1.8093096-.1712705-.646404-.670535-1.1513031-1.3097252-1.3245065-.6391903-.1732035-1.3211982.0116024-1.789118.484803l-10.1816095 10.2965173c-3.8774159 3.9211757-10.1639491 3.9211756-14.041365-.0000001-3.8774158-3.9211757-3.8774159-10.2786575-.0000001-14.1998333l13.884013-14.0407054c2.3848049-2.0965024 5.9669898-1.9700094 8.201387.2896048 2.2343973 2.2596143 2.3594786 5.882227.2863729 8.2939464l-13.884013 14.0407055c-.5241362.5300515-1.2880815.7370603-2.0040649.5430479-.7159835-.1940123-1.2752302-.7595706-1.4670774-1.4836345s.0128513-1.4966309.5369876-2.0266825z" fill="#69675b" fill-rule="nonzero"/></g></svg>