<svg height="70" viewBox="0 0 70 70" width="70" xmlns="http://www.w3.org/2000/svg"><g fill="none" fill-rule="evenodd"><circle cx="35" cy="35" fill="#d8d8d8" r="35"/><g id="inner" fill="#69675b" fill-rule="nonzero" transform="translate(17 16)"><path d="m38.3333333 26.4347826h-6.6666666v-21.47826086c0-2.73741137-2.2385763-4.95652174-5-4.95652174h-21.6666667c-2.76142375 0-5 2.21911037-5 4.95652174v24.78260866c0 4.5623523 3.73096042 8.2608696 8.33333333 8.2608696h23.33333337c2.2101374 0 4.3297533-.8703391 5.8925565-2.4195527 1.5628031-1.5492135 2.4407768-3.650398 2.4407768-5.8413169v-1.6521739c0-.9124704-.7461921-1.6521739-1.6666667-1.6521739zm-34.99999997 3.3043478v-24.78260866c0-.91247046.74619209-1.65217391 1.66666667-1.65217391h21.6666667c.9204745 0 1.6666666.73970345 1.6666666 1.65217391v21.47826086h-13.3333333c-.9204746 0-1.6666667.7397035-1.6666667 1.6521739v1.6521739c0 2.7374114-2.2385762 4.9565217-4.99999997 4.9565217-2.76142372 0-4.99999996-2.2191103-5-4.9565217zm28.33333337 4.9565218h-16.7083334c1.1024701-1.4216936 1.7027453-3.1633191 1.7083334-4.9565218h20c0 2.7374114-2.2385763 4.9565218-5 4.9565218z"/><path d="m8.33333333 9.91304348h14.99999997c.9204746 0 1.6666667-.73970346 1.6666667-1.65217391 0-.91247046-.7461921-1.65217392-1.6666667-1.65217392h-14.99999997c-.92047458 0-1.66666666.73970346-1.66666666 1.65217392 0 .91247045.74619208 1.65217391 1.66666666 1.65217391z"/><path d="m8.33333333 16.5217391h14.99999997c.9204746 0 1.6666667-.7397034 1.6666667-1.6521739 0-.9124704-.7461921-1.6521739-1.6666667-1.6521739h-14.99999997c-.92047458 0-1.66666666.7397035-1.66666666 1.6521739 0 .9124705.74619208 1.6521739 1.66666666 1.6521739z"/><path d="m23.3333333 23.1304348c.9204746 0 1.6666667-.7397035 1.6666667-1.6521739 0-.9124705-.7461921-1.6521739-1.6666667-1.6521739h-14.99999997c-.92047458 0-1.66666666.7397034-1.66666666 1.6521739 0 .9124704.74619208 1.6521739 1.66666666 1.6521739z"/></g></g></svg>