<svg height="70" viewBox="0 0 70 70" width="70" xmlns="http://www.w3.org/2000/svg"><g fill="none" fill-rule="evenodd"><circle cx="35" cy="35" fill="#d8d8d8" r="35"/><g id="inner" fill="#69675b" fill-rule="nonzero" transform="translate(14 14)"><path d="m5.83333333 23.3333333h5.83333337c.9204745 0 1.6666666-.7461921 1.6666666-1.6666666 0-.9204746-.7461921-1.6666667-1.6666666-1.6666667h-5.83333337c-3.22166104 0-5.83333333 2.6116723-5.83333333 5.8333333 0 3.2216611 2.61167229 5.8333334 5.83333333 5.8333334h23.33333337c1.3807118 0 2.5 1.1192881 2.5 2.5 0 1.3807118-1.1192882 2.5-2.5 2.5h-10.8333334c-.9204745 0-1.6666666.7461921-1.6666666 1.6666666 0 .9204746.7461921 1.6666667 1.6666666 1.6666667h10.8333334c3.221661 0 5.8333333-2.6116723 5.8333333-5.8333333 0-3.2216611-2.6116723-5.8333334-5.8333333-5.8333334h-23.33333337c-1.38071187 0-2.5-1.1192881-2.5-2.5 0-1.3807118 1.11928813-2.5 2.5-2.5z"/><path d="m31.6666667 0c-.4421605-.00034769-.8663382.17501905-1.1791667.4875l-10.4166667 10.4166667c-2.187632 2.1821342-3.4131258 5.1476191-3.4041666 8.2375v2.525c0 .9204745.7461921 1.6666666 1.6666666 1.6666666h2.525c3.0960147.0089904 6.0668738-1.2213654 8.25-3.4166666l10.4166667-10.4166667c.3048554-.31177766.4753816-.73061393.475-1.16666667 0-4.60237291-3.7309604-8.33333333-8.3333333-8.33333333zm-4.9166667 17.5583333c-1.5587757 1.5683839-3.6804285 2.4476545-5.8916667 2.4416667l-.8583637.0000304.0000304-.8583637c-.0059878-2.2112382.8732828-4.332891 2.4416667-5.8916667l9.875-9.875c2.2463226.29421019 4.0141231 2.06201072 4.3083333 4.30833333z"/></g></g></svg>