<svg height="70" viewBox="0 0 70 70" width="70" xmlns="http://www.w3.org/2000/svg"><g fill="none" fill-rule="evenodd"><circle cx="35" cy="35" fill="#d8d8d8" r="35"/><path   id="inner" d="m1.58589268 37.9999976h34.82821462c.4901211.00086.9530018-.2253755 1.2534785-.6126445.3004766-.387269.4046604-.8918941.2821292-1.3665221l-4.749302-18.9999988c-.1807304-.7000732-.8126828-1.1887679-1.5356077-1.1874999h-6.3324026v-11.08333261c0-2.62335239-2.126335-4.74999969-4.749302-4.74999969h-3.1662014c-2.622967 0-4.749302 2.1266473-4.749302 4.74999969v11.08333261h-6.33240263c-.72292487-.001268-1.35487726.4874267-1.53560764 1.1874999l-4.749302 18.9999988c-.12253121.474628-.01834738.9792531.28212922 1.3665221s.76335735.6135045 1.25347843.6126445zm14.41410732-28.9999976h6.3324027v13.7235408l-3.1662014 4.219583-3.1662013-4.219583zm1.5831007-6h3.1662013c.8743224 0 1.5831007.70888243 1.5831007 1.58333323v1.58333323h-6.3324027v-1.58333323c0-.8744508.7087783-1.58333323 1.5831007-1.58333323zm-9.62534904 16h5.09758414v4.7499997c0 .3425861.1110986.675931.3166201.9499999l4.749302 6.333333c.2989755.3986925.7681881.6333333 1.2664806.6333333s.967505-.2346408 1.2664805-.6333333l4.749302-6.333333c.2055215-.2740689.3166201-.6074138.3166201-.9499999v-4.7499997h5.0975842l3.9577516 15.8333323h-30.7754769z" fill="#69675b" fill-rule="nonzero" transform="translate(16 14)"/></g></svg>