<svg height="70" viewBox="0 0 70 70" width="70" xmlns="http://www.w3.org/2000/svg"><g fill="none" fill-rule="evenodd" transform=""><circle cx="35" cy="35" fill="#d8d8d8" r="35"/><path id="inner" d="m43.3338038 15.0000005c-.4421416-.0003476-.8663012.1750043-1.1791163.4874588l-4.9997863 4.9995767-18.3325498 18.3317816c-.1333462.1347498-.240693.2929385-.3166531.4666272-.0208324.0458294-.0374984.0916589-.0583308.1416546-.0208325.0499958-.0499979.1041579-.0624974.1624863l-3.3331908 13.3322047c-.1455815.5710891.0213074 1.1765989.4389141 1.5924765.4176066.4158777 1.0238219.5802716 1.5943323.4323521l13.3327635-3.3330511c.0583308 0 .1083287-.0458295.162493-.0624948l.1416606-.0583283c.173696-.075957.3318913-.1832993.4666468-.3166399l18.3325497-18.3317816 4.9997863-4.9995768c.3094146-.3141609.4817085-.7381361.4791462-1.1790668 0-6.4427767-5.2231213-11.6656792-11.666168-11.6656792zm-23.748985 33.5638255 1.6957609-6.7702602c3.5775516.5601169 6.3796048 3.3738538 6.924704 6.953578l-6.7705439 1.6665256c-.3216426-.8541194-.9957657-1.5282143-1.849921-1.8498434zm9.7162514-5.5786944c.0739541-.042356.1449476-.089683.2124909-.1416547l15.7659929-15.7611658c.7724637 1.1860581 1.2285774 2.5500391 1.3249433 3.9621646l-15.4701721 15.4653575c-.4038168-1.2715862-1.0239973-2.4639742-1.833255-3.5247016zm-2.1457416-2.4997884c-.0519739.0675405-.0993029.138531-.1416606.212482-1.0607719-.8092238-2.2532099-1.4293783-3.5248494-1.8331782l15.4701722-15.4695238c1.4107503.0970614 2.7732698.5531278 3.9581641 1.3248879zm22.3115464-12.3072915c-1.1505048-3.6418709-4.0034831-6.4947297-7.6455066-7.6451862l2.1749071-2.1748159c4.0757436.3348568 7.3106357 3.5696133 7.6455065 7.6451862z" fill="#69675b" fill-rule="nonzero"/></g></svg>