<svg height="70" viewBox="0 0 70 70" width="70" xmlns="http://www.w3.org/2000/svg"><g fill="none" fill-rule="evenodd" transform=""><circle cx="35" cy="35" fill="#d8d8d8" r="35"/><path id="inner" d="m16.6679302 54.9999995c.4421348.0003477.8662878-.175015 1.1790982-.4874887l9.6536054-9.6539429 7.9870357 7.9873149c.3125956.3129544.7367751.4887997 1.1790981.4887997.4423231 0 .8665026-.1758453 1.1790982-.4887997l3.749782-3.7499131c2.263284-2.2647092 2.263284-5.9351007 0-8.1998099l-.0708292-.0624986 8.4745073-8.4748035 2.1540414 2.1541167c.4212512.4212659 1.0352382.585789 1.610678.431595.5754399-.154194 1.0249095-.6036794 1.1790982-1.1791393.1541886-.57546-.0103287-1.1894684-.4315799-1.6107343l-16.6656978-16.6662803c-.651198-.6512207-1.7069984-.6512207-2.3581963 0s-.6511979 1.707058 0 2.3582786l2.1540415 2.1541168-8.4745074 8.4748035-.0666628-.0624986c-2.26463-2.2633631-5.9348933-2.2633631-8.1995233 0l-3.749782 3.7499131c-.3129436.3126065-.4887827.7368008-.4887827 1.1791393s.1758391.8665329.4887827 1.1791394l7.9912021 7.9789817-9.6536055 9.6539428c-.4771892.4766749-.6200307 1.193985-.3618497 1.8171081.2581811.623123.8664759 1.0291901 1.5409478 1.0286593zm23.331977-32.64091 7.6412225 7.6414895-8.4745074 8.4748036-7.6412224-7.6414895zm-16.7448599 8.4081384c.964564-.9631532 2.5268997-.9631532 3.4914637 0l12.4992734 12.4997103c.9473692.9710617.9473692 2.520524 0 3.4915857l-2.5790168 2.5499409-15.9740713-15.9746297z" fill="#69675b" fill-rule="nonzero"/></g></svg>