<svg height="70" viewBox="0 0 70 70" width="70" xmlns="http://www.w3.org/2000/svg"><g fill="none" fill-rule="evenodd"><circle cx="35" cy="35" fill="#d8d8d8" r="35"/><g fill="#69675b" fill-rule="nonzero" transform="translate(16 16)"><path id="inner" d="m30.875 0h-22.75c-4.48731359 0-8.125 3.86663171-8.125 8.63636364v20.72727276c0 4.7697319 3.63768641 8.6363636 8.125 8.6363636h22.75c4.4873136 0 8.125-3.8666317 8.125-8.6363636v-20.72727276c0-4.76973193-3.6376864-8.63636364-8.125-8.63636364zm4.875 29.3636364c0 2.8618391-2.1826118 5.1818181-4.875 5.1818181h-22.75c-2.69238816 0-4.875-2.319979-4.875-5.1818181v-20.72727276c0-2.86183916 2.18261184-5.18181819 4.875-5.18181819h22.75c2.6923882 0 4.875 2.31997903 4.875 5.18181819z"/><path d="m28.48625 17.5361364-13-8.63636367c-.5008139-.33270956-1.1320231-.35041016-1.6486445-.04623189-.5166213.30417827-.8373116.88234187-.8376055 1.51009556v17.2727272c-.000287.628044.320162 1.2067624.836875 1.5113637.2416164.1408172.5125736.2150467.788125.2159091.3046366-.0002578.6030705-.0915323.86125-.2634091l13-8.6363637c.4743804-.315807.7624575-.8688942.7624575-1.4638636s-.2880771-1.1480566-.7624575-1.4638636zm-12.23625 6.9825v-11.0372728l8.3078125 5.5186364z"/></g></g></svg>