<svg height="70" viewBox="0 0 70 70" width="70" xmlns="http://www.w3.org/2000/svg"><g fill="none" fill-rule="evenodd" transform=""><circle cx="35" cy="35" fill="#d8d8d8" r="35"/><path id="inner" d="m52.1 48.1856964h-3.8v-15.2572146h3.8c1.71 0 2.47-2.097867 1.33-3.2421581l-17.1-15.2572145c-.76-.5721456-1.9-.5721456-2.47 0l-17.1 15.2572145c-1.33.9535759-.57 3.2421581 1.14 3.2421581h3.8v15.2572146h-3.8c-1.14 0-1.9.7628607-1.9 1.9071518s.76 1.9071518 1.9 1.9071518h34.2c1.14 0 1.9-.7628607 1.9-1.9071518s-.76-1.9071518-1.9-1.9071518zm-7.6 0h-3.8v-15.2572146h3.8zm-7.6-15.2572146v15.2572146h-3.8v-15.2572146zm-1.9-14.685069 12.16 10.8707654h-24.32zm-9.5 14.685069h3.8v15.2572146h-3.8z" fill="#69675b" fill-rule="nonzero"/></g></svg>