<svg height="70" viewBox="0 0 70 70" width="70" xmlns="http://www.w3.org/2000/svg"><g fill="none" fill-rule="evenodd"><circle cx="35" cy="35" fill="#d8d8d8" r="35"/><g id="inner" fill="#69675b" fill-rule="nonzero" transform="translate(16 16)"><path  d="m7.09090909 31.5h1.77272727v8.75c.00078166.736088.46807928 1.3930082 1.16918114 1.6436179.7011019.2506097 1.4861179.0413304 1.9641143-.5236179l8.3318182-9.87h11.5803409c3.916201 0 7.0909091-3.1340068 7.0909091-7v-17.5c0-3.86599325-3.1747081-7-7.0909091-7h-24.81818181c-3.91620095 0-7.09090909 3.13400675-7.09090909 7v17.5c0 3.8659932 3.17470814 7 7.09090909 7zm-3.54545454-24.5c0-1.93299662 1.58735406-3.5 3.54545454-3.5h24.81818181c1.9581005 0 3.5454546 1.56700338 3.5454546 3.5v17.5c0 1.9329966-1.5873541 3.5-3.5454546 3.5h-12.4090909c-.5257159.0004542-1.0241101.2312316-1.3605682.63l-5.7303409 6.8075v-5.6875c0-.9664983-.793677-1.75-1.7727273-1.75h-3.54545451c-1.95810048 0-3.54545454-1.5670034-3.54545454-3.5z"/><ellipse cx="19.5" cy="15.75" rx="1.772727" ry="1.75"/><ellipse cx="12.409091" cy="15.75" rx="1.772727" ry="1.75"/><ellipse cx="26.590909" cy="15.75" rx="1.772727" ry="1.75"/></g></g></svg>