<svg height="70" viewBox="0 0 70 70"  fill="#d8d8d8" width="70" xmlns="http://www.w3.org/2000/svg"><g fill="none" fill-rule="evenodd" transform=""><circle cx="35" cy="35" r="35"/><path id="inner" d="m53.9050344 28.8307046c-.2076703-.5699028-.722793-.9711054-1.3263591-1.033033-.0791856 0-7.1940134-.7401424-11.4383625-1.1121926l-4.6877886-10.7300862c-.229539-.5984225-.8165468-.9827225-1.4570154-.9538734-.6316809.0030039-1.2011664.3809808-1.4490968.9617894l-4.5690102 10.6865484c-4.2364305.3680922-11.4819146 1.1121926-11.5611002 1.1201086-.6001629.063793-1.1118816.4630508-1.3195562 1.0295559-.2076747.5665052-.0751982 1.2017629.3416138 1.6381232l8.4095127 8.6679781c-.9106346 3.8115356-2.8902751 11.9372704-2.8902751 11.9372704-.1541711.6341017.0966445 1.2978051.6317081 1.6716139.5350637.3738087 1.2447441.3811318 1.7874125.0184439l10.6108728-7.1243656 10.6108729 7.1243656c.5426684.3626879 1.2523488.3553648 1.7874125-.0184439.5350636-.3738088.7858792-1.0375122.6317081-1.6716139 0 0-1.9677626-8.078239-2.8863158-11.8976906l8.4213905-8.6719361c.4223127-.4349432.5591408-1.0727525.352376-1.6425621zm-11.6521637 8.7313059c-.3739026.3899079-.5231599.9434707-.3959281 1.4684109.451358 1.8958728 1.4015854 5.8142739 2.1300931 8.8104655l-8.1165258-5.4422238c-.5339954-.3584834-1.2318439-.3584834-1.7658393 0l-8.1086073 5.4540977c.732467-3.0159814 1.690613-6.9620884 2.1380117-8.8421293.1272318-.5249402-.0220255-1.078503-.3959281-1.4684109l-6.7307775-6.9304246c2.8229673-.2810166 6.8139224-.6728567 9.1934502-.8667978.5856435-.0485503 1.0962462-.4172825 1.3263591-.9578313l3.5039636-8.1890625 3.5831493 8.2167683c.2333221.5320228.7393658.8935809 1.3184405.9419995 2.3755685.197899 6.2912973.5818232 9.0667532.8588818z" fill="#69675b" fill-rule="nonzero"/></g></svg>