<svg height="70" viewBox="0 0 70 70" width="70" fill="#d8d8d8" xmlns="http://www.w3.org/2000/svg"><g fill-rule="evenodd"><circle cx="35" cy="35" r="35"/><g id="inner" fill="#69675b" fill-rule="nonzero" transform="translate(14 18)"><path d="m25.6663545 16.5834545c0 3.3962728 2.6595318 7.4931819 5.9595987 7.4931819 3.3056856 0 5.9652174-4.0969091 5.9652174-7.4931819 0-3.3504545-2.676388-6.0785454-5.9652174-6.0785454-3.2869565.0019091-5.9595987 2.7280909-5.9595987 6.0785454zm8.7539799 0c0 1.9129091-1.5395317 4.261091-2.7943812 4.261091-1.224883 0-2.7887626-2.3901819-2.7887626-4.261091 0-1.5692727 1.2511037-2.8464545 2.7887626-2.8464545 1.5414047.0019091 2.7943812 1.2790909 2.7943812 2.8464545z"/><path d="m19.3359197 25.3270909h-15.50394646v-21.28636363h26.20949836v3.76090909c0 .89345455.7098327 1.617 1.5844816 1.617.8783946 0 1.5863545-.72354545 1.5863545-1.617v-5.37790909c0-.89345454-.7079599-1.617-1.5863545-1.617h-29.37846156c-.87652174 0-1.58635452.72354546-1.58635452 1.617v24.51845453c0 .8934546.70983278 1.6150909 1.58635452 1.6150909h17.08842806c.8765218 0 1.5844816-.7216363 1.5844816-1.6150909 0-.8934545-.7079598-1.6150909-1.5844816-1.6150909z"/><path d="m31.6690301 24.5978182c-2.1819398 0-4.1953177.6891818-5.828495 1.8460909l-3.7570568-5.817c-.4794649-.7464546-1.4627425-.9545455-2.1931773-.4600909-.7323077.4887273-.9364548 1.4929091-.4532441 2.2374545l4.0923076 6.3324546c-1.056321 1.4929091-1.6743812 3.2893636-1.6743812 5.2194545 0 .8915455.7098328 1.617 1.5844816 1.617.8765217 0 1.5863545-.7254545 1.5863545-1.617 0-3.3790909 2.9816722-6.1281818 6.6450836-6.1281818s6.6432107 2.7490909 6.6432107 6.1281818c0 .8915455.7098328 1.617 1.5844816 1.617.8765218 0 1.5863545-.7254545 1.5863545-1.617-.0018729-5.1602727-4.4032107-9.3583636-9.8159197-9.3583636z"/><path d="m22.1171906 7.47709091h-13.01297655c-.87652174 0-1.58635452.72354545-1.58635452 1.61509091 0 .89345454.70983278 1.61699998 1.58635452 1.61699998h13.01297655c.8746489 0 1.5844816-.72354544 1.5844816-1.61699998 0-.89154546-.7098327-1.61509091-1.5844816-1.61509091z"/><path d="m23.7016722 14.6839091c0-.8915455-.7098327-1.6150909-1.5844816-1.6150909h-13.01297655c-.87652174 0-1.58635452.7235454-1.58635452 1.6150909 0 .8934545.70983278 1.617 1.58635452 1.617h13.01297655c.8746489 0 1.5844816-.7235455 1.5844816-1.617z"/><path d="m9.10421405 18.6605455c-.87652174 0-1.58635452.7216363-1.58635452 1.6150909 0 .8915454.70983278 1.617 1.58635452 1.617h7.52535115c.8765218 0 1.5863545-.7235455 1.5863545-1.617 0-.8934546-.7098327-1.6150909-1.5863545-1.6150909z"/></g></g></svg>