<svg height="70" viewBox="0 0 70 70" fill="#d8d8d8" width="70" xmlns="http://www.w3.org/2000/svg"><g fill-rule="evenodd"><circle cx="35" cy="35"  r="35"/><g id="inner" fill="#69675b" fill-rule="nonzero" transform="translate(16.527778 16.527778)"><path d="m8.41924399 35.9722222h16.83848801c2.2329223 0 4.3743899-.8917458 5.9533045-2.4790635 1.5789145-1.5873177 2.4659394-3.7401825 2.4659394-5.9849888v-3.3856209c0-.9349134-.7538847-1.6928104-1.6838488-1.6928104-.929964 0-1.6838487.757897-1.6838487 1.6928104v3.3856209c0 1.3468838-.532215 2.6386027-1.4795637 3.5909933s-2.2322293 1.4874381-3.5719827 1.4874381h-16.83848801c-2.78989204 0-5.0515464-2.2736912-5.0515464-5.0784314v-16.9281045c0-2.80474024 2.26165436-5.07843141 5.0515464-5.07843141h13.47079041c.929964 0 1.6838488-.75789706 1.6838488-1.69281046s-.7538848-1.69281046-1.6838488-1.69281046h-13.47079041c-4.64982006 0-8.41924399 3.78948529-8.41924399 8.46405233v16.9281045c0 4.674567 3.76942393 8.4640523 8.41924399 8.4640523z"/><path d="m34.868299.91834967c-.3158366-.31787094-.744414-.49647872-1.1913231-.49647872-.446909 0-.8754864.17860778-1.191323.49647872l-12.2794673 12.34482023-3.8602234-3.88076794c-.3158366-.31787094-.744414-.49647872-1.191323-.49647872-.4469091 0-.8754865.17860778-1.191323.49647872l-5.05154644 5.07843134c-.31618815.3175175-.49385038.7483759-.49385038 1.1976634 0 .4492876.17766223.8801459.49385038 1.1976634l10.10309274 10.1568628c.3158366.3178709.744414.4964787 1.1913231.4964787.446909 0 .8754864-.1786078 1.191323-.4964787l18.5223368-18.62091506c.3161881-.3175175.4938503-.74837584.4938503-1.1976634 0-.44928755-.1776622-.88014589-.4938503-1.19766339zm-14.6621134 22.50168303-7.7204468-7.761536 2.6689004-2.6831045 3.8602233 3.8807679c.3158366.317871.744414.4964787 1.1913231.4964787.446909 0 .8754864-.1786077 1.191323-.4964787l12.2794673-12.34482023 2.6689004 2.68310457z"/></g></g></svg>