<svg height="70" fill="#d8d8d8" viewBox="0 0 70 70" width="70" xmlns="http://www.w3.org/2000/svg"><g  fill-rule="evenodd"><circle cx="35" cy="35"  r="35"/><g id="inner" fill="#69675b" fill-rule="nonzero" transform="translate(15 16)"><path d="m40.0604167 8.67c-.5552084-.2975-1.2385417-.255-1.79375.1275l-7.5166667 5.355v-.5525c0-3.74-3.075-6.8-6.8333333-6.8h-1.7083334v-1.7c0-2.805-2.30625-5.1-5.125-5.1h-8.54166663c-.93958334 0-1.70833334.765-1.70833334 1.7s.76875 1.7 1.70833334 1.7h8.54166663c.9395834 0 1.7083334.765 1.7083334 1.7v1.7h-11.95833337c-3.75833333 0-6.83333333 3.06-6.83333333 6.8v13.6c0 3.74 3.075 6.8 6.83333333 6.8h17.08333337c3.7583333 0 6.8333333-3.06 6.8333333-6.8v-.5525l7.559375 5.355c.76875.5525 1.8364583.3825 2.3916667-.3825.2135416-.2975.2989583-.6375.2989583-.9775v-20.4425c0-.6375-.3416667-1.2325-.9395833-1.53zm-12.7270834 18.53c0 1.87-1.5375 3.4-3.4166666 3.4h-17.08333337c-1.87916666 0-3.41666666-1.53-3.41666666-3.4v-13.6c0-1.87 1.5375-3.4 3.41666666-3.4h17.08333337c1.8791666 0 3.4166666 1.53 3.4166666 3.4zm10.25.085-6.8333333-4.8025v-4.1225l6.8333333-4.845z"/><path d="m20.5 20.4h-10.25c-.93958333 0-1.70833333.765-1.70833333 1.7s.76875 1.7 1.70833333 1.7h10.25c.9395833 0 1.7083333-.765 1.7083333-1.7s-.76875-1.7-1.7083333-1.7z"/></g></g></svg>