<?xml version="1.0" encoding="UTF-8"?>
<svg width="120px" height="155px" viewBox="0 0 120 155" version="1.1" xmlns="http://www.w3.org/2000/svg" xmlns:xlink="http://www.w3.org/1999/xlink">
    <!-- Generator: sketchtool 51.3 (57544) - http://www.bohemiancoding.com/sketch -->
    <title>F4787951-B698-4E4D-A666-ADAC845F09CB-64428-00000BB6D5999FFD</title>
    <desc>Created with sketchtool.</desc>
    <defs></defs>
    <g id="0.-Assets" stroke="none" stroke-width="1" fill="none" fill-rule="evenodd">
        <g id="Brand-Assets" transform="translate(-50.000000, -596.000000)">
            <g id="Logo" transform="translate(50.000000, 496.000000)">
                <g id="Logo-/-Portrait" transform="translate(0.000000, 100.000000)">
                    <g id="Official-logo---portrait">
                        <path d="M113.173236,29.1321373 L69.8059874,45.9002167 C70.3062374,45.4928737 70.8222374,45.0795404 71.3712373,44.6546008 C83.5238621,35.2501444 99.6833617,28.3129585 109.835736,24.5094683 C108.785362,23.1848547 107.682112,21.90442 106.531612,20.6685384 C96.0852368,24.6633451 80.5778621,31.53913 68.4657374,40.9121371 C68.4499874,40.9244922 68.4353624,40.9364728 68.4196124,40.9484535 C71.3412373,37.0472458 75.8363622,32.4339367 82.7434871,27.7903015 C89.7046119,23.1107243 96.9799868,19.5116543 102.816862,16.9852292 C101.513362,15.7953983 100.158862,14.6609781 98.7593617,13.5812196 C93.1527369,16.1158814 86.540362,19.5296253 80.0948621,23.8628861 C74.3056123,27.7547339 70.0591124,31.670543 66.9361124,35.2643715 C69.2903624,30.3500479 73.0486123,24.8939731 79.0673622,19.849734 C83.4443621,16.1817751 89.0187369,12.987053 94.2882368,10.4231883 C92.7016119,9.40295881 91.0654869,8.45349022 89.3869869,7.57328492 C84.711112,10.0132245 79.9598621,12.9200361 76.0182372,16.2233331 C69.1726124,21.9605794 64.9624875,28.1691904 62.3734875,33.7379585 C63.7984875,26.8438281 67.1652374,19.0230674 74.5647373,12.6452293 C77.6359872,9.99862305 81.3383621,7.60960135 85.105237,5.52945645 C83.2411121,4.72338158 81.3304871,4.00416662 79.3789872,3.37555552 C77.9554872,4.25014487 76.5571122,5.1666666 75.2146123,6.12886465 C75.1279873,6.19101441 75.0402373,6.25241538 74.9543623,6.31531393 C74.6712373,6.52048301 74.3922373,6.72902165 74.1143623,6.93793469 C73.8904873,7.10716174 73.6677373,7.27713758 73.4472373,7.44861101 C73.3853623,7.49690811 73.3242373,7.54557961 73.2623623,7.59387671 C72.9001123,7.87766898 72.5438623,8.1652052 72.1921123,8.45498781 C72.0271123,8.5916424 71.8617373,8.72829698 71.6993623,8.86644916 C71.5763623,8.97053128 71.4537373,9.0749878 71.3318623,9.17981872 C68.7368624,11.4344322 66.5851124,13.8298186 64.8027375,16.2907244 C53.4106127,32.3564367 59.6044876,51.0732481 60.8652376,54.4345765 L115.660236,33.2482483 C114.882111,31.8427652 114.051861,30.470229 113.173236,29.1321373" id="Fill-1" fill="#EF9D19"></path>
                        <path d="M54.1288493,47.5987777 L6.37034986,29.1320629 C5.49134988,30.4701547 4.66109989,31.8426909 3.8833499,33.248174 L55.4522243,53.1877632 C55.0115993,51.698041 54.5285993,49.8032222 54.1288493,47.5987777" id="Fill-3" fill="#EF9D19"></path>
                        <path d="M58.4558227,17.4971788 C59.2211977,16.1104155 60.0675727,14.764087 60.9979477,13.4615628 C59.3805727,12.183 56.2838228,9.88570532 51.2329479,6.70296375 C48.7095729,5.11290336 45.923323,3.72539127 43.065073,2.51758933 C40.6376981,3.17315697 38.2676981,3.96725118 35.9640732,4.89238403 C40.3939481,6.40120047 44.910073,8.31810869 48.7016979,10.7075048 C54.1005728,14.1092681 57.1553228,16.4447513 58.4558227,17.4971788" id="Fill-5" fill="#EF9D19"></path>
                        <path d="M55.1615638,25.2856297 C55.6453138,23.7030572 56.2213138,22.1594219 56.8873138,20.6573446 C55.1724388,19.3971271 52.9475636,17.8710884 50.1136885,16.1275256 C43.5838132,12.1091317 36.3133128,9.34346736 30.2735625,7.51192141 C28.3213124,8.52990453 26.4290623,9.64560505 24.6020622,10.8526582 C30.9264375,12.4947597 39.924938,15.4199168 47.6251884,20.1586489 C51.0061885,22.2391683 53.4673137,23.9864751 55.1615638,25.2856297" id="Fill-7" fill="#EF9D19"></path>
                        <path d="M53.2902372,39.5466783 C53.2767372,39.0236469 53.2744872,38.503985 53.2774872,37.9861952 C37.8724872,29.4095282 20.6378622,23.577185 12.6128622,21.0960617 C11.4529872,22.3652647 10.3459872,23.6835135 9.29073715,25.0436947 C16.2706122,27.1436827 36.7538622,33.7499027 53.5579872,43.6028862 C53.4226122,42.3127171 53.3269872,40.9577774 53.2902372,39.5466783" id="Fill-9" fill="#EF9D19"></path>
                        <path d="M53.4469519,34.2440672 C53.6022019,32.4301179 53.8594519,30.6521107 54.2247019,28.9164102 C52.5379518,27.7258305 50.3929517,26.3514223 47.7139516,24.8688137 C37.9009512,19.4378234 26.8512008,15.9241157 20.1308256,14.0903234 C18.6267005,15.2824007 17.1762004,16.5388741 15.7864504,17.8589949 C21.4200756,19.2689707 34.4179511,22.9242002 45.4148265,29.0100093 C49.1884517,31.0987653 51.7868268,32.9299368 53.4469519,34.2440672" id="Fill-11" fill="#EF9D19"></path>
                        <path d="M62.9409765,10.9505258 C63.9418515,9.7502117 65.0184766,8.59220441 66.1693516,7.47875026 C64.4788516,5.93548934 60.9729765,2.90774767 56.8933515,0.374208927 C54.1089764,0.497759657 51.3707264,0.798025369 48.6906013,1.26639495 C50.4362264,2.11028387 52.3539764,3.13500614 54.3373514,4.36265111 C58.0704765,6.67379854 61.3686015,9.52070686 62.9409765,10.9505258" id="Fill-13" fill="#EF9D19"></path>
                        <path d="M59.848163,67.5035458 C63.0510381,67.5035458 65.7307881,65.2238478 66.3446631,62.2028454 L119.749914,41.7237518 C119.138289,40.2359017 118.475289,38.7765056 117.758664,37.3470612 L59.8995381,59.5442586 L2.03741252,37.3867471 C1.32341251,38.8176891 0.660412506,40.2755876 0.0487875007,41.7634378 L53.351288,62.2039686 C53.965538,65.224971 56.644913,67.5035458 59.848163,67.5035458" id="Fill-16" fill="#231F20"></path>
                        <path d="M13.4098502,96.4492368 L13.4098502,102.958862 C13.4098502,103.506604 12.9651001,103.950638 12.4164751,103.950638 L8.06347488,103.950638 C7.51484985,103.950638 7.07009983,103.506604 7.07009983,102.958862 L7.07009983,78.6912535 C7.07009983,78.143512 7.51484985,77.6994781 8.06347488,77.6994781 L23.7819757,77.6994781 C24.3306008,77.6994781 24.7749758,78.143512 24.7749758,78.6912535 L24.7749758,82.4984879 C24.7749758,83.0462294 24.3306008,83.4902632 23.7819757,83.4902632 L14.4032252,83.4902632 C13.8546002,83.4902632 13.4098502,83.934297 13.4098502,84.4820386 L13.4098502,88.6752754 C13.4098502,89.2230169 13.8546002,89.6666763 14.4032252,89.6666763 L22.0037256,89.6666763 C22.5519757,89.6666763 22.9967257,90.1107102 22.9967257,90.6584517 L22.9967257,94.465686 C22.9967257,95.0134276 22.5519757,95.4574614 22.0037256,95.4574614 L14.4032252,95.4574614 C13.8546002,95.4574614 13.4098502,95.9014952 13.4098502,96.4492368" id="Fill-18" fill="#231F20"></path>
                        <path d="M33.4871996,83.7603531 C34.0358245,83.7603531 34.4801995,84.2043869 34.4801995,84.7521285 L34.4801995,95.1101721 C34.4801995,97.2719355 35.2534495,98.1981915 36.8771994,98.1981915 C38.2043244,98.1981915 39.1988244,97.3011384 39.6746994,96.4003412 C39.7470744,96.2640611 39.7763243,96.1105586 39.7763243,95.9563074 L39.7763243,84.7521285 C39.7763243,84.2043869 40.2214493,83.7603531 40.7696993,83.7603531 L45.3161992,83.7603531 C45.8648241,83.7603531 46.3095741,84.2043869 46.3095741,84.7521285 L46.3095741,102.958638 C46.3095741,103.50638 45.8648241,103.950414 45.3161992,103.950414 L40.2941993,103.950414 C40.0084493,103.950414 39.7763243,103.719037 39.7763243,103.433373 L39.7763243,103.204242 C39.7763243,102.776682 39.2891994,102.535571 38.9490744,102.795776 C37.7483244,103.713047 36.0521995,104.297853 34.2098245,104.297853 C29.8028247,104.297853 27.9473248,101.364085 27.9473248,96.4613678 L27.9473248,84.7521285 C27.9473248,84.2043869 28.3920747,83.7603531 28.9406997,83.7603531 L33.4871996,83.7603531 Z" id="Fill-20" fill="#231F20"></path>
                        <path d="M64.0048133,103.950487 C63.4561883,103.950487 63.0114382,103.506453 63.0114382,102.958712 L63.0114382,92.6396053 C63.0114382,90.4389048 62.2381882,89.5126487 60.5758132,89.5126487 C59.2531881,89.5126487 58.2943131,90.4037115 57.7906881,91.3011391 C57.7108131,91.4434096 57.6766881,91.6051487 57.6766881,91.7676367 L57.6766881,102.958712 C57.6766881,103.506453 57.2319381,103.950487 56.6833131,103.950487 L52.1754379,103.950487 C51.6268129,103.950487 51.1824379,103.506453 51.1824379,102.958712 L51.1824379,84.7522018 C51.1824379,84.2044602 51.6268129,83.7604264 52.1754379,83.7604264 L57.1591881,83.7604264 C57.4449381,83.7604264 57.6766881,83.9918032 57.6766881,84.2774674 L57.6766881,84.5095931 C57.6766881,84.9364047 58.1623131,85.1778902 58.5024381,84.9191824 C59.7125631,83.9992911 61.4289382,83.4129868 63.2431882,83.4129868 C67.6501884,83.4129868 69.5443134,86.3467549 69.5443134,91.2498468 L69.5443134,102.958712 C69.5443134,103.506453 69.0995634,103.950487 68.5513134,103.950487 L64.0048133,103.950487 Z" id="Fill-22" fill="#231F20"></path>
                        <path d="M83.1924411,98.5844584 C84.0065661,98.5844584 84.7951911,98.2299052 85.3535661,97.787369 C85.5826911,97.6054124 85.7053161,97.3212458 85.7053161,97.0288424 L85.7053161,90.7543374 C85.7053161,90.4668011 85.5864411,90.1867528 85.3633161,90.0047963 C84.8248161,89.5663784 84.0339411,89.1650257 83.1924411,89.1650257 C81.1438161,89.1650257 79.9839411,90.9407866 79.9839411,93.9131176 C79.9839411,96.8086974 81.1824411,98.5844584 83.1924411,98.5844584 M91.2448166,103.950678 L86.2228164,103.950678 C85.9370664,103.950678 85.7053164,103.718926 85.7053164,103.433637 C85.7053164,103.001958 85.2061914,102.759349 84.8705664,103.030786 C83.8730663,103.83761 82.5980663,104.336306 81.0275662,104.336306 C76.4274411,104.336306 73.334816,100.630533 73.334816,93.8359918 C73.334816,87.0418253 76.4274411,83.4131781 81.0275662,83.4131781 C82.2343163,83.4131781 83.2963163,83.7310404 84.1955663,84.2435887 C84.8690664,84.6273447 85.7053164,84.1728278 85.7053164,83.3985766 L85.7053164,77.5329125 C85.7053164,76.9855453 86.1496914,76.5415115 86.6986914,76.5415115 L91.2448166,76.5415115 C91.7934416,76.5415115 92.2381916,76.9855453 92.2381916,77.5329125 L92.2381916,102.958902 C92.2381916,103.506269 91.7934416,103.950678 91.2448166,103.950678" id="Fill-24" fill="#231F20"></path>
                        <path d="M103.914676,99.5880995 C104.796676,99.5880995 105.535051,99.301312 106.035677,98.9160584 C106.267802,98.7374715 106.388927,98.4491865 106.388927,98.1564087 L106.388552,96.4184619 C106.388552,95.8898145 105.973801,95.4498991 105.445051,95.4270609 C105.320926,95.4218194 105.196426,95.4188242 105.074176,95.4188242 C103.257676,95.4188242 101.981926,96.190829 101.981926,97.6580874 C101.981926,99.0092831 102.793801,99.5880995 103.914676,99.5880995 Z M107.381926,103.950563 C106.833301,103.950563 106.388551,103.506529 106.388551,102.958787 L106.388551,102.63793 C105.267676,103.603123 103.721551,104.336565 101.749801,104.336565 C97.8843015,104.336565 95.7966766,101.981613 95.7966766,98.3529661 C95.7966766,93.7976884 99.4694265,91.4812996 104.610676,91.4812996 C105.190426,91.4812996 105.808801,91.5584252 106.388551,91.6355508 L106.388551,91.5198624 C106.388551,89.3195364 105.190426,88.8174711 103.334926,88.8174711 C102.236176,88.8174711 100.818676,89.1136185 99.6074265,89.4955025 C99.0505515,89.6714687 98.4659265,89.3266499 98.3440515,88.756819 L97.6803015,85.6564446 C97.5738016,85.159621 97.8603015,84.6646693 98.3433015,84.5040534 C100.304926,83.8537273 102.500926,83.413063 104.726551,83.413063 C109.945426,83.413063 112.728676,86.4625195 112.728676,91.7901764 L112.728676,102.958787 C112.728676,103.506529 112.283926,103.950563 111.735301,103.950563 L107.381926,103.950563 Z" id="Fill-26" fill="#231F20"></path>
                        <path d="M17.0542126,127.681141 L15.2414626,133.645645 C15.1147126,134.063472 14.7284626,134.34951 14.2908376,134.34951 L8.60583756,134.34951 C8.17158755,134.34951 7.78796255,134.067964 7.65783755,133.654257 L0.0460875003,109.386648 C-0.154162501,108.747928 0.323587502,108.098351 0.994087507,108.098351 L5.96546254,108.098351 C6.40983754,108.098351 6.79983755,108.393 6.92096255,108.819812 L11.1258376,123.63916 C11.3965876,124.592372 12.7454626,124.603979 13.0323376,123.655633 L15.0967126,116.834884 C15.1525876,116.651056 15.1533376,116.454498 15.0993376,116.269921 L13.0795876,109.368302 C12.8939626,108.733701 13.3709626,108.098351 14.0332126,108.098351 L19.0852126,108.098351 C19.5404626,108.098351 19.9375876,108.407602 20.0482126,108.84864 L23.3819627,122.106756 C23.6309627,123.09666 25.0345877,123.110887 25.3038377,122.126599 L28.9375877,108.829172 C29.0557127,108.397867 29.4479627,108.098351 29.8960877,108.098351 L34.9353377,108.098351 C35.6062127,108.098351 36.0839627,108.749051 35.8825877,109.387771 L28.2352127,133.65538 C28.1050877,134.068339 27.7214627,134.34951 27.2875877,134.34951 L21.5793376,134.34951 C21.1338376,134.34951 20.7430876,134.053363 20.6230876,133.625054 L18.9610876,127.701732 C18.6933376,126.746648 17.3425876,126.732046 17.0542126,127.681141" id="Fill-28" fill="#231F20"></path>
                        <path d="M44.4497259,129.987117 C45.3317259,129.987117 46.0701009,129.700329 46.5707259,129.315076 C46.8032259,129.136114 46.9239759,128.848204 46.9239759,128.555426 L46.9239759,126.817479 C46.9239759,126.288832 46.5092259,125.848542 45.9801009,125.825704 C45.8559759,125.820462 45.7314759,125.817842 45.6096009,125.817842 C43.7927259,125.817842 42.5169759,126.589846 42.5169759,128.05673 C42.5169759,129.407926 43.3288509,129.987117 44.4497259,129.987117 Z M47.9173505,134.349207 C47.3687256,134.349207 46.9239756,133.905548 46.9239756,133.357806 L46.9239756,133.036949 C45.8027256,134.002142 44.2566007,134.735584 42.2852258,134.735584 C38.419351,134.735584 36.3317261,132.380632 36.3317261,128.751985 C36.3317261,124.196333 40.0044759,121.880318 45.1457257,121.880318 C45.7254756,121.880318 46.3442256,121.957444 46.9239756,122.034569 L46.9239756,121.918881 C46.9239756,119.71818 45.7254756,119.216489 43.8699757,119.216489 C42.7716008,119.216489 41.3541008,119.512262 40.1424759,119.894521 C39.5856009,120.070113 39.0009759,119.725668 38.879101,119.155463 L38.215351,116.055463 C38.109226,115.558265 38.395351,115.063313 38.878351,114.903071 C40.8399759,114.252745 43.0359758,113.811707 45.2616007,113.811707 C50.4804754,113.811707 53.2637253,116.861538 53.2637253,122.18882 L53.2637253,133.357806 C53.2637253,133.905548 52.8189753,134.349207 52.2703503,134.349207 L47.9173505,134.349207 Z" id="Fill-30" fill="#231F20"></path>
                        <path d="M70.7656119,134.34936 C70.2169869,134.34936 69.7726119,133.905326 69.7726119,133.357959 L69.7726119,123.038478 C69.7726119,120.837777 68.9993619,119.911521 67.336987,119.911521 C66.013987,119.911521 65.0551121,120.802958 64.5514871,121.700386 C64.4716121,121.842282 64.4374871,122.004021 64.4374871,122.166883 L64.4374871,133.357959 C64.4374871,133.905326 63.9927371,134.34936 63.4444871,134.34936 L58.9366123,134.34936 C58.3879873,134.34936 57.9432373,133.905326 57.9432373,133.357959 L57.9432373,115.151074 C57.9432373,114.603333 58.3879873,114.159299 58.9366123,114.159299 L63.9199871,114.159299 C64.2057371,114.159299 64.4374871,114.390676 64.4374871,114.67634 L64.4374871,114.908465 C64.4374871,115.335277 64.9231121,115.576763 65.2636121,115.318055 C66.473362,114.398163 68.189737,113.811859 70.0043619,113.811859 C74.4113617,113.811859 76.3054867,116.745627 76.3054867,121.648719 L76.3054867,133.357959 C76.3054867,133.905326 75.8607367,134.34936 75.3121117,134.34936 L70.7656119,134.34936 Z" id="Fill-32" fill="#231F20"></path>
                        <path d="M89.9532367,128.983285 C90.7673617,128.983285 91.5563617,128.628732 92.1143617,128.186196 C92.3434867,128.004613 92.4661117,127.720072 92.4661117,127.428043 L92.4661117,121.153164 C92.4661117,120.865628 92.3472367,120.585579 92.1241117,120.403623 C91.5856117,119.965205 90.7947367,119.563852 89.9532367,119.563852 C87.9046117,119.563852 86.7447367,121.339613 86.7447367,124.312319 C86.7447367,127.207524 87.9432367,128.983285 89.9532367,128.983285 M98.0059872,134.349506 L92.983987,134.349506 C92.697862,134.349506 92.466112,134.117754 92.466112,133.832464 C92.466112,133.400786 91.966987,133.158177 91.631362,133.429614 C90.6338619,134.236438 89.3588619,134.735508 87.7887368,134.735508 C83.1882367,134.735508 80.0956116,131.029361 80.0956116,124.235194 C80.0956116,117.440652 83.1882367,113.812005 87.7887368,113.812005 C88.9954869,113.812005 90.0571119,114.130242 90.9567369,114.642416 C91.630237,115.026172 92.466112,114.572029 92.466112,113.797778 L92.466112,107.932114 C92.466112,107.384372 92.910862,106.940338 93.459487,106.940338 L98.0059872,106.940338 C98.5546122,106.940338 98.9989872,107.384372 98.9989872,107.932114 L98.9989872,133.35773 C98.9989872,133.905472 98.5546122,134.349506 98.0059872,134.349506" id="Fill-34" fill="#231F20"></path>
                        <path d="M113.552814,121.841606 C114.044439,121.841606 114.462564,121.452234 114.464064,120.961775 L114.464064,120.953538 C114.464064,119.409528 113.536314,118.637524 112.144689,118.637524 C110.768814,118.637524 109.925064,119.434239 109.574814,120.722536 C109.420689,121.288623 109.875189,121.841606 110.462814,121.841606 L113.552814,121.841606 Z M110.218688,125.85663 C109.637813,125.85663 109.187438,126.396509 109.326563,126.959227 C109.715063,128.527572 110.804813,129.639529 112.956563,129.639529 C114.354938,129.639529 115.616063,129.113502 116.616563,128.483768 C117.071438,128.197729 117.672938,128.37407 117.909938,128.855918 L119.349563,131.781449 C119.550563,132.189167 119.420063,132.681123 119.045813,132.939831 C117.280688,134.15849 114.921938,134.89006 112.106063,134.89006 C105.843564,134.89006 102.866814,130.411908 102.866814,124.312246 C102.866814,118.135833 106.500563,113.619118 112.028813,113.619118 C117.518063,113.619118 119.798813,117.131702 119.798813,121.841606 C119.798813,122.943828 119.701313,124.143393 119.506688,125.131799 C119.423438,125.55599 119.045063,125.85663 118.611938,125.85663 L110.218688,125.85663 Z" id="Fill-36" fill="#231F20"></path>
                        <path d="M0.896624997,147.482082 L2.3535,147.482082 C3.02475,147.482082 3.545625,147.332324 3.9165,147.032432 C4.287375,146.732916 4.473,146.265295 4.473,145.630693 C4.473,145.048507 4.327125,144.594739 4.036125,144.26864 C3.744375,143.942541 3.214875,143.77893 2.4465,143.77893 L0.896624997,143.77893 L0.896624997,147.482082 Z M0.0487499982,143.064957 L2.87025001,143.064957 C3.67350002,143.064957 4.28287502,143.272372 4.69800002,143.686454 C5.11312502,144.101285 5.32087502,144.683097 5.32087502,145.432263 C5.32087502,145.714558 5.28975002,145.987867 5.22787502,146.252191 C5.16600002,146.516515 5.06887502,146.754631 4.93650002,146.966539 C4.80412502,147.178073 4.62975002,147.358532 4.41337502,147.508664 C4.19700002,147.658423 3.93000002,147.764377 3.61200002,147.825778 L3.61200002,147.85236 C4.20337502,147.90515 4.61625002,148.105826 4.85062502,148.454015 C5.08425002,148.802578 5.21025002,149.346575 5.22787502,150.087131 L5.25450002,151.118966 C5.26312502,151.374679 5.28975002,151.623652 5.33400002,151.865887 C5.37825002,152.108495 5.48400002,152.322276 5.65200002,152.507602 L4.65825002,152.507602 C4.56112502,152.340247 4.49737502,152.141817 4.46625002,151.912312 C4.43550002,151.683181 4.41525002,151.440947 4.40662502,151.18486 L4.38037502,150.391515 C4.36237502,149.977433 4.32712502,149.62887 4.27425002,149.346575 C4.22137502,149.064655 4.12612502,148.837771 3.98962502,148.665923 C3.85237502,148.493701 3.66487502,148.372771 3.42675001,148.30201 C3.18825001,148.231623 2.87887501,148.196056 2.49937501,148.196056 L0.896625002,148.196056 L0.896625002,152.507602 L0.0487499982,152.507602 L0.0487499982,143.064957 Z" id="Fill-39" fill="#231F20"></path>
                        <path d="M11.5727624,148.368171 C11.5551374,147.495079 11.4223874,146.880321 11.1752624,146.523147 C10.9281374,146.166347 10.5613875,145.98776 10.0761375,145.98776 C9.58113748,145.98776 9.21063749,146.166347 8.96351249,146.523147 C8.7160125,146.880321 8.5881375,147.495079 8.5791375,148.368171 L11.5727624,148.368171 Z M12.3542626,150.179874 C12.2923876,150.929415 12.0647626,151.53107 11.6721376,151.985212 C11.2791376,152.439355 10.7515126,152.666239 10.0892625,152.666239 C9.71838753,152.666239 9.38726252,152.597724 9.09588752,152.46107 C8.80451251,152.324415 8.5570125,152.110635 8.3541375,151.819729 C8.15088749,151.528823 7.99638749,151.149934 7.89063748,150.682688 C7.78451248,150.215442 7.73163748,149.650852 7.73163748,148.989669 C7.73163748,147.755285 7.94088748,146.836516 8.3608875,146.232241 C8.77976251,145.628714 9.37826252,145.326202 10.1556375,145.326202 C10.9322626,145.326202 11.5041376,145.602132 11.8708876,146.152869 C12.2368876,146.70398 12.4206376,147.56584 12.4206376,148.738449 L12.4206376,149.029355 L8.5791375,149.029355 L8.5791375,149.359946 C8.5791375,149.862386 8.6207625,150.283582 8.7051375,150.622785 C8.78876251,150.962362 8.89938751,151.236046 9.03626251,151.442712 C9.17313752,151.650128 9.33176252,151.795768 9.51288753,151.879258 C9.69401253,151.963123 9.88151254,152.005055 10.0761375,152.005055 C10.9322626,152.005055 11.4268876,151.396661 11.5596376,150.179874 L12.3542626,150.179874 Z" id="Fill-41" fill="#231F20"></path>
                        <path d="M18.2088754,148.540026 L18.1822504,148.540026 C18.1380004,148.663577 18.0255004,148.760545 17.8447503,148.830932 C17.6636253,148.901693 17.4937503,148.958975 17.3347503,149.00278 L16.6725003,149.175002 C16.2750003,149.280581 15.9746253,149.443818 15.7713753,149.663963 C15.5685003,149.884482 15.4668753,150.206463 15.4668753,150.629531 C15.4668753,151.052598 15.5662503,151.388057 15.7650003,151.634784 C15.9637503,151.881511 16.2352503,152.005062 16.5795003,152.005062 C17.0651253,152.005062 17.4581253,151.83284 17.7585003,151.489144 C18.0585004,151.145074 18.2088754,150.656113 18.2088754,150.021511 L18.2088754,148.540026 Z M14.8443752,147.574458 C14.8443752,146.851874 15.0187502,146.29627 15.3675002,145.908395 C15.7166252,145.520521 16.2660002,145.326584 17.0167502,145.326584 C17.7405002,145.326584 18.2531252,145.498432 18.5531252,145.842127 C18.8535002,146.186197 19.0038752,146.635847 19.0038752,147.191077 L19.0038752,151.343878 C19.0038752,151.731753 19.1403751,151.92569 19.4141251,151.92569 L19.6395001,151.92569 L19.6395001,152.507502 C19.4891251,152.560291 19.3653751,152.586873 19.2686251,152.586873 C18.9592502,152.586873 18.7121252,152.531837 18.5268752,152.42139 C18.3416252,152.311318 18.2486252,152.075448 18.2486252,151.714156 L18.2486252,151.47604 L18.2220002,151.47604 C18.1425002,151.705545 18.0408752,151.897236 17.9175002,152.051113 C17.7937502,152.205738 17.6527502,152.328915 17.4937502,152.42139 C17.3347502,152.514241 17.1622502,152.577888 16.9770002,152.613081 C16.7913752,152.648274 16.6016252,152.666245 16.4073752,152.666245 C15.7890002,152.666245 15.3367502,152.487659 15.0498752,152.130485 C14.7626252,151.773685 14.6193752,151.290714 14.6193752,150.682695 C14.6193752,150.206463 14.7296252,149.798746 14.9505002,149.459168 C15.1710002,149.119965 15.5332502,148.879603 16.0365002,148.738456 L17.5331252,148.315014 C17.6745002,148.280195 17.7892502,148.240509 17.8777502,148.19633 C17.9658752,148.152151 18.0345002,148.090376 18.0832502,148.011004 C18.1312502,147.931632 18.1646252,147.828299 18.1822502,147.700255 C18.1998752,147.572586 18.2088752,147.407478 18.2088752,147.204555 C18.2088752,146.754531 18.0982502,146.439664 17.8777502,146.25883 C17.6568752,146.078371 17.3610002,145.987767 16.9901252,145.987767 C16.5135002,145.987767 16.1692502,146.124422 15.9570002,146.397731 C15.7451252,146.67104 15.6390002,147.063407 15.6390002,147.574458 L14.8443752,147.574458 Z" id="Fill-43" fill="#231F20"></path>
                        <path d="M22.5136873,148.989745 C22.5136873,149.642318 22.5556873,150.166847 22.6393123,150.563332 C22.7233123,150.960192 22.8384373,151.264202 22.9839373,151.47611 C23.1298123,151.687644 23.2929373,151.828791 23.4740623,151.899178 C23.6548123,151.969564 23.8471873,152.005132 24.0504373,152.005132 C24.2533122,152.005132 24.4475622,151.969564 24.6331872,151.899178 C24.8184372,151.828791 24.9819372,151.687644 25.1229372,151.47611 C25.2643122,151.264202 25.3768122,150.960192 25.4608122,150.563332 C25.5448122,150.166847 25.5868122,149.642318 25.5868122,148.989745 C25.5868122,148.346158 25.5448122,147.826122 25.4608122,147.429262 C25.3768122,147.032402 25.2643122,146.728392 25.1229372,146.516859 C24.9819372,146.305325 24.8184372,146.164177 24.6331872,146.093417 C24.4475622,146.02303 24.2533122,145.987837 24.0504373,145.987837 C23.8471873,145.987837 23.6548123,146.02303 23.4740623,146.093417 C23.2929373,146.164177 23.1298123,146.305325 22.9839373,146.516859 C22.8384373,146.728392 22.7233123,147.032402 22.6393123,147.429262 C22.5556873,147.826122 22.5136873,148.346158 22.5136873,148.989745 Z M25.6663123,151.343948 L25.6396873,151.343948 C25.5339373,151.749419 25.3261873,152.071025 25.0171873,152.309141 C24.7081873,152.547257 24.3418123,152.666315 23.9176873,152.666315 C23.1406873,152.666315 22.5710623,152.361931 22.2091873,151.753537 C21.8469373,151.145144 21.6661873,150.224129 21.6661873,148.989745 C21.6661873,147.764346 21.8469373,146.84745 22.2091873,146.239057 C22.5710623,145.630663 23.1406873,145.326279 23.9176873,145.326279 C24.3680623,145.326279 24.7325623,145.436726 25.0108123,145.657245 C25.2886873,145.87739 25.4720623,146.172788 25.5605623,146.543066 L25.5868123,146.543066 L25.5868123,143.064926 L26.3814373,143.064926 L26.3814373,152.507571 L25.6663123,152.507571 L25.6663123,151.343948 Z" id="Fill-45" fill="#231F20"></path>
                        <path d="M29.2158756,152.507273 L30.0108756,152.507273 L30.0108756,145.485099 L29.2158756,145.485099 L29.2158756,152.507273 Z M29.2158756,144.413952 L30.0108756,144.413952 L30.0108756,143.065002 L29.2158756,143.065002 L29.2158756,144.413952 Z" id="Fill-47" fill="#231F20"></path>
                        <path d="M32.9247017,145.485252 L33.6398267,145.485252 L33.6398267,146.463923 L33.6664517,146.463923 C33.8697017,146.067063 34.1277017,145.778404 34.4412017,145.59757 C34.7547017,145.417111 35.0967018,145.326508 35.4679518,145.326508 C36.0064518,145.326508 36.4414518,145.474394 36.7725768,145.769418 C37.1037018,146.064817 37.2690768,146.543295 37.2690768,147.204479 L37.2690768,152.507425 L36.4744518,152.507425 L36.4744518,147.429116 C36.4744518,146.468416 36.0728268,145.987691 35.2692018,145.987691 C34.7922017,145.987691 34.4149517,146.148681 34.1367017,146.470288 C33.8584517,146.792268 33.7193267,147.230686 33.7193267,147.78629 L33.7193267,152.507425 L32.9247017,152.507425 L32.9247017,145.485252 Z" id="Fill-49" fill="#231F20"></path>
                        <path d="M40.6865247,148.910403 C40.6865247,149.474618 40.7195247,149.944111 40.7858997,150.318882 C40.8518997,150.693652 40.9490247,150.993169 41.0772747,151.218181 C41.2051497,151.442819 41.3618997,151.603809 41.5475247,151.700778 C41.7331497,151.797746 41.9446497,151.846418 42.1831497,151.846418 C42.4216497,151.846418 42.6335247,151.797746 42.8191497,151.700778 C43.0043997,151.603809 43.1611497,151.442819 43.2890247,151.218181 C43.4172747,150.993169 43.5143997,150.693652 43.5807747,150.318882 C43.6471497,149.944111 43.6801497,149.474618 43.6801497,148.910403 C43.6801497,148.354799 43.6471497,147.889799 43.5807747,147.515029 C43.5143997,147.140633 43.4172747,146.840742 43.2890247,146.616104 C43.1611497,146.391092 43.0043997,146.230101 42.8191497,146.133133 C42.6335247,146.036164 42.4216497,145.987867 42.1831497,145.987867 C41.9446497,145.987867 41.7331497,146.036164 41.5475247,146.133133 C41.3618997,146.230101 41.2051497,146.391092 41.0772747,146.616104 C40.9490247,146.840742 40.8518997,147.140633 40.7858997,147.515029 C40.7195247,147.889799 40.6865247,148.354799 40.6865247,148.910403 Z M43.7596498,145.485428 L44.4747748,145.485428 L44.4747748,152.005162 C44.4747748,152.99207 44.2913998,153.728507 43.9250248,154.213724 C43.5586498,154.698193 42.9736498,154.940802 42.1700248,154.940802 C41.4811498,154.940802 40.9621498,154.779811 40.6137748,154.458205 C40.2646498,154.136224 40.0857748,153.724014 40.0771498,153.221575 L40.8721498,153.221575 C40.8721498,153.556659 41.0045248,153.81649 41.2692748,154.001816 C41.5343998,154.187142 41.8430248,154.279618 42.1966498,154.279618 C43.1855248,154.279618 43.6801498,153.640149 43.6801498,152.361961 L43.6801498,151.251128 L43.6535248,151.251128 C43.5297748,151.683181 43.3178998,152.000669 43.0178998,152.203217 C42.7175248,152.40614 42.3818998,152.507601 42.0110248,152.507601 C41.7372748,152.507601 41.4698998,152.457058 41.2096498,152.355596 C40.9490248,152.254135 40.7172748,152.071055 40.5143998,151.806357 C40.3111498,151.542034 40.1476498,151.182988 40.0242748,150.728845 C39.9005248,150.274703 39.8386497,149.695138 39.8386497,148.989775 C39.8386497,147.764377 40.0197748,146.847481 40.3820248,146.239087 C40.7438998,145.630693 41.3131498,145.326309 42.0905248,145.326309 C42.4880248,145.326309 42.8300248,145.43451 43.1168998,145.650536 C43.4041498,145.866563 43.6092748,146.172819 43.7330248,146.569679 L43.7596498,146.569679 L43.7596498,145.485428 Z" id="Fill-50" fill="#231F20"></path>
                        <path d="M52.1306268,146.146463 L51.1635017,146.146463 L51.1635017,145.485279 L52.1306268,145.485279 L52.1306268,144.651873 C52.1306268,144.414132 52.1482518,144.191366 52.1835018,143.984325 C52.2187518,143.77691 52.2896268,143.596076 52.3957518,143.441825 C52.5015018,143.287948 52.6560018,143.16889 52.8592518,143.085026 C53.0621268,143.001161 53.3313768,142.959229 53.6670018,142.959229 C53.7907518,142.959229 53.8878768,142.961475 53.9587518,142.965593 C54.0288768,142.97046 54.0993768,142.981318 54.1702518,142.998915 L54.1702518,143.660098 C54.0465018,143.63389 53.9190018,143.620412 53.7862518,143.620412 C53.4948768,143.620412 53.2785018,143.691173 53.1375018,143.831946 C52.9961268,143.973093 52.9252518,144.246402 52.9252518,144.651873 L52.9252518,145.485279 L54.1702518,145.485279 L54.1702518,146.146463 L52.9252518,146.146463 L52.9252518,152.507453 L52.1306268,152.507453 L52.1306268,146.146463 Z" id="Fill-51" fill="#231F20"></path>
                        <path d="M56.8858503,148.989745 C56.8858503,149.55396 56.9252253,150.027945 57.0051003,150.411327 C57.0842253,150.794709 57.1948503,151.105458 57.3362253,151.343948 C57.4772253,151.581689 57.6429753,151.751665 57.8327253,151.852752 C58.0224753,151.954214 58.2321003,152.005132 58.4619753,152.005132 C58.6828503,152.005132 58.8902253,151.954214 59.0844753,151.852752 C59.2787253,151.751665 59.4467254,151.581689 59.5881004,151.343948 C59.7291004,151.105458 59.8393504,150.794709 59.9188504,150.411327 C59.9983504,150.027945 60.0381004,149.55396 60.0381004,148.989745 C60.0381004,148.434515 59.9983504,147.965023 59.9188504,147.581267 C59.8393504,147.197885 59.7291004,146.887136 59.5881004,146.64902 C59.4467254,146.410904 59.2787253,146.241303 59.0844753,146.139841 C58.8902253,146.038755 58.6828503,145.987837 58.4619753,145.987837 C58.2321003,145.987837 58.0224753,146.038755 57.8327253,146.139841 C57.6429753,146.241303 57.4772253,146.410904 57.3362253,146.64902 C57.1948503,146.887136 57.0842253,147.197885 57.0051003,147.581267 C56.9252253,147.965023 56.8858503,148.434515 56.8858503,148.989745 M56.0379753,148.989745 C56.0379753,147.755361 56.2476003,146.836593 56.6672253,146.232317 C57.0864753,145.628416 57.6846003,145.326279 58.4619753,145.326279 C59.2389753,145.326279 59.8374754,145.628416 60.2567254,146.232317 C60.6759754,146.836593 60.8859754,147.755361 60.8859754,148.989745 C60.8859754,150.23274 60.6759754,151.156375 60.2567254,151.760276 C59.8374754,152.364177 59.2389753,152.666315 58.4619753,152.666315 C57.6846003,152.666315 57.0864753,152.364177 56.6672253,151.760276 C56.2476003,151.156375 56.0379753,150.23274 56.0379753,148.989745" id="Fill-52" fill="#231F20"></path>
                        <path d="M63.376049,145.485252 L64.1710491,145.485252 L64.1710491,146.582981 L64.1972991,146.582981 C64.3472991,146.186121 64.5749241,145.877619 64.8794241,145.657099 C65.1842991,145.436954 65.5484241,145.326508 65.9721741,145.326508 C66.0606741,145.326508 66.1532991,145.339611 66.2504241,145.366194 L66.2504241,146.159539 C66.1180491,146.132957 65.9897991,146.119853 65.8664241,146.119853 C65.6455491,146.119853 65.4336741,146.159539 65.2304241,146.238911 C65.0271741,146.318283 64.8464241,146.441834 64.6874241,146.609189 C64.5284241,146.776918 64.4027991,146.983959 64.3101741,147.230686 C64.2171741,147.477788 64.1710491,147.772812 64.1710491,148.116882 L64.1710491,152.507425 L63.376049,152.507425 L63.376049,145.485252 Z" id="Fill-53" fill="#231F20"></path>
                        <polygon id="Fill-54" fill="#231F20" points="72.9396362 143.065033 74.4096363 143.065033 76.6881363 151.449635 76.7143863 151.449635 78.9928864 143.065033 80.3837614 143.065033 80.3837614 152.507678 79.5358864 152.507678 79.5358864 143.858378 79.5096364 143.858378 77.0590113 152.507678 76.2643863 152.507678 73.8137613 143.858378 73.7871363 143.858378 73.7871363 152.507678 72.9396362 152.507678"></polygon>
                        <path d="M86.8476034,148.368171 C86.8299784,147.495079 86.6972284,146.880321 86.4501035,146.523147 C86.2029785,146.166347 85.8362285,145.98776 85.3506035,145.98776 C84.8559785,145.98776 84.4851035,146.166347 84.2383535,146.523147 C83.9908535,146.880321 83.8629785,147.495079 83.8539785,148.368171 L86.8476034,148.368171 Z M87.6291036,150.179874 C87.5672286,150.929415 87.3396036,151.53107 86.9469786,151.985212 C86.5539786,152.439355 86.0263536,152.666239 85.3637286,152.666239 C84.9932286,152.666239 84.6621036,152.597724 84.3707286,152.46107 C84.0793535,152.324415 83.8318535,152.110635 83.6289785,151.819729 C83.4257285,151.528823 83.2712285,151.149934 83.1651035,150.682688 C83.0593535,150.215442 83.0061035,149.650852 83.0061035,148.989669 C83.0061035,147.755285 83.2157285,146.836516 83.6353535,146.232241 C84.0546035,145.628714 84.6531036,145.326202 85.4301036,145.326202 C86.2071036,145.326202 86.7789786,145.602132 87.1453536,146.152869 C87.5117286,146.70398 87.6951036,147.56584 87.6951036,148.738449 L87.6951036,149.029355 L83.8539785,149.029355 L83.8539785,149.359946 C83.8539785,149.862386 83.8956035,150.283582 83.9799785,150.622785 C84.0636035,150.962362 84.1742285,151.236046 84.3107286,151.442712 C84.4479786,151.650128 84.6066036,151.795768 84.7877286,151.879258 C84.9688536,151.963123 85.1563536,152.005055 85.3506036,152.005055 C86.2071036,152.005055 86.7017286,151.396661 86.8341036,150.179874 L87.6291036,150.179874 Z" id="Fill-55" fill="#231F20"></path>
                        <path d="M93.4837109,148.540026 L93.4570859,148.540026 C93.4128359,148.663577 93.3003359,148.760545 93.1195859,148.830932 C92.9384609,148.901693 92.7682109,148.958975 92.6092109,149.00278 L91.9469609,149.175002 C91.5498359,149.280581 91.2494609,149.443818 91.0462109,149.663963 C90.8429608,149.884482 90.7417108,150.206463 90.7417108,150.629531 C90.7417108,151.052598 90.8410858,151.388057 91.0398359,151.634784 C91.2385859,151.881511 91.5100859,152.005062 91.8543359,152.005062 C92.3399609,152.005062 92.7329609,151.83284 93.0333359,151.489144 C93.3333359,151.145074 93.4837109,150.656113 93.4837109,150.021511 L93.4837109,148.540026 Z M90.1192108,147.574458 C90.1192108,146.851874 90.2935858,146.29627 90.6423358,145.908395 C90.9910858,145.520521 91.5408358,145.326584 92.2915858,145.326584 C93.0153358,145.326584 93.5275858,145.498432 93.8279607,145.842127 C94.1283357,146.186197 94.2783357,146.635847 94.2783357,147.191077 L94.2783357,151.343878 C94.2783357,151.731753 94.4152107,151.92569 94.6889607,151.92569 L94.9143357,151.92569 L94.9143357,152.507502 C94.7639607,152.560291 94.6402107,152.586873 94.5434607,152.586873 C94.2340857,152.586873 93.9869607,152.531837 93.8017107,152.42139 C93.6160858,152.311318 93.5234608,152.075448 93.5234608,151.714156 L93.5234608,151.47604 L93.4968358,151.47604 C93.4173358,151.705545 93.3157108,151.897236 93.1923358,152.051113 C93.0685858,152.205738 92.9272108,152.328915 92.7682108,152.42139 C92.6092108,152.514241 92.4370858,152.577888 92.2518358,152.613081 C92.0665858,152.648274 91.8760858,152.666245 91.6822108,152.666245 C91.0638358,152.666245 90.6112108,152.487659 90.3247108,152.130485 C90.0374608,151.773685 89.8942108,151.290714 89.8942108,150.682695 C89.8942108,150.206463 90.0044608,149.798746 90.2253358,149.459168 C90.4458358,149.119965 90.8080858,148.879603 91.3113358,148.738456 L92.8083358,148.315014 C92.9493358,148.280195 93.0640858,148.240509 93.1525858,148.19633 C93.2407108,148.152151 93.3093358,148.090376 93.3577108,148.011004 C93.4060858,147.931632 93.4394608,147.828299 93.4570858,147.700255 C93.4747108,147.572586 93.4837108,147.407478 93.4837108,147.204555 C93.4837108,146.754531 93.3730858,146.439664 93.1525858,146.25883 C92.9317108,146.078371 92.6358358,145.987767 92.2649608,145.987767 C91.7883358,145.987767 91.4437108,146.124422 91.2318358,146.397731 C91.0199608,146.67104 90.9138358,147.063407 90.9138358,147.574458 L90.1192108,147.574458 Z" id="Fill-56" fill="#231F20"></path>
                        <path d="M97.2320633,145.485252 L97.9475633,145.485252 L97.9475633,146.463923 L97.9738133,146.463923 C98.1770633,146.067063 98.4350633,145.778404 98.7485633,145.59757 C99.0620633,145.417111 99.4044383,145.326508 99.7753133,145.326508 C100.313813,145.326508 100.748813,145.474394 101.079938,145.769418 C101.411438,146.064817 101.576813,146.543295 101.576813,147.204479 L101.576813,152.507425 L100.782188,152.507425 L100.782188,147.429116 C100.782188,146.468416 100.380188,145.987691 99.5765633,145.987691 C99.0999383,145.987691 98.7223133,146.148681 98.4440633,146.470288 C98.1658133,146.792268 98.0270633,147.230686 98.0270633,147.78629 L98.0270633,152.507425 L97.2320633,152.507425 L97.2320633,145.485252 Z" id="Fill-57" fill="#231F20"></path>
                        <path d="M104.490753,152.507273 L105.285378,152.507273 L105.285378,145.485099 L104.490753,145.485099 L104.490753,152.507273 Z M104.490753,144.413952 L105.285378,144.413952 L105.285378,143.065002 L104.490753,143.065002 L104.490753,144.413952 Z" id="Fill-58" fill="#231F20"></path>
                        <path d="M108.199539,145.485252 L108.914664,145.485252 L108.914664,146.463923 L108.941289,146.463923 C109.144539,146.067063 109.402539,145.778404 109.716039,145.59757 C110.029539,145.417111 110.371539,145.326508 110.742789,145.326508 C111.281289,145.326508 111.716289,145.474394 112.047414,145.769418 C112.378539,146.064817 112.543914,146.543295 112.543914,147.204479 L112.543914,152.507425 L111.749289,152.507425 L111.749289,147.429116 C111.749289,146.468416 111.347664,145.987691 110.544039,145.987691 C110.067039,145.987691 109.689789,146.148681 109.411539,146.470288 C109.133289,146.792268 108.994164,147.230686 108.994164,147.78629 L108.994164,152.507425 L108.199539,152.507425 L108.199539,145.485252 Z" id="Fill-59" fill="#231F20"></path>
                        <path d="M115.961553,148.910403 C115.961553,149.474618 115.994553,149.944111 116.060928,150.318882 C116.126928,150.693652 116.224053,150.993169 116.352303,151.218181 C116.480178,151.442819 116.636928,151.603809 116.822553,151.700778 C117.008178,151.797746 117.219678,151.846418 117.458178,151.846418 C117.696678,151.846418 117.908553,151.797746 118.094178,151.700778 C118.279428,151.603809 118.436178,151.442819 118.564053,151.218181 C118.692303,150.993169 118.789428,150.693652 118.855803,150.318882 C118.922178,149.944111 118.955178,149.474618 118.955178,148.910403 C118.955178,148.354799 118.922178,147.889799 118.855803,147.515029 C118.789428,147.140633 118.692303,146.840742 118.564053,146.616104 C118.436178,146.391092 118.279428,146.230101 118.094178,146.133133 C117.908553,146.036164 117.696678,145.987867 117.458178,145.987867 C117.219678,145.987867 117.008178,146.036164 116.822553,146.133133 C116.636928,146.230101 116.480178,146.391092 116.352303,146.616104 C116.224053,146.840742 116.126928,147.140633 116.060928,147.515029 C115.994553,147.889799 115.961553,148.354799 115.961553,148.910403 Z M119.034678,145.485428 L119.749803,145.485428 L119.749803,152.005162 C119.749803,152.99207 119.566428,153.728507 119.200053,154.213724 C118.833678,154.698193 118.248678,154.940802 117.445053,154.940802 C116.756178,154.940802 116.237178,154.779811 115.888803,154.458205 C115.539678,154.136224 115.360803,153.724014 115.352178,153.221575 L116.146803,153.221575 C116.146803,153.556659 116.279553,153.81649 116.544303,154.001816 C116.809428,154.187142 117.118053,154.279618 117.471303,154.279618 C118.460553,154.279618 118.955178,153.640149 118.955178,152.361961 L118.955178,151.251128 L118.928553,151.251128 C118.804803,151.683181 118.592928,152.000669 118.292928,152.203217 C117.992553,152.40614 117.656928,152.507601 117.286053,152.507601 C117.012303,152.507601 116.744928,152.457058 116.484678,152.355596 C116.224053,152.254135 115.992303,152.071055 115.789428,151.806357 C115.586178,151.542034 115.422678,151.182988 115.299303,150.728845 C115.175553,150.274703 115.113678,149.695138 115.113678,148.989775 C115.113678,147.764377 115.294803,146.847481 115.657053,146.239087 C116.018928,145.630693 116.588178,145.326309 117.365553,145.326309 C117.763053,145.326309 118.105053,145.43451 118.392303,145.650536 C118.679178,145.866563 118.884303,146.172819 119.008053,146.569679 L119.034678,146.569679 L119.034678,145.485428 Z" id="Fill-60" fill="#231F20"></path>
                    </g>
                </g>
            </g>
        </g>
    </g>
</svg>