<svg style = "width: 80%; height: auto" viewBox="0 0 240 310" xmlns="http://www.w3.org/2000/svg">
<title>FW Portrait Logo</title>
    <g fill="none">
        <path d="M226.346 58.264l-86.734 33.536c1-.815 2.032-1.641 3.131-2.491 24.305-18.809 56.624-32.683 76.929-40.29-2.101-2.649-4.307-5.21-6.608-7.682-20.893 7.99-51.907 21.741-76.132 40.487l-.092.073c5.843-7.802 14.834-17.029 28.648-26.316 13.922-9.359 28.473-16.557 40.147-21.61-2.607-2.38-5.316-4.649-8.115-6.808-11.213 5.069-24.438 11.897-37.329 20.563-11.579 7.784-20.072 15.615-26.318 22.803 4.709-9.829 12.225-20.741 24.263-30.829 8.754-7.336 19.903-13.725 30.442-18.853-3.173-2.04-6.445-3.939-9.802-5.7-9.352 4.88-18.854 10.694-26.738 17.3-13.691 11.474-22.112 23.892-27.289 35.029 2.85-13.788 9.584-29.43 24.383-42.185 6.142-5.293 13.547-10.071 21.081-14.232-3.728-1.612-7.549-3.051-11.453-4.308-2.847 1.749-5.644 3.582-8.329 5.507l-.52.373c-.566.41-1.124.827-1.68 1.245-.448.338-.893.678-1.334 1.021l-.37.291c-.724.568-1.437 1.143-2.141 1.722-.33.273-.661.547-.985.823l-.735.627c-5.19 4.509-9.494 9.3-13.058 14.222-22.784 32.131-10.397 69.565-7.875 76.288l109.59-42.373c-1.556-2.811-3.217-5.556-4.974-8.232M108.258 95.198l-95.517-36.933c-1.758 2.676-3.419 5.421-4.974 8.232l103.138 39.879c-.881-2.979-1.847-6.769-2.647-11.178M116.912 34.994c1.531-2.774 3.224-5.466 5.084-8.071-3.235-2.557-9.428-7.152-19.53-13.517-5.047-3.18-10.619-5.955-16.336-8.371-4.855 1.311-9.595 2.899-14.202 4.75 8.86 3.018 17.892 6.851 25.475 11.63 10.798 6.804 16.907 11.474 19.508 13.579M110.323 50.571c.968-3.165 2.12-6.252 3.451-9.257-3.43-2.52-7.88-5.573-13.547-9.06-13.06-8.037-27.601-13.568-39.68-17.231-3.904 2.036-7.689 4.267-11.343 6.681 12.649 3.284 30.646 9.135 46.046 18.612 6.762 4.161 11.684 7.656 15.073 10.254M106.58 79.093c-.027-1.046-.032-2.085-.026-3.121-30.81-17.153-65.279-28.818-81.329-33.78-2.32 2.538-4.534 5.175-6.644 7.895 13.96 4.2 54.926 17.412 88.535 37.118-.271-2.58-.462-5.29-.535-8.112M106.894 68.488c.311-3.628.825-7.184 1.555-10.655-3.373-2.381-7.663-5.13-13.022-8.095-19.626-10.862-41.725-17.889-55.166-21.557-3.008 2.384-5.909 4.897-8.689 7.537 11.267 2.82 37.263 10.13 59.257 22.302 7.547 4.178 12.744 7.84 16.064 10.468M125.882 21.901c2.002-2.401 4.155-4.717 6.457-6.944-3.381-3.087-10.393-9.142-18.552-14.209-5.569.247-11.045.848-16.405 1.784 3.491 1.688 7.327 3.737 11.293 6.193 7.466 4.622 14.063 10.316 17.207 13.176" fill="#EF9D19"/><path d="M119.696 135.007c6.406 0 11.765-4.559 12.993-10.601l106.81-40.958c-1.223-2.976-2.549-5.894-3.982-8.753l-115.718 44.394-115.724-44.315c-1.428 2.862-2.754 5.778-3.977 8.753l106.605 40.881c1.229 6.042 6.587 10.599 12.994 10.599M26.82 192.898v13.019c0 1.095-.89 1.984-1.987 1.984h-8.706c-1.097 0-1.987-.888-1.987-1.984v-48.535c0-1.095.889-1.984 1.987-1.984h31.437c1.097 0 1.986.888 1.986 1.984v7.614c0 1.095-.889 1.984-1.986 1.984h-18.757c-1.097 0-1.987.888-1.987 1.984v8.386c0 1.095.889 1.983 1.987 1.983h15.201c1.096 0 1.986.888 1.986 1.984v7.614c0 1.095-.89 1.984-1.986 1.984h-15.201c-1.097 0-1.987.888-1.987 1.984" fill="#231F20"/><path d="M66.974 167.521c1.097 0 1.986.888 1.986 1.984v20.716c0 4.324 1.546 6.176 4.794 6.176 2.654 0 4.643-1.794 5.595-3.596.145-.273.203-.58.203-.888v-22.408c0-1.095.89-1.984 1.987-1.984h9.093c1.097 0 1.987.888 1.987 1.984v36.413c0 1.095-.889 1.984-1.987 1.984h-10.044c-.571 0-1.036-.463-1.036-1.034v-.458c0-.855-.974-1.337-1.654-.817-2.401 1.835-5.794 3.004-9.478 3.004-8.814 0-12.525-5.868-12.525-15.673v-23.418c0-1.095.889-1.984 1.987-1.984h9.093zM128.01 207.901c-1.097 0-1.987-.888-1.987-1.984v-20.638c0-4.401-1.546-6.254-4.871-6.254-2.645 0-4.563 1.782-5.57 3.577-.16.285-.228.608-.228.933v22.382c0 1.095-.889 1.984-1.987 1.984h-9.016c-1.097 0-1.986-.888-1.986-1.984v-36.413c0-1.095.889-1.984 1.986-1.984h9.968c.572 0 1.035.463 1.035 1.034v.464c0 .854.971 1.337 1.651.819 2.42-1.84 5.853-3.012 9.481-3.012 8.814 0 12.602 5.868 12.602 15.674v23.418c0 1.095-.889 1.984-1.986 1.984h-9.093zM166.385 197.169c1.628 0 3.206-.709 4.322-1.594.458-.364.704-.932.704-1.517v-12.549c0-.575-.238-1.135-.684-1.499-1.077-.877-2.659-1.68-4.342-1.68-4.097 0-6.417 3.552-6.417 9.496 0 5.791 2.397 9.343 6.417 9.343m16.105 10.732h-10.044c-.572 0-1.035-.464-1.035-1.034 0-.863-.998-1.349-1.669-.806-1.995 1.614-4.545 2.611-7.686 2.611-9.2 0-15.386-7.412-15.386-21.001 0-13.588 6.185-20.846 15.386-20.846 2.413 0 4.537.636 6.336 1.661 1.347.768 3.02-.142 3.02-1.69v-11.731c0-1.095.889-1.983 1.987-1.983h9.092c1.097 0 1.987.888 1.987 1.983v50.852c0 1.095-.889 1.984-1.987 1.984" fill="#231F20"/><path d="M207.829 199.176c1.764 0 3.241-.574 4.242-1.344.464-.357.707-.934.707-1.519l-.001-3.476c0-1.057-.829-1.937-1.887-1.983l-.742-.016c-3.633 0-6.184 1.544-6.184 4.479 0 2.702 1.624 3.86 3.865 3.86zm6.934 8.725c-1.097 0-1.987-.888-1.987-1.984v-.642c-2.242 1.93-5.334 3.397-9.278 3.397-7.731 0-11.906-4.71-11.906-11.967 0-9.111 7.346-13.743 17.628-13.743 1.16 0 2.396.154 3.556.309v-.231c0-4.401-2.396-5.405-6.107-5.405-2.197 0-5.032.592-7.455 1.356-1.114.352-2.283-.338-2.527-1.477l-1.327-6.201c-.213-.994.36-1.984 1.326-2.305 3.923-1.301 8.315-2.182 12.767-2.182 10.438 0 16.004 6.099 16.004 16.754v22.337c0 1.095-.889 1.984-1.987 1.984h-8.707zM34.108 255.362l-3.625 11.929c-.254.836-1.026 1.408-1.901 1.408h-11.37c-.869 0-1.636-.563-1.896-1.391l-15.224-48.535c-.4-1.277.555-2.577 1.896-2.577h9.943c.889 0 1.669.589 1.911 1.443l8.41 29.639c.542 1.906 3.239 1.93 3.813.033l4.129-13.641c.112-.368.113-.761.005-1.13l-4.04-13.803c-.371-1.269.583-2.54 1.907-2.54h10.104c.91 0 1.705.619 1.926 1.501l6.667 26.516c.498 1.98 3.305 2.008 3.844.04l7.267-26.595c.236-.863 1.021-1.462 1.917-1.462h10.079c1.342 0 2.297 1.301 1.894 2.579l-15.295 48.535c-.26.826-1.027 1.388-1.895 1.388h-11.416c-.891 0-1.672-.592-1.913-1.449l-3.324-11.847c-.536-1.91-3.237-1.939-3.814-.041" fill="#231F20"/><path d="M88.899 259.974c1.764 0 3.241-.574 4.242-1.344.465-.358.706-.934.706-1.519v-3.476c0-1.057-.829-1.938-1.888-1.984l-.741-.016c-3.634 0-6.185 1.544-6.185 4.478 0 2.702 1.624 3.861 3.865 3.861zm6.935 8.724c-1.097 0-1.987-.887-1.987-1.983v-.642c-2.242 1.93-5.335 3.397-9.278 3.397-7.732 0-11.907-4.71-11.907-11.967 0-9.111 7.346-13.743 17.628-13.743 1.16 0 2.397.154 3.556.309v-.231c0-4.401-2.397-5.405-6.108-5.405-2.197 0-5.032.592-7.455 1.356-1.114.351-2.283-.338-2.527-1.478l-1.328-6.2c-.212-.994.36-1.984 1.326-2.305 3.923-1.301 8.315-2.183 12.767-2.183 10.438 0 16.004 6.1 16.004 16.754v22.338c0 1.095-.889 1.983-1.987 1.983h-8.706zM141.531 268.699c-1.097 0-1.986-.888-1.986-1.983v-20.639c0-4.401-1.546-6.254-4.871-6.254-2.646 0-4.564 1.783-5.571 3.578-.16.284-.228.607-.228.933v22.382c0 1.095-.89 1.983-1.986 1.983h-9.016c-1.097 0-1.987-.888-1.987-1.983v-36.414c0-1.095.889-1.984 1.987-1.984h9.967c.572 0 1.035.463 1.035 1.034v.464c0 .854.971 1.337 1.652.819 2.419-1.84 5.852-3.012 9.482-3.012 8.814 0 12.602 5.868 12.602 15.674v23.418c0 1.095-.889 1.983-1.987 1.983h-9.093zM179.906 257.967c1.628 0 3.206-.709 4.322-1.594.458-.363.703-.932.703-1.516v-12.55c0-.575-.238-1.135-.684-1.499-1.077-.877-2.659-1.68-4.342-1.68-4.097 0-6.417 3.552-6.417 9.497 0 5.79 2.397 9.342 6.417 9.342m16.106 10.732h-10.044c-.572 0-1.036-.464-1.036-1.034 0-.863-.998-1.349-1.669-.806-1.995 1.614-4.545 2.612-7.685 2.612-9.201 0-15.386-7.412-15.386-21.001 0-13.589 6.185-20.846 15.386-20.846 2.413 0 4.537.636 6.336 1.661 1.347.768 3.019-.141 3.019-1.689v-11.731c0-1.095.889-1.984 1.987-1.984h9.093c1.097 0 1.986.888 1.986 1.984v50.851c0 1.095-.889 1.984-1.986 1.984" fill="#231F20"/><path d="M227.106 243.683c.983 0 1.82-.779 1.822-1.76v-.016c0-3.088-1.856-4.632-4.639-4.632-2.752 0-4.439 1.593-5.14 4.17-.308 1.132.601 2.238 1.776 2.238h6.18zm-6.668 8.03c-1.162 0-2.063 1.08-1.784 2.205.777 3.137 2.957 5.361 7.26 5.361 2.797 0 5.319-1.052 7.32-2.312.91-.572 2.113-.219 2.587.744l2.879 5.851c.402.815.141 1.799-.608 2.317-3.53 2.437-8.248 3.9-13.88 3.9-12.525 0-18.478-8.956-18.478-21.156 0-12.353 7.268-21.386 18.324-21.386 10.978 0 15.54 7.025 15.54 16.445 0 2.204-.195 4.604-.584 6.58-.166.848-.923 1.45-1.79 1.45h-16.786zM1.793 294.964h2.914c1.343 0 2.384-.3 3.126-.899s1.113-1.534 1.113-2.803c0-1.164-.292-2.072-.874-2.724-.584-.652-1.643-.979-3.179-.979h-3.1v7.406zm-1.696-8.834h5.643c1.607 0 2.825.415 3.656 1.243.83.83 1.246 1.993 1.246 3.492 0 .565-.062 1.111-.186 1.64-.124.529-.318 1.005-.583 1.429-.265.423-.614.784-1.046 1.084-.433.3-.967.511-1.603.634v.053c1.183.106 2.008.507 2.477 1.203.467.697.719 1.785.755 3.266l.053 2.064c.017.511.07 1.009.159 1.494.089.485.3.913.636 1.283h-1.988c-.194-.335-.322-.732-.384-1.191-.061-.458-.102-.943-.119-1.455l-.053-1.587c-.036-.828-.107-1.525-.212-2.09-.106-.564-.296-1.018-.569-1.361-.275-.344-.65-.586-1.126-.728-.477-.141-1.096-.212-1.855-.212h-3.206v8.623h-1.696v-18.885zM23.146 296.736c-.035-1.746-.301-2.976-.795-3.69-.494-.714-1.228-1.071-2.198-1.071-.99 0-1.731.357-2.225 1.071-.495.714-.751 1.944-.769 3.69h5.987zm1.563 3.623c-.124 1.499-.579 2.702-1.364 3.611-.786.908-1.841 1.362-3.166 1.362-.742 0-1.404-.137-1.987-.41-.583-.273-1.078-.701-1.483-1.283-.407-.582-.716-1.34-.927-2.274-.212-.934-.318-2.064-.318-3.386 0-2.469.418-4.306 1.259-5.515.838-1.207 2.035-1.812 3.589-1.812 1.553 0 2.697.552 3.431 1.653.732 1.102 1.099 2.826 1.099 5.171v.582h-7.683v.661c0 1.005.083 1.847.252 2.526.167.679.389 1.227.662 1.64.274.415.591.706.953.873.362.168.737.252 1.127.252 1.712 0 2.701-1.217 2.967-3.65h1.589zM36.418 297.08h-.053c-.088.247-.313.441-.675.582-.362.142-.702.256-1.02.344l-1.325.344c-.795.211-1.396.538-1.802.978-.406.441-.609 1.085-.609 1.931 0 .846.199 1.517.596 2.011.397.493.941.741 1.629.741.971 0 1.757-.344 2.358-1.032.6-.688.901-1.666.901-2.935v-2.963zm-6.729-1.931c0-1.445.349-2.556 1.046-3.332.698-.776 1.797-1.164 3.298-1.164 1.448 0 2.473.344 3.073 1.031.601.688.901 1.587.901 2.698v8.306c0 .776.273 1.164.82 1.164h.451v1.164c-.301.106-.548.159-.742.159-.619 0-1.113-.11-1.483-.331-.37-.22-.556-.692-.556-1.414v-.476h-.053c-.159.459-.362.842-.609 1.15-.248.309-.529.556-.848.741-.318.186-.663.313-1.033.383-.371.07-.751.106-1.139.106-1.237 0-2.141-.357-2.715-1.072-.575-.714-.861-1.68-.861-2.896 0-.952.221-1.768.662-2.447.441-.678 1.166-1.159 2.172-1.441l2.993-.847c.283-.07.512-.149.689-.237.176-.088.314-.212.411-.371.096-.159.163-.365.198-.621.035-.255.053-.586.053-.991 0-.9-.221-1.53-.662-1.891-.442-.361-1.033-.542-1.775-.542-.953 0-1.642.273-2.066.82-.424.547-.636 1.331-.636 2.353h-1.589zM45.027 297.979c0 1.305.084 2.354.251 3.147.168.794.398 1.402.689 1.826.292.423.618.705.98.846.361.141.746.212 1.153.212.406 0 .794-.071 1.165-.212.371-.141.698-.423.98-.846.283-.424.508-1.032.676-1.826.168-.793.252-1.842.252-3.147 0-1.287-.084-2.327-.252-3.121-.168-.794-.393-1.402-.676-1.825-.282-.423-.609-.705-.98-.847-.371-.141-.76-.211-1.165-.211-.407 0-.791.07-1.153.211-.362.142-.688.424-.98.847-.291.423-.521 1.031-.689 1.825-.167.794-.251 1.834-.251 3.121zm6.305 4.708h-.053c-.212.811-.627 1.454-1.245 1.93-.618.476-1.351.714-2.199.714-1.554 0-2.693-.609-3.417-1.826-.724-1.217-1.086-3.059-1.086-5.528 0-2.451.361-4.285 1.086-5.501.724-1.217 1.863-1.826 3.417-1.826.901 0 1.63.221 2.186.662.556.44.922 1.031 1.099 1.772h.053v-6.956h1.589v18.885h-1.43v-2.327zM58.432 305.015h1.59v-14.044h-1.59v14.044zm0-16.187h1.59v-2.698h-1.59v2.698zM65.849 290.97h1.43v1.957h.053c.407-.794.922-1.371 1.55-1.733.627-.361 1.311-.542 2.053-.542 1.077 0 1.947.296 2.609.886.662.591.993 1.548.993 2.87v10.606h-1.589v-10.157c0-1.921-.803-2.883-2.41-2.883-.954 0-1.709.322-2.265.965-.556.644-.835 1.521-.835 2.632v9.442h-1.589v-14.044zM81.373 297.821c0 1.128.066 2.067.199 2.817.132.75.326 1.349.583 1.799.256.449.569.771.941.965.371.194.794.291 1.271.291.477 0 .901-.097 1.272-.291.37-.194.684-.516.94-.965.256-.45.451-1.049.584-1.799.133-.75.199-1.689.199-2.817 0-1.111-.066-2.041-.199-2.791-.133-.749-.327-1.349-.584-1.798-.256-.45-.569-.772-.94-.966-.371-.194-.795-.291-1.272-.291s-.9.097-1.271.291c-.371.194-.685.516-.941.966-.257.449-.451 1.049-.583 1.798-.133.75-.199 1.68-.199 2.791zm6.146-6.85h1.43v13.039c0 1.974-.367 3.447-1.1 4.417-.733.969-1.903 1.454-3.51 1.454-1.378 0-2.416-.322-3.113-.965-.698-.644-1.056-1.468-1.073-2.473h1.59c0 .67.265 1.19.794 1.56.53.371 1.147.556 1.855.556 1.978 0 2.967-1.279 2.967-3.835v-2.222h-.053c-.248.864-.671 1.499-1.271 1.904-.601.406-1.272.609-2.014.609-.547 0-1.082-.101-1.603-.304-.521-.203-.985-.569-1.391-1.098-.407-.529-.734-1.247-.98-2.155-.248-.908-.371-2.067-.371-3.478 0-2.451.362-4.285 1.087-5.501.724-1.217 1.862-1.826 3.417-1.826.795 0 1.479.216 2.053.648.575.432.985 1.045 1.232 1.838h.053v-2.169zM104.261 292.293h-1.934v-1.322h1.934v-1.667c0-.475.035-.921.106-1.335.07-.415.212-.776.424-1.085.212-.308.52-.546.927-.714.406-.168.944-.252 1.615-.252l.584.013c.14.01.281.031.423.067v1.322c-.248-.052-.503-.079-.768-.079-.583 0-1.016.142-1.297.423-.283.282-.425.829-.425 1.64v1.667h2.49v1.322h-2.49v12.722h-1.589v-12.722zM113.772 297.979c0 1.128.079 2.076.239 2.843.158.767.38 1.388.662 1.865.282.475.614.815.993 1.018.379.203.799.305 1.258.305.442 0 .856-.102 1.245-.305.389-.202.725-.542 1.007-1.018.282-.477.503-1.098.662-1.865.159-.767.239-1.715.239-2.843 0-1.11-.079-2.049-.239-2.817-.159-.767-.379-1.388-.662-1.864-.283-.476-.619-.815-1.007-1.018-.388-.202-.803-.304-1.245-.304-.46 0-.879.102-1.258.304-.38.203-.711.542-.993 1.018-.283.476-.504 1.098-.662 1.864-.16.768-.239 1.706-.239 2.817m-1.696 0c0-2.469.419-4.306 1.258-5.515.838-1.208 2.035-1.812 3.59-1.812 1.554 0 2.751.604 3.59 1.812.838 1.209 1.258 3.046 1.258 5.515 0 2.486-.42 4.333-1.258 5.541-.839 1.208-2.035 1.812-3.59 1.812-1.555 0-2.751-.604-3.59-1.812-.839-1.208-1.258-3.055-1.258-5.541" fill="#231F20"/><path d="M126.752 290.97h1.59v2.195h.053c.3-.794.755-1.411 1.364-1.852.61-.44 1.338-.661 2.185-.661.177 0 .362.026.557.079v1.587c-.265-.053-.521-.079-.768-.079-.442 0-.866.079-1.272.238-.406.159-.768.406-1.086.741-.318.335-.569.75-.755 1.243-.186.494-.278 1.084-.278 1.772v8.781h-1.59v-14.044zM145.879 286.13h2.94l4.557 16.769h.053l4.557-16.769h2.782v18.885h-1.696v-17.299h-.053l-4.901 17.299h-1.589l-4.901-17.299h-.053v17.299h-1.695zM173.695 296.736c-.035-1.746-.301-2.976-.795-3.69-.494-.714-1.228-1.071-2.199-1.071-.989 0-1.731.357-2.225 1.071-.495.714-.751 1.944-.769 3.69h5.987zm1.563 3.623c-.124 1.499-.579 2.702-1.364 3.611-.786.908-1.841 1.362-3.166 1.362-.741 0-1.403-.137-1.986-.41-.583-.273-1.078-.701-1.483-1.283-.406-.582-.715-1.34-.928-2.274-.212-.934-.318-2.064-.318-3.386 0-2.469.419-4.306 1.258-5.515.838-1.207 2.035-1.812 3.589-1.812 1.554 0 2.698.552 3.43 1.653.733 1.102 1.1 2.826 1.1 5.171v.582h-7.682v.661c0 1.005.083 1.847.252 2.526.167.679.389 1.227.662 1.64.274.415.592.706.954.873.362.168.737.252 1.126.252 1.713 0 2.702-1.217 2.967-3.65h1.59zM186.967 297.08h-.053c-.089.247-.314.441-.675.582-.362.142-.703.256-1.021.344l-1.325.344c-.794.211-1.395.538-1.802.978-.406.441-.609 1.085-.609 1.931 0 .846.199 1.517.596 2.011.397.493.94.741 1.629.741.971 0 1.757-.344 2.358-1.032.6-.688.901-1.666.901-2.935v-2.963zm-6.729-1.931c0-1.445.349-2.556 1.046-3.332.698-.776 1.797-1.164 3.299-1.164 1.447 0 2.472.344 3.073 1.031.601.688.901 1.587.901 2.698v8.306c0 .776.274 1.164.821 1.164h.451v1.164c-.301.106-.548.159-.742.159-.619 0-1.113-.11-1.484-.331-.371-.22-.556-.692-.556-1.414v-.476h-.053c-.159.459-.362.842-.609 1.15-.247.309-.53.556-.848.741-.318.186-.662.313-1.033.383-.37.07-.751.106-1.139.106-1.237 0-2.142-.357-2.715-1.072-.575-.714-.861-1.68-.861-2.896 0-.952.221-1.768.662-2.447.441-.678 1.166-1.159 2.172-1.441l2.994-.847c.282-.07.512-.149.689-.237.176-.088.314-.212.41-.371.097-.159.163-.365.199-.621.035-.255.053-.586.053-.991 0-.9-.221-1.53-.662-1.891-.442-.361-1.034-.542-1.775-.542-.953 0-1.642.273-2.066.82-.424.547-.636 1.331-.636 2.353h-1.589zM194.464 290.97h1.431v1.957h.052c.407-.794.923-1.371 1.55-1.733.627-.361 1.312-.542 2.053-.542 1.077 0 1.947.296 2.609.886.663.591.994 1.548.994 2.87v10.606h-1.589v-10.157c0-1.921-.804-2.883-2.411-2.883-.953 0-1.708.322-2.265.965-.556.644-.834 1.521-.834 2.632v9.442h-1.59v-14.044zM208.982 305.015h1.589v-14.044h-1.589v14.044zm0-16.187h1.589v-2.698h-1.589v2.698zM216.399 290.97h1.43v1.957h.053c.406-.794.922-1.371 1.549-1.733.627-.361 1.311-.542 2.054-.542 1.077 0 1.947.296 2.609.886.662.591.993 1.548.993 2.87v10.606h-1.589v-10.157c0-1.921-.803-2.883-2.41-2.883-.954 0-1.709.322-2.265.965-.556.644-.835 1.521-.835 2.632v9.442h-1.589v-14.044zM231.923 297.821c0 1.128.066 2.067.199 2.817.132.75.326 1.349.583 1.799.256.449.569.771.941.965.371.194.794.291 1.271.291.477 0 .901-.097 1.272-.291.37-.194.684-.516.94-.965.257-.45.451-1.049.584-1.799.133-.75.199-1.689.199-2.817 0-1.111-.066-2.041-.199-2.791-.133-.749-.327-1.349-.584-1.798-.256-.45-.569-.772-.94-.966-.371-.194-.795-.291-1.272-.291s-.9.097-1.271.291c-.371.194-.685.516-.941.966-.256.449-.451 1.049-.583 1.798-.133.75-.199 1.68-.199 2.791zm6.146-6.85h1.43v13.039c0 1.974-.367 3.447-1.099 4.417-.733.969-1.903 1.454-3.51 1.454-1.378 0-2.416-.322-3.112-.965-.698-.644-1.056-1.468-1.073-2.473h1.589c0 .67.266 1.19.795 1.56.53.371 1.147.556 1.854.556 1.978 0 2.968-1.279 2.968-3.835v-2.222h-.053c-.248.864-.671 1.499-1.271 1.904-.601.406-1.272.609-2.014.609-.548 0-1.082-.101-1.603-.304-.521-.203-.985-.569-1.391-1.098-.406-.529-.733-1.247-.98-2.155-.248-.908-.371-2.067-.371-3.478 0-2.451.362-4.285 1.087-5.501.724-1.217 1.862-1.826 3.417-1.826.795 0 1.479.216 2.054.648.574.432.984 1.045 1.231 1.838h.053v-2.169z" fill="#231F20"/>
    </g>
</svg>