<?xml version="1.0" encoding="UTF-8"?>
<svg width="381px" height="70px" viewBox="0 0 381 70" version="1.1" xmlns="http://www.w3.org/2000/svg" xmlns:xlink="http://www.w3.org/1999/xlink">
    <!-- Generator: sketchtool 51.3 (57544) - http://www.bohemiancoding.com/sketch -->
    <title>07A5F82F-4ED3-4E64-AA78-48F29C83E0DF</title>
    <desc>Created with sketchtool.</desc>
    <defs></defs>
    <g id="0.-Assets" stroke="none" stroke-width="1" fill="none" fill-rule="evenodd">
        <g id="Brand-Assets" transform="translate(-337.000000, -597.000000)">
            <g id="Logo" transform="translate(50.000000, 496.000000)">
                <g id="Logo-/-Landscape" transform="translate(287.500000, 101.500000)">
                    <g id="Official-logo---landscape">
                        <path d="M116.728471,29.8096471 L71.9796471,47.1396471 C72.4961176,46.7190588 73.0284706,46.292 73.5949412,45.8525882 C86.1343529,36.1331765 102.809059,28.9637647 113.284941,25.032 C112.200824,23.6631765 111.062588,22.3402353 109.875529,21.062 C99.0961176,25.1908235 83.0943529,32.2972941 70.5967059,41.9849412 C70.5802353,41.9972941 70.5655294,42.0096471 70.5490588,42.0225882 C73.5643529,37.9902353 78.202,33.222 85.3296471,28.4231765 C92.512,23.5861176 100.019647,19.8667059 106.042,17.2555294 C104.697294,16.0261176 103.299647,14.8531765 101.855529,13.7372941 C96.0702353,16.3572941 89.2467059,19.8849412 82.5967059,24.3637647 C76.6225882,28.3861176 72.2408235,32.4331765 69.0184706,36.1472941 C71.4478824,31.0684706 75.3255294,25.4296471 81.5361176,20.2161176 C86.0525882,16.4255294 91.8043529,13.1237647 97.242,10.4737647 C95.6049412,9.41905882 93.9167059,8.43729412 92.1843529,7.52847059 C87.3596471,10.0502353 82.4572941,13.0543529 78.3902353,16.4684706 C71.3261176,22.3978824 66.9814118,28.8143529 64.3102353,34.5696471 C65.7808235,27.4449412 69.2549412,19.362 76.8902353,12.7702353 C80.0590588,10.0343529 83.8796471,7.56611765 87.7667059,5.41552941 C85.8425882,4.58258824 83.8714118,3.83964706 81.8578824,3.18964706 C80.3890588,4.09376471 78.9461176,5.04141176 77.5608235,6.03494118 C77.4714118,6.09964706 77.3808235,6.16317647 77.292,6.22788235 C76.9996471,6.43964706 76.7125882,6.65552941 76.4255294,6.87141176 C76.1943529,7.04611765 75.9649412,7.22258824 75.7367059,7.39905882 C75.6731765,7.44905882 75.6096471,7.49964706 75.5461176,7.54964706 C75.172,7.84258824 74.8043529,8.13964706 74.4414118,8.43964706 C74.2714118,8.58082353 74.1008235,8.722 73.9337647,8.86494118 C73.8061176,8.97258824 73.6796471,9.08023529 73.5543529,9.18847059 C70.8767059,11.5190588 68.6561176,13.9949412 66.8167059,16.5378824 C55.062,33.1425882 61.4531765,52.4861176 62.7537647,55.9608235 L119.294353,34.0637647 C118.492,32.6114118 117.635529,31.1925882 116.728471,29.8096471" id="Fill-1" fill="#EF9D19"></path>
                        <path d="M55.803,48.8954118 L6.523,29.8095294 C5.61594118,31.1924706 4.75947059,32.6112941 3.95652941,34.0642353 L57.1688824,54.6718824 C56.7135882,53.1324706 56.2153529,51.1742353 55.803,48.8954118" id="Fill-3" fill="#EF9D19"></path>
                        <path d="M60.2678824,17.7847059 C61.0572941,16.3517647 61.9308235,14.96 62.8908235,13.6141176 C61.222,12.2923529 58.0267059,9.91823529 52.8149412,6.62882353 C50.2114118,4.98529412 47.3361176,3.55117647 44.3867059,2.30294118 C41.882,2.98058824 39.4361176,3.80117647 37.0596471,4.75764706 C41.6302353,6.31705882 46.2908235,8.29823529 50.2031765,10.7670588 C55.7737647,14.2835294 58.9255294,16.6970588 60.2678824,17.7847059" id="Fill-5" fill="#EF9D19"></path>
                        <path d="M56.8685882,25.8344118 C57.3674118,24.1985294 57.9621176,22.6032353 58.6491765,21.0508824 C56.8797647,19.7485294 54.5838824,18.1714706 51.6603529,16.3691176 C44.9221176,12.2161765 37.4197647,9.35794118 31.1874118,7.46441176 C29.1732941,8.51676471 27.2209412,9.66970588 25.3356471,10.9173529 C31.8615294,12.6144118 41.1462353,15.6379412 49.0921176,20.535 C52.5809412,22.6855882 55.1203529,24.4914706 56.8685882,25.8344118" id="Fill-7" fill="#EF9D19"></path>
                        <path d="M54.9375882,40.5733529 C54.9240588,40.0327647 54.9217059,39.4957059 54.9246471,38.9604118 C39.0287647,30.0962941 21.2452353,24.0686471 12.9646471,21.5045294 C11.7675882,22.8162941 10.6252353,24.1780588 9.53641176,25.5839412 C16.7387647,27.7545294 37.8746471,34.5821765 55.2140588,44.7657059 C55.0740588,43.4321765 54.9752353,42.0315882 54.9375882,40.5733529" id="Fill-9" fill="#EF9D19"></path>
                        <path d="M55.0992941,35.0931176 C55.2592941,33.2184118 55.5251765,31.3807647 55.9022353,29.5866471 C54.1616471,28.3560588 51.9481176,26.9360588 49.1834118,25.4037059 C39.0581176,19.7901765 27.6563529,16.159 20.7222353,14.2637059 C19.1698824,15.4954706 17.6728235,16.7942941 16.2387059,18.159 C22.0522353,19.6160588 35.4645882,23.3937059 46.8110588,29.6837059 C50.7051765,31.8425294 53.3863529,33.7348824 55.0992941,35.0931176" id="Fill-11" fill="#EF9D19"></path>
                        <path d="M64.8959412,11.0188235 C65.9288824,9.77823529 67.0394706,8.58117647 68.2271176,7.43058824 C66.4824118,5.83529412 62.8647647,2.70647059 58.6553529,0.0876470588 C55.7824118,0.215294118 52.9571176,0.525882353 50.1912353,1.01 C51.9924118,1.88176471 53.9718235,2.94117647 56.0182941,4.21 C59.8700588,6.59823529 63.2735882,9.54058824 64.8959412,11.0188235" id="Fill-13" fill="#EF9D19"></path>
                        <path d="M61.7042941,69.4675294 C65.0095882,69.4675294 67.7742941,67.1116471 68.4078235,63.9892941 L123.514882,42.8234118 C122.883706,41.2857647 122.199588,39.7775294 121.459588,38.2998824 L61.7572353,61.2410588 L2.05194118,38.3410588 C1.31488235,39.8198824 0.630764706,41.3269412 0.000176470588,42.864 L55.0007647,63.9904706 C55.6342941,67.1128235 58.3995882,69.4675294 61.7042941,69.4675294" id="Fill-16" fill="#231F20"></path>
                        <path d="M147.360647,31.7208235 L147.360647,38.4249412 C147.360647,38.9890588 146.903588,39.4467059 146.339471,39.4467059 L141.863,39.4467059 C141.298882,39.4467059 140.841824,38.9890588 140.841824,38.4249412 L140.841824,13.4314118 C140.841824,12.8672941 141.298882,12.4096471 141.863,12.4096471 L158.025941,12.4096471 C158.590059,12.4096471 159.047706,12.8672941 159.047706,13.4314118 L159.047706,17.3525882 C159.047706,17.9167059 158.590059,18.3737647 158.025941,18.3737647 L148.381824,18.3737647 C147.817706,18.3737647 147.360647,18.8308235 147.360647,19.3949412 L147.360647,23.7143529 C147.360647,24.2784706 147.817706,24.7355294 148.381824,24.7355294 L156.197118,24.7355294 C156.761235,24.7355294 157.218882,25.1925882 157.218882,25.7567059 L157.218882,29.6778824 C157.218882,30.242 156.761235,30.6996471 156.197118,30.6996471 L148.381824,30.6996471 C147.817706,30.6996471 147.360647,31.1567059 147.360647,31.7208235" id="Fill-18" fill="#231F20"></path>
                        <path d="M168.005706,18.6521176 C168.569824,18.6521176 169.026882,19.1091765 169.026882,19.6732941 L169.026882,30.3415294 C169.026882,32.568 169.822176,33.5227059 171.491588,33.5227059 C172.856882,33.5227059 173.878647,32.598 174.368647,31.6709412 C174.442765,31.5303529 174.473353,31.3721176 174.473353,31.2132941 L174.473353,19.6732941 C174.473353,19.1091765 174.930412,18.6521176 175.494529,18.6521176 L180.169235,18.6521176 C180.733353,18.6521176 181.191,19.1091765 181.191,19.6732941 L181.191,38.4250588 C181.191,38.9891765 180.733353,39.4468235 180.169235,39.4468235 L175.005118,39.4468235 C174.711,39.4468235 174.473353,39.2085882 174.473353,38.9144706 L174.473353,38.678 C174.473353,38.2374118 173.972176,37.9897647 173.622176,38.2574118 C172.387471,39.2027059 170.643353,39.8044706 168.749235,39.8044706 C164.217471,39.8044706 162.309235,36.7827059 162.309235,31.7332941 L162.309235,19.6732941 C162.309235,19.1091765 162.766882,18.6521176 163.331,18.6521176 L168.005706,18.6521176 Z" id="Fill-20" fill="#231F20"></path>
                        <path d="M199.386706,39.4468824 C198.822588,39.4468824 198.365529,38.9892353 198.365529,38.4251176 L198.365529,27.7968824 C198.365529,25.5304118 197.570235,24.5762941 195.860824,24.5762941 C194.500824,24.5762941 193.514353,25.4945294 192.996706,26.4192353 C192.914941,26.5651176 192.879647,26.7315882 192.879647,26.8992353 L192.879647,38.4251176 C192.879647,38.9892353 192.422588,39.4468824 191.858471,39.4468824 L187.222588,39.4468824 C186.658471,39.4468824 186.201412,38.9892353 186.201412,38.4251176 L186.201412,19.6733529 C186.201412,19.1092353 186.658471,18.6521765 187.222588,18.6521765 L192.347294,18.6521765 C192.641412,18.6521765 192.879647,18.8904118 192.879647,19.1845294 L192.879647,19.4239412 C192.879647,19.8633529 193.379059,20.1121765 193.728471,19.8457059 C194.973176,18.8980588 196.737882,18.2945294 198.603765,18.2945294 C203.135529,18.2945294 205.083176,21.3162941 205.083176,26.3657059 L205.083176,38.4251176 C205.083176,38.9892353 204.625529,39.4468824 204.061412,39.4468824 L199.386706,39.4468824 Z" id="Fill-22" fill="#231F20"></path>
                        <path d="M219.116706,33.9201176 C219.953765,33.9201176 220.764941,33.5548235 221.339059,33.0989412 C221.574353,32.9118824 221.700824,32.6189412 221.700824,32.3177647 L221.700824,25.856 C221.700824,25.5595294 221.578471,25.2707059 221.349059,25.0836471 C220.795529,24.6318824 219.982,24.2183529 219.116706,24.2183529 C217.010235,24.2183529 215.817882,26.0477647 215.817882,29.1089412 C215.817882,32.0912941 217.049647,33.9201176 219.116706,33.9201176 M227.397294,39.4471765 L222.233176,39.4471765 C221.939059,39.4471765 221.700824,39.2083529 221.700824,38.9142353 C221.700824,38.4701176 221.187882,38.2201176 220.842588,38.4995294 C219.816706,39.3307059 218.505529,39.8442353 216.890824,39.8442353 C212.160824,39.8442353 208.980824,36.0277647 208.980824,29.0295294 C208.980824,22.0318824 212.160824,18.2942353 216.890824,18.2942353 C218.132,18.2942353 219.223765,18.6218824 220.148471,19.1501176 C220.841412,19.5454118 221.700824,19.0771765 221.700824,18.2795294 L221.700824,12.2383529 C221.700824,11.6742353 222.157882,11.2171765 222.722,11.2171765 L227.397294,11.2171765 C227.961412,11.2171765 228.418471,11.6742353 228.418471,12.2383529 L228.418471,38.4254118 C228.418471,38.9895294 227.961412,39.4471765 227.397294,39.4471765" id="Fill-24" fill="#231F20"></path>
                        <path d="M240.425294,34.9538235 C241.332353,34.9538235 242.091765,34.6585294 242.606471,34.2614706 C242.845294,34.0773529 242.969412,33.7808824 242.969412,33.4797059 L242.969412,31.6891176 C242.969412,31.1444118 242.542941,30.6914706 241.998824,30.6679412 C241.871176,30.6626471 241.742941,30.6597059 241.617647,30.6597059 C239.749412,30.6597059 238.437647,31.455 238.437647,32.9661765 C238.437647,34.3573529 239.272353,34.9538235 240.425294,34.9538235 Z M243.990588,39.4467647 C243.426471,39.4467647 242.969412,38.9891176 242.969412,38.425 L242.969412,38.095 C241.816471,39.0891176 240.226471,39.8444118 238.199412,39.8444118 C234.224118,39.8444118 232.077647,37.4191176 232.077647,33.6814706 C232.077647,28.9897059 235.854118,26.6044118 241.140588,26.6044118 C241.737059,26.6044118 242.372941,26.6838235 242.969412,26.7632353 L242.969412,26.6438235 C242.969412,24.3779412 241.737059,23.8608824 239.828824,23.8608824 C238.699412,23.8608824 237.241765,24.1655882 235.995882,24.5591176 C235.423529,24.7402941 234.822353,24.385 234.697059,23.7979412 L234.014706,20.605 C233.905294,20.0932353 234.199412,19.5832353 234.695882,19.4185294 C236.712941,18.7479412 238.971176,18.2944118 241.26,18.2944118 C246.626471,18.2944118 249.488235,21.4355882 249.488235,26.9220588 L249.488235,38.425 C249.488235,38.9891176 249.031176,39.4467647 248.467059,39.4467647 L243.990588,39.4467647 Z" id="Fill-26" fill="#231F20"></path>
                        <path d="M273.988059,32.4199412 L272.123941,38.5628824 C271.993353,38.9934706 271.596882,39.2875882 271.146294,39.2875882 L265.300412,39.2875882 C264.854529,39.2875882 264.459235,38.9975882 264.326294,38.5717059 L256.499235,13.5775882 C256.292765,12.9199412 256.783941,12.2505294 257.473353,12.2505294 L262.585706,12.2505294 C263.042765,12.2505294 263.443941,12.5546471 263.568059,12.9940588 L267.892176,28.2564118 C268.170412,29.2381765 269.557471,29.2505294 269.852765,28.2740588 L271.975118,21.2487647 C272.032765,21.0593529 272.033353,20.857 271.978059,20.667 L269.901,13.5587647 C269.710412,12.9046471 270.200412,12.2505294 270.881588,12.2505294 L276.076294,12.2505294 C276.544529,12.2505294 276.952765,12.5693529 277.066882,13.0234706 L280.495118,26.6787647 C280.751,27.6981765 282.193941,27.7128824 282.470412,26.6987647 L286.207471,13.0034706 C286.328647,12.5587647 286.732765,12.2505294 287.192765,12.2505294 L292.374529,12.2505294 C293.064529,12.2505294 293.556294,12.9205294 293.349235,13.5787647 L285.485118,38.5728824 C285.351,38.9981765 284.956882,39.2875882 284.511,39.2875882 L278.641,39.2875882 C278.183353,39.2875882 277.781,38.9828824 277.657471,38.5417059 L275.948647,32.4411176 C275.673353,31.4575882 274.284529,31.4422941 273.988059,32.4199412" id="Fill-28" fill="#231F20"></path>
                        <path d="M302.158412,34.7947059 C303.065471,34.7947059 303.824882,34.4994118 304.339588,34.1023529 C304.578412,33.9182353 304.702529,33.6217647 304.702529,33.3205882 L304.702529,31.53 C304.702529,30.9852941 304.276059,30.5323529 303.731941,30.5088235 C303.604294,30.5035294 303.476059,30.5005882 303.350765,30.5005882 C301.482529,30.5005882 300.170765,31.2958824 300.170765,32.8070588 C300.170765,34.1982353 301.005471,34.7947059 302.158412,34.7947059 Z M305.723706,39.2876471 C305.159588,39.2876471 304.702529,38.8305882 304.702529,38.2664706 L304.702529,37.9358824 C303.549588,38.93 301.959588,39.6852941 299.932529,39.6852941 C295.957235,39.6852941 293.810765,37.26 293.810765,33.5223529 C293.810765,28.8305882 297.587235,26.4452941 302.873706,26.4452941 C303.470176,26.4452941 304.106059,26.5247059 304.702529,26.6041176 L304.702529,26.4852941 C304.702529,24.2188235 303.470176,23.7017647 301.561941,23.7017647 C300.432529,23.7017647 298.974882,24.0064706 297.729,24.4 C297.156647,24.5811765 296.555471,24.2264706 296.430176,23.6388235 L295.747824,20.4458824 C295.638412,19.9341176 295.933118,19.4241176 296.429588,19.2594118 C298.446059,18.5894118 300.704294,18.1352941 302.993118,18.1352941 C308.359588,18.1352941 311.221353,21.2764706 311.221353,26.7635294 L311.221353,38.2664706 C311.221353,38.8305882 310.764294,39.2876471 310.200176,39.2876471 L305.723706,39.2876471 Z" id="Fill-30" fill="#231F20"></path>
                        <path d="M329.218412,39.2877647 C328.654294,39.2877647 328.197235,38.8307059 328.197235,38.2665882 L328.197235,27.6377647 C328.197235,25.3718824 327.401941,24.4171765 325.692529,24.4171765 C324.332529,24.4171765 323.346647,25.3354118 322.828412,26.2601176 C322.746647,26.406 322.711353,26.5724706 322.711353,26.7401176 L322.711353,38.2665882 C322.711353,38.8307059 322.254294,39.2877647 321.690176,39.2877647 L317.054882,39.2877647 C316.490765,39.2877647 316.033118,38.8307059 316.033118,38.2665882 L316.033118,19.5148235 C316.033118,18.9507059 316.490765,18.4930588 317.054882,18.4930588 L322.179,18.4930588 C322.473118,18.4930588 322.711353,18.7312941 322.711353,19.0254118 L322.711353,19.2648235 C322.711353,19.7042353 323.210765,19.9530588 323.560765,19.6865882 C324.804882,18.7389412 326.570176,18.1354118 328.435471,18.1354118 C332.967235,18.1354118 334.914882,21.1571765 334.914882,26.2065882 L334.914882,38.2665882 C334.914882,38.8307059 334.457824,39.2877647 333.893706,39.2877647 L329.218412,39.2877647 Z" id="Fill-32" fill="#231F20"></path>
                        <path d="M348.948706,33.7609412 C349.785765,33.7609412 350.596941,33.3956471 351.171059,32.9397647 C351.406353,32.7527059 351.532824,32.4597647 351.532824,32.1591765 L351.532824,25.6968235 C351.532824,25.4003529 351.410471,25.1121176 351.181059,24.9244706 C350.627529,24.4727059 349.814,24.0591765 348.948706,24.0591765 C346.842235,24.0591765 345.649882,25.8885882 345.649882,28.9497647 C345.649882,31.9321176 346.881647,33.7609412 348.948706,33.7609412 M357.229294,39.288 L352.065176,39.288 C351.771059,39.288 351.532824,39.0491765 351.532824,38.7550588 C351.532824,38.3109412 351.019882,38.0609412 350.674588,38.3409412 C349.648706,39.1715294 348.337529,39.6850588 346.722824,39.6850588 C341.992235,39.6850588 338.812824,35.8685882 338.812824,28.8703529 C338.812824,21.8727059 341.992235,18.1356471 346.722824,18.1356471 C347.964,18.1356471 349.055765,18.4632941 349.980471,18.9909412 C350.672824,19.3862353 351.532824,18.918 351.532824,18.1209412 L351.532824,12.0791765 C351.532824,11.5150588 351.989882,11.058 352.554,11.058 L357.229294,11.058 C357.793412,11.058 358.250471,11.5150588 358.250471,12.0791765 L358.250471,38.2662353 C358.250471,38.8303529 357.793412,39.288 357.229294,39.288" id="Fill-34" fill="#231F20"></path>
                        <path d="M373.215706,26.4054706 C373.721,26.4054706 374.151,26.0042941 374.152765,25.499 L374.152765,25.4907647 C374.152765,23.9007647 373.198647,23.1054706 371.768059,23.1054706 C370.352765,23.1054706 369.485118,23.9260588 369.125118,25.2531176 C368.966882,25.8360588 369.433941,26.4054706 370.038647,26.4054706 L373.215706,26.4054706 Z M369.787471,30.5401765 C369.189824,30.5401765 368.726882,31.0966471 368.870412,31.6766471 C369.269235,33.2919412 370.389824,34.4372353 372.602765,34.4372353 C374.040412,34.4372353 375.337471,33.8948824 376.365706,33.2466471 C376.833941,32.9513529 377.452176,33.1337059 377.696294,33.6301765 L379.176882,36.6431176 C379.382765,37.0631176 379.248647,37.5695882 378.864529,37.8360588 C377.049235,39.0913529 374.623941,39.8442941 371.728059,39.8442941 C365.288059,39.8442941 362.227471,35.2319412 362.227471,28.9501765 C362.227471,22.5884118 365.963941,17.9366471 371.648059,17.9366471 C377.292765,17.9366471 379.638059,21.5548824 379.638059,26.4054706 C379.638059,27.5407647 379.538647,28.7760588 379.338059,29.7942941 C379.252176,30.2313529 378.863941,30.5407647 378.418059,30.5407647 L369.787471,30.5401765 Z" id="Fill-36" fill="#231F20"></path>
                        <path d="M141.715529,54.0450588 L143.217294,54.0450588 C143.909059,54.0450588 144.446118,53.8903529 144.828471,53.5809412 C145.210235,53.2715294 145.401412,52.7891765 145.401412,52.1332941 C145.401412,51.5327059 145.251412,51.0644706 144.950824,50.7274118 C144.650824,50.3909412 144.104941,50.2221176 143.312588,50.2221176 L141.715529,50.2221176 L141.715529,54.0450588 Z M140.842,49.4850588 L143.749647,49.4850588 C144.577882,49.4850588 145.205529,49.6991765 145.633765,50.1268235 C146.061412,50.5544706 146.274941,51.1550588 146.274941,51.9285882 C146.274941,52.2203529 146.243176,52.5021176 146.179647,52.7750588 C146.115529,53.0485882 146.016118,53.2944706 145.879647,53.5127059 C145.742588,53.7309412 145.563176,53.918 145.340235,54.0721176 C145.117294,54.2274118 144.841412,54.3362353 144.514353,54.4003529 L144.514353,54.4274118 C145.123765,54.4821176 145.549647,54.6891765 145.790824,55.0485882 C146.031412,55.408 146.161412,55.9697647 146.179647,56.7344706 L146.207294,57.7991765 C146.216118,58.0638824 146.243176,58.3209412 146.289059,58.5709412 C146.334353,58.8215294 146.443765,59.0421176 146.616706,59.2327059 L145.592588,59.2327059 C145.492588,59.0603529 145.426706,58.8556471 145.394353,58.6185882 C145.362588,58.3821176 145.342588,58.1315294 145.333176,57.868 L145.306118,57.0485882 C145.287882,56.6209412 145.251412,56.2615294 145.196706,55.9697647 C145.142,55.6785882 145.044353,55.4444706 144.903176,55.2668235 C144.762,55.0891765 144.569059,54.9644706 144.323176,54.8915294 C144.077294,54.8185882 143.758471,54.7821176 143.367294,54.7821176 L141.715529,54.7821176 L141.715529,59.2327059 L140.842,59.2327059 L140.842,49.4850588 Z" id="Fill-38" fill="#231F20"></path>
                        <path d="M152.719059,54.9598235 C152.700824,54.0586471 152.564353,53.4239412 152.309647,53.0551176 C152.054941,52.6862941 151.676706,52.5021765 151.176118,52.5021765 C150.666706,52.5021765 150.284353,52.6862941 150.029647,53.0551176 C149.774941,53.4239412 149.642588,54.0586471 149.633765,54.9598235 L152.719059,54.9598235 Z M153.524941,56.8298235 C153.460824,57.6039412 153.226118,58.2251176 152.821412,58.6939412 C152.416118,59.1627647 151.872588,59.3968824 151.190235,59.3968824 C150.807882,59.3968824 150.466118,59.3262941 150.166118,59.1851176 C149.865529,59.0439412 149.610824,58.8233529 149.401412,58.5233529 C149.192,58.2227647 149.033176,57.8315882 148.923765,57.3492353 C148.814353,56.8662941 148.760235,56.2839412 148.760235,55.6015882 C148.760235,54.3274706 148.976118,53.3786471 149.408471,52.7545294 C149.840235,52.1315882 150.457294,51.8198235 151.258471,51.8198235 C152.059059,51.8198235 152.648471,52.1045294 153.026118,52.6727647 C153.403765,53.2421765 153.592588,54.1315882 153.592588,55.3415882 L153.592588,55.6421765 L149.633765,55.6421765 L149.633765,55.9833529 C149.633765,56.5027647 149.676706,56.9368824 149.763765,57.2874706 C149.849647,57.6380588 149.963176,57.9204118 150.104941,58.1339412 C150.245529,58.3480588 150.409647,58.4980588 150.596118,58.5845294 C150.782588,58.671 150.976118,58.7139412 151.176118,58.7139412 C152.059059,58.7139412 152.569059,58.0857059 152.705529,56.8298235 L153.524941,56.8298235 Z" id="Fill-40" fill="#231F20"></path>
                        <path d="M159.558765,55.1373529 L159.531706,55.1373529 C159.485824,55.265 159.369941,55.365 159.183471,55.4373529 C158.996412,55.5102941 158.821706,55.5697059 158.657588,55.615 L157.975235,55.7926471 C157.565824,55.9014706 157.255824,56.0702941 157.046412,56.2979412 C156.837588,56.525 156.732882,56.8573529 156.732882,57.2944118 C156.732882,57.7314706 156.835235,58.0773529 157.039941,58.3320588 C157.244647,58.5867647 157.524647,58.7144118 157.879941,58.7144118 C158.379941,58.7144118 158.785235,58.5367647 159.094647,58.1814706 C159.404059,57.8267647 159.558765,57.3214706 159.558765,56.6661765 L159.558765,55.1373529 Z M156.091118,54.1408824 C156.091118,53.3944118 156.271118,52.8208824 156.630529,52.4202941 C156.989941,52.0202941 157.556412,51.8197059 158.329941,51.8197059 C159.076412,51.8197059 159.604647,51.9973529 159.914059,52.3520588 C160.222882,52.7073529 160.378176,53.1714706 160.378176,53.7444118 L160.378176,58.0314706 C160.378176,58.4320588 160.518765,58.6320588 160.801118,58.6320588 L161.033471,58.6320588 L161.033471,59.2326471 C160.878765,59.2873529 160.751118,59.315 160.651118,59.315 C160.332294,59.315 160.077588,59.2579412 159.886412,59.1444118 C159.695235,59.0302941 159.599941,58.7873529 159.599941,58.4138235 L159.599941,58.1679412 L159.572294,58.1679412 C159.490529,58.405 159.385824,58.6026471 159.258765,58.7620588 C159.131118,58.9214706 158.985235,59.0485294 158.821706,59.1444118 C158.657588,59.2397059 158.480529,59.3055882 158.289353,59.3420588 C158.098176,59.3785294 157.902294,59.3967647 157.702294,59.3967647 C157.065235,59.3967647 156.598176,59.2126471 156.302882,58.8438235 C156.007,58.475 155.858765,57.9767647 155.858765,57.3491176 C155.858765,56.8573529 155.972882,56.4361765 156.200529,56.0861765 C156.427588,55.7361765 156.801118,55.4879412 157.319941,55.3420588 L158.862294,54.905 C159.008176,54.8685294 159.126412,54.8279412 159.217588,54.7820588 C159.308176,54.7367647 159.378765,54.6726471 159.429353,54.5908824 C159.479353,54.5091176 159.512882,54.4020588 159.531706,54.2702941 C159.549353,54.1385294 159.558765,53.9679412 159.558765,53.7585294 C159.558765,53.2944118 159.445235,52.9685294 159.217588,52.7820588 C158.989941,52.5955882 158.685235,52.5026471 158.302882,52.5026471 C157.811118,52.5026471 157.456412,52.6432353 157.238176,52.9255882 C157.019353,53.2079412 156.910529,53.6126471 156.910529,54.1408824 L156.091118,54.1408824 Z" id="Fill-42" fill="#231F20"></path>
                        <path d="M163.995765,55.6015294 C163.995765,56.2750588 164.038706,56.8162353 164.125765,57.2262353 C164.211647,57.6356471 164.330471,57.9497647 164.480471,58.168 C164.630471,58.3862353 164.798706,58.5321176 164.985765,58.6050588 C165.172235,58.678 165.369882,58.7144706 165.579294,58.7144706 C165.788706,58.7144706 165.989294,58.678 166.179882,58.6050588 C166.371647,58.5321176 166.539882,58.3862353 166.685176,58.168 C166.830471,57.9497647 166.946941,57.6356471 167.033412,57.2262353 C167.119882,56.8162353 167.162824,56.2750588 167.162824,55.6015294 C167.162824,54.9374118 167.119882,54.4003529 167.033412,53.9903529 C166.946941,53.5809412 166.830471,53.2668235 166.685176,53.0485882 C166.539882,52.8297647 166.371647,52.6844706 166.179882,52.6115294 C165.989294,52.5385882 165.788706,52.5021176 165.579294,52.5021176 C165.369882,52.5021176 165.172235,52.5385882 164.985765,52.6115294 C164.798706,52.6844706 164.630471,52.8297647 164.480471,53.0485882 C164.330471,53.2668235 164.211647,53.5809412 164.125765,53.9903529 C164.038706,54.4003529 163.995765,54.9374118 163.995765,55.6015294 Z M167.245176,58.0315294 L167.218118,58.0315294 C167.108706,58.4503529 166.894588,58.7827059 166.576353,59.028 C166.257529,59.2738824 165.879882,59.3968235 165.442824,59.3968235 C164.642235,59.3968235 164.055176,59.0827059 163.681647,58.4550588 C163.308706,57.8268235 163.122235,56.8756471 163.122235,55.6015294 C163.122235,54.3362353 163.308706,53.3897647 163.681647,52.7615294 C164.055176,52.1332941 164.642235,51.8197647 165.442824,51.8197647 C165.907529,51.8197647 166.282824,51.9338824 166.569294,52.1609412 C166.855765,52.3885882 167.044588,52.6932941 167.135765,53.0756471 L167.162824,53.0756471 L167.162824,49.4850588 L167.982235,49.4850588 L167.982235,59.2327059 L167.245176,59.2327059 L167.245176,58.0315294 Z" id="Fill-44" fill="#231F20"></path>
                        <path d="M170.903529,59.2329412 L171.722941,59.2329412 L171.722941,51.9835294 L170.903529,51.9835294 L170.903529,59.2329412 Z M170.903529,50.8776471 L171.722941,50.8776471 L171.722941,49.4852941 L170.903529,49.4852941 L170.903529,50.8776471 Z" id="Fill-46" fill="#231F20"></path>
                        <path d="M174.726176,51.9836471 L175.463235,51.9836471 L175.463235,52.9936471 L175.490882,52.9936471 C175.699706,52.5842353 175.966176,52.286 176.289118,52.0995294 C176.612059,51.9130588 176.965,51.8195294 177.347353,51.8195294 C177.902059,51.8195294 178.350882,51.9718824 178.692059,52.2771765 C179.033235,52.5824706 179.203824,53.0754118 179.203824,53.7583529 L179.203824,59.2330588 L178.385,59.2330588 L178.385,53.9907059 C178.385,52.9983529 177.970882,52.5024706 177.142647,52.5024706 C176.650882,52.5024706 176.262059,52.6683529 175.975588,53.0007059 C175.688529,53.3330588 175.545,53.7854118 175.545,54.3589412 L175.545,59.2330588 L174.726176,59.2330588 L174.726176,51.9836471 Z" id="Fill-48" fill="#231F20"></path>
                        <path d="M182.726,55.5193529 C182.726,56.1022941 182.760118,56.5864118 182.828353,56.9734706 C182.897176,57.3605294 182.996588,57.6699412 183.128941,57.9017059 C183.260706,58.1340588 183.422471,58.2999412 183.613647,58.3999412 C183.804824,58.5005294 184.023059,58.5505294 184.268941,58.5505294 C184.514824,58.5505294 184.733059,58.5005294 184.924235,58.3999412 C185.115412,58.2999412 185.276588,58.1340588 185.408941,57.9017059 C185.540706,57.6699412 185.640706,57.3605294 185.708941,56.9734706 C185.777176,56.5864118 185.811882,56.1022941 185.811882,55.5193529 C185.811882,54.9458235 185.777176,54.4658235 185.708941,54.0793529 C185.640706,53.6922941 185.540706,53.3828824 185.408941,53.1511176 C185.276588,52.9187647 185.115412,52.7528824 184.924235,52.6522941 C184.733059,52.5522941 184.514824,52.5022941 184.268941,52.5022941 C184.023059,52.5022941 183.804824,52.5522941 183.613647,52.6522941 C183.422471,52.7528824 183.260706,52.9187647 183.128941,53.1511176 C182.996588,53.3828824 182.897176,53.6922941 182.828353,54.0793529 C182.760118,54.4658235 182.726,54.9458235 182.726,55.5193529 Z M185.893647,51.9834706 L186.630706,51.9834706 L186.630706,58.7140588 C186.630706,59.7334706 186.441882,60.4934706 186.064235,60.9940588 C185.686588,61.4946471 185.083059,61.7452353 184.255412,61.7452353 C183.545412,61.7452353 183.010118,61.5787647 182.651294,61.2464118 C182.291294,60.9140588 182.107176,60.4887647 182.098353,59.9699412 L182.917176,59.9699412 C182.917176,60.3158235 183.053647,60.5846471 183.326588,60.7758235 C183.600118,60.967 183.918353,61.0622941 184.282471,61.0622941 C185.301882,61.0622941 185.811882,60.4022941 185.811882,59.0828824 L185.811882,57.9358235 L185.784235,57.9358235 C185.656588,58.3822941 185.438353,58.7093529 185.128941,58.9187647 C184.819529,59.1281765 184.473647,59.2328824 184.091294,59.2328824 C183.808941,59.2328824 183.533647,59.1805294 183.265412,59.0758235 C182.996588,58.9717059 182.757765,58.7822941 182.548941,58.5093529 C182.338941,58.2364118 182.170706,57.8658235 182.043647,57.3964118 C181.916,56.9281765 181.852471,56.3293529 181.852471,55.6017059 C181.852471,54.3364118 182.038941,53.3893529 182.411882,52.7617059 C182.785412,52.1334706 183.372471,51.8193529 184.173059,51.8193529 C184.583059,51.8193529 184.935412,51.9311176 185.231294,52.1540588 C185.527176,52.3775882 185.738941,52.6934706 185.866,53.1028824 L185.893647,53.1028824 L185.893647,51.9834706 Z" id="Fill-49" fill="#231F20"></path>
                        <path d="M194.521412,52.6660588 L193.524941,52.6660588 L193.524941,51.9837059 L194.521412,51.9837059 L194.521412,51.1231176 C194.521412,50.8772353 194.539647,50.6478235 194.576118,50.4342941 C194.612,50.2201765 194.684941,50.0337059 194.794353,49.8742941 C194.903765,49.7148824 195.062588,49.5919412 195.272,49.5054706 C195.481412,49.419 195.759059,49.3760588 196.104941,49.3760588 C196.232588,49.3760588 196.332588,49.3784118 196.405529,49.3825294 C196.477882,49.3872353 196.550824,49.3984118 196.623765,49.4166471 L196.623765,50.0995882 C196.496118,50.0719412 196.364353,50.0584118 196.227882,50.0584118 C195.927294,50.0584118 195.704353,50.1313529 195.559059,50.2766471 C195.413176,50.4225294 195.340824,50.7048824 195.340824,51.1231176 L195.340824,51.9837059 L196.623765,51.9837059 L196.623765,52.6660588 L195.340824,52.6660588 L195.340824,59.2331176 L194.521412,59.2331176 L194.521412,52.6660588 Z" id="Fill-50" fill="#231F20"></path>
                        <path d="M199.422294,55.6015294 C199.422294,56.1838824 199.463471,56.6732941 199.545235,57.0691765 C199.627,57.4650588 199.741118,57.7856471 199.887,58.0315294 C200.032294,58.2774118 200.202882,58.4527059 200.398765,58.5568235 C200.594059,58.6621176 200.809941,58.7144706 201.047,58.7144706 C201.274059,58.7144706 201.488176,58.6621176 201.688765,58.5568235 C201.888765,58.4527059 202.061706,58.2774118 202.207588,58.0315294 C202.352882,57.7856471 202.467,57.4650588 202.548765,57.0691765 C202.630529,56.6732941 202.671706,56.1838824 202.671706,55.6015294 C202.671706,55.028 202.630529,54.5432941 202.548765,54.1474118 C202.467,53.7515294 202.352882,53.4309412 202.207588,53.1850588 C202.061706,52.9391765 201.888765,52.7638824 201.688765,52.6591765 C201.488176,52.5544706 201.274059,52.5021176 201.047,52.5021176 C200.809941,52.5021176 200.594059,52.5544706 200.398765,52.6591765 C200.202882,52.7638824 200.032294,52.9391765 199.887,53.1850588 C199.741118,53.4309412 199.627,53.7515294 199.545235,54.1474118 C199.463471,54.5432941 199.422294,55.028 199.422294,55.6015294 M198.548765,55.6015294 C198.548765,54.3274118 198.764647,53.3785882 199.197,52.7550588 C199.629353,52.1315294 200.245824,51.8197647 201.047,51.8197647 C201.848176,51.8197647 202.464647,52.1315294 202.897,52.7550588 C203.329353,53.3785882 203.545235,54.3274118 203.545235,55.6015294 C203.545235,56.8850588 203.329353,57.838 202.897,58.4615294 C202.464647,59.0850588 201.848176,59.3968235 201.047,59.3968235 C200.245824,59.3968235 199.629353,59.0850588 199.197,58.4615294 C198.764647,57.838 198.548765,56.8850588 198.548765,55.6015294" id="Fill-51" fill="#231F20"></path>
                        <path d="M206.111765,51.9836471 L206.931176,51.9836471 L206.931176,53.1165882 L206.958235,53.1165882 C207.112941,52.7071765 207.347647,52.3883529 207.661176,52.1607059 C207.975294,51.9336471 208.351176,51.8195294 208.787647,51.8195294 C208.878824,51.8195294 208.974118,51.8336471 209.074706,51.8607059 L209.074706,52.6801176 C208.938235,52.6524706 208.805882,52.6389412 208.678235,52.6389412 C208.451176,52.6389412 208.232353,52.6801176 208.023529,52.7618824 C207.814118,52.8436471 207.627647,52.9712941 207.463529,53.1442353 C207.3,53.3171765 207.17,53.5307059 207.074706,53.7854118 C206.978824,54.0407059 206.931176,54.3454118 206.931176,54.7001176 L206.931176,59.2330588 L206.111765,59.2330588 L206.111765,51.9836471 Z" id="Fill-52" fill="#231F20"></path>
                        <polygon id="Fill-53" fill="#231F20" points="215.968765 49.4850588 217.484059 49.4850588 219.832294 58.1409412 219.859353 58.1409412 222.207588 49.4850588 223.641118 49.4850588 223.641118 59.2327059 222.767588 59.2327059 222.767588 50.3044706 222.740529 50.3044706 220.214647 59.2327059 219.395235 59.2327059 216.869941 50.3044706 216.842294 50.3044706 216.842294 59.2327059 215.968765 59.2327059"></polygon>
                        <path d="M230.303529,54.9598235 C230.285294,54.0586471 230.148235,53.4239412 229.894118,53.0551176 C229.638824,52.6862941 229.261176,52.5021765 228.760588,52.5021765 C228.251176,52.5021765 227.868824,52.6862941 227.614118,53.0551176 C227.358824,53.4239412 227.227059,54.0586471 227.217647,54.9598235 L230.303529,54.9598235 Z M231.108824,56.8298235 C231.045294,57.6039412 230.810588,58.2251176 230.405882,58.6939412 C230.000588,59.1627647 229.457059,59.3968824 228.774118,59.3968824 C228.391765,59.3968824 228.050588,59.3262941 227.750588,59.1851176 C227.45,59.0439412 227.195294,58.8233529 226.985882,58.5233529 C226.776471,58.2227647 226.617059,57.8315882 226.508235,57.3492353 C226.398824,56.8662941 226.344118,56.2839412 226.344118,55.6015882 C226.344118,54.3274706 226.560588,53.3786471 226.992941,52.7545294 C227.424706,52.1315882 228.041765,51.8198235 228.842941,51.8198235 C229.643529,51.8198235 230.232941,52.1045294 230.610588,52.6727647 C230.988235,53.2421765 231.177059,54.1315882 231.177059,55.3415882 L231.177059,55.6421765 L227.217647,55.6421765 L227.217647,55.9833529 C227.217647,56.5027647 227.261176,56.9368824 227.347647,57.2874706 C227.434118,57.6380588 227.547647,57.9204118 227.688824,58.1339412 C227.83,58.3480588 227.994118,58.4980588 228.180588,58.5845294 C228.367059,58.671 228.560588,58.7139412 228.760588,58.7139412 C229.643529,58.7139412 230.153529,58.0857059 230.29,56.8298235 L231.108824,56.8298235 Z" id="Fill-54" fill="#231F20"></path>
                        <path d="M237.143176,55.1373529 L237.116118,55.1373529 C237.070235,55.265 236.954353,55.365 236.767882,55.4373529 C236.580824,55.5102941 236.406118,55.5697059 236.242,55.615 L235.559647,55.7926471 C235.149647,55.9014706 234.840235,56.0702941 234.630824,56.2979412 C234.422,56.525 234.317294,56.8573529 234.317294,57.2944118 C234.317294,57.7314706 234.419647,58.0773529 234.624353,58.3320588 C234.829059,58.5867647 235.109059,58.7144118 235.463765,58.7144118 C235.964353,58.7144118 236.369647,58.5367647 236.679059,58.1814706 C236.987882,57.8267647 237.143176,57.3214706 237.143176,56.6661765 L237.143176,55.1373529 Z M233.675529,54.1408824 C233.675529,53.3944118 233.854941,52.8208824 234.214353,52.4202941 C234.574353,52.0202941 235.140824,51.8197059 235.914353,51.8197059 C236.660824,51.8197059 237.188471,51.9973529 237.498471,52.3520588 C237.807294,52.7073529 237.962588,53.1714706 237.962588,53.7444118 L237.962588,58.0314706 C237.962588,58.4320588 238.103176,58.6320588 238.385529,58.6320588 L238.617294,58.6320588 L238.617294,59.2326471 C238.462588,59.2873529 238.335529,59.315 238.234941,59.315 C237.916706,59.315 237.662,59.2579412 237.470824,59.1444118 C237.279647,59.0302941 237.184353,58.7873529 237.184353,58.4138235 L237.184353,58.1679412 L237.156706,58.1679412 C237.074941,58.405 236.970235,58.6026471 236.842588,58.7620588 C236.714941,58.9214706 236.569647,59.0485294 236.406118,59.1444118 C236.242,59.2397059 236.064941,59.3055882 235.873176,59.3420588 C235.682588,59.3785294 235.486706,59.3967647 235.286118,59.3967647 C234.649059,59.3967647 234.182588,59.2126471 233.887294,58.8438235 C233.590824,58.475 233.443176,57.9767647 233.443176,57.3491176 C233.443176,56.8573529 233.557294,56.4361765 233.784941,56.0861765 C234.012,55.7361765 234.385529,55.4879412 234.904353,55.3420588 L236.446706,54.905 C236.592,54.8685294 236.710824,54.8279412 236.801412,54.7820588 C236.892588,54.7367647 236.963176,54.6726471 237.013176,54.5908824 C237.063176,54.5091176 237.097294,54.4020588 237.116118,54.2702941 C237.133765,54.1385294 237.143176,53.9679412 237.143176,53.7585294 C237.143176,53.2944118 237.029059,52.9685294 236.801412,52.7820588 C236.574353,52.5955882 236.269647,52.5026471 235.887294,52.5026471 C235.395529,52.5026471 235.040824,52.6432353 234.822,52.9255882 C234.603765,53.2079412 234.494941,53.6126471 234.494941,54.1408824 L233.675529,54.1408824 Z" id="Fill-55" fill="#231F20"></path>
                        <path d="M241.006647,51.9836471 L241.743706,51.9836471 L241.743706,52.9936471 L241.771353,52.9936471 C241.980765,52.5842353 242.246647,52.286 242.569588,52.0995294 C242.893118,51.9130588 243.245471,51.8195294 243.627824,51.8195294 C244.183118,51.8195294 244.631353,51.9718824 244.972529,52.2771765 C245.313706,52.5824706 245.484294,53.0754118 245.484294,53.7583529 L245.484294,59.2330588 L244.665471,59.2330588 L244.665471,53.9907059 C244.665471,52.9983529 244.251353,52.5024706 243.423118,52.5024706 C242.931353,52.5024706 242.542529,52.6683529 242.256059,53.0007059 C241.969,53.3330588 241.826059,53.7854118 241.826059,54.3589412 L241.826059,59.2330588 L241.006647,59.2330588 L241.006647,51.9836471 Z" id="Fill-56" fill="#231F20"></path>
                        <path d="M248.488235,59.2329412 L249.307647,59.2329412 L249.307647,51.9835294 L248.488235,51.9835294 L248.488235,59.2329412 Z M248.488235,50.8776471 L249.307647,50.8776471 L249.307647,49.4852941 L248.488235,49.4852941 L248.488235,50.8776471 Z" id="Fill-57" fill="#231F20"></path>
                        <path d="M252.310353,51.9836471 L253.047412,51.9836471 L253.047412,52.9936471 L253.075059,52.9936471 C253.284471,52.5842353 253.550353,52.286 253.873882,52.0995294 C254.196824,51.9130588 254.549176,51.8195294 254.932118,51.8195294 C255.486824,51.8195294 255.935059,51.9718824 256.276235,52.2771765 C256.618,52.5824706 256.788588,53.0754118 256.788588,53.7583529 L256.788588,59.2330588 L255.969176,59.2330588 L255.969176,53.9907059 C255.969176,52.9983529 255.555059,52.5024706 254.726824,52.5024706 C254.235059,52.5024706 253.846235,52.6683529 253.559765,53.0007059 C253.272706,53.3330588 253.129765,53.7854118 253.129765,54.3589412 L253.129765,59.2330588 L252.310353,59.2330588 L252.310353,51.9836471 Z" id="Fill-58" fill="#231F20"></path>
                        <path d="M260.310706,55.5193529 C260.310706,56.1022941 260.344824,56.5864118 260.413059,56.9734706 C260.481294,57.3605294 260.581294,57.6699412 260.713647,57.9017059 C260.845412,58.1340588 261.007176,58.2999412 261.197765,58.3999412 C261.388941,58.5005294 261.607765,58.5505294 261.853647,58.5505294 C262.098941,58.5505294 262.317765,58.5005294 262.508353,58.3999412 C262.700118,58.2999412 262.861294,58.1340588 262.993647,57.9017059 C263.125412,57.6699412 263.225412,57.3605294 263.293647,56.9734706 C263.361882,56.5864118 263.396,56.1022941 263.396,55.5193529 C263.396,54.9458235 263.361882,54.4658235 263.293647,54.0793529 C263.225412,53.6922941 263.125412,53.3828824 262.993647,53.1511176 C262.861294,52.9187647 262.700118,52.7528824 262.508353,52.6522941 C262.317765,52.5522941 262.098941,52.5022941 261.853647,52.5022941 C261.607765,52.5022941 261.388941,52.5522941 261.197765,52.6522941 C261.007176,52.7528824 260.845412,52.9187647 260.713647,53.1511176 C260.581294,53.3828824 260.481294,53.6922941 260.413059,54.0793529 C260.344824,54.4658235 260.310706,54.9458235 260.310706,55.5193529 Z M263.477765,51.9834706 L264.215412,51.9834706 L264.215412,58.7140588 C264.215412,59.7334706 264.026,60.4934706 263.648353,60.9940588 C263.270706,61.4946471 262.667765,61.7452353 261.839529,61.7452353 C261.130118,61.7452353 260.594824,61.5787647 260.235412,61.2464118 C259.876,60.9140588 259.691294,60.4887647 259.682471,59.9699412 L260.501882,59.9699412 C260.501882,60.3158235 260.638353,60.5846471 260.911294,60.7758235 C261.184235,60.967 261.503059,61.0622941 261.867176,61.0622941 C262.886,61.0622941 263.396,60.4022941 263.396,59.0828824 L263.396,57.9358235 L263.368941,57.9358235 C263.241294,58.3822941 263.022471,58.7093529 262.713059,58.9187647 C262.404235,59.1281765 262.058353,59.2328824 261.676,59.2328824 C261.393647,59.2328824 261.118353,59.1805294 260.850118,59.0758235 C260.581294,58.9717059 260.342471,58.7822941 260.133059,58.5093529 C259.923647,58.2364118 259.755412,57.8658235 259.627765,57.3964118 C259.500706,56.9281765 259.437176,56.3293529 259.437176,55.6017059 C259.437176,54.3364118 259.623647,53.3893529 259.996588,52.7617059 C260.370118,52.1334706 260.956588,51.8193529 261.757765,51.8193529 C262.167176,51.8193529 262.520118,51.9311176 262.816,52.1540588 C263.111294,52.3775882 263.323059,52.6934706 263.450706,53.1028824 L263.477765,53.1028824 L263.477765,51.9834706 Z" id="Fill-59" fill="#231F20"></path>
                    </g>
                </g>
            </g>
        </g>
    </g>
</svg>