<svg style = "width: 80%; height: auto" viewBox="0 0 315 57" xmlns="http://www.w3.org/2000/svg">
<title>FW Landscape Logo</title>
    <g fill="none">
        <path d="M96.762 24.448l-37.094 14.213c.428-.345.869-.695 1.339-1.056 10.395-7.971 24.217-13.851 32.901-17.076-.899-1.123-1.842-2.208-2.826-3.256-8.936 3.386-22.2 9.215-32.56 17.16l-.039.031c2.5-3.307 6.344-7.218 12.252-11.153 5.954-3.967 12.177-7.018 17.169-9.159-1.115-1.008-2.273-1.97-3.47-2.885-4.796 2.149-10.452 5.042-15.965 8.715-4.952 3.299-8.584 6.618-11.256 9.664 2.014-4.165 5.228-8.79 10.376-13.066 3.744-3.109 8.512-5.817 13.019-7.99-1.357-.865-2.756-1.67-4.193-2.416-3.999 2.068-8.063 4.532-11.435 7.332-5.856 4.863-9.457 10.125-11.672 14.846 1.219-5.843 4.099-12.472 10.428-17.879 2.627-2.244 5.794-4.268 9.016-6.032-1.595-.683-3.229-1.292-4.898-1.826-1.218.742-2.414 1.519-3.562 2.334l-.223.158-.718.528-.571.433-.158.124c-.31.24-.615.484-.916.73l-.421.349-.315.265c-2.22 1.911-4.06 3.942-5.585 6.028-9.744 13.618-4.446 29.483-3.368 32.332l46.869-17.959c-.665-1.191-1.375-2.355-2.127-3.489M46.258 40.101l-40.851-15.653c-.752 1.134-1.462 2.298-2.127 3.489l44.11 16.901c-.377-1.263-.79-2.869-1.132-4.738M49.959 14.586c.654-1.175 1.378-2.317 2.174-3.42-1.383-1.084-4.032-3.031-8.352-5.729-2.158-1.348-4.542-2.524-6.987-3.548-2.076.556-4.104 1.229-6.074 2.013 3.789 1.279 7.652 2.904 10.895 4.929 4.618 2.884 7.23 4.863 8.343 5.755M47.141 21.188c.413-1.342.906-2.65 1.476-3.923-1.467-1.068-3.37-2.362-5.793-3.84-5.586-3.406-11.805-5.75-16.971-7.303-1.67.863-3.288 1.809-4.851 2.832 5.41 1.392 13.106 3.872 19.693 7.888 2.892 1.764 4.997 3.245 6.446 4.346M45.54 33.276c-.011-.443-.013-.884-.011-1.323-13.177-7.27-27.918-12.213-34.783-14.316-.992 1.076-1.939 2.193-2.842 3.346 5.97 1.78 23.491 7.38 37.864 15.732-.116-1.094-.198-2.242-.229-3.438M45.674 28.781c.133-1.538.353-3.045.666-4.516-1.443-1.009-3.278-2.174-5.57-3.431-8.393-4.604-17.845-7.582-23.593-9.136-1.287 1.01-2.528 2.075-3.717 3.195 4.819 1.195 15.937 4.293 25.343 9.452 3.228 1.771 5.451 3.323 6.871 4.436M53.795 9.037c.856-1.017 1.777-1.999 2.761-2.943-1.446-1.308-4.445-3.874-7.934-6.022-2.382.105-4.724.359-7.016.756 1.493.715 3.134 1.584 4.83 2.624 3.193 1.959 6.014 4.372 7.359 5.584" fill="#EF9D19"/><path d="M51.15 56.973c2.74 0 5.032-1.932 5.557-4.493l45.681-17.359c-.523-1.261-1.09-2.498-1.704-3.71l-49.49 18.815-49.493-18.781c-.611 1.213-1.178 2.449-1.701 3.709l45.593 17.327c.525 2.561 2.817 4.492 5.557 4.492M122.154 26.016v5.498c0 .463-.379.838-.847.838h-3.711c-.468 0-.847-.375-.847-.838v-20.498c0-.463.379-.838.847-.838h13.398c.468 0 .847.375.847.838v3.216c0 .463-.379.838-.847.838h-7.994c-.468 0-.847.375-.847.838v3.543c0 .463.379.838.847.838h6.478c.468 0 .847.375.847.838v3.216c0 .463-.379.838-.847.838h-6.478c-.468 0-.847.375-.847.838" fill="#231F20"/><path d="M139.268 15.297c.468 0 .847.375.847.838v8.749c0 1.826.659 2.609 2.043 2.609 1.132 0 1.979-.758 2.385-1.519.061-.115.087-.245.087-.375v-9.464c0-.463.379-.838.847-.838h3.875c.468 0 .847.375.847.838v15.379c0 .463-.379.838-.847.838h-4.281c-.244 0-.441-.195-.441-.437v-.194c0-.361-.415-.564-.706-.345-1.024.775-2.469 1.269-4.039 1.269-3.757 0-5.338-2.478-5.338-6.62v-9.891c0-.463.379-.838.847-.838h3.875zM165.281 32.352c-.468 0-.847-.375-.847-.838v-8.717c0-1.859-.659-2.641-2.076-2.641-1.127 0-1.945.753-2.374 1.511-.068.12-.097.256-.097.394v9.453c0 .463-.379.838-.847.838h-3.843c-.468 0-.847-.375-.847-.838v-15.379c0-.463.379-.838.847-.838h4.248c.244 0 .441.195.441.437v.196c0 .36.414.564.704.346 1.032-.777 2.495-1.272 4.041-1.272 3.757 0 5.371 2.478 5.371 6.62v9.89c0 .463-.379.838-.847.838h-3.875zM181.636 27.819c.694 0 1.366-.3 1.842-.673.195-.153.3-.394.3-.641v-5.3c0-.243-.101-.48-.292-.633-.459-.371-1.133-.71-1.851-.71-1.746 0-2.735 1.5-2.735 4.011 0 2.446 1.021 3.946 2.735 3.946m6.864 4.533h-4.281c-.244 0-.441-.196-.441-.437 0-.364-.425-.569-.711-.34-.85.682-1.937 1.103-3.276 1.103-3.921 0-6.557-3.13-6.557-8.87 0-5.739 2.636-8.804 6.557-8.804 1.029 0 1.934.269 2.7.702.574.324 1.287-.06 1.287-.714v-4.955c0-.463.379-.838.847-.838h3.876c.468 0 .847.375.847.838v21.477c0 .463-.379.838-.847.838" fill="#231F20"/><path d="M199.3 28.667c.752 0 1.381-.242 1.808-.568.198-.151.301-.394.301-.641v-1.469c0-.447-.354-.818-.805-.838l-.316-.007c-1.549 0-2.636.652-2.636 1.892 0 1.141.692 1.63 1.648 1.63zm2.955 3.685c-.468 0-.847-.375-.847-.838v-.271c-.956.815-2.274 1.435-3.954 1.435-3.295 0-5.075-1.989-5.075-5.054 0-3.848 3.13-5.804 7.513-5.804.494 0 1.022.065 1.516.13v-.098c0-1.858-1.022-2.282-2.603-2.282-.936 0-2.145.25-3.177.573-.474.149-.973-.143-1.077-.624l-.566-2.619c-.091-.42.153-.838.565-.973 1.672-.55 3.544-.922 5.441-.922 4.449 0 6.821 2.576 6.821 7.076v9.434c0 .463-.379.838-.847.838h-3.711zM227.122 26.589l-1.545 5.038c-.108.353-.437.594-.81.594h-4.846c-.37 0-.697-.238-.807-.587l-6.488-20.499c-.171-.539.236-1.088.807-1.088h4.238c.379 0 .711.249.814.61l3.584 12.517c.231.805 1.38.815 1.625.014l1.759-5.762c.048-.155.048-.321.002-.477l-1.722-5.83c-.158-.536.248-1.073.813-1.073h4.306c.388 0 .727.261.821.634l2.842 11.199c.212.836 1.408.848 1.637.016l3.098-11.232c.1-.365.435-.618.817-.618h4.295c.572 0 .98.549.808 1.089l-6.519 20.499c-.111.349-.438.586-.807.586h-4.866c-.379 0-.713-.25-.815-.612l-1.417-5.003c-.228-.807-1.379-.819-1.625-.017" fill="#231F20"/><path d="M250.473 28.537c.752 0 1.381-.242 1.808-.568.198-.151.301-.394.301-.641v-1.469c0-.447-.354-.818-.805-.838l-.316-.007c-1.549 0-2.636.652-2.636 1.892 0 1.141.692 1.63 1.648 1.63zm2.955 3.685c-.468 0-.847-.375-.847-.838v-.271c-.956.815-2.274 1.435-3.954 1.435-3.295 0-5.075-1.989-5.075-5.054 0-3.848 3.13-5.804 7.513-5.804.494 0 1.022.065 1.516.13v-.097c0-1.859-1.022-2.283-2.603-2.283-.936 0-2.145.25-3.177.573-.474.149-.973-.142-1.077-.624l-.566-2.619c-.091-.42.154-.838.565-.973 1.672-.549 3.544-.922 5.441-.922 4.449 0 6.821 2.576 6.821 7.076v9.434c0 .463-.379.838-.847.838h-3.711zM272.905 32.222c-.468 0-.847-.375-.847-.838v-8.717c0-1.858-.659-2.641-2.076-2.641-1.127 0-1.945.753-2.374 1.511-.068.12-.097.256-.097.394v9.453c0 .463-.379.838-.847.838h-3.842c-.468 0-.847-.375-.847-.838v-15.379c0-.463.379-.838.847-.838h4.248c.244 0 .441.195.441.437v.196c0 .36.414.564.704.346 1.031-.777 2.495-1.272 4.041-1.272 3.757 0 5.371 2.478 5.371 6.62v9.891c0 .463-.379.838-.847.838h-3.876zM289.26 27.689c.694 0 1.366-.3 1.842-.673.195-.153.3-.394.3-.64v-5.3c0-.243-.101-.48-.292-.633-.459-.371-1.133-.71-1.851-.71-1.746 0-2.735 1.5-2.735 4.011 0 2.446 1.021 3.946 2.735 3.946m6.864 4.533h-4.281c-.244 0-.441-.196-.441-.437 0-.364-.425-.569-.711-.34-.85.681-1.937 1.102-3.276 1.102-3.921 0-6.557-3.13-6.557-8.87 0-5.739 2.636-8.804 6.557-8.804 1.029 0 1.934.269 2.7.701.574.324 1.287-.06 1.287-.714v-4.955c0-.463.379-.838.847-.838h3.876c.468 0 .847.375.847.838v21.477c0 .463-.379.838-.847.838" fill="#231F20"/><path d="M309.376 21.656c.419 0 .775-.329.777-.743v-.007c0-1.304-.791-1.956-1.977-1.956-1.173 0-1.892.673-2.191 1.761-.131.478.256.945.757.945h2.634zm-2.842 3.391c-.495 0-.879.456-.76.932.331 1.325 1.26 2.264 3.094 2.264 1.192 0 2.267-.445 3.119-.976.388-.242.901-.093 1.103.315l1.227 2.471c.171.344.059.76-.259.978-1.505 1.03-3.515 1.647-5.916 1.647-5.338 0-7.875-3.783-7.875-8.935 0-5.218 3.097-9.033 7.809-9.033 4.679 0 6.623 2.967 6.623 6.946 0 .931-.082 1.944-.249 2.779-.071.358-.393.612-.763.612h-7.154zM117.475 44.325h1.245c.573 0 1.019-.127 1.336-.381.316-.254.475-.649.475-1.187 0-.493-.124-.877-.374-1.153-.249-.276-.701-.414-1.358-.414h-1.324v3.135zm-.724-3.74h2.41c.687 0 1.207.176 1.562.526.354.351.532.843.532 1.478 0 .239-.026.47-.079.694-.053.224-.136.426-.249.605-.114.179-.262.332-.447.459s-.413.217-.685.269v.022c.505.045.858.215 1.058.509.199.295.307.755.322 1.383l.023.873c.007.217.03.428.068.633.038.206.128.386.272.543h-.849c-.083-.141-.138-.309-.164-.504-.026-.194-.043-.399-.051-.616l-.022-.672c-.015-.351-.045-.646-.091-.885-.045-.239-.126-.431-.243-.577-.117-.146-.277-.248-.481-.308-.204-.06-.468-.09-.792-.09h-1.369v3.65h-.724v-7.994zM126.596 45.075c-.015-.739-.128-1.26-.339-1.562-.211-.302-.525-.453-.94-.453-.422 0-.739.151-.95.453-.211.302-.321.823-.328 1.562h2.558zm.668 1.534c-.053.635-.248 1.144-.583 1.529-.336.385-.787.577-1.352.577-.317 0-.6-.058-.849-.174-.249-.116-.46-.297-.634-.543-.174-.247-.305-.567-.396-.963-.091-.396-.136-.874-.136-1.433 0-1.045.179-1.823.537-2.335.358-.511.869-.767 1.534-.767.664 0 1.152.233 1.465.7.313.467.47 1.196.47 2.189v.247h-3.282v.28c0 .426.036.782.108 1.07.071.288.165.519.283.694.117.176.253.299.407.37.155.071.315.106.481.106.732 0 1.155-.515 1.268-1.545h.679zM132.266 45.221h-.022c-.038.105-.134.187-.289.246l-.436.146-.566.146c-.339.089-.596.228-.77.414-.173.186-.26.459-.26.817 0 .358.085.642.255.851.17.209.402.314.696.314.414 0 .75-.146 1.007-.437.256-.291.385-.705.385-1.243v-1.254zm-2.874-.817c0-.612.149-1.083.447-1.411.298-.328.768-.493 1.409-.493.619 0 1.057.146 1.313.437.256.291.385.672.385 1.142v3.516c0 .329.117.493.351.493h.193v.493c-.128.045-.234.068-.317.068-.264 0-.475-.047-.634-.14-.158-.094-.237-.293-.237-.599v-.202h-.023c-.068.194-.155.357-.26.487-.106.131-.227.235-.362.314-.136.078-.283.132-.441.162-.158.03-.321.045-.487.045-.528 0-.915-.151-1.16-.453-.245-.302-.368-.711-.368-1.226 0-.403.095-.749.283-1.036.188-.287.498-.491.928-.61l1.279-.358.295-.101c.075-.037.134-.09.176-.157.041-.067.069-.155.085-.263.015-.108.022-.248.022-.42 0-.381-.094-.648-.283-.801-.189-.153-.441-.229-.758-.229-.408 0-.702.115-.883.347-.181.232-.272.563-.272.997h-.679zM135.944 45.601c0 .552.036.996.108 1.332.071.336.17.593.294.772.124.179.264.299.419.358.155.06.318.09.492.09s.34-.03.498-.09c.159-.06.298-.179.419-.358.12-.179.217-.437.289-.772.072-.336.107-.78.107-1.332 0-.545-.036-.985-.107-1.321-.072-.336-.168-.593-.289-.772-.12-.179-.26-.299-.419-.358-.158-.06-.324-.09-.498-.09s-.337.03-.492.09c-.155.06-.295.179-.419.358s-.223.437-.294.772c-.072.336-.108.777-.108 1.321zm2.694 1.993h-.022c-.091.343-.268.616-.532.817-.264.202-.577.302-.94.302-.664 0-1.15-.258-1.46-.772-.309-.515-.464-1.295-.464-2.34 0-1.038.155-1.814.464-2.329.31-.515.796-.772 1.46-.772.385 0 .696.094.934.28.237.187.394.437.47.75h.022v-2.945h.679v7.994h-.611v-.985zM141.67 48.58h.679v-5.946h-.679v5.946zm0-6.853h.679v-1.142h-.679v1.142zM144.839 42.634h.611v.828h.023c.173-.336.394-.58.662-.733.268-.153.56-.23.877-.23.46 0 .832.125 1.115.375.283.25.424.655.424 1.215v4.49h-.679v-4.299c0-.814-.343-1.221-1.03-1.221-.408 0-.73.136-.967.409-.238.273-.357.644-.357 1.114v3.997h-.679v-5.946zM151.47 45.534c0 .478.028.875.085 1.193.057.317.139.571.249.761.109.191.243.327.402.409.158.082.339.124.543.124.204 0 .385-.041.543-.124.158-.082.292-.218.402-.409.109-.19.192-.444.249-.761.057-.317.085-.714.085-1.193 0-.47-.029-.864-.085-1.181-.057-.317-.139-.571-.249-.761-.11-.191-.243-.327-.402-.409-.158-.082-.339-.123-.543-.123-.204 0-.385.041-.543.123-.158.082-.293.219-.402.409-.11.19-.192.444-.249.761-.057.317-.085.711-.085 1.181zm2.626-2.9h.611v5.52c0 .836-.157 1.459-.47 1.87-.313.411-.813.616-1.499.616-.589 0-1.032-.137-1.33-.409-.298-.273-.451-.621-.458-1.047h.679c0 .284.113.504.339.661.227.157.491.235.792.235.845 0 1.268-.541 1.268-1.623v-.941h-.023c-.106.366-.287.634-.543.806-.256.172-.543.258-.86.258-.234 0-.462-.043-.685-.129-.223-.085-.421-.241-.594-.465-.174-.224-.314-.528-.419-.913-.106-.384-.158-.875-.158-1.472 0-1.038.155-1.814.464-2.329.31-.515.796-.773 1.46-.773.34 0 .632.092.877.275.245.183.421.442.526.778h.023v-.918zM161.248 43.194h-.826v-.56h.826v-.706c0-.202.015-.39.045-.565.03-.176.09-.329.181-.459.091-.131.222-.232.396-.302.174-.071.404-.106.69-.106l.249.005.181.028v.56c-.106-.023-.215-.034-.328-.034-.249 0-.434.06-.554.179-.121.12-.181.351-.181.694v.706h1.063v.56h-1.063v5.386h-.679v-5.386zM165.311 45.601c0 .478.034.879.102 1.204.068.325.162.588.283.789.12.202.262.345.424.431.162.086.341.129.537.129.188 0 .366-.043.532-.129.166-.085.309-.229.43-.431.12-.202.215-.465.283-.789.068-.325.102-.726.102-1.204 0-.47-.034-.868-.102-1.193-.068-.325-.162-.588-.283-.789-.121-.202-.264-.345-.43-.431-.166-.086-.344-.129-.532-.129-.197 0-.375.043-.537.129-.162.086-.304.23-.424.431-.121.202-.216.465-.283.789-.068.325-.102.722-.102 1.193m-.724 0c0-1.045.179-1.823.537-2.335.358-.511.869-.767 1.534-.767.664 0 1.175.256 1.534.767.358.511.537 1.29.537 2.335 0 1.053-.179 1.834-.537 2.346-.358.511-.869.767-1.534.767-.664 0-1.175-.256-1.534-.767-.358-.511-.537-1.293-.537-2.346" fill="#231F20"/><path d="M170.856 42.634h.679v.929h.022c.128-.336.323-.597.583-.784.26-.186.572-.28.934-.28l.238.034v.672l-.329-.034c-.188 0-.37.034-.543.101-.174.067-.328.172-.464.314-.136.142-.243.317-.322.526-.079.209-.119.459-.119.75v3.718h-.679v-5.946zM179.027 40.585h1.256l1.947 7.099h.022l1.947-7.099h1.188v7.994h-.724v-7.322h-.022l-2.094 7.322h-.679l-2.093-7.322h-.023v7.322h-.724zM190.91 45.075c-.015-.739-.129-1.26-.339-1.562-.212-.302-.525-.453-.94-.453-.422 0-.739.151-.95.453-.212.302-.321.823-.329 1.562h2.558zm.668 1.534c-.053.635-.247 1.144-.583 1.529-.336.385-.787.577-1.353.577-.317 0-.6-.058-.848-.174-.249-.116-.46-.297-.634-.543-.174-.247-.306-.567-.396-.963-.091-.396-.136-.874-.136-1.433 0-1.045.179-1.823.538-2.335.358-.511.869-.767 1.534-.767.664 0 1.152.233 1.465.7.313.467.47 1.196.47 2.189v.247h-3.282v.28c0 .426.036.782.108 1.07.072.288.166.519.283.694.117.176.253.299.408.37.155.071.315.106.481.106.732 0 1.155-.515 1.268-1.545h.679zM196.579 45.221h-.022c-.038.105-.134.187-.289.246l-.436.146-.566.146c-.34.089-.596.228-.77.414-.173.186-.26.459-.26.817 0 .358.085.642.255.851.17.209.402.314.696.314.415 0 .751-.146 1.007-.437.256-.291.385-.705.385-1.243v-1.254zm-2.874-.817c0-.612.149-1.083.447-1.411.298-.328.768-.493 1.409-.493.619 0 1.056.146 1.313.437.256.291.385.672.385 1.142v3.516c0 .329.117.493.351.493h.192v.493c-.128.045-.234.068-.317.068-.264 0-.475-.047-.633-.14-.158-.094-.237-.293-.237-.599v-.202h-.023c-.068.194-.155.357-.26.487-.106.131-.226.235-.362.314-.136.078-.283.132-.442.162-.158.03-.32.045-.487.045-.528 0-.915-.151-1.16-.453-.246-.302-.368-.711-.368-1.226 0-.403.095-.749.283-1.036.188-.287.498-.491.928-.61l1.279-.358.294-.101c.076-.037.134-.09.176-.157.041-.067.07-.155.085-.263.015-.108.022-.248.022-.42 0-.381-.095-.648-.283-.801-.188-.153-.441-.229-.758-.229-.408 0-.702.115-.883.347-.181.232-.271.563-.271.997h-.679zM199.782 42.634h.611v.828h.023c.174-.336.394-.58.662-.733.268-.153.56-.23.877-.23.46 0 .832.125 1.115.375.283.25.424.655.424 1.215v4.49h-.679v-4.299c0-.814-.343-1.221-1.03-1.221-.408 0-.73.136-.967.409-.238.273-.356.644-.356 1.114v3.997h-.679v-5.946zM205.984 48.58h.679v-5.946h-.679v5.946zm0-6.853h.679v-1.142h-.679v1.142zM209.152 42.634h.611v.828h.023c.174-.336.394-.58.662-.733.268-.153.56-.23.877-.23.46 0 .831.125 1.114.375.283.25.425.655.425 1.215v4.49h-.679v-4.299c0-.814-.343-1.221-1.03-1.221-.408 0-.73.136-.967.409-.238.273-.356.644-.356 1.114v3.997h-.679v-5.946zM215.784 45.534c0 .478.028.875.085 1.193.057.317.139.571.249.761.109.191.243.327.401.409.158.082.34.124.544.124.203 0 .385-.041.543-.124.159-.082.293-.218.402-.409.109-.19.192-.444.249-.761.057-.317.085-.714.085-1.193 0-.47-.028-.864-.085-1.181-.057-.317-.139-.571-.249-.761-.11-.191-.243-.327-.402-.409-.158-.082-.339-.123-.543-.123-.204 0-.385.041-.544.123-.158.082-.292.219-.401.409-.11.19-.193.444-.249.761-.057.317-.085.711-.085 1.181zm2.625-2.9h.611v5.52c0 .836-.157 1.459-.47 1.87-.313.411-.813.616-1.499.616-.588 0-1.032-.137-1.33-.409-.298-.273-.451-.621-.458-1.047h.679c0 .284.113.504.339.661.226.157.491.235.792.235.845 0 1.267-.541 1.267-1.623v-.941h-.022c-.106.366-.287.634-.544.806-.256.172-.543.258-.86.258-.234 0-.462-.043-.685-.129-.223-.085-.421-.241-.594-.465-.174-.224-.313-.528-.419-.913-.105-.384-.158-.875-.158-1.472 0-1.038.155-1.814.464-2.329.31-.515.796-.773 1.46-.773.339 0 .632.092.877.275.245.183.42.442.526.778h.022v-.918z" fill="#231F20"/>
    </g>
</svg>