<svg width="100" height="100" viewBox="0 0 100 100" xmlns="http://www.w3.org/2000/svg">
    <title>Login Register Icon</title>
    <g transform="translate(0 0)" fill="none">
        <circle fill="#F7CE8C" cx="50" cy="50" r="50"/>
        <path d="M57.219 24.792c-.763-.773-1.91-1.004-2.907-.586-.997.418-1.647 1.404-1.646 2.496v13.499h-31.999c-1.473 0-2.667 1.209-2.667 2.7v16.199c0 1.491 1.194 2.7 2.667 2.7h31.999v13.499c-.001 1.093.649 2.079 1.647 2.497.997.418 2.144.186 2.907-.587l23.999-24.298c.501-.506.782-1.194.782-1.91 0-.717-.281-1.404-.782-1.91l-23.999-24.298zm.78 43.986v-9.679c0-1.491-1.194-2.7-2.667-2.7h-31.999v-10.799h31.999c1.473 0 2.667-1.209 2.667-2.7v-9.679l17.559 17.778-17.559 17.778z" fill="#69675B" fill-rule="nonzero"/>
    </g>
</svg>