<svg width="100" height="100" viewBox="0 0 100 100" xmlns="http://www.w3.org/2000/svg">
    <title>Login Help Icon</title>
    <g transform="translate(0 0)" fill="none">
        <circle fill="#F7CE8C" cx="50" cy="50" r="50"/>
        <path d="M75.778 52.438c.534-1.758.047-3.663-1.271-4.962l-26.46-25.988c-1.312-1.302-3.244-1.793-5.033-1.279-1.789.514-3.149 1.95-3.543 3.742l-3.907 17.3-9.028 8.875c-4.99 4.884-5.244 12.748-.58 17.934 4.665 5.186 12.63 5.894 18.164 1.616l8.176 8.038c2.003 1.971 4.922 2.74 7.659 2.019 2.736-.721 4.873-2.824 5.606-5.516.733-2.692-.049-5.564-2.052-7.534l-7.388-7.275 15.882-3.469c1.814-.4 3.261-1.742 3.774-3.5zm-39.801 15.063c-3.327-.011-6.322-1.985-7.598-5.007-1.277-3.022-.585-6.503 1.754-8.83l7.751-7.625 11.651 11.462-7.751 7.625c-1.536 1.522-3.627 2.377-5.807 2.375zm24.776 4.7c-.003 1.133-.697 2.154-1.762 2.587-1.064.433-2.289.194-3.105-.606l-8.056-7.931 4.028-3.962 8.062 7.925c.534.528.833 1.243.832 1.987zm-6.81-17.438l-13.278-13.056 3.812-16.694 26.403 26.044-16.937 3.706zM58.212 20c-1.403 0-2.541 1.119-2.541 2.5s1.138 2.5 2.541 2.5c7.017 0 12.706 5.596 12.706 12.5 0 1.381 1.138 2.5 2.541 2.5s2.541-1.119 2.541-2.5c0-9.665-7.964-17.5-17.788-17.5z" fill="#69675B" fill-rule="nonzero"/>
    </g>
</svg>