<svg width="100" height="100" viewBox="0 0 100 100" xmlns="http://www.w3.org/2000/svg">
    <title>Login Videos Icon</title>
    <g transform="translate(0 0)" fill="none">
        <circle fill="#F7CE8C" cx="50" cy="50" r="50"/>
        <g fill="#69675B" fill-rule="nonzero">
            <path d="M68.667 21h-37.333c-7.364 0-13.333 6.003-13.333 13.409v32.182c0 7.406 5.97 13.409 13.333 13.409h37.333c7.364 0 13.333-6.003 13.333-13.409v-32.182c0-7.406-5.97-13.409-13.333-13.409zm8 45.591c0 4.443-3.582 8.045-8 8.045h-37.333c-4.418 0-8-3.602-8-8.045v-32.182c0-4.443 3.582-8.045 8-8.045h37.333c4.418 0 8 3.602 8 8.045v32.182zM64.413 48.817l-21.333-13.409c-.822-.517-1.858-.544-2.705-.072-.848.472-1.374 1.37-1.375 2.345v26.818c0 .975.525 1.874 1.373 2.347.396.219.841.334 1.293.335.5 0 .99-.142 1.413-.409l21.333-13.409c.778-.49 1.251-1.349 1.251-2.273 0-.924-.473-1.783-1.251-2.273zm-20.08 10.841v-17.137l13.633 8.568-13.633 8.568z"/>
        </g>
    </g>
</svg>