<svg width="50" height="50" viewBox="0 0 50 50" xmlns="http://www.w3.org/2000/svg">
    <title>Admin Icon</title>
    <g transform="translate(0 0)" fill="none">
        <circle fill="#D8D8D8" cx="25" cy="25" r="25"/>
        <g fill="#69675B" fill-rule="nonzero">
            <path d="M40.708 30.87h-5.167v-16.957c0-2.161-1.735-3.913-3.875-3.913h-16.792c-2.14 0-3.875 1.752-3.875 3.913v19.565c0 3.602 2.891 6.522 6.458 6.522h18.083c1.713 0 3.356-.687 4.567-1.91 1.211-1.223 1.892-2.882 1.892-4.612v-1.304c0-.72-.578-1.304-1.292-1.304zm-27.125 2.609v-19.565c0-.72.578-1.304 1.292-1.304h16.792c.713 0 1.292.584 1.292 1.304v16.957h-10.333c-.713 0-1.292.584-1.292 1.304v1.304c0 2.161-1.735 3.913-3.875 3.913-2.14 0-3.875-1.752-3.875-3.913zm21.958 3.913h-12.949c.854-1.122 1.32-2.497 1.324-3.913h15.5c0 2.161-1.735 3.913-3.875 3.913zM17.458 17.826h11.625c.713 0 1.292-.584 1.292-1.304 0-.72-.578-1.304-1.292-1.304h-11.625c-.713 0-1.292.584-1.292 1.304 0 .72.578 1.304 1.292 1.304zM17.458 23.043h11.625c.713 0 1.292-.584 1.292-1.304 0-.72-.578-1.304-1.292-1.304h-11.625c-.713 0-1.292.584-1.292 1.304 0 .72.578 1.304 1.292 1.304zM29.083 28.261c.713 0 1.292-.584 1.292-1.304 0-.72-.578-1.304-1.292-1.304h-11.625c-.713 0-1.292.584-1.292 1.304 0 .72.578 1.304 1.292 1.304h11.625z"/>
        </g>
    </g>
</svg>