<svg width="50" height="50" viewBox="0 0 50 50" xmlns="http://www.w3.org/2000/svg">
    <title>Coach Icon</title>
    <g transform="translate(0 0)" fill="none">
    <circle fill="#D8D8D8" cx="25" cy="25" r="25"/>
        <g fill="#69675B" fill-rule="nonzero">
            <path d="M39.857 22.667c0-1.473-1.18-2.667-2.636-2.667h-17.136c-.136 0-.27.022-.399.067-3.721.37-6.907 2.855-8.207 6.401-1.299 3.546-.484 7.532 2.1 10.265 1.803 2.005 4.334 3.184 7.013 3.267h.152c2.622 0 5.137-1.054 6.991-2.929 1.854-1.875 2.896-4.419 2.896-7.071v-.257l7.141-1.547c1.216-.263 2.085-1.349 2.086-2.607v-2.923zm-2.636 2.923l-8.186 1.773c-.607.132-1.041.675-1.041 1.303v1.333c.004 3.977-3.127 7.233-7.058 7.339-3.931.105-7.228-2.978-7.432-6.95-.204-3.972 2.759-7.385 6.68-7.692l.191-.03h16.846v2.923zM26.675 14.667v-5.333c0-.736-.59-1.333-1.318-1.333-.728 0-1.318.597-1.318 1.333v5.333c0 .736.59 1.333 1.318 1.333.728 0 1.318-.597 1.318-1.333zM20.084 17.333c.486 0 .933-.27 1.163-.704.23-.434.204-.96-.066-1.369l-2.636-4c-.261-.397-.712-.622-1.182-.591-.47.031-.889.313-1.097.74-.209.427-.176.935.085 1.331l2.636 4c.245.371.657.594 1.097.593zM31.727 16.74l2.636-4c.404-.613.24-1.441-.366-1.85-.606-.409-1.425-.243-1.829.37l-2.636 4c-.404.613-.24 1.441.366 1.85.606.409 1.425.243 1.829-.37zM16.13 30c0 2.577 2.066 4.667 4.614 4.667s4.614-2.089 4.614-4.667c0-2.577-2.066-4.667-4.614-4.667s-4.614 2.089-4.614 4.667zm4.614-2c1.092 0 1.977.895 1.977 2s-.885 2-1.977 2-1.977-.895-1.977-2 .885-2 1.977-2z"/>
        </g>
    </g>
</svg>