<svg width="23" height="18" viewBox="0 0 23 18" xmlns="http://www.w3.org/2000/svg">
    <title>Email Icon</title>
    <path d="M3.181 18h16.689c1.721 0 3.129-1.409 3.129-3.13v-11.478c0-1.617-1.425-3.391-3.129-3.391h-16.689c-1.735 0-3.181 1.774-3.181 3.391v11.478c.052 1.722 1.46 3.13 3.181 3.13zm4.485-9.078l-5.528 5.53v-9.913l5.528 4.383zm13.247 5.53l-5.528-5.53 5.528-4.383v9.913zm-7.145-4.226l5.659 5.687h-15.855l5.685-5.687 1.565 1.252c.209.157.417.209.678.209.261 0 .469-.052.678-.209l1.591-1.252zm-2.243-7.878h8.762l-8.762 6.991-8.762-6.991h8.762z" fill="#fff" fill-rule="nonzero"/>
</svg>