<svg width="50" height="50" viewBox="0 0 50 50" xmlns="http://www.w3.org/2000/svg">
    <title>Support Icon</title>
    <g transform="translate(0 0)" fill="none">
        <circle fill="#D8D8D8" cx="25" cy="25" r="25"/>
        <path d="M37 18.28h-1.427c-.706-5.312-5.226-9.28-10.573-9.28s-9.868 3.968-10.573 9.28h-1.427c-1.061 0-2.078.422-2.828 1.174s-1.172 1.772-1.172 2.835v4.009c0 2.214 1.791 4.009 4 4.009s4-1.795 4-4.009v-6.682c0-4.429 3.582-8.019 8-8.019s8 3.59 8 8.019v12.028c0 2.214-1.791 4.009-4 4.009h-.247c-.649-1.841-2.528-2.945-4.448-2.615-1.92.33-3.324 1.999-3.324 3.952 0 1.953 1.404 3.621 3.324 3.952 1.92.33 3.798-.774 4.448-2.615h.247c3.682 0 6.667-2.992 6.667-6.682v-1.336h1.333c2.209 0 4-1.795 4-4.009v-4.009c0-2.214-1.791-4.009-4-4.009zm-22.667 8.019c0 .738-.597 1.336-1.333 1.336s-1.333-.598-1.333-1.336v-4.009c0-.738.597-1.336 1.333-1.336h1.333v5.346zm10.667 12.028c-.736 0-1.333-.598-1.333-1.336 0-.738.597-1.336 1.333-1.336s1.333.598 1.333 1.336c0 .738-.597 1.336-1.333 1.336zm13.333-12.028c0 .738-.597 1.336-1.333 1.336h-1.333v-6.682h1.333c.736 0 1.333.598 1.333 1.336v4.009z" fill="#69675B" fill-rule="nonzero"/>
    </g>
</svg>