<svg height="50" width="50" viewBox="0 0 70 70" fill="#d8d8d8" width="70" xmlns="http://www.w3.org/2000/svg">
    <title>Continue Learning Icon</title>
    <g fill-rule="evenodd">
        <circle fill="#F7CE8C" cx="35" cy="35" r="35"/>
        <path d="M45.364 14h-3.455c-4.77 0-8.636 3.918-8.636 8.75v.044c-1.486-1.158-3.307-1.788-5.182-1.794h-10.364c-.954 0-1.727.784-1.727 1.75v26.25c0 .966.773 1.75 1.727 1.75h10.364c2.353.012 4.403 1.629 4.992 3.938.197.772.884 1.312 1.671 1.313h.492c.787-.001 1.474-.54 1.671-1.313.588-2.309 2.638-3.926 4.992-3.938h10.364c.954 0 1.727-.784 1.727-1.75v-26.25c0-.966-.773-1.75-1.727-1.75h-5.182v-5.25c0-.966-.773-1.75-1.727-1.75zm-8.636 8.75c0-2.899 2.32-5.25 5.182-5.25h1.727v22.75h-1.727c-1.875.006-3.696.636-5.182 1.794zm-8.636 24.5h-8.636v-22.75h8.636c2.862 0 5.182 2.351 5.182 5.25v19.281c-1.489-1.152-3.309-1.777-5.182-1.781zm22.455-22.75v22.75h-8.636c-1.873.003-3.694.628-5.182 1.781v-.031c0-2.899 2.32-5.25 5.182-5.25h3.455c.954 0 1.727-.784 1.727-1.75v-17.5z" fill="#69675b" fill-rule="nonzero"/>
    </g>
</svg>