<svg width="50" height="50" viewBox="0 0 50 50" xmlns="http://www.w3.org/2000/svg"><title>9DF283C3-F7F0-4202-8178-678F86AB4F5D</title><desc>Created with sketchtool.</desc><g transform="translate(0 0)" fill="none"><circle fill="#F7CE8C" cx="25" cy="25" r="25"/><path d="M36.5 10h-20c-2.761 0-5 2.239-5 5v1.25h-1.25c-.69 0-1.25.56-1.25 1.25s.56 1.25 1.25 1.25h1.25v5h-1.25c-.69 0-1.25.56-1.25 1.25s.56 1.25 1.25 1.25h1.25v5h-1.25c-.69 0-1.25.56-1.25 1.25s.56 1.25 1.25 1.25h1.25v1.25c0 2.761 2.239 5 5 5h20c1.381 0 2.5-1.119 2.5-2.5v-25c0-1.381-1.119-2.5-2.5-2.5zm0 27.5h-20c-1.381 0-2.5-1.119-2.5-2.5v-1.25h1.25c.69 0 1.25-.56 1.25-1.25s-.56-1.25-1.25-1.25h-1.25v-5h1.25c.69 0 1.25-.56 1.25-1.25s-.56-1.25-1.25-1.25h-1.25v-5h1.25c.69 0 1.25-.56 1.25-1.25s-.56-1.25-1.25-1.25h-1.25v-1.25c0-1.381 1.119-2.5 2.5-2.5h20v25zM20.25 33.75c.69 0 1.25-.56 1.25-1.25v-1.25c0-2.761 2.239-5 5-5s5 2.239 5 5v1.25c0 .69.56 1.25 1.25 1.25s1.25-.56 1.25-1.25v-1.25c-.003-2.732-1.491-5.246-3.884-6.563 1.887-1.975 1.839-5.099-.107-7.016-1.946-1.917-5.071-1.917-7.017 0-1.946 1.917-1.994 5.041-.107 7.016-2.393 1.317-3.881 3.831-3.884 6.563v1.25c0 .69.56 1.25 1.25 1.25zm3.75-12.5c0-1.381 1.119-2.5 2.5-2.5s2.5 1.119 2.5 2.5-1.119 2.5-2.5 2.5-2.5-1.119-2.5-2.5z" fill="#69675B" fill-rule="nonzero"/></g></svg>