<svg width="50" height="50" viewBox="0 0 50 50" xmlns="http://www.w3.org/2000/svg">
    <title>Course Menu Icon</title>
    <g transform="translate(0 0)" fill="none">
        <circle fill="#F7CE8C" cx="25" cy="25" r="25"/>
        <path d="M37.823 13.7h1.843c.736 0 1.333-.604 1.333-1.35 0-.746-.597-1.35-1.333-1.35h-25.332c-2.224-.01-4.219 1.384-4.998 3.493-.779 2.109-.177 4.487 1.508 5.957-1.17 1.012-1.844 2.492-1.844 4.05 0 1.558.674 3.038 1.844 4.05-1.685 1.47-2.287 3.847-1.508 5.957.779 2.109 2.774 3.504 4.998 3.493h25.332c.736 0 1.333-.604 1.333-1.35 0-.746-.597-1.35-1.333-1.35h-1.843l-.367-.746c-.609-1.23-.609-2.678 0-3.908l.367-.746h1.843c.736 0 1.333-.604 1.333-1.35 0-.746-.597-1.35-1.333-1.35h-1.843l-.367-.746c-.609-1.23-.609-2.678 0-3.908l.367-.746h1.843c.736 0 1.333-.604 1.333-1.35 0-.746-.597-1.35-1.333-1.35h-1.843l-.367-.746c-.609-1.23-.609-2.678 0-3.908l.367-.746zm-26.155 10.8c0-1.491 1.194-2.7 2.667-2.7h4v5.4h-4c-1.473 0-2.667-1.209-2.667-2.7zm2.667 10.8c-1.473 0-2.667-1.209-2.667-2.7s1.194-2.7 2.667-2.7h4v1.35c0 .498.27.956.704 1.191.434.235.96.209 1.369-.067l3.26-2.2 3.26 2.2c.409.276.936.302 1.369.067.434-.235.704-.693.704-1.191v-1.35h5.876c-.724 1.725-.724 3.675 0 5.4h-20.542zm11.999-6.571l-1.927-1.303c-.448-.303-1.032-.303-1.48 0l-1.927 1.303v-9.629h5.333v9.629zm2.667-1.529v-5.4h5.876c-.724 1.725-.724 3.675 0 5.4h-5.876zm0-8.1v-1.35c0-.746-.597-1.35-1.333-1.35h-8c-.736 0-1.333.604-1.333 1.35v1.35h-4c-1.473 0-2.667-1.209-2.667-2.7s1.194-2.7 2.667-2.7h20.542c-.724 1.725-.724 3.675 0 5.4h-5.876z" fill="#69675B" fill-rule="nonzero"/>
    </g>
</svg>