<svg width="50" height="50" viewBox="0 0 50 50" xmlns="http://www.w3.org/2000/svg"><title>776121F2-5CFE-4B0A-8326-CA34C1A9E445</title><desc>Created with sketchtool.</desc><g transform="translate(0 0)" fill="none"><circle fill="#F7CE8C" cx="25" cy="25" r="25"/><g fill="#69675B" fill-rule="nonzero"><path d="M38.75 12h-27.5c-.69 0-1.25.56-1.25 1.25s.56 1.25 1.25 1.25h1.25v13.75c0 2.071 1.679 3.75 3.75 3.75h5.731l-5.366 5.366c-.488.488-.488 1.28 0 1.769.488.488 1.28.488 1.769 0l5.366-5.366v6.981c0 .69.56 1.25 1.25 1.25s1.25-.56 1.25-1.25v-6.981l5.366 5.366c.316.316.776.439 1.208.324.432-.116.769-.453.884-.884.116-.432-.008-.892-.324-1.208l-5.366-5.366h5.731c2.071 0 3.75-1.679 3.75-3.75v-13.75h1.25c.69 0 1.25-.56 1.25-1.25s-.56-1.25-1.25-1.25zm-3.75 16.25c0 .69-.56 1.25-1.25 1.25h-17.5c-.69 0-1.25-.56-1.25-1.25v-13.75h20v13.75zM20 27c.69 0 1.25-.56 1.25-1.25v-3.75c0-.69-.56-1.25-1.25-1.25s-1.25.56-1.25 1.25v3.75c0 .69.56 1.25 1.25 1.25zM25 27c.69 0 1.25-.56 1.25-1.25v-7.5c0-.69-.56-1.25-1.25-1.25s-1.25.56-1.25 1.25v7.5c0 .69.56 1.25 1.25 1.25zM30 27c.69 0 1.25-.56 1.25-1.25v-5c0-.69-.56-1.25-1.25-1.25s-1.25.56-1.25 1.25v5c0 .69.56 1.25 1.25 1.25z"/></g></g></svg>