<?xml version="1.0" encoding="UTF-8"?>
<svg width="50px" height="50px" viewBox="0 0 50 50" version="1.1" xmlns="http://www.w3.org/2000/svg" xmlns:xlink="http://www.w3.org/1999/xlink">
    <!-- Generator: sketchtool 51.3 (57544) - http://www.bohemiancoding.com/sketch -->
    <title>776121F2-5CFE-4B0A-8326-CA34C1A9E445</title>
    <desc>Created with sketchtool.</desc>
    <defs></defs>
    <g id="5.-Menus-&amp;-Policies" stroke="none" stroke-width="1" fill="none" fill-rule="evenodd">
        <g id="Open-Menu-Coach-Example-[FW2MENU002---Tablet]" transform="translate(-26.000000, -104.000000)">
            <g id="Navbar-Open-Menu" transform="translate(0.000000, -1.000000)">
                <g id="Go-to-Dashboard" transform="translate(26.000000, 105.000000)">
                    <g id="Go-to-dash-menu-icon">
                        <circle id="Oval-Copy-3" fill="#F7CE8C" cx="25" cy="25" r="25"></circle>
                        <g id="flipchart" transform="translate(10.000000, 12.000000)" fill="#69675B" fill-rule="nonzero">
                            <path d="M28.75,0 L1.25,0 C0.559644063,-6.9388939e-17 1.38777878e-16,0.559644063 0,1.25 C-6.9388939e-17,1.94035594 0.559644063,2.5 1.25,2.5 L2.5,2.5 L2.5,16.25 C2.5,18.3210678 4.17893219,20 6.25,20 L11.98125,20 L6.615625,25.365625 C6.12719817,25.8540518 6.12719817,26.6459482 6.615625,27.134375 C7.10405183,27.6228018 7.89594817,27.6228018 8.384375,27.134375 L13.75,21.76875 L13.75,28.75 C13.75,29.4403559 14.3096441,30 15,30 C15.6903559,30 16.25,29.4403559 16.25,28.75 L16.25,21.76875 L21.615625,27.134375 C21.9315818,27.4503318 22.3920988,27.5737269 22.8237037,27.4580787 C23.2553087,27.3424305 23.5924305,27.0053087 23.7080787,26.5737037 C23.8237269,26.1420988 23.7003318,25.6815818 23.384375,25.365625 L18.01875,20 L23.75,20 C25.8210678,20 27.5,18.3210678 27.5,16.25 L27.5,2.5 L28.75,2.5 C29.4403559,2.5 30,1.94035594 30,1.25 C30,0.559644063 29.4403559,0 28.75,0 Z M25,16.25 C25,16.9403559 24.4403559,17.5 23.75,17.5 L6.25,17.5 C5.55964406,17.5 5,16.9403559 5,16.25 L5,2.5 L25,2.5 L25,16.25 Z" id="Shape"></path>
                            <path d="M10,15 C10.6903559,15 11.25,14.4403559 11.25,13.75 L11.25,10 C11.25,9.30964406 10.6903559,8.75 10,8.75 C9.30964406,8.75 8.75,9.30964406 8.75,10 L8.75,13.75 C8.75,14.4403559 9.30964406,15 10,15 Z" id="Shape"></path>
                            <path d="M15,15 C15.6903559,15 16.25,14.4403559 16.25,13.75 L16.25,6.25 C16.25,5.55964406 15.6903559,5 15,5 C14.3096441,5 13.75,5.55964406 13.75,6.25 L13.75,13.75 C13.75,14.4403559 14.3096441,15 15,15 Z" id="Shape"></path>
                            <path d="M20,15 C20.6903559,15 21.25,14.4403559 21.25,13.75 L21.25,8.75 C21.25,8.05964406 20.6903559,7.5 20,7.5 C19.3096441,7.5 18.75,8.05964406 18.75,8.75 L18.75,13.75 C18.75,14.4403559 19.3096441,15 20,15 Z" id="Shape"></path>
                        </g>
                    </g>
                </g>
            </g>
        </g>
    </g>
</svg>