<svg height="50" viewBox="0 0 50 50" width="50" xmlns="http://www.w3.org/2000/svg"><g fill="none"><circle cx="25" cy="25" fill="#f7ce8c" r="25"/><path d="M37.013 19.56c-.483-.42-1.269-.36-1.692.12-.362.42-.362 1.14 0 1.56l1.571 1.56h-5.558c-.665 0-1.208.54-1.208 1.2s.544 1.2 1.208 1.2h5.558l-1.571 1.56c-.483.42-.544 1.2-.121 1.68s1.208.54 1.692.12l.121-.12 3.625-3.6c.483-.48.483-1.2 0-1.68zm-25.013 12.54c0 2.1 1.269 4.02 3.142 4.86l10.815 4.92c.181.06.302.12.483.12.665 0 1.208-.54 1.208-1.2v-4.8h1.208c1.994 0 3.625-1.62 3.625-3.6v-2.4c0-.66-.544-1.2-1.208-1.2-.665 0-1.208.54-1.208 1.2v2.4c0 .66-.544 1.2-1.208 1.2h-1.208v-14.4c0-.48-.302-.9-.725-1.08l-8.156-3.72h10.15c.665 0 1.208.54 1.208 1.2v2.4c0 .66.544 1.2 1.208 1.2.665 0 1.208-.54 1.208-1.2v-2.4c0-1.98-1.631-3.6-3.625-3.6h-13.292c-1.994 0-3.625 1.62-3.625 3.6zm2.417-16.5c0-.18.06-.36.121-.48l10.754 4.86v18.96l-9.123-4.14c-1.027-.48-1.752-1.5-1.752-2.7z" fill="#69675b"/></g></svg>