<svg width="50" height="50" viewBox="0 0 50 50" xmlns="http://www.w3.org/2000/svg"><title>1E0FFADD-2FEB-49FA-A3EB-002AD8AA9CB5</title><desc>Created with sketchtool.</desc><g transform="translate(0 0)" fill="none"><circle fill="#F7CE8C" cx="25" cy="25" r="25"/><path d="M25 9c-5.253-.008-10.109 2.755-12.735 7.245-2.625 4.49-2.618 10.022.018 14.505l-1.913 5.658c-.147.434-.032.913.296 1.237.328.324.813.437 1.253.292l5.734-1.888c5.349 3.056 12.065 2.482 16.802-1.437 4.737-3.919 6.482-10.344 4.366-16.075-2.116-5.731-7.64-9.543-13.822-9.537zm0 26.583c-2.315-.001-4.582-.653-6.536-1.879-.196-.122-.423-.187-.655-.187-.131 0-.262.022-.386.063l-3.958 1.302 1.319-3.906c.116-.344.07-.721-.126-1.027-2.983-4.663-2.388-10.728 1.447-14.74 3.834-4.012 9.934-4.953 14.827-2.288 4.892 2.665 7.335 8.261 5.937 13.6-1.398 5.339-6.281 9.067-11.87 9.061z" fill="#69675B" fill-rule="nonzero"/><ellipse id="Oval" fill="#69675B" fill-rule="nonzero" cx="25" cy="23.5" rx="1.224" ry="1.208"/><ellipse id="Oval" fill="#69675B" fill-rule="nonzero" cx="20.102" cy="23.5" rx="1.224" ry="1.208"/><ellipse fill="#69675B" fill-rule="nonzero" cx="29.898" cy="23.5" rx="1.224" ry="1.208"/></g></svg>