<?xml version="1.0" encoding="UTF-8"?>
<svg width="50px" height="50px" viewBox="0 0 50 50" version="1.1" xmlns="http://www.w3.org/2000/svg" xmlns:xlink="http://www.w3.org/1999/xlink">
    <!-- Generator: sketchtool 51.3 (57544) - http://www.bohemiancoding.com/sketch -->
    <title>1E0FFADD-2FEB-49FA-A3EB-002AD8AA9CB5</title>
    <desc>Created with sketchtool.</desc>
    <defs></defs>
    <g id="5.-Menus-&amp;-Policies" stroke="none" stroke-width="1" fill="none" fill-rule="evenodd">
        <g id="Open-Menu-Coach-Example-[FW2MENU002---Tablet]" transform="translate(-26.000000, -335.000000)">
            <g id="Navbar-Open-Menu" transform="translate(0.000000, -1.000000)">
                <g id="View-Messages" transform="translate(26.000000, 336.000000)">
                    <g id="Messages-menu-icon">
                        <circle id="Oval-Copy-3" fill="#F7CE8C" cx="25" cy="25" r="25"></circle>
                        <path d="M25,9 C19.7471662,8.99190489 14.8905186,11.754879 12.2654834,16.2447381 C9.64044831,20.7345972 9.64738556,26.2665658 12.2836735,30.75 L10.3704082,36.4080208 C10.2236594,36.8422547 10.3381599,37.3210373 10.6661617,37.6447113 C10.9941634,37.9683853 11.4793478,38.081375 11.9193878,37.9365625 L17.6530612,36.0485417 C23.0025096,39.1048544 29.7183119,38.530641 34.4553271,34.6119172 C39.1923422,30.6931934 40.9375633,24.267975 38.8216957,18.5366635 C36.7058282,12.8053519 31.1813484,8.99358345 25,9 Z M25,35.5833333 C22.6848627,35.581858 20.4179733,34.9301479 18.4642857,33.704375 C18.2683003,33.5819803 18.0411191,33.5170299 17.8091837,33.5170833 C17.6779622,33.517276 17.5476612,33.5387063 17.4234694,33.5805208 L13.4653061,34.8825 L14.7846939,30.9765625 C14.9009992,30.6329454 14.8549317,30.2559628 14.6591837,29.9494792 C11.6764211,25.2861096 12.2715817,19.2215693 16.1057172,15.2096575 C19.9398528,11.1977456 26.0401019,10.2564319 30.9323291,12.9218012 C35.8245564,15.5871706 38.2674235,21.1829206 36.8697002,26.5222317 C35.471977,31.8615427 30.5883172,35.589635 25,35.5833333 Z" id="Shape" fill="#69675B" fill-rule="nonzero"></path>
                        <ellipse id="Oval" fill="#69675B" fill-rule="nonzero" cx="25" cy="23.5" rx="1.2244898" ry="1.20833333"></ellipse>
                        <ellipse id="Oval" fill="#69675B" fill-rule="nonzero" cx="20.1020408" cy="23.5" rx="1.2244898" ry="1.20833333"></ellipse>
                        <ellipse id="Oval" fill="#69675B" fill-rule="nonzero" cx="29.8979592" cy="23.5" rx="1.2244898" ry="1.20833333"></ellipse>
                    </g>
                </g>
            </g>
        </g>
    </g>
</svg>