<?xml version="1.0" encoding="UTF-8"?>
<svg width="50px" height="50px" viewBox="0 0 50 50" version="1.1" xmlns="http://www.w3.org/2000/svg" xmlns:xlink="http://www.w3.org/1999/xlink">
    <!-- Generator: sketchtool 51.3 (57544) - http://www.bohemiancoding.com/sketch -->
    <title>B682FE5A-6C43-4037-98B5-47FB3A1CBA54</title>
    <desc>Created with sketchtool.</desc>
    <defs></defs>
    <g id="5.-Menus-&amp;-Policies" stroke="none" stroke-width="1" fill="none" fill-rule="evenodd">
        <g id="Open-Menu-Coach-Example-[FW2MENU002---Tablet]" transform="translate(-26.000000, -181.000000)">
            <g id="Navbar-Open-Menu" transform="translate(0.000000, -1.000000)">
                <g id="Go-to-Modules" transform="translate(26.000000, 182.000000)">
                    <g id="Modules-Menu-icon">
                        <circle id="Oval-Copy-3" fill="#F7CE8C" cx="25" cy="25" r="25"></circle>
                        <path d="M37.8234922,13.7000468 L39.6667333,13.7000468 C40.4030762,13.7000468 41,13.0956339 41,12.3500527 C41,11.6044715 40.4030762,11.0000585 39.6667333,11.0000585 L14.3346667,11.0000585 C12.1104953,10.9895902 10.1155866,12.3838704 9.33657674,14.4933202 C8.55756683,16.60277 9.15956677,18.9802916 10.8448413,20.4500176 C9.67462149,21.4618604 9.00072035,22.9418544 9.00072035,24.5 C9.00072035,26.0581456 9.67462149,27.5381396 10.8448413,28.5499824 C9.15956677,30.0197084 8.55756683,32.39723 9.33657674,34.5066798 C10.1155866,36.6161296 12.1104953,38.0104098 14.3346667,37.9999415 L39.6667333,37.9999415 C40.4030762,37.9999415 41,37.3955285 41,36.6499473 C41,35.9043661 40.4030762,35.2999532 39.6667333,35.2999532 L37.8234922,35.2999532 L37.4568438,34.5540814 C36.8479816,33.3242742 36.8479816,31.8756556 37.4568438,30.6458483 L37.8234922,29.8999766 L39.6667333,29.8999766 C40.4030762,29.8999766 41,29.2955636 41,28.5499824 C41,27.8044013 40.4030762,27.1999883 39.6667333,27.1999883 L37.8234922,27.1999883 L37.4568438,26.4541165 C36.8479816,25.2243093 36.8479816,23.7756907 37.4568438,22.5458835 L37.8234922,21.8000117 L39.6667333,21.8000117 C40.4030762,21.8000117 41,21.1955987 41,20.4500176 C41,19.7044364 40.4030762,19.1000234 39.6667333,19.1000234 L37.8234922,19.1000234 L37.4568438,18.3541517 C36.8479816,17.1243444 36.8479816,15.6757258 37.4568438,14.4459186 L37.8234922,13.7000468 Z M11.6681334,24.5 C11.6681334,23.0088376 12.8619811,21.8000117 14.3346667,21.8000117 L18.3344667,21.8000117 L18.3344667,27.1999883 L14.3346667,27.1999883 C12.8619811,27.1999883 11.6681334,25.9911624 11.6681334,24.5 Z M14.3346667,35.2999532 C12.8619811,35.2999532 11.6681334,34.0911272 11.6681334,32.5999649 C11.6681334,31.1088025 12.8619811,29.8999766 14.3346667,29.8999766 L18.3344667,29.8999766 L18.3344667,31.2499707 C18.3341471,31.7480869 18.6047495,32.2059078 19.0384507,32.4410114 C19.4721519,32.676115 19.9984725,32.6502955 20.4076964,32.3738409 L23.6675334,30.1733504 L26.9273704,32.3738409 C27.3365943,32.6502955 27.8629149,32.676115 28.2966161,32.4410114 C28.7303172,32.2059078 29.0009197,31.7480869 29.0006,31.2499707 L29.0006,29.8999766 L34.8769729,29.8999766 C34.1526839,31.6252684 34.1526839,33.5746614 34.8769729,35.2999532 L14.3346667,35.2999532 Z M26.3340667,28.7288567 L24.4074964,27.4261123 C23.9594696,27.1234442 23.3755971,27.1234442 22.9275704,27.4261123 L21.0010001,28.7288567 L21.0010001,19.1000234 L26.3340667,19.1000234 L26.3340667,28.7288567 Z M29.0006,27.1999883 L29.0006,21.8000117 L34.8769729,21.8000117 C34.1526839,23.5253035 34.1526839,25.4746965 34.8769729,27.1999883 L29.0006,27.1999883 Z M29.0006,19.1000234 L29.0006,17.7500293 C29.0006,17.0044481 28.4036762,16.4000351 27.6673334,16.4000351 L19.6677334,16.4000351 C18.9313905,16.4000351 18.3344667,17.0044481 18.3344667,17.7500293 L18.3344667,19.1000234 L14.3346667,19.1000234 C12.8619811,19.1000234 11.6681334,17.8911975 11.6681334,16.4000351 C11.6681334,14.9088728 12.8619811,13.7000468 14.3346667,13.7000468 L34.8769729,13.7000468 C34.1526839,15.4253386 34.1526839,17.3747316 34.8769729,19.1000234 L29.0006,19.1000234 Z" id="Shape" fill="#69675B" fill-rule="nonzero"></path>
                    </g>
                </g>
            </g>
        </g>
    </g>
</svg>