<svg width="50" height="50" viewBox="0 0 50 50" xmlns="http://www.w3.org/2000/svg">
    <title>Profile Menu Icon</title>
    <g transform="translate(0 0)" fill="none">
        <circle fill="#F7CE8C" cx="25" cy="25" r="25"/>
        <path d="M25 8c-9.389 0-17 7.611-17 17s7.611 17 17 17 17-7.611 17-17c-.01-9.385-7.615-16.99-17-17zm-7.083 29.251v-.917c0-3.912 3.171-7.083 7.083-7.083 3.912 0 7.083 3.171 7.083 7.083v.917c-4.377 2.555-9.79 2.555-14.167 0zm2.833-15.084c0-2.347 1.903-4.25 4.25-4.25s4.25 1.903 4.25 4.25-1.903 4.25-4.25 4.25-4.25-1.903-4.25-4.25zm14.092 13.001c-.388-3.26-2.364-6.116-5.277-7.629 2.275-1.917 3.109-5.052 2.088-7.846-1.021-2.794-3.679-4.653-6.653-4.653-2.975 0-5.633 1.859-6.653 4.653-1.021 2.794-.186 5.929 2.088 7.846-2.913 1.513-4.889 4.369-5.277 7.629-4.153-4.012-5.456-10.143-3.292-15.497 2.164-5.354 7.36-8.859 13.135-8.859 5.775 0 10.971 3.505 13.135 8.859 2.164 5.354.861 11.485-3.292 15.497z" fill="#69675B" fill-rule="nonzero"/>
    </g>
</svg>