<?xml version="1.0" encoding="UTF-8"?>
<svg width="29px" height="33px" viewBox="0 0 29 33" version="1.1" xmlns="http://www.w3.org/2000/svg" xmlns:xlink="http://www.w3.org/1999/xlink">
    <!-- Generator: sketchtool 51.2 (57519) - http://www.bohemiancoding.com/sketch -->
    <title>Sound Icon</title>
    <defs>
        <path d="M87.6875,26.59375 L83,26.59375 L83,34.40625 L87.6875,34.40625 L87.6875,35.1875 L93.9375,41.4375 L93.9375,19.5625 L87.6875,25.8125 L87.6875,26.59375 L87.6875,26.59375 Z M97.1849132,20.3970115 C102.02842,21.2739794 105.623963,25.502717 105.623963,30.4903945 C105.623963,35.5190008 101.970387,39.7711553 97.0754817,40.6029959 L97.0625,43 C103.240439,42.1573134 108,36.877696 108,30.4903945 C108,24.1498332 103.309842,18.9008038 97.1978949,18 L97.1849132,20.3970115 L97.1849132,20.3970115 Z M97.0625,25.8599702 C97.2538689,25.8286866 97.4494992,25.8125 97.6484375,25.8125 C99.9136679,25.8125 101.75,27.9111652 101.75,30.5 C101.75,33.0888348 99.9136679,35.1875 97.6484375,35.1875 C97.4494992,35.1875 97.2538689,35.1713134 97.0625,35.1400298 L97.0625,25.8599702 L97.0625,25.8599702 Z" id="path-1"></path>
        <filter x="-12.0%" y="-17.1%" width="124.0%" height="134.1%" filterUnits="objectBoundingBox" id="filter-2">
            <feMorphology radius="1" operator="dilate" in="SourceAlpha" result="shadowSpreadOuter1"></feMorphology>
            <feOffset dx="0" dy="0" in="shadowSpreadOuter1" result="shadowOffsetOuter1"></feOffset>
            <feColorMatrix values="0 0 0 0 0   0 0 0 0 0   0 0 0 0 0  0 0 0 0.1 0" type="matrix" in="shadowOffsetOuter1"></feColorMatrix>
        </filter>
    </defs>
    <g id="6.-Video-Player" stroke="none" stroke-width="1" fill="none" fill-rule="evenodd" opacity="0.9">
        <g id="Video-Player-[FWVIDEO001---Tablet]" transform="translate(-281.000000, -518.000000)">
            <g id="Lesson-Content" transform="translate(50.000000, -196.000000)">
                <g id="Video" transform="translate(150.000000, 404.000000)">
                    <g id="Controls" transform="translate(0.000000, 296.000000)">
                        <g id="Sound-icon">
                            <use fill="black" fill-opacity="1" filter="url(#filter-2)" xlink:href="#path-1"></use>
                            <use fill="#FFFFFF" fill-rule="evenodd" xlink:href="#path-1"></use>
                        </g>
                    </g>
                </g>
            </g>
        </g>
    </g>
</svg>