<?xml version="1.0" encoding="UTF-8"?>
<svg width="40px" height="40px" viewBox="0 0 40 40" version="1.1" xmlns="http://www.w3.org/2000/svg" xmlns:xlink="http://www.w3.org/1999/xlink">
    <!-- Generator: sketchtool 51.3 (57544) - http://www.bohemiancoding.com/sketch -->
    <title>E75E9A76-2978-4C2C-ACDB-6F5E60A67BBD</title>
    <desc>Created with sketchtool.</desc>
    <defs></defs>
    <g id="4.-Lessons" stroke="none" stroke-width="1" fill="none" fill-rule="evenodd">
        <g id="Lessons---Audio-Section-Button-Clicked-[FW2LESSON007---Tablet]" transform="translate(-110.000000, -211.000000)">
            <g id="Lesson-Content" transform="translate(93.000000, 211.000000)">
                <g id="Section-1">
                    <g id="Speaker-icon" transform="translate(17.000000, 0.000000)">
                        <circle id="Oval" fill="#61C436" cx="20" cy="20" r="20"></circle>
                        <g id="Speaker" transform="translate(8.571429, 9.285714)" fill="#FFFFFF" fill-rule="nonzero">
                            <path d="M16.1264473,2.86683162 C15.5854161,2.79098912 15.0854206,3.16866731 15.0096762,3.71039947 C14.9339319,4.25213163 15.3111214,4.75277482 15.8521527,4.82861732 C18.7538261,5.2812682 20.8934671,7.78330193 20.8934671,10.7237833 C20.8934671,13.6642647 18.7538261,16.1662985 15.8521527,16.6189493 C15.3165317,16.6968233 14.9453728,17.1947218 15.0231461,17.7310366 C15.1009193,18.2673514 15.5981736,18.6389912 16.1337945,18.5611172 C20.000672,17.9702519 22.8571429,14.640495 22.8571429,10.7237833 C22.8571429,6.80707165 20.000672,3.47731476 16.1337945,2.88644948 L16.1264473,2.86683162 Z" id="Shape"></path>
                            <path d="M15.7433684,13.0948583 C15.2559274,13.2543335 14.9636268,13.7143612 15.0508837,14.1847026 C15.1381406,14.6550439 15.5796285,14.9991817 16.0968058,14.9999939 C16.2172843,15.0003925 16.3369064,14.9813058 16.4502431,14.9435999 C18.092531,14.4066312 19.2857143,12.7932731 19.2857143,11.0769348 C19.2857143,9.36059643 18.092531,7.74478646 16.4502431,7.21026966 C16.0886126,7.07974426 15.6786188,7.14155148 15.3808193,7.371487 C15.0830198,7.60142252 14.9448106,7.9628912 15.0203158,8.31433833 C15.095821,8.66578547 15.3730236,8.95127686 15.7433684,9.05901126 C16.5379381,9.31891392 17.1597753,10.2040541 17.1597753,11.0769348 C17.1597753,11.9498154 16.5379381,12.8349556 15.7433684,13.0948583 Z" id="Shape"></path>
                            <path d="M12.5413967,0.127953259 C11.9186671,-0.132496039 11.2012888,0.0121146861 10.7262265,0.493859348 L6.38338918,4.86277806 L2.90814997,4.86277806 C1.30202309,4.86277806 2.15246337e-16,6.17335195 0,7.79002677 L0,13.6445242 C2.15246337e-16,15.261199 1.30202309,16.5717729 2.90814997,16.5717729 L6.38338918,16.5717729 L10.7262265,20.9406916 C11.0380247,21.2541004 11.4609628,21.4296533 11.9016037,21.4285664 C12.1213171,21.4290262 12.338884,21.3850611 12.5413967,21.2992796 C13.163871,21.0422244 13.5706406,20.4323982 13.5713665,19.7551559 L13.5713665,1.69159195 C13.5772128,1.00765348 13.1695539,0.388770027 12.5413967,0.127953259 Z M11.6325999,19.0940856 L7.47152196,14.9056805 C7.28957151,14.7227386 7.04285706,14.6200702 6.78568326,14.6202738 L2.90814997,14.6202738 C2.37277434,14.6202738 1.93876664,14.1834158 1.93876664,13.6445242 L1.93876664,7.79002677 C1.93876664,7.25113516 2.37277434,6.8142772 2.90814997,6.8142772 L6.78568326,6.8142772 C7.04285706,6.81448076 7.28957151,6.71181234 7.47152196,6.52887045 L11.6325999,2.34046541 L11.6325999,19.0940856 Z" id="Shape"></path>
                        </g>
                    </g>
                </g>
            </g>
        </g>
    </g>
</svg>